%TF.GenerationSoftware,KiCad,Pcbnew,7.0.1*%
%TF.CreationDate,2023-08-23T10:04:30+02:00*%
%TF.ProjectId,K_IO_brd,4b5f494f-5f62-4726-942e-6b696361645f,rev?*%
%TF.SameCoordinates,Original*%
%TF.FileFunction,Drillmap*%
%TF.FilePolarity,Positive*%
%FSLAX45Y45*%
G04 Gerber Fmt 4.5, Leading zero omitted, Abs format (unit mm)*
G04 Created by KiCad (PCBNEW 7.0.1) date 2023-08-23 10:04:30*
%MOMM*%
%LPD*%
G01*
G04 APERTURE LIST*
%ADD10C,0.100000*%
%ADD11C,0.200000*%
%ADD12C,0.040000*%
%ADD13C,0.050000*%
%ADD14C,0.119000*%
%ADD15C,0.270000*%
%ADD16C,0.350000*%
G04 APERTURE END LIST*
D10*
X11000000Y-6000000D02*
X21000000Y-6000000D01*
X21000000Y-16000000D01*
X11000000Y-16000000D01*
X11000000Y-6000000D01*
D11*
D12*
X11480000Y-7480000D02*
X11520000Y-7520000D01*
X11520000Y-7480000D02*
X11480000Y-7520000D01*
X11980000Y-7480000D02*
X12020000Y-7520000D01*
X12020000Y-7480000D02*
X11980000Y-7520000D01*
X11980000Y-13480000D02*
X12020000Y-13520000D01*
X12020000Y-13480000D02*
X11980000Y-13520000D01*
X12480000Y-7480000D02*
X12520000Y-7520000D01*
X12520000Y-7480000D02*
X12480000Y-7520000D01*
X12480000Y-13480000D02*
X12520000Y-13520000D01*
X12520000Y-13480000D02*
X12480000Y-13520000D01*
X12480000Y-13980000D02*
X12520000Y-14020000D01*
X12520000Y-13980000D02*
X12480000Y-14020000D01*
X12480000Y-14480000D02*
X12520000Y-14520000D01*
X12520000Y-14480000D02*
X12480000Y-14520000D01*
X12480000Y-14980000D02*
X12520000Y-15020000D01*
X12520000Y-14980000D02*
X12480000Y-15020000D01*
X12480000Y-15480000D02*
X12520000Y-15520000D01*
X12520000Y-15480000D02*
X12480000Y-15520000D01*
X12530000Y-6530000D02*
X12570000Y-6570000D01*
X12570000Y-6530000D02*
X12530000Y-6570000D01*
X12530000Y-9277000D02*
X12570000Y-9317000D01*
X12570000Y-9277000D02*
X12530000Y-9317000D01*
X12530000Y-10130000D02*
X12570000Y-10170000D01*
X12570000Y-10130000D02*
X12530000Y-10170000D01*
X12580000Y-6730000D02*
X12620000Y-6770000D01*
X12620000Y-6730000D02*
X12580000Y-6770000D01*
X12680000Y-8980000D02*
X12720000Y-9020000D01*
X12720000Y-8980000D02*
X12680000Y-9020000D01*
X12680000Y-12980000D02*
X12720000Y-13020000D01*
X12720000Y-12980000D02*
X12680000Y-13020000D01*
X12680000Y-14280000D02*
X12720000Y-14320000D01*
X12720000Y-14280000D02*
X12680000Y-14320000D01*
X12830000Y-14030000D02*
X12870000Y-14070000D01*
X12870000Y-14030000D02*
X12830000Y-14070000D01*
X12874459Y-9157050D02*
X12914459Y-9197050D01*
X12914459Y-9157050D02*
X12874459Y-9197050D01*
X12880000Y-11480000D02*
X12920000Y-11520000D01*
X12920000Y-11480000D02*
X12880000Y-11520000D01*
X13230000Y-10980000D02*
X13270000Y-11020000D01*
X13270000Y-10980000D02*
X13230000Y-11020000D01*
X13330000Y-10830000D02*
X13370000Y-10870000D01*
X13370000Y-10830000D02*
X13330000Y-10870000D01*
X13382500Y-7280000D02*
X13422500Y-7320000D01*
X13422500Y-7280000D02*
X13382500Y-7320000D01*
X13480000Y-10705000D02*
X13520000Y-10745000D01*
X13520000Y-10705000D02*
X13480000Y-10745000D01*
X13480000Y-11480000D02*
X13520000Y-11520000D01*
X13520000Y-11480000D02*
X13480000Y-11520000D01*
X13631407Y-10585050D02*
X13671407Y-10625050D01*
X13671407Y-10585050D02*
X13631407Y-10625050D01*
X13673049Y-7679200D02*
X13713049Y-7719200D01*
X13713049Y-7679200D02*
X13673049Y-7719200D01*
X13781407Y-7880000D02*
X13821407Y-7920000D01*
X13821407Y-7880000D02*
X13781407Y-7920000D01*
X13781407Y-10465100D02*
X13821407Y-10505100D01*
X13821407Y-10465100D02*
X13781407Y-10505100D01*
X13930000Y-10330000D02*
X13970000Y-10370000D01*
X13970000Y-10330000D02*
X13930000Y-10370000D01*
X13980000Y-11480000D02*
X14020000Y-11520000D01*
X14020000Y-11480000D02*
X13980000Y-11520000D01*
X14280000Y-7280000D02*
X14320000Y-7320000D01*
X14320000Y-7280000D02*
X14280000Y-7320000D01*
X14430000Y-6830000D02*
X14470000Y-6870000D01*
X14470000Y-6830000D02*
X14430000Y-6870000D01*
X14430000Y-11255000D02*
X14470000Y-11295000D01*
X14470000Y-11255000D02*
X14430000Y-11295000D01*
X14480000Y-11480000D02*
X14520000Y-11520000D01*
X14520000Y-11480000D02*
X14480000Y-11520000D01*
X14580000Y-15080000D02*
X14620000Y-15120000D01*
X14620000Y-15080000D02*
X14580000Y-15120000D01*
X14680000Y-6830000D02*
X14720000Y-6870000D01*
X14720000Y-6830000D02*
X14680000Y-6870000D01*
X14680000Y-11085050D02*
X14720000Y-11125050D01*
X14720000Y-11085050D02*
X14680000Y-11125050D01*
X14730000Y-14880000D02*
X14770000Y-14920000D01*
X14770000Y-14880000D02*
X14730000Y-14920000D01*
X14980000Y-6230000D02*
X15020000Y-6270000D01*
X15020000Y-6230000D02*
X14980000Y-6270000D01*
X14980000Y-8030000D02*
X15020000Y-8070000D01*
X15020000Y-8030000D02*
X14980000Y-8070000D01*
X14980000Y-10180000D02*
X15020000Y-10220000D01*
X15020000Y-10180000D02*
X14980000Y-10220000D01*
X14980000Y-11480000D02*
X15020000Y-11520000D01*
X15020000Y-11480000D02*
X14980000Y-11520000D01*
X15480000Y-6230000D02*
X15520000Y-6270000D01*
X15520000Y-6230000D02*
X15480000Y-6270000D01*
X15480000Y-10180000D02*
X15520000Y-10220000D01*
X15520000Y-10180000D02*
X15480000Y-10220000D01*
X15480000Y-11480000D02*
X15520000Y-11520000D01*
X15520000Y-11480000D02*
X15480000Y-11520000D01*
X15480000Y-13380000D02*
X15520000Y-13420000D01*
X15520000Y-13380000D02*
X15480000Y-13420000D01*
X15480000Y-13580000D02*
X15520000Y-13620000D01*
X15520000Y-13580000D02*
X15480000Y-13620000D01*
X15480000Y-13780000D02*
X15520000Y-13820000D01*
X15520000Y-13780000D02*
X15480000Y-13820000D01*
X15526250Y-7030000D02*
X15566250Y-7070000D01*
X15566250Y-7030000D02*
X15526250Y-7070000D01*
X15530000Y-9430000D02*
X15570000Y-9470000D01*
X15570000Y-9430000D02*
X15530000Y-9470000D01*
X15680000Y-13380000D02*
X15720000Y-13420000D01*
X15720000Y-13380000D02*
X15680000Y-13420000D01*
X15680000Y-13580000D02*
X15720000Y-13620000D01*
X15720000Y-13580000D02*
X15680000Y-13620000D01*
X15680000Y-13780000D02*
X15720000Y-13820000D01*
X15720000Y-13780000D02*
X15680000Y-13820000D01*
X15880000Y-13380000D02*
X15920000Y-13420000D01*
X15920000Y-13380000D02*
X15880000Y-13420000D01*
X15880000Y-13580000D02*
X15920000Y-13620000D01*
X15920000Y-13580000D02*
X15880000Y-13620000D01*
X15880000Y-13780000D02*
X15920000Y-13820000D01*
X15920000Y-13780000D02*
X15880000Y-13820000D01*
X15980000Y-6230000D02*
X16020000Y-6270000D01*
X16020000Y-6230000D02*
X15980000Y-6270000D01*
X15980000Y-7980000D02*
X16020000Y-8020000D01*
X16020000Y-7980000D02*
X15980000Y-8020000D01*
X15980000Y-10180000D02*
X16020000Y-10220000D01*
X16020000Y-10180000D02*
X15980000Y-10220000D01*
X15980000Y-11480000D02*
X16020000Y-11520000D01*
X16020000Y-11480000D02*
X15980000Y-11520000D01*
X16480000Y-6230000D02*
X16520000Y-6270000D01*
X16520000Y-6230000D02*
X16480000Y-6270000D01*
X16480000Y-7980000D02*
X16520000Y-8020000D01*
X16520000Y-7980000D02*
X16480000Y-8020000D01*
X16480000Y-10180000D02*
X16520000Y-10220000D01*
X16520000Y-10180000D02*
X16480000Y-10220000D01*
X16480000Y-11480000D02*
X16520000Y-11520000D01*
X16520000Y-11480000D02*
X16480000Y-11520000D01*
X16980000Y-6230000D02*
X17020000Y-6270000D01*
X17020000Y-6230000D02*
X16980000Y-6270000D01*
X16980000Y-7980000D02*
X17020000Y-8020000D01*
X17020000Y-7980000D02*
X16980000Y-8020000D01*
X16980000Y-10180000D02*
X17020000Y-10220000D01*
X17020000Y-10180000D02*
X16980000Y-10220000D01*
X16980000Y-11480000D02*
X17020000Y-11520000D01*
X17020000Y-11480000D02*
X16980000Y-11520000D01*
X17480000Y-6230000D02*
X17520000Y-6270000D01*
X17520000Y-6230000D02*
X17480000Y-6270000D01*
X17480000Y-10130000D02*
X17520000Y-10170000D01*
X17520000Y-10130000D02*
X17480000Y-10170000D01*
X17480000Y-11980000D02*
X17520000Y-12020000D01*
X17520000Y-11980000D02*
X17480000Y-12020000D01*
X17680000Y-8355000D02*
X17720000Y-8395000D01*
X17720000Y-8355000D02*
X17680000Y-8395000D01*
X17864000Y-10130000D02*
X17904000Y-10170000D01*
X17904000Y-10130000D02*
X17864000Y-10170000D01*
X17980000Y-6230000D02*
X18020000Y-6270000D01*
X18020000Y-6230000D02*
X17980000Y-6270000D01*
X17980000Y-12480000D02*
X18020000Y-12520000D01*
X18020000Y-12480000D02*
X17980000Y-12520000D01*
X18105000Y-8205000D02*
X18145000Y-8245000D01*
X18145000Y-8205000D02*
X18105000Y-8245000D01*
X18280000Y-8505000D02*
X18320000Y-8545000D01*
X18320000Y-8505000D02*
X18280000Y-8545000D01*
X18380000Y-10430000D02*
X18420000Y-10470000D01*
X18420000Y-10430000D02*
X18380000Y-10470000D01*
X18380000Y-14680000D02*
X18420000Y-14720000D01*
X18420000Y-14680000D02*
X18380000Y-14720000D01*
X18480000Y-6230000D02*
X18520000Y-6270000D01*
X18520000Y-6230000D02*
X18480000Y-6270000D01*
X18480000Y-12980000D02*
X18520000Y-13020000D01*
X18520000Y-12980000D02*
X18480000Y-13020000D01*
X18630000Y-8505000D02*
X18670000Y-8545000D01*
X18670000Y-8505000D02*
X18630000Y-8545000D01*
X18730000Y-8655000D02*
X18770000Y-8695000D01*
X18770000Y-8655000D02*
X18730000Y-8695000D01*
X18880000Y-10755000D02*
X18920000Y-10795000D01*
X18920000Y-10755000D02*
X18880000Y-10795000D01*
X18980000Y-6230000D02*
X19020000Y-6270000D01*
X19020000Y-6230000D02*
X18980000Y-6270000D01*
X19480000Y-7480000D02*
X19520000Y-7520000D01*
X19520000Y-7480000D02*
X19480000Y-7520000D01*
X19480000Y-13480000D02*
X19520000Y-13520000D01*
X19520000Y-13480000D02*
X19480000Y-13520000D01*
X19480000Y-13980000D02*
X19520000Y-14020000D01*
X19520000Y-13980000D02*
X19480000Y-14020000D01*
X19480000Y-14480000D02*
X19520000Y-14520000D01*
X19520000Y-14480000D02*
X19480000Y-14520000D01*
X19480000Y-14980000D02*
X19520000Y-15020000D01*
X19520000Y-14980000D02*
X19480000Y-15020000D01*
X19480000Y-15480000D02*
X19520000Y-15520000D01*
X19520000Y-15480000D02*
X19480000Y-15520000D01*
X19730000Y-9330000D02*
X19770000Y-9370000D01*
X19770000Y-9330000D02*
X19730000Y-9370000D01*
X19805000Y-12705000D02*
X19845000Y-12745000D01*
X19845000Y-12705000D02*
X19805000Y-12745000D01*
X19880000Y-9130000D02*
X19920000Y-9170000D01*
X19920000Y-9130000D02*
X19880000Y-9170000D01*
X19880000Y-11355000D02*
X19920000Y-11395000D01*
X19920000Y-11355000D02*
X19880000Y-11395000D01*
X19930000Y-12830000D02*
X19970000Y-12870000D01*
X19970000Y-12830000D02*
X19930000Y-12870000D01*
X19980000Y-7480000D02*
X20020000Y-7520000D01*
X20020000Y-7480000D02*
X19980000Y-7520000D01*
X19980000Y-13480000D02*
X20020000Y-13520000D01*
X20020000Y-13480000D02*
X19980000Y-13520000D01*
X20030000Y-9030000D02*
X20070000Y-9070000D01*
X20070000Y-9030000D02*
X20030000Y-9070000D01*
X20055000Y-12955000D02*
X20095000Y-12995000D01*
X20095000Y-12955000D02*
X20055000Y-12995000D01*
X20080000Y-11230000D02*
X20120000Y-11270000D01*
X20120000Y-11230000D02*
X20080000Y-11270000D01*
X20080000Y-11505000D02*
X20120000Y-11545000D01*
X20120000Y-11505000D02*
X20080000Y-11545000D01*
X20130000Y-8505000D02*
X20170000Y-8545000D01*
X20170000Y-8505000D02*
X20130000Y-8545000D01*
X20180000Y-13130000D02*
X20220000Y-13170000D01*
X20220000Y-13130000D02*
X20180000Y-13170000D01*
X20299950Y-8780000D02*
X20339950Y-8820000D01*
X20339950Y-8780000D02*
X20299950Y-8820000D01*
X20455000Y-8355000D02*
X20495000Y-8395000D01*
X20495000Y-8355000D02*
X20455000Y-8395000D01*
X20480000Y-7480000D02*
X20520000Y-7520000D01*
X20520000Y-7480000D02*
X20480000Y-7520000D01*
X20480000Y-13480000D02*
X20520000Y-13520000D01*
X20520000Y-13480000D02*
X20480000Y-13520000D01*
X20580000Y-12480000D02*
X20620000Y-12520000D01*
X20620000Y-12480000D02*
X20580000Y-12520000D01*
X20605000Y-8205000D02*
X20645000Y-8245000D01*
X20645000Y-8205000D02*
X20605000Y-8245000D01*
D13*
X11576884Y-6814384D02*
G75*
G03*
X11576884Y-6814384I-25000J0D01*
G01*
X11576884Y-15314384D02*
G75*
G03*
X11576884Y-15314384I-25000J0D01*
G01*
X11653769Y-6628769D02*
G75*
G03*
X11653769Y-6628769I-25000J0D01*
G01*
X11653769Y-7000000D02*
G75*
G03*
X11653769Y-7000000I-25000J0D01*
G01*
X11653769Y-15128769D02*
G75*
G03*
X11653769Y-15128769I-25000J0D01*
G01*
X11653769Y-15500000D02*
G75*
G03*
X11653769Y-15500000I-25000J0D01*
G01*
X11839384Y-6551884D02*
G75*
G03*
X11839384Y-6551884I-25000J0D01*
G01*
X11839384Y-7076884D02*
G75*
G03*
X11839384Y-7076884I-25000J0D01*
G01*
X11839384Y-15051884D02*
G75*
G03*
X11839384Y-15051884I-25000J0D01*
G01*
X11839384Y-15576884D02*
G75*
G03*
X11839384Y-15576884I-25000J0D01*
G01*
X12025000Y-6628769D02*
G75*
G03*
X12025000Y-6628769I-25000J0D01*
G01*
X12025000Y-7000000D02*
G75*
G03*
X12025000Y-7000000I-25000J0D01*
G01*
X12025000Y-15128769D02*
G75*
G03*
X12025000Y-15128769I-25000J0D01*
G01*
X12025000Y-15500000D02*
G75*
G03*
X12025000Y-15500000I-25000J0D01*
G01*
X12101884Y-6814384D02*
G75*
G03*
X12101884Y-6814384I-25000J0D01*
G01*
X12101884Y-15314384D02*
G75*
G03*
X12101884Y-15314384I-25000J0D01*
G01*
X20076885Y-6814384D02*
G75*
G03*
X20076885Y-6814384I-25000J0D01*
G01*
X20076885Y-15314384D02*
G75*
G03*
X20076885Y-15314384I-25000J0D01*
G01*
X20153769Y-6628769D02*
G75*
G03*
X20153769Y-6628769I-25000J0D01*
G01*
X20153769Y-7000000D02*
G75*
G03*
X20153769Y-7000000I-25000J0D01*
G01*
X20153769Y-15128769D02*
G75*
G03*
X20153769Y-15128769I-25000J0D01*
G01*
X20153769Y-15500000D02*
G75*
G03*
X20153769Y-15500000I-25000J0D01*
G01*
X20339385Y-6551884D02*
G75*
G03*
X20339385Y-6551884I-25000J0D01*
G01*
X20339385Y-7076884D02*
G75*
G03*
X20339385Y-7076884I-25000J0D01*
G01*
X20339385Y-15051884D02*
G75*
G03*
X20339385Y-15051884I-25000J0D01*
G01*
X20339385Y-15576884D02*
G75*
G03*
X20339385Y-15576884I-25000J0D01*
G01*
X20525000Y-6628769D02*
G75*
G03*
X20525000Y-6628769I-25000J0D01*
G01*
X20525000Y-7000000D02*
G75*
G03*
X20525000Y-7000000I-25000J0D01*
G01*
X20525000Y-15128769D02*
G75*
G03*
X20525000Y-15128769I-25000J0D01*
G01*
X20525000Y-15500000D02*
G75*
G03*
X20525000Y-15500000I-25000J0D01*
G01*
X20601885Y-6814384D02*
G75*
G03*
X20601885Y-6814384I-25000J0D01*
G01*
X20601885Y-15314384D02*
G75*
G03*
X20601885Y-15314384I-25000J0D01*
G01*
D10*
X13184000Y-6550000D02*
X13184000Y-6650000D01*
X13134000Y-6600000D02*
X13234000Y-6600000D01*
X13184000Y-6804000D02*
X13184000Y-6904000D01*
X13134000Y-6854000D02*
X13234000Y-6854000D01*
X13184000Y-13750000D02*
X13184000Y-13850000D01*
X13134000Y-13800000D02*
X13234000Y-13800000D01*
X13184000Y-14004000D02*
X13184000Y-14104000D01*
X13134000Y-14054000D02*
X13234000Y-14054000D01*
X13184000Y-15050000D02*
X13184000Y-15150000D01*
X13134000Y-15100000D02*
X13234000Y-15100000D01*
X13184000Y-15304000D02*
X13184000Y-15404000D01*
X13134000Y-15354000D02*
X13234000Y-15354000D01*
X13438000Y-6550000D02*
X13438000Y-6650000D01*
X13388000Y-6600000D02*
X13488000Y-6600000D01*
X13438000Y-6804000D02*
X13438000Y-6904000D01*
X13388000Y-6854000D02*
X13488000Y-6854000D01*
X13438000Y-13750000D02*
X13438000Y-13850000D01*
X13388000Y-13800000D02*
X13488000Y-13800000D01*
X13438000Y-14004000D02*
X13438000Y-14104000D01*
X13388000Y-14054000D02*
X13488000Y-14054000D01*
X13438000Y-15050000D02*
X13438000Y-15150000D01*
X13388000Y-15100000D02*
X13488000Y-15100000D01*
X13438000Y-15304000D02*
X13438000Y-15404000D01*
X13388000Y-15354000D02*
X13488000Y-15354000D01*
X13692000Y-6550000D02*
X13692000Y-6650000D01*
X13642000Y-6600000D02*
X13742000Y-6600000D01*
X13692000Y-6804000D02*
X13692000Y-6904000D01*
X13642000Y-6854000D02*
X13742000Y-6854000D01*
X13692000Y-13750000D02*
X13692000Y-13850000D01*
X13642000Y-13800000D02*
X13742000Y-13800000D01*
X13692000Y-14004000D02*
X13692000Y-14104000D01*
X13642000Y-14054000D02*
X13742000Y-14054000D01*
X13692000Y-15050000D02*
X13692000Y-15150000D01*
X13642000Y-15100000D02*
X13742000Y-15100000D01*
X13692000Y-15304000D02*
X13692000Y-15404000D01*
X13642000Y-15354000D02*
X13742000Y-15354000D01*
X13946000Y-6550000D02*
X13946000Y-6650000D01*
X13896000Y-6600000D02*
X13996000Y-6600000D01*
X13946000Y-6804000D02*
X13946000Y-6904000D01*
X13896000Y-6854000D02*
X13996000Y-6854000D01*
X13946000Y-13750000D02*
X13946000Y-13850000D01*
X13896000Y-13800000D02*
X13996000Y-13800000D01*
X13946000Y-14004000D02*
X13946000Y-14104000D01*
X13896000Y-14054000D02*
X13996000Y-14054000D01*
X13946000Y-15050000D02*
X13946000Y-15150000D01*
X13896000Y-15100000D02*
X13996000Y-15100000D01*
X13946000Y-15304000D02*
X13946000Y-15404000D01*
X13896000Y-15354000D02*
X13996000Y-15354000D01*
X14200000Y-6550000D02*
X14200000Y-6650000D01*
X14150000Y-6600000D02*
X14250000Y-6600000D01*
X14200000Y-6804000D02*
X14200000Y-6904000D01*
X14150000Y-6854000D02*
X14250000Y-6854000D01*
X14200000Y-13750000D02*
X14200000Y-13850000D01*
X14150000Y-13800000D02*
X14250000Y-13800000D01*
X14200000Y-14004000D02*
X14200000Y-14104000D01*
X14150000Y-14054000D02*
X14250000Y-14054000D01*
X14200000Y-15050000D02*
X14200000Y-15150000D01*
X14150000Y-15100000D02*
X14250000Y-15100000D01*
X14200000Y-15304000D02*
X14200000Y-15404000D01*
X14150000Y-15354000D02*
X14250000Y-15354000D01*
X17884000Y-6550000D02*
X17884000Y-6650000D01*
X17834000Y-6600000D02*
X17934000Y-6600000D01*
X17884000Y-6804000D02*
X17884000Y-6904000D01*
X17834000Y-6854000D02*
X17934000Y-6854000D01*
X18138000Y-6550000D02*
X18138000Y-6650000D01*
X18088000Y-6600000D02*
X18188000Y-6600000D01*
X18138000Y-6804000D02*
X18138000Y-6904000D01*
X18088000Y-6854000D02*
X18188000Y-6854000D01*
X18392000Y-6550000D02*
X18392000Y-6650000D01*
X18342000Y-6600000D02*
X18442000Y-6600000D01*
X18392000Y-6804000D02*
X18392000Y-6904000D01*
X18342000Y-6854000D02*
X18442000Y-6854000D01*
X18646000Y-6550000D02*
X18646000Y-6650000D01*
X18596000Y-6600000D02*
X18696000Y-6600000D01*
X18646000Y-6804000D02*
X18646000Y-6904000D01*
X18596000Y-6854000D02*
X18696000Y-6854000D01*
X18900000Y-6550000D02*
X18900000Y-6650000D01*
X18850000Y-6600000D02*
X18950000Y-6600000D01*
X18900000Y-6804000D02*
X18900000Y-6904000D01*
X18850000Y-6854000D02*
X18950000Y-6854000D01*
X19246000Y-9402000D02*
X19246000Y-9502000D01*
X19196000Y-9452000D02*
X19296000Y-9452000D01*
X19246000Y-9656000D02*
X19246000Y-9756000D01*
X19196000Y-9706000D02*
X19296000Y-9706000D01*
X19246000Y-9910000D02*
X19246000Y-10010000D01*
X19196000Y-9960000D02*
X19296000Y-9960000D01*
X19246000Y-10164000D02*
X19246000Y-10264000D01*
X19196000Y-10214000D02*
X19296000Y-10214000D01*
X19246000Y-10418000D02*
X19246000Y-10518000D01*
X19196000Y-10468000D02*
X19296000Y-10468000D01*
X19246000Y-10672000D02*
X19246000Y-10772000D01*
X19196000Y-10722000D02*
X19296000Y-10722000D01*
X19246000Y-10926000D02*
X19246000Y-11026000D01*
X19196000Y-10976000D02*
X19296000Y-10976000D01*
X19246000Y-11180000D02*
X19246000Y-11280000D01*
X19196000Y-11230000D02*
X19296000Y-11230000D01*
X19246000Y-11434000D02*
X19246000Y-11534000D01*
X19196000Y-11484000D02*
X19296000Y-11484000D01*
X19246000Y-11688000D02*
X19246000Y-11788000D01*
X19196000Y-11738000D02*
X19296000Y-11738000D01*
X19246000Y-11942000D02*
X19246000Y-12042000D01*
X19196000Y-11992000D02*
X19296000Y-11992000D01*
X19246000Y-12196000D02*
X19246000Y-12296000D01*
X19196000Y-12246000D02*
X19296000Y-12246000D01*
X19246000Y-12450000D02*
X19246000Y-12550000D01*
X19196000Y-12500000D02*
X19296000Y-12500000D01*
X19500000Y-9402000D02*
X19500000Y-9502000D01*
X19450000Y-9452000D02*
X19550000Y-9452000D01*
X19500000Y-9656000D02*
X19500000Y-9756000D01*
X19450000Y-9706000D02*
X19550000Y-9706000D01*
X19500000Y-9910000D02*
X19500000Y-10010000D01*
X19450000Y-9960000D02*
X19550000Y-9960000D01*
X19500000Y-10164000D02*
X19500000Y-10264000D01*
X19450000Y-10214000D02*
X19550000Y-10214000D01*
X19500000Y-10418000D02*
X19500000Y-10518000D01*
X19450000Y-10468000D02*
X19550000Y-10468000D01*
X19500000Y-10672000D02*
X19500000Y-10772000D01*
X19450000Y-10722000D02*
X19550000Y-10722000D01*
X19500000Y-10926000D02*
X19500000Y-11026000D01*
X19450000Y-10976000D02*
X19550000Y-10976000D01*
X19500000Y-11180000D02*
X19500000Y-11280000D01*
X19450000Y-11230000D02*
X19550000Y-11230000D01*
X19500000Y-11434000D02*
X19500000Y-11534000D01*
X19450000Y-11484000D02*
X19550000Y-11484000D01*
X19500000Y-11688000D02*
X19500000Y-11788000D01*
X19450000Y-11738000D02*
X19550000Y-11738000D01*
X19500000Y-11942000D02*
X19500000Y-12042000D01*
X19450000Y-11992000D02*
X19550000Y-11992000D01*
X19500000Y-12196000D02*
X19500000Y-12296000D01*
X19450000Y-12246000D02*
X19550000Y-12246000D01*
X19500000Y-12450000D02*
X19500000Y-12550000D01*
X19450000Y-12500000D02*
X19550000Y-12500000D01*
D14*
X11683823Y-9596073D02*
X11683823Y-9511927D01*
X11599677Y-9511927D01*
X11599677Y-9596073D01*
X11683823Y-9596073D01*
X11683823Y-9850073D02*
X11683823Y-9765927D01*
X11599677Y-9765927D01*
X11599677Y-9850073D01*
X11683823Y-9850073D01*
X11683823Y-10104073D02*
X11683823Y-10019927D01*
X11599677Y-10019927D01*
X11599677Y-10104073D01*
X11683823Y-10104073D01*
X11683823Y-10358073D02*
X11683823Y-10273927D01*
X11599677Y-10273927D01*
X11599677Y-10358073D01*
X11683823Y-10358073D01*
X11730073Y-8246073D02*
X11730073Y-8161927D01*
X11645927Y-8161927D01*
X11645927Y-8246073D01*
X11730073Y-8246073D01*
X11730073Y-8500073D02*
X11730073Y-8415927D01*
X11645927Y-8415927D01*
X11645927Y-8500073D01*
X11730073Y-8500073D01*
X11730073Y-8754073D02*
X11730073Y-8669927D01*
X11645927Y-8669927D01*
X11645927Y-8754073D01*
X11730073Y-8754073D01*
X11730073Y-9008073D02*
X11730073Y-8923927D01*
X11645927Y-8923927D01*
X11645927Y-9008073D01*
X11730073Y-9008073D01*
X11731823Y-12396073D02*
X11731823Y-12311927D01*
X11647677Y-12311927D01*
X11647677Y-12396073D01*
X11731823Y-12396073D01*
X11731823Y-12650073D02*
X11731823Y-12565927D01*
X11647677Y-12565927D01*
X11647677Y-12650073D01*
X11731823Y-12650073D01*
X11731823Y-12904073D02*
X11731823Y-12819927D01*
X11647677Y-12819927D01*
X11647677Y-12904073D01*
X11731823Y-12904073D01*
X11731823Y-13158073D02*
X11731823Y-13073927D01*
X11647677Y-13073927D01*
X11647677Y-13158073D01*
X11731823Y-13158073D01*
X11733823Y-10996073D02*
X11733823Y-10911927D01*
X11649677Y-10911927D01*
X11649677Y-10996073D01*
X11733823Y-10996073D01*
X11733823Y-11250073D02*
X11733823Y-11165927D01*
X11649677Y-11165927D01*
X11649677Y-11250073D01*
X11733823Y-11250073D01*
X11733823Y-11504073D02*
X11733823Y-11419927D01*
X11649677Y-11419927D01*
X11649677Y-11504073D01*
X11733823Y-11504073D01*
X11733823Y-11758073D02*
X11733823Y-11673927D01*
X11649677Y-11673927D01*
X11649677Y-11758073D01*
X11733823Y-11758073D01*
X14542073Y-12342073D02*
X14542073Y-12257927D01*
X14457927Y-12257927D01*
X14457927Y-12342073D01*
X14542073Y-12342073D01*
X14542073Y-12596073D02*
X14542073Y-12511927D01*
X14457927Y-12511927D01*
X14457927Y-12596073D01*
X14542073Y-12596073D01*
X14542073Y-12850073D02*
X14542073Y-12765927D01*
X14457927Y-12765927D01*
X14457927Y-12850073D01*
X14542073Y-12850073D01*
X15226323Y-6642073D02*
X15226323Y-6557927D01*
X15142177Y-6557927D01*
X15142177Y-6642073D01*
X15226323Y-6642073D01*
X15480323Y-6642073D02*
X15480323Y-6557927D01*
X15396177Y-6557927D01*
X15396177Y-6642073D01*
X15480323Y-6642073D01*
X15536073Y-15440073D02*
X15536073Y-15355927D01*
X15451927Y-15355927D01*
X15451927Y-15440073D01*
X15536073Y-15440073D01*
X15734323Y-6642073D02*
X15734323Y-6557927D01*
X15650177Y-6557927D01*
X15650177Y-6642073D01*
X15734323Y-6642073D01*
X15742073Y-12367073D02*
X15742073Y-12282927D01*
X15657927Y-12282927D01*
X15657927Y-12367073D01*
X15742073Y-12367073D01*
X15742073Y-12621073D02*
X15742073Y-12536927D01*
X15657927Y-12536927D01*
X15657927Y-12621073D01*
X15742073Y-12621073D01*
X15790073Y-15440073D02*
X15790073Y-15355927D01*
X15705927Y-15355927D01*
X15705927Y-15440073D01*
X15790073Y-15440073D01*
X15988323Y-6642073D02*
X15988323Y-6557927D01*
X15904177Y-6557927D01*
X15904177Y-6642073D01*
X15988323Y-6642073D01*
X16044073Y-15440073D02*
X16044073Y-15355927D01*
X15959927Y-15355927D01*
X15959927Y-15440073D01*
X16044073Y-15440073D01*
X16298073Y-15440073D02*
X16298073Y-15355927D01*
X16213927Y-15355927D01*
X16213927Y-15440073D01*
X16298073Y-15440073D01*
X16588073Y-6642073D02*
X16588073Y-6557927D01*
X16503927Y-6557927D01*
X16503927Y-6642073D01*
X16588073Y-6642073D01*
X16842073Y-6642073D02*
X16842073Y-6557927D01*
X16757927Y-6557927D01*
X16757927Y-6642073D01*
X16842073Y-6642073D01*
X17096073Y-6642073D02*
X17096073Y-6557927D01*
X17011927Y-6557927D01*
X17011927Y-6642073D01*
X17096073Y-6642073D01*
X17138073Y-15442073D02*
X17138073Y-15357927D01*
X17053927Y-15357927D01*
X17053927Y-15442073D01*
X17138073Y-15442073D01*
X17392073Y-15442073D02*
X17392073Y-15357927D01*
X17307927Y-15357927D01*
X17307927Y-15442073D01*
X17392073Y-15442073D01*
X17892073Y-15442073D02*
X17892073Y-15357927D01*
X17807927Y-15357927D01*
X17807927Y-15442073D01*
X17892073Y-15442073D01*
X18146073Y-15442073D02*
X18146073Y-15357927D01*
X18061927Y-15357927D01*
X18061927Y-15442073D01*
X18146073Y-15442073D01*
X18400073Y-15442073D02*
X18400073Y-15357927D01*
X18315927Y-15357927D01*
X18315927Y-15442073D01*
X18400073Y-15442073D01*
D15*
X13600000Y-12385000D02*
X13735000Y-12250000D01*
X13600000Y-12115000D01*
X13465000Y-12250000D01*
X13600000Y-12385000D01*
X13600000Y-12885000D02*
X13735000Y-12750000D01*
X13600000Y-12615000D01*
X13465000Y-12750000D01*
X13600000Y-12885000D01*
X17300000Y-13835000D02*
X17435000Y-13700000D01*
X17300000Y-13565000D01*
X17165000Y-13700000D01*
X17300000Y-13835000D01*
X17300000Y-14335000D02*
X17435000Y-14200000D01*
X17300000Y-14065000D01*
X17165000Y-14200000D01*
X17300000Y-14335000D01*
X18400000Y-13835000D02*
X18535000Y-13700000D01*
X18400000Y-13565000D01*
X18265000Y-13700000D01*
X18400000Y-13835000D01*
X18400000Y-14335000D02*
X18535000Y-14200000D01*
X18400000Y-14065000D01*
X18265000Y-14200000D01*
X18400000Y-14335000D01*
D16*
X11639384Y-6639384D02*
X11989384Y-6989384D01*
X11989384Y-6639384D02*
X11639384Y-6989384D01*
X11989384Y-6814384D02*
G75*
G03*
X11989384Y-6814384I-175000J0D01*
G01*
X11639384Y-15139384D02*
X11989384Y-15489384D01*
X11989384Y-15139384D02*
X11639384Y-15489384D01*
X11989384Y-15314384D02*
G75*
G03*
X11989384Y-15314384I-175000J0D01*
G01*
X20139385Y-6639384D02*
X20489385Y-6989384D01*
X20489385Y-6639384D02*
X20139385Y-6989384D01*
X20489385Y-6814384D02*
G75*
G03*
X20489385Y-6814384I-175000J0D01*
G01*
X20139385Y-15139384D02*
X20489385Y-15489384D01*
X20489385Y-15139384D02*
X20139385Y-15489384D01*
X20489385Y-15314384D02*
G75*
G03*
X20489385Y-15314384I-175000J0D01*
G01*
D11*
X11242619Y-16317524D02*
X11242619Y-16117524D01*
X11242619Y-16117524D02*
X11290238Y-16117524D01*
X11290238Y-16117524D02*
X11318809Y-16127048D01*
X11318809Y-16127048D02*
X11337857Y-16146095D01*
X11337857Y-16146095D02*
X11347381Y-16165143D01*
X11347381Y-16165143D02*
X11356905Y-16203238D01*
X11356905Y-16203238D02*
X11356905Y-16231809D01*
X11356905Y-16231809D02*
X11347381Y-16269905D01*
X11347381Y-16269905D02*
X11337857Y-16288952D01*
X11337857Y-16288952D02*
X11318809Y-16308000D01*
X11318809Y-16308000D02*
X11290238Y-16317524D01*
X11290238Y-16317524D02*
X11242619Y-16317524D01*
X11442619Y-16317524D02*
X11442619Y-16184190D01*
X11442619Y-16222286D02*
X11452143Y-16203238D01*
X11452143Y-16203238D02*
X11461667Y-16193714D01*
X11461667Y-16193714D02*
X11480714Y-16184190D01*
X11480714Y-16184190D02*
X11499762Y-16184190D01*
X11566428Y-16317524D02*
X11566428Y-16184190D01*
X11566428Y-16117524D02*
X11556905Y-16127048D01*
X11556905Y-16127048D02*
X11566428Y-16136571D01*
X11566428Y-16136571D02*
X11575952Y-16127048D01*
X11575952Y-16127048D02*
X11566428Y-16117524D01*
X11566428Y-16117524D02*
X11566428Y-16136571D01*
X11690238Y-16317524D02*
X11671190Y-16308000D01*
X11671190Y-16308000D02*
X11661667Y-16288952D01*
X11661667Y-16288952D02*
X11661667Y-16117524D01*
X11795000Y-16317524D02*
X11775952Y-16308000D01*
X11775952Y-16308000D02*
X11766428Y-16288952D01*
X11766428Y-16288952D02*
X11766428Y-16117524D01*
X12023571Y-16317524D02*
X12023571Y-16117524D01*
X12023571Y-16117524D02*
X12090238Y-16260381D01*
X12090238Y-16260381D02*
X12156905Y-16117524D01*
X12156905Y-16117524D02*
X12156905Y-16317524D01*
X12337857Y-16317524D02*
X12337857Y-16212762D01*
X12337857Y-16212762D02*
X12328333Y-16193714D01*
X12328333Y-16193714D02*
X12309286Y-16184190D01*
X12309286Y-16184190D02*
X12271190Y-16184190D01*
X12271190Y-16184190D02*
X12252143Y-16193714D01*
X12337857Y-16308000D02*
X12318809Y-16317524D01*
X12318809Y-16317524D02*
X12271190Y-16317524D01*
X12271190Y-16317524D02*
X12252143Y-16308000D01*
X12252143Y-16308000D02*
X12242619Y-16288952D01*
X12242619Y-16288952D02*
X12242619Y-16269905D01*
X12242619Y-16269905D02*
X12252143Y-16250857D01*
X12252143Y-16250857D02*
X12271190Y-16241333D01*
X12271190Y-16241333D02*
X12318809Y-16241333D01*
X12318809Y-16241333D02*
X12337857Y-16231809D01*
X12433095Y-16184190D02*
X12433095Y-16384190D01*
X12433095Y-16193714D02*
X12452143Y-16184190D01*
X12452143Y-16184190D02*
X12490238Y-16184190D01*
X12490238Y-16184190D02*
X12509286Y-16193714D01*
X12509286Y-16193714D02*
X12518809Y-16203238D01*
X12518809Y-16203238D02*
X12528333Y-16222286D01*
X12528333Y-16222286D02*
X12528333Y-16279428D01*
X12528333Y-16279428D02*
X12518809Y-16298476D01*
X12518809Y-16298476D02*
X12509286Y-16308000D01*
X12509286Y-16308000D02*
X12490238Y-16317524D01*
X12490238Y-16317524D02*
X12452143Y-16317524D01*
X12452143Y-16317524D02*
X12433095Y-16308000D01*
X12614048Y-16298476D02*
X12623571Y-16308000D01*
X12623571Y-16308000D02*
X12614048Y-16317524D01*
X12614048Y-16317524D02*
X12604524Y-16308000D01*
X12604524Y-16308000D02*
X12614048Y-16298476D01*
X12614048Y-16298476D02*
X12614048Y-16317524D01*
X12614048Y-16193714D02*
X12623571Y-16203238D01*
X12623571Y-16203238D02*
X12614048Y-16212762D01*
X12614048Y-16212762D02*
X12604524Y-16203238D01*
X12604524Y-16203238D02*
X12614048Y-16193714D01*
X12614048Y-16193714D02*
X12614048Y-16212762D01*
D12*
X10955000Y-16625000D02*
X10995000Y-16665000D01*
X10995000Y-16625000D02*
X10955000Y-16665000D01*
D11*
X11280714Y-16537524D02*
X11299762Y-16537524D01*
X11299762Y-16537524D02*
X11318809Y-16547048D01*
X11318809Y-16547048D02*
X11328333Y-16556571D01*
X11328333Y-16556571D02*
X11337857Y-16575619D01*
X11337857Y-16575619D02*
X11347381Y-16613714D01*
X11347381Y-16613714D02*
X11347381Y-16661333D01*
X11347381Y-16661333D02*
X11337857Y-16699428D01*
X11337857Y-16699428D02*
X11328333Y-16718476D01*
X11328333Y-16718476D02*
X11318809Y-16728000D01*
X11318809Y-16728000D02*
X11299762Y-16737524D01*
X11299762Y-16737524D02*
X11280714Y-16737524D01*
X11280714Y-16737524D02*
X11261667Y-16728000D01*
X11261667Y-16728000D02*
X11252143Y-16718476D01*
X11252143Y-16718476D02*
X11242619Y-16699428D01*
X11242619Y-16699428D02*
X11233095Y-16661333D01*
X11233095Y-16661333D02*
X11233095Y-16613714D01*
X11233095Y-16613714D02*
X11242619Y-16575619D01*
X11242619Y-16575619D02*
X11252143Y-16556571D01*
X11252143Y-16556571D02*
X11261667Y-16547048D01*
X11261667Y-16547048D02*
X11280714Y-16537524D01*
X11433095Y-16718476D02*
X11442619Y-16728000D01*
X11442619Y-16728000D02*
X11433095Y-16737524D01*
X11433095Y-16737524D02*
X11423571Y-16728000D01*
X11423571Y-16728000D02*
X11433095Y-16718476D01*
X11433095Y-16718476D02*
X11433095Y-16737524D01*
X11614048Y-16604190D02*
X11614048Y-16737524D01*
X11566428Y-16528000D02*
X11518809Y-16670857D01*
X11518809Y-16670857D02*
X11642619Y-16670857D01*
X11756905Y-16537524D02*
X11775952Y-16537524D01*
X11775952Y-16537524D02*
X11795000Y-16547048D01*
X11795000Y-16547048D02*
X11804524Y-16556571D01*
X11804524Y-16556571D02*
X11814048Y-16575619D01*
X11814048Y-16575619D02*
X11823571Y-16613714D01*
X11823571Y-16613714D02*
X11823571Y-16661333D01*
X11823571Y-16661333D02*
X11814048Y-16699428D01*
X11814048Y-16699428D02*
X11804524Y-16718476D01*
X11804524Y-16718476D02*
X11795000Y-16728000D01*
X11795000Y-16728000D02*
X11775952Y-16737524D01*
X11775952Y-16737524D02*
X11756905Y-16737524D01*
X11756905Y-16737524D02*
X11737857Y-16728000D01*
X11737857Y-16728000D02*
X11728333Y-16718476D01*
X11728333Y-16718476D02*
X11718809Y-16699428D01*
X11718809Y-16699428D02*
X11709286Y-16661333D01*
X11709286Y-16661333D02*
X11709286Y-16613714D01*
X11709286Y-16613714D02*
X11718809Y-16575619D01*
X11718809Y-16575619D02*
X11728333Y-16556571D01*
X11728333Y-16556571D02*
X11737857Y-16547048D01*
X11737857Y-16547048D02*
X11756905Y-16537524D01*
X11947381Y-16537524D02*
X11966429Y-16537524D01*
X11966429Y-16537524D02*
X11985476Y-16547048D01*
X11985476Y-16547048D02*
X11995000Y-16556571D01*
X11995000Y-16556571D02*
X12004524Y-16575619D01*
X12004524Y-16575619D02*
X12014048Y-16613714D01*
X12014048Y-16613714D02*
X12014048Y-16661333D01*
X12014048Y-16661333D02*
X12004524Y-16699428D01*
X12004524Y-16699428D02*
X11995000Y-16718476D01*
X11995000Y-16718476D02*
X11985476Y-16728000D01*
X11985476Y-16728000D02*
X11966429Y-16737524D01*
X11966429Y-16737524D02*
X11947381Y-16737524D01*
X11947381Y-16737524D02*
X11928333Y-16728000D01*
X11928333Y-16728000D02*
X11918809Y-16718476D01*
X11918809Y-16718476D02*
X11909286Y-16699428D01*
X11909286Y-16699428D02*
X11899762Y-16661333D01*
X11899762Y-16661333D02*
X11899762Y-16613714D01*
X11899762Y-16613714D02*
X11909286Y-16575619D01*
X11909286Y-16575619D02*
X11918809Y-16556571D01*
X11918809Y-16556571D02*
X11928333Y-16547048D01*
X11928333Y-16547048D02*
X11947381Y-16537524D01*
X12099762Y-16737524D02*
X12099762Y-16604190D01*
X12099762Y-16623238D02*
X12109286Y-16613714D01*
X12109286Y-16613714D02*
X12128333Y-16604190D01*
X12128333Y-16604190D02*
X12156905Y-16604190D01*
X12156905Y-16604190D02*
X12175952Y-16613714D01*
X12175952Y-16613714D02*
X12185476Y-16632762D01*
X12185476Y-16632762D02*
X12185476Y-16737524D01*
X12185476Y-16632762D02*
X12195000Y-16613714D01*
X12195000Y-16613714D02*
X12214048Y-16604190D01*
X12214048Y-16604190D02*
X12242619Y-16604190D01*
X12242619Y-16604190D02*
X12261667Y-16613714D01*
X12261667Y-16613714D02*
X12271190Y-16632762D01*
X12271190Y-16632762D02*
X12271190Y-16737524D01*
X12366429Y-16737524D02*
X12366429Y-16604190D01*
X12366429Y-16623238D02*
X12375952Y-16613714D01*
X12375952Y-16613714D02*
X12395000Y-16604190D01*
X12395000Y-16604190D02*
X12423571Y-16604190D01*
X12423571Y-16604190D02*
X12442619Y-16613714D01*
X12442619Y-16613714D02*
X12452143Y-16632762D01*
X12452143Y-16632762D02*
X12452143Y-16737524D01*
X12452143Y-16632762D02*
X12461667Y-16613714D01*
X12461667Y-16613714D02*
X12480714Y-16604190D01*
X12480714Y-16604190D02*
X12509286Y-16604190D01*
X12509286Y-16604190D02*
X12528333Y-16613714D01*
X12528333Y-16613714D02*
X12537857Y-16632762D01*
X12537857Y-16632762D02*
X12537857Y-16737524D01*
X12928333Y-16528000D02*
X12756905Y-16785143D01*
X13185476Y-16537524D02*
X13204524Y-16537524D01*
X13204524Y-16537524D02*
X13223572Y-16547048D01*
X13223572Y-16547048D02*
X13233095Y-16556571D01*
X13233095Y-16556571D02*
X13242619Y-16575619D01*
X13242619Y-16575619D02*
X13252143Y-16613714D01*
X13252143Y-16613714D02*
X13252143Y-16661333D01*
X13252143Y-16661333D02*
X13242619Y-16699428D01*
X13242619Y-16699428D02*
X13233095Y-16718476D01*
X13233095Y-16718476D02*
X13223572Y-16728000D01*
X13223572Y-16728000D02*
X13204524Y-16737524D01*
X13204524Y-16737524D02*
X13185476Y-16737524D01*
X13185476Y-16737524D02*
X13166429Y-16728000D01*
X13166429Y-16728000D02*
X13156905Y-16718476D01*
X13156905Y-16718476D02*
X13147381Y-16699428D01*
X13147381Y-16699428D02*
X13137857Y-16661333D01*
X13137857Y-16661333D02*
X13137857Y-16613714D01*
X13137857Y-16613714D02*
X13147381Y-16575619D01*
X13147381Y-16575619D02*
X13156905Y-16556571D01*
X13156905Y-16556571D02*
X13166429Y-16547048D01*
X13166429Y-16547048D02*
X13185476Y-16537524D01*
X13337857Y-16718476D02*
X13347381Y-16728000D01*
X13347381Y-16728000D02*
X13337857Y-16737524D01*
X13337857Y-16737524D02*
X13328333Y-16728000D01*
X13328333Y-16728000D02*
X13337857Y-16718476D01*
X13337857Y-16718476D02*
X13337857Y-16737524D01*
X13471191Y-16537524D02*
X13490238Y-16537524D01*
X13490238Y-16537524D02*
X13509286Y-16547048D01*
X13509286Y-16547048D02*
X13518810Y-16556571D01*
X13518810Y-16556571D02*
X13528333Y-16575619D01*
X13528333Y-16575619D02*
X13537857Y-16613714D01*
X13537857Y-16613714D02*
X13537857Y-16661333D01*
X13537857Y-16661333D02*
X13528333Y-16699428D01*
X13528333Y-16699428D02*
X13518810Y-16718476D01*
X13518810Y-16718476D02*
X13509286Y-16728000D01*
X13509286Y-16728000D02*
X13490238Y-16737524D01*
X13490238Y-16737524D02*
X13471191Y-16737524D01*
X13471191Y-16737524D02*
X13452143Y-16728000D01*
X13452143Y-16728000D02*
X13442619Y-16718476D01*
X13442619Y-16718476D02*
X13433095Y-16699428D01*
X13433095Y-16699428D02*
X13423572Y-16661333D01*
X13423572Y-16661333D02*
X13423572Y-16613714D01*
X13423572Y-16613714D02*
X13433095Y-16575619D01*
X13433095Y-16575619D02*
X13442619Y-16556571D01*
X13442619Y-16556571D02*
X13452143Y-16547048D01*
X13452143Y-16547048D02*
X13471191Y-16537524D01*
X13728333Y-16737524D02*
X13614048Y-16737524D01*
X13671191Y-16737524D02*
X13671191Y-16537524D01*
X13671191Y-16537524D02*
X13652143Y-16566095D01*
X13652143Y-16566095D02*
X13633095Y-16585143D01*
X13633095Y-16585143D02*
X13614048Y-16594667D01*
X13909286Y-16537524D02*
X13814048Y-16537524D01*
X13814048Y-16537524D02*
X13804524Y-16632762D01*
X13804524Y-16632762D02*
X13814048Y-16623238D01*
X13814048Y-16623238D02*
X13833095Y-16613714D01*
X13833095Y-16613714D02*
X13880714Y-16613714D01*
X13880714Y-16613714D02*
X13899762Y-16623238D01*
X13899762Y-16623238D02*
X13909286Y-16632762D01*
X13909286Y-16632762D02*
X13918810Y-16651809D01*
X13918810Y-16651809D02*
X13918810Y-16699428D01*
X13918810Y-16699428D02*
X13909286Y-16718476D01*
X13909286Y-16718476D02*
X13899762Y-16728000D01*
X13899762Y-16728000D02*
X13880714Y-16737524D01*
X13880714Y-16737524D02*
X13833095Y-16737524D01*
X13833095Y-16737524D02*
X13814048Y-16728000D01*
X13814048Y-16728000D02*
X13804524Y-16718476D01*
X13985476Y-16537524D02*
X14118810Y-16537524D01*
X14118810Y-16537524D02*
X14033095Y-16737524D01*
X14185476Y-16537524D02*
X14185476Y-16575619D01*
X14261667Y-16537524D02*
X14261667Y-16575619D01*
X14556905Y-16813714D02*
X14547381Y-16804190D01*
X14547381Y-16804190D02*
X14528334Y-16775619D01*
X14528334Y-16775619D02*
X14518810Y-16756571D01*
X14518810Y-16756571D02*
X14509286Y-16728000D01*
X14509286Y-16728000D02*
X14499762Y-16680381D01*
X14499762Y-16680381D02*
X14499762Y-16642286D01*
X14499762Y-16642286D02*
X14509286Y-16594667D01*
X14509286Y-16594667D02*
X14518810Y-16566095D01*
X14518810Y-16566095D02*
X14528334Y-16547048D01*
X14528334Y-16547048D02*
X14547381Y-16518476D01*
X14547381Y-16518476D02*
X14556905Y-16508952D01*
X14737857Y-16737524D02*
X14623572Y-16737524D01*
X14680714Y-16737524D02*
X14680714Y-16537524D01*
X14680714Y-16537524D02*
X14661667Y-16566095D01*
X14661667Y-16566095D02*
X14642619Y-16585143D01*
X14642619Y-16585143D02*
X14623572Y-16594667D01*
X14928334Y-16737524D02*
X14814048Y-16737524D01*
X14871191Y-16737524D02*
X14871191Y-16537524D01*
X14871191Y-16537524D02*
X14852143Y-16566095D01*
X14852143Y-16566095D02*
X14833095Y-16585143D01*
X14833095Y-16585143D02*
X14814048Y-16594667D01*
X15052143Y-16537524D02*
X15071191Y-16537524D01*
X15071191Y-16537524D02*
X15090238Y-16547048D01*
X15090238Y-16547048D02*
X15099762Y-16556571D01*
X15099762Y-16556571D02*
X15109286Y-16575619D01*
X15109286Y-16575619D02*
X15118810Y-16613714D01*
X15118810Y-16613714D02*
X15118810Y-16661333D01*
X15118810Y-16661333D02*
X15109286Y-16699428D01*
X15109286Y-16699428D02*
X15099762Y-16718476D01*
X15099762Y-16718476D02*
X15090238Y-16728000D01*
X15090238Y-16728000D02*
X15071191Y-16737524D01*
X15071191Y-16737524D02*
X15052143Y-16737524D01*
X15052143Y-16737524D02*
X15033095Y-16728000D01*
X15033095Y-16728000D02*
X15023572Y-16718476D01*
X15023572Y-16718476D02*
X15014048Y-16699428D01*
X15014048Y-16699428D02*
X15004524Y-16661333D01*
X15004524Y-16661333D02*
X15004524Y-16613714D01*
X15004524Y-16613714D02*
X15014048Y-16575619D01*
X15014048Y-16575619D02*
X15023572Y-16556571D01*
X15023572Y-16556571D02*
X15033095Y-16547048D01*
X15033095Y-16547048D02*
X15052143Y-16537524D01*
X15356905Y-16737524D02*
X15356905Y-16537524D01*
X15442619Y-16737524D02*
X15442619Y-16632762D01*
X15442619Y-16632762D02*
X15433096Y-16613714D01*
X15433096Y-16613714D02*
X15414048Y-16604190D01*
X15414048Y-16604190D02*
X15385476Y-16604190D01*
X15385476Y-16604190D02*
X15366429Y-16613714D01*
X15366429Y-16613714D02*
X15356905Y-16623238D01*
X15566429Y-16737524D02*
X15547381Y-16728000D01*
X15547381Y-16728000D02*
X15537857Y-16718476D01*
X15537857Y-16718476D02*
X15528334Y-16699428D01*
X15528334Y-16699428D02*
X15528334Y-16642286D01*
X15528334Y-16642286D02*
X15537857Y-16623238D01*
X15537857Y-16623238D02*
X15547381Y-16613714D01*
X15547381Y-16613714D02*
X15566429Y-16604190D01*
X15566429Y-16604190D02*
X15595000Y-16604190D01*
X15595000Y-16604190D02*
X15614048Y-16613714D01*
X15614048Y-16613714D02*
X15623572Y-16623238D01*
X15623572Y-16623238D02*
X15633096Y-16642286D01*
X15633096Y-16642286D02*
X15633096Y-16699428D01*
X15633096Y-16699428D02*
X15623572Y-16718476D01*
X15623572Y-16718476D02*
X15614048Y-16728000D01*
X15614048Y-16728000D02*
X15595000Y-16737524D01*
X15595000Y-16737524D02*
X15566429Y-16737524D01*
X15747381Y-16737524D02*
X15728334Y-16728000D01*
X15728334Y-16728000D02*
X15718810Y-16708952D01*
X15718810Y-16708952D02*
X15718810Y-16537524D01*
X15899762Y-16728000D02*
X15880715Y-16737524D01*
X15880715Y-16737524D02*
X15842619Y-16737524D01*
X15842619Y-16737524D02*
X15823572Y-16728000D01*
X15823572Y-16728000D02*
X15814048Y-16708952D01*
X15814048Y-16708952D02*
X15814048Y-16632762D01*
X15814048Y-16632762D02*
X15823572Y-16613714D01*
X15823572Y-16613714D02*
X15842619Y-16604190D01*
X15842619Y-16604190D02*
X15880715Y-16604190D01*
X15880715Y-16604190D02*
X15899762Y-16613714D01*
X15899762Y-16613714D02*
X15909286Y-16632762D01*
X15909286Y-16632762D02*
X15909286Y-16651809D01*
X15909286Y-16651809D02*
X15814048Y-16670857D01*
X15985477Y-16728000D02*
X16004524Y-16737524D01*
X16004524Y-16737524D02*
X16042619Y-16737524D01*
X16042619Y-16737524D02*
X16061667Y-16728000D01*
X16061667Y-16728000D02*
X16071191Y-16708952D01*
X16071191Y-16708952D02*
X16071191Y-16699428D01*
X16071191Y-16699428D02*
X16061667Y-16680381D01*
X16061667Y-16680381D02*
X16042619Y-16670857D01*
X16042619Y-16670857D02*
X16014048Y-16670857D01*
X16014048Y-16670857D02*
X15995000Y-16661333D01*
X15995000Y-16661333D02*
X15985477Y-16642286D01*
X15985477Y-16642286D02*
X15985477Y-16632762D01*
X15985477Y-16632762D02*
X15995000Y-16613714D01*
X15995000Y-16613714D02*
X16014048Y-16604190D01*
X16014048Y-16604190D02*
X16042619Y-16604190D01*
X16042619Y-16604190D02*
X16061667Y-16613714D01*
X16137858Y-16813714D02*
X16147381Y-16804190D01*
X16147381Y-16804190D02*
X16166429Y-16775619D01*
X16166429Y-16775619D02*
X16175953Y-16756571D01*
X16175953Y-16756571D02*
X16185477Y-16728000D01*
X16185477Y-16728000D02*
X16195000Y-16680381D01*
X16195000Y-16680381D02*
X16195000Y-16642286D01*
X16195000Y-16642286D02*
X16185477Y-16594667D01*
X16185477Y-16594667D02*
X16175953Y-16566095D01*
X16175953Y-16566095D02*
X16166429Y-16547048D01*
X16166429Y-16547048D02*
X16147381Y-16518476D01*
X16147381Y-16518476D02*
X16137858Y-16508952D01*
D13*
X10995000Y-16909000D02*
G75*
G03*
X10995000Y-16909000I-25000J0D01*
G01*
D11*
X11280714Y-16801524D02*
X11299762Y-16801524D01*
X11299762Y-16801524D02*
X11318809Y-16811048D01*
X11318809Y-16811048D02*
X11328333Y-16820571D01*
X11328333Y-16820571D02*
X11337857Y-16839619D01*
X11337857Y-16839619D02*
X11347381Y-16877714D01*
X11347381Y-16877714D02*
X11347381Y-16925333D01*
X11347381Y-16925333D02*
X11337857Y-16963429D01*
X11337857Y-16963429D02*
X11328333Y-16982476D01*
X11328333Y-16982476D02*
X11318809Y-16992000D01*
X11318809Y-16992000D02*
X11299762Y-17001524D01*
X11299762Y-17001524D02*
X11280714Y-17001524D01*
X11280714Y-17001524D02*
X11261667Y-16992000D01*
X11261667Y-16992000D02*
X11252143Y-16982476D01*
X11252143Y-16982476D02*
X11242619Y-16963429D01*
X11242619Y-16963429D02*
X11233095Y-16925333D01*
X11233095Y-16925333D02*
X11233095Y-16877714D01*
X11233095Y-16877714D02*
X11242619Y-16839619D01*
X11242619Y-16839619D02*
X11252143Y-16820571D01*
X11252143Y-16820571D02*
X11261667Y-16811048D01*
X11261667Y-16811048D02*
X11280714Y-16801524D01*
X11433095Y-16982476D02*
X11442619Y-16992000D01*
X11442619Y-16992000D02*
X11433095Y-17001524D01*
X11433095Y-17001524D02*
X11423571Y-16992000D01*
X11423571Y-16992000D02*
X11433095Y-16982476D01*
X11433095Y-16982476D02*
X11433095Y-17001524D01*
X11623571Y-16801524D02*
X11528333Y-16801524D01*
X11528333Y-16801524D02*
X11518809Y-16896762D01*
X11518809Y-16896762D02*
X11528333Y-16887238D01*
X11528333Y-16887238D02*
X11547381Y-16877714D01*
X11547381Y-16877714D02*
X11595000Y-16877714D01*
X11595000Y-16877714D02*
X11614048Y-16887238D01*
X11614048Y-16887238D02*
X11623571Y-16896762D01*
X11623571Y-16896762D02*
X11633095Y-16915810D01*
X11633095Y-16915810D02*
X11633095Y-16963429D01*
X11633095Y-16963429D02*
X11623571Y-16982476D01*
X11623571Y-16982476D02*
X11614048Y-16992000D01*
X11614048Y-16992000D02*
X11595000Y-17001524D01*
X11595000Y-17001524D02*
X11547381Y-17001524D01*
X11547381Y-17001524D02*
X11528333Y-16992000D01*
X11528333Y-16992000D02*
X11518809Y-16982476D01*
X11756905Y-16801524D02*
X11775952Y-16801524D01*
X11775952Y-16801524D02*
X11795000Y-16811048D01*
X11795000Y-16811048D02*
X11804524Y-16820571D01*
X11804524Y-16820571D02*
X11814048Y-16839619D01*
X11814048Y-16839619D02*
X11823571Y-16877714D01*
X11823571Y-16877714D02*
X11823571Y-16925333D01*
X11823571Y-16925333D02*
X11814048Y-16963429D01*
X11814048Y-16963429D02*
X11804524Y-16982476D01*
X11804524Y-16982476D02*
X11795000Y-16992000D01*
X11795000Y-16992000D02*
X11775952Y-17001524D01*
X11775952Y-17001524D02*
X11756905Y-17001524D01*
X11756905Y-17001524D02*
X11737857Y-16992000D01*
X11737857Y-16992000D02*
X11728333Y-16982476D01*
X11728333Y-16982476D02*
X11718809Y-16963429D01*
X11718809Y-16963429D02*
X11709286Y-16925333D01*
X11709286Y-16925333D02*
X11709286Y-16877714D01*
X11709286Y-16877714D02*
X11718809Y-16839619D01*
X11718809Y-16839619D02*
X11728333Y-16820571D01*
X11728333Y-16820571D02*
X11737857Y-16811048D01*
X11737857Y-16811048D02*
X11756905Y-16801524D01*
X11947381Y-16801524D02*
X11966429Y-16801524D01*
X11966429Y-16801524D02*
X11985476Y-16811048D01*
X11985476Y-16811048D02*
X11995000Y-16820571D01*
X11995000Y-16820571D02*
X12004524Y-16839619D01*
X12004524Y-16839619D02*
X12014048Y-16877714D01*
X12014048Y-16877714D02*
X12014048Y-16925333D01*
X12014048Y-16925333D02*
X12004524Y-16963429D01*
X12004524Y-16963429D02*
X11995000Y-16982476D01*
X11995000Y-16982476D02*
X11985476Y-16992000D01*
X11985476Y-16992000D02*
X11966429Y-17001524D01*
X11966429Y-17001524D02*
X11947381Y-17001524D01*
X11947381Y-17001524D02*
X11928333Y-16992000D01*
X11928333Y-16992000D02*
X11918809Y-16982476D01*
X11918809Y-16982476D02*
X11909286Y-16963429D01*
X11909286Y-16963429D02*
X11899762Y-16925333D01*
X11899762Y-16925333D02*
X11899762Y-16877714D01*
X11899762Y-16877714D02*
X11909286Y-16839619D01*
X11909286Y-16839619D02*
X11918809Y-16820571D01*
X11918809Y-16820571D02*
X11928333Y-16811048D01*
X11928333Y-16811048D02*
X11947381Y-16801524D01*
X12099762Y-17001524D02*
X12099762Y-16868190D01*
X12099762Y-16887238D02*
X12109286Y-16877714D01*
X12109286Y-16877714D02*
X12128333Y-16868190D01*
X12128333Y-16868190D02*
X12156905Y-16868190D01*
X12156905Y-16868190D02*
X12175952Y-16877714D01*
X12175952Y-16877714D02*
X12185476Y-16896762D01*
X12185476Y-16896762D02*
X12185476Y-17001524D01*
X12185476Y-16896762D02*
X12195000Y-16877714D01*
X12195000Y-16877714D02*
X12214048Y-16868190D01*
X12214048Y-16868190D02*
X12242619Y-16868190D01*
X12242619Y-16868190D02*
X12261667Y-16877714D01*
X12261667Y-16877714D02*
X12271190Y-16896762D01*
X12271190Y-16896762D02*
X12271190Y-17001524D01*
X12366429Y-17001524D02*
X12366429Y-16868190D01*
X12366429Y-16887238D02*
X12375952Y-16877714D01*
X12375952Y-16877714D02*
X12395000Y-16868190D01*
X12395000Y-16868190D02*
X12423571Y-16868190D01*
X12423571Y-16868190D02*
X12442619Y-16877714D01*
X12442619Y-16877714D02*
X12452143Y-16896762D01*
X12452143Y-16896762D02*
X12452143Y-17001524D01*
X12452143Y-16896762D02*
X12461667Y-16877714D01*
X12461667Y-16877714D02*
X12480714Y-16868190D01*
X12480714Y-16868190D02*
X12509286Y-16868190D01*
X12509286Y-16868190D02*
X12528333Y-16877714D01*
X12528333Y-16877714D02*
X12537857Y-16896762D01*
X12537857Y-16896762D02*
X12537857Y-17001524D01*
X12928333Y-16792000D02*
X12756905Y-17049143D01*
X13185476Y-16801524D02*
X13204524Y-16801524D01*
X13204524Y-16801524D02*
X13223572Y-16811048D01*
X13223572Y-16811048D02*
X13233095Y-16820571D01*
X13233095Y-16820571D02*
X13242619Y-16839619D01*
X13242619Y-16839619D02*
X13252143Y-16877714D01*
X13252143Y-16877714D02*
X13252143Y-16925333D01*
X13252143Y-16925333D02*
X13242619Y-16963429D01*
X13242619Y-16963429D02*
X13233095Y-16982476D01*
X13233095Y-16982476D02*
X13223572Y-16992000D01*
X13223572Y-16992000D02*
X13204524Y-17001524D01*
X13204524Y-17001524D02*
X13185476Y-17001524D01*
X13185476Y-17001524D02*
X13166429Y-16992000D01*
X13166429Y-16992000D02*
X13156905Y-16982476D01*
X13156905Y-16982476D02*
X13147381Y-16963429D01*
X13147381Y-16963429D02*
X13137857Y-16925333D01*
X13137857Y-16925333D02*
X13137857Y-16877714D01*
X13137857Y-16877714D02*
X13147381Y-16839619D01*
X13147381Y-16839619D02*
X13156905Y-16820571D01*
X13156905Y-16820571D02*
X13166429Y-16811048D01*
X13166429Y-16811048D02*
X13185476Y-16801524D01*
X13337857Y-16982476D02*
X13347381Y-16992000D01*
X13347381Y-16992000D02*
X13337857Y-17001524D01*
X13337857Y-17001524D02*
X13328333Y-16992000D01*
X13328333Y-16992000D02*
X13337857Y-16982476D01*
X13337857Y-16982476D02*
X13337857Y-17001524D01*
X13471191Y-16801524D02*
X13490238Y-16801524D01*
X13490238Y-16801524D02*
X13509286Y-16811048D01*
X13509286Y-16811048D02*
X13518810Y-16820571D01*
X13518810Y-16820571D02*
X13528333Y-16839619D01*
X13528333Y-16839619D02*
X13537857Y-16877714D01*
X13537857Y-16877714D02*
X13537857Y-16925333D01*
X13537857Y-16925333D02*
X13528333Y-16963429D01*
X13528333Y-16963429D02*
X13518810Y-16982476D01*
X13518810Y-16982476D02*
X13509286Y-16992000D01*
X13509286Y-16992000D02*
X13490238Y-17001524D01*
X13490238Y-17001524D02*
X13471191Y-17001524D01*
X13471191Y-17001524D02*
X13452143Y-16992000D01*
X13452143Y-16992000D02*
X13442619Y-16982476D01*
X13442619Y-16982476D02*
X13433095Y-16963429D01*
X13433095Y-16963429D02*
X13423572Y-16925333D01*
X13423572Y-16925333D02*
X13423572Y-16877714D01*
X13423572Y-16877714D02*
X13433095Y-16839619D01*
X13433095Y-16839619D02*
X13442619Y-16820571D01*
X13442619Y-16820571D02*
X13452143Y-16811048D01*
X13452143Y-16811048D02*
X13471191Y-16801524D01*
X13728333Y-17001524D02*
X13614048Y-17001524D01*
X13671191Y-17001524D02*
X13671191Y-16801524D01*
X13671191Y-16801524D02*
X13652143Y-16830095D01*
X13652143Y-16830095D02*
X13633095Y-16849143D01*
X13633095Y-16849143D02*
X13614048Y-16858667D01*
X13823572Y-17001524D02*
X13861667Y-17001524D01*
X13861667Y-17001524D02*
X13880714Y-16992000D01*
X13880714Y-16992000D02*
X13890238Y-16982476D01*
X13890238Y-16982476D02*
X13909286Y-16953905D01*
X13909286Y-16953905D02*
X13918810Y-16915810D01*
X13918810Y-16915810D02*
X13918810Y-16839619D01*
X13918810Y-16839619D02*
X13909286Y-16820571D01*
X13909286Y-16820571D02*
X13899762Y-16811048D01*
X13899762Y-16811048D02*
X13880714Y-16801524D01*
X13880714Y-16801524D02*
X13842619Y-16801524D01*
X13842619Y-16801524D02*
X13823572Y-16811048D01*
X13823572Y-16811048D02*
X13814048Y-16820571D01*
X13814048Y-16820571D02*
X13804524Y-16839619D01*
X13804524Y-16839619D02*
X13804524Y-16887238D01*
X13804524Y-16887238D02*
X13814048Y-16906286D01*
X13814048Y-16906286D02*
X13823572Y-16915810D01*
X13823572Y-16915810D02*
X13842619Y-16925333D01*
X13842619Y-16925333D02*
X13880714Y-16925333D01*
X13880714Y-16925333D02*
X13899762Y-16915810D01*
X13899762Y-16915810D02*
X13909286Y-16906286D01*
X13909286Y-16906286D02*
X13918810Y-16887238D01*
X13985476Y-16801524D02*
X14118810Y-16801524D01*
X14118810Y-16801524D02*
X14033095Y-17001524D01*
X14185476Y-16801524D02*
X14185476Y-16839619D01*
X14261667Y-16801524D02*
X14261667Y-16839619D01*
X14556905Y-17077714D02*
X14547381Y-17068190D01*
X14547381Y-17068190D02*
X14528334Y-17039619D01*
X14528334Y-17039619D02*
X14518810Y-17020571D01*
X14518810Y-17020571D02*
X14509286Y-16992000D01*
X14509286Y-16992000D02*
X14499762Y-16944381D01*
X14499762Y-16944381D02*
X14499762Y-16906286D01*
X14499762Y-16906286D02*
X14509286Y-16858667D01*
X14509286Y-16858667D02*
X14518810Y-16830095D01*
X14518810Y-16830095D02*
X14528334Y-16811048D01*
X14528334Y-16811048D02*
X14547381Y-16782476D01*
X14547381Y-16782476D02*
X14556905Y-16772952D01*
X14614048Y-16801524D02*
X14737857Y-16801524D01*
X14737857Y-16801524D02*
X14671191Y-16877714D01*
X14671191Y-16877714D02*
X14699762Y-16877714D01*
X14699762Y-16877714D02*
X14718810Y-16887238D01*
X14718810Y-16887238D02*
X14728334Y-16896762D01*
X14728334Y-16896762D02*
X14737857Y-16915810D01*
X14737857Y-16915810D02*
X14737857Y-16963429D01*
X14737857Y-16963429D02*
X14728334Y-16982476D01*
X14728334Y-16982476D02*
X14718810Y-16992000D01*
X14718810Y-16992000D02*
X14699762Y-17001524D01*
X14699762Y-17001524D02*
X14642619Y-17001524D01*
X14642619Y-17001524D02*
X14623572Y-16992000D01*
X14623572Y-16992000D02*
X14614048Y-16982476D01*
X14814048Y-16820571D02*
X14823572Y-16811048D01*
X14823572Y-16811048D02*
X14842619Y-16801524D01*
X14842619Y-16801524D02*
X14890238Y-16801524D01*
X14890238Y-16801524D02*
X14909286Y-16811048D01*
X14909286Y-16811048D02*
X14918810Y-16820571D01*
X14918810Y-16820571D02*
X14928334Y-16839619D01*
X14928334Y-16839619D02*
X14928334Y-16858667D01*
X14928334Y-16858667D02*
X14918810Y-16887238D01*
X14918810Y-16887238D02*
X14804524Y-17001524D01*
X14804524Y-17001524D02*
X14928334Y-17001524D01*
X15166429Y-17001524D02*
X15166429Y-16801524D01*
X15252143Y-17001524D02*
X15252143Y-16896762D01*
X15252143Y-16896762D02*
X15242619Y-16877714D01*
X15242619Y-16877714D02*
X15223572Y-16868190D01*
X15223572Y-16868190D02*
X15195000Y-16868190D01*
X15195000Y-16868190D02*
X15175953Y-16877714D01*
X15175953Y-16877714D02*
X15166429Y-16887238D01*
X15375953Y-17001524D02*
X15356905Y-16992000D01*
X15356905Y-16992000D02*
X15347381Y-16982476D01*
X15347381Y-16982476D02*
X15337857Y-16963429D01*
X15337857Y-16963429D02*
X15337857Y-16906286D01*
X15337857Y-16906286D02*
X15347381Y-16887238D01*
X15347381Y-16887238D02*
X15356905Y-16877714D01*
X15356905Y-16877714D02*
X15375953Y-16868190D01*
X15375953Y-16868190D02*
X15404524Y-16868190D01*
X15404524Y-16868190D02*
X15423572Y-16877714D01*
X15423572Y-16877714D02*
X15433096Y-16887238D01*
X15433096Y-16887238D02*
X15442619Y-16906286D01*
X15442619Y-16906286D02*
X15442619Y-16963429D01*
X15442619Y-16963429D02*
X15433096Y-16982476D01*
X15433096Y-16982476D02*
X15423572Y-16992000D01*
X15423572Y-16992000D02*
X15404524Y-17001524D01*
X15404524Y-17001524D02*
X15375953Y-17001524D01*
X15556905Y-17001524D02*
X15537857Y-16992000D01*
X15537857Y-16992000D02*
X15528334Y-16972952D01*
X15528334Y-16972952D02*
X15528334Y-16801524D01*
X15709286Y-16992000D02*
X15690238Y-17001524D01*
X15690238Y-17001524D02*
X15652143Y-17001524D01*
X15652143Y-17001524D02*
X15633096Y-16992000D01*
X15633096Y-16992000D02*
X15623572Y-16972952D01*
X15623572Y-16972952D02*
X15623572Y-16896762D01*
X15623572Y-16896762D02*
X15633096Y-16877714D01*
X15633096Y-16877714D02*
X15652143Y-16868190D01*
X15652143Y-16868190D02*
X15690238Y-16868190D01*
X15690238Y-16868190D02*
X15709286Y-16877714D01*
X15709286Y-16877714D02*
X15718810Y-16896762D01*
X15718810Y-16896762D02*
X15718810Y-16915810D01*
X15718810Y-16915810D02*
X15623572Y-16934857D01*
X15795000Y-16992000D02*
X15814048Y-17001524D01*
X15814048Y-17001524D02*
X15852143Y-17001524D01*
X15852143Y-17001524D02*
X15871191Y-16992000D01*
X15871191Y-16992000D02*
X15880715Y-16972952D01*
X15880715Y-16972952D02*
X15880715Y-16963429D01*
X15880715Y-16963429D02*
X15871191Y-16944381D01*
X15871191Y-16944381D02*
X15852143Y-16934857D01*
X15852143Y-16934857D02*
X15823572Y-16934857D01*
X15823572Y-16934857D02*
X15804524Y-16925333D01*
X15804524Y-16925333D02*
X15795000Y-16906286D01*
X15795000Y-16906286D02*
X15795000Y-16896762D01*
X15795000Y-16896762D02*
X15804524Y-16877714D01*
X15804524Y-16877714D02*
X15823572Y-16868190D01*
X15823572Y-16868190D02*
X15852143Y-16868190D01*
X15852143Y-16868190D02*
X15871191Y-16877714D01*
X15947381Y-17077714D02*
X15956905Y-17068190D01*
X15956905Y-17068190D02*
X15975953Y-17039619D01*
X15975953Y-17039619D02*
X15985477Y-17020571D01*
X15985477Y-17020571D02*
X15995000Y-16992000D01*
X15995000Y-16992000D02*
X16004524Y-16944381D01*
X16004524Y-16944381D02*
X16004524Y-16906286D01*
X16004524Y-16906286D02*
X15995000Y-16858667D01*
X15995000Y-16858667D02*
X15985477Y-16830095D01*
X15985477Y-16830095D02*
X15975953Y-16811048D01*
X15975953Y-16811048D02*
X15956905Y-16782476D01*
X15956905Y-16782476D02*
X15947381Y-16772952D01*
D10*
X10945000Y-17123000D02*
X10945000Y-17223000D01*
X10895000Y-17173000D02*
X10995000Y-17173000D01*
D11*
X11347381Y-17265524D02*
X11233095Y-17265524D01*
X11290238Y-17265524D02*
X11290238Y-17065524D01*
X11290238Y-17065524D02*
X11271190Y-17094095D01*
X11271190Y-17094095D02*
X11252143Y-17113143D01*
X11252143Y-17113143D02*
X11233095Y-17122667D01*
X11433095Y-17246476D02*
X11442619Y-17256000D01*
X11442619Y-17256000D02*
X11433095Y-17265524D01*
X11433095Y-17265524D02*
X11423571Y-17256000D01*
X11423571Y-17256000D02*
X11433095Y-17246476D01*
X11433095Y-17246476D02*
X11433095Y-17265524D01*
X11566428Y-17065524D02*
X11585476Y-17065524D01*
X11585476Y-17065524D02*
X11604524Y-17075048D01*
X11604524Y-17075048D02*
X11614048Y-17084571D01*
X11614048Y-17084571D02*
X11623571Y-17103619D01*
X11623571Y-17103619D02*
X11633095Y-17141714D01*
X11633095Y-17141714D02*
X11633095Y-17189333D01*
X11633095Y-17189333D02*
X11623571Y-17227429D01*
X11623571Y-17227429D02*
X11614048Y-17246476D01*
X11614048Y-17246476D02*
X11604524Y-17256000D01*
X11604524Y-17256000D02*
X11585476Y-17265524D01*
X11585476Y-17265524D02*
X11566428Y-17265524D01*
X11566428Y-17265524D02*
X11547381Y-17256000D01*
X11547381Y-17256000D02*
X11537857Y-17246476D01*
X11537857Y-17246476D02*
X11528333Y-17227429D01*
X11528333Y-17227429D02*
X11518809Y-17189333D01*
X11518809Y-17189333D02*
X11518809Y-17141714D01*
X11518809Y-17141714D02*
X11528333Y-17103619D01*
X11528333Y-17103619D02*
X11537857Y-17084571D01*
X11537857Y-17084571D02*
X11547381Y-17075048D01*
X11547381Y-17075048D02*
X11566428Y-17065524D01*
X11756905Y-17065524D02*
X11775952Y-17065524D01*
X11775952Y-17065524D02*
X11795000Y-17075048D01*
X11795000Y-17075048D02*
X11804524Y-17084571D01*
X11804524Y-17084571D02*
X11814048Y-17103619D01*
X11814048Y-17103619D02*
X11823571Y-17141714D01*
X11823571Y-17141714D02*
X11823571Y-17189333D01*
X11823571Y-17189333D02*
X11814048Y-17227429D01*
X11814048Y-17227429D02*
X11804524Y-17246476D01*
X11804524Y-17246476D02*
X11795000Y-17256000D01*
X11795000Y-17256000D02*
X11775952Y-17265524D01*
X11775952Y-17265524D02*
X11756905Y-17265524D01*
X11756905Y-17265524D02*
X11737857Y-17256000D01*
X11737857Y-17256000D02*
X11728333Y-17246476D01*
X11728333Y-17246476D02*
X11718809Y-17227429D01*
X11718809Y-17227429D02*
X11709286Y-17189333D01*
X11709286Y-17189333D02*
X11709286Y-17141714D01*
X11709286Y-17141714D02*
X11718809Y-17103619D01*
X11718809Y-17103619D02*
X11728333Y-17084571D01*
X11728333Y-17084571D02*
X11737857Y-17075048D01*
X11737857Y-17075048D02*
X11756905Y-17065524D01*
X11947381Y-17065524D02*
X11966429Y-17065524D01*
X11966429Y-17065524D02*
X11985476Y-17075048D01*
X11985476Y-17075048D02*
X11995000Y-17084571D01*
X11995000Y-17084571D02*
X12004524Y-17103619D01*
X12004524Y-17103619D02*
X12014048Y-17141714D01*
X12014048Y-17141714D02*
X12014048Y-17189333D01*
X12014048Y-17189333D02*
X12004524Y-17227429D01*
X12004524Y-17227429D02*
X11995000Y-17246476D01*
X11995000Y-17246476D02*
X11985476Y-17256000D01*
X11985476Y-17256000D02*
X11966429Y-17265524D01*
X11966429Y-17265524D02*
X11947381Y-17265524D01*
X11947381Y-17265524D02*
X11928333Y-17256000D01*
X11928333Y-17256000D02*
X11918809Y-17246476D01*
X11918809Y-17246476D02*
X11909286Y-17227429D01*
X11909286Y-17227429D02*
X11899762Y-17189333D01*
X11899762Y-17189333D02*
X11899762Y-17141714D01*
X11899762Y-17141714D02*
X11909286Y-17103619D01*
X11909286Y-17103619D02*
X11918809Y-17084571D01*
X11918809Y-17084571D02*
X11928333Y-17075048D01*
X11928333Y-17075048D02*
X11947381Y-17065524D01*
X12099762Y-17265524D02*
X12099762Y-17132190D01*
X12099762Y-17151238D02*
X12109286Y-17141714D01*
X12109286Y-17141714D02*
X12128333Y-17132190D01*
X12128333Y-17132190D02*
X12156905Y-17132190D01*
X12156905Y-17132190D02*
X12175952Y-17141714D01*
X12175952Y-17141714D02*
X12185476Y-17160762D01*
X12185476Y-17160762D02*
X12185476Y-17265524D01*
X12185476Y-17160762D02*
X12195000Y-17141714D01*
X12195000Y-17141714D02*
X12214048Y-17132190D01*
X12214048Y-17132190D02*
X12242619Y-17132190D01*
X12242619Y-17132190D02*
X12261667Y-17141714D01*
X12261667Y-17141714D02*
X12271190Y-17160762D01*
X12271190Y-17160762D02*
X12271190Y-17265524D01*
X12366429Y-17265524D02*
X12366429Y-17132190D01*
X12366429Y-17151238D02*
X12375952Y-17141714D01*
X12375952Y-17141714D02*
X12395000Y-17132190D01*
X12395000Y-17132190D02*
X12423571Y-17132190D01*
X12423571Y-17132190D02*
X12442619Y-17141714D01*
X12442619Y-17141714D02*
X12452143Y-17160762D01*
X12452143Y-17160762D02*
X12452143Y-17265524D01*
X12452143Y-17160762D02*
X12461667Y-17141714D01*
X12461667Y-17141714D02*
X12480714Y-17132190D01*
X12480714Y-17132190D02*
X12509286Y-17132190D01*
X12509286Y-17132190D02*
X12528333Y-17141714D01*
X12528333Y-17141714D02*
X12537857Y-17160762D01*
X12537857Y-17160762D02*
X12537857Y-17265524D01*
X12928333Y-17056000D02*
X12756905Y-17313143D01*
X13185476Y-17065524D02*
X13204524Y-17065524D01*
X13204524Y-17065524D02*
X13223572Y-17075048D01*
X13223572Y-17075048D02*
X13233095Y-17084571D01*
X13233095Y-17084571D02*
X13242619Y-17103619D01*
X13242619Y-17103619D02*
X13252143Y-17141714D01*
X13252143Y-17141714D02*
X13252143Y-17189333D01*
X13252143Y-17189333D02*
X13242619Y-17227429D01*
X13242619Y-17227429D02*
X13233095Y-17246476D01*
X13233095Y-17246476D02*
X13223572Y-17256000D01*
X13223572Y-17256000D02*
X13204524Y-17265524D01*
X13204524Y-17265524D02*
X13185476Y-17265524D01*
X13185476Y-17265524D02*
X13166429Y-17256000D01*
X13166429Y-17256000D02*
X13156905Y-17246476D01*
X13156905Y-17246476D02*
X13147381Y-17227429D01*
X13147381Y-17227429D02*
X13137857Y-17189333D01*
X13137857Y-17189333D02*
X13137857Y-17141714D01*
X13137857Y-17141714D02*
X13147381Y-17103619D01*
X13147381Y-17103619D02*
X13156905Y-17084571D01*
X13156905Y-17084571D02*
X13166429Y-17075048D01*
X13166429Y-17075048D02*
X13185476Y-17065524D01*
X13337857Y-17246476D02*
X13347381Y-17256000D01*
X13347381Y-17256000D02*
X13337857Y-17265524D01*
X13337857Y-17265524D02*
X13328333Y-17256000D01*
X13328333Y-17256000D02*
X13337857Y-17246476D01*
X13337857Y-17246476D02*
X13337857Y-17265524D01*
X13471191Y-17065524D02*
X13490238Y-17065524D01*
X13490238Y-17065524D02*
X13509286Y-17075048D01*
X13509286Y-17075048D02*
X13518810Y-17084571D01*
X13518810Y-17084571D02*
X13528333Y-17103619D01*
X13528333Y-17103619D02*
X13537857Y-17141714D01*
X13537857Y-17141714D02*
X13537857Y-17189333D01*
X13537857Y-17189333D02*
X13528333Y-17227429D01*
X13528333Y-17227429D02*
X13518810Y-17246476D01*
X13518810Y-17246476D02*
X13509286Y-17256000D01*
X13509286Y-17256000D02*
X13490238Y-17265524D01*
X13490238Y-17265524D02*
X13471191Y-17265524D01*
X13471191Y-17265524D02*
X13452143Y-17256000D01*
X13452143Y-17256000D02*
X13442619Y-17246476D01*
X13442619Y-17246476D02*
X13433095Y-17227429D01*
X13433095Y-17227429D02*
X13423572Y-17189333D01*
X13423572Y-17189333D02*
X13423572Y-17141714D01*
X13423572Y-17141714D02*
X13433095Y-17103619D01*
X13433095Y-17103619D02*
X13442619Y-17084571D01*
X13442619Y-17084571D02*
X13452143Y-17075048D01*
X13452143Y-17075048D02*
X13471191Y-17065524D01*
X13604524Y-17065524D02*
X13728333Y-17065524D01*
X13728333Y-17065524D02*
X13661667Y-17141714D01*
X13661667Y-17141714D02*
X13690238Y-17141714D01*
X13690238Y-17141714D02*
X13709286Y-17151238D01*
X13709286Y-17151238D02*
X13718810Y-17160762D01*
X13718810Y-17160762D02*
X13728333Y-17179810D01*
X13728333Y-17179810D02*
X13728333Y-17227429D01*
X13728333Y-17227429D02*
X13718810Y-17246476D01*
X13718810Y-17246476D02*
X13709286Y-17256000D01*
X13709286Y-17256000D02*
X13690238Y-17265524D01*
X13690238Y-17265524D02*
X13633095Y-17265524D01*
X13633095Y-17265524D02*
X13614048Y-17256000D01*
X13614048Y-17256000D02*
X13604524Y-17246476D01*
X13823572Y-17265524D02*
X13861667Y-17265524D01*
X13861667Y-17265524D02*
X13880714Y-17256000D01*
X13880714Y-17256000D02*
X13890238Y-17246476D01*
X13890238Y-17246476D02*
X13909286Y-17217905D01*
X13909286Y-17217905D02*
X13918810Y-17179810D01*
X13918810Y-17179810D02*
X13918810Y-17103619D01*
X13918810Y-17103619D02*
X13909286Y-17084571D01*
X13909286Y-17084571D02*
X13899762Y-17075048D01*
X13899762Y-17075048D02*
X13880714Y-17065524D01*
X13880714Y-17065524D02*
X13842619Y-17065524D01*
X13842619Y-17065524D02*
X13823572Y-17075048D01*
X13823572Y-17075048D02*
X13814048Y-17084571D01*
X13814048Y-17084571D02*
X13804524Y-17103619D01*
X13804524Y-17103619D02*
X13804524Y-17151238D01*
X13804524Y-17151238D02*
X13814048Y-17170286D01*
X13814048Y-17170286D02*
X13823572Y-17179810D01*
X13823572Y-17179810D02*
X13842619Y-17189333D01*
X13842619Y-17189333D02*
X13880714Y-17189333D01*
X13880714Y-17189333D02*
X13899762Y-17179810D01*
X13899762Y-17179810D02*
X13909286Y-17170286D01*
X13909286Y-17170286D02*
X13918810Y-17151238D01*
X14090238Y-17132190D02*
X14090238Y-17265524D01*
X14042619Y-17056000D02*
X13995000Y-17198857D01*
X13995000Y-17198857D02*
X14118810Y-17198857D01*
X14185476Y-17065524D02*
X14185476Y-17103619D01*
X14261667Y-17065524D02*
X14261667Y-17103619D01*
X14556905Y-17341714D02*
X14547381Y-17332190D01*
X14547381Y-17332190D02*
X14528334Y-17303619D01*
X14528334Y-17303619D02*
X14518810Y-17284571D01*
X14518810Y-17284571D02*
X14509286Y-17256000D01*
X14509286Y-17256000D02*
X14499762Y-17208381D01*
X14499762Y-17208381D02*
X14499762Y-17170286D01*
X14499762Y-17170286D02*
X14509286Y-17122667D01*
X14509286Y-17122667D02*
X14518810Y-17094095D01*
X14518810Y-17094095D02*
X14528334Y-17075048D01*
X14528334Y-17075048D02*
X14547381Y-17046476D01*
X14547381Y-17046476D02*
X14556905Y-17036952D01*
X14718810Y-17065524D02*
X14680714Y-17065524D01*
X14680714Y-17065524D02*
X14661667Y-17075048D01*
X14661667Y-17075048D02*
X14652143Y-17084571D01*
X14652143Y-17084571D02*
X14633095Y-17113143D01*
X14633095Y-17113143D02*
X14623572Y-17151238D01*
X14623572Y-17151238D02*
X14623572Y-17227429D01*
X14623572Y-17227429D02*
X14633095Y-17246476D01*
X14633095Y-17246476D02*
X14642619Y-17256000D01*
X14642619Y-17256000D02*
X14661667Y-17265524D01*
X14661667Y-17265524D02*
X14699762Y-17265524D01*
X14699762Y-17265524D02*
X14718810Y-17256000D01*
X14718810Y-17256000D02*
X14728334Y-17246476D01*
X14728334Y-17246476D02*
X14737857Y-17227429D01*
X14737857Y-17227429D02*
X14737857Y-17179810D01*
X14737857Y-17179810D02*
X14728334Y-17160762D01*
X14728334Y-17160762D02*
X14718810Y-17151238D01*
X14718810Y-17151238D02*
X14699762Y-17141714D01*
X14699762Y-17141714D02*
X14661667Y-17141714D01*
X14661667Y-17141714D02*
X14642619Y-17151238D01*
X14642619Y-17151238D02*
X14633095Y-17160762D01*
X14633095Y-17160762D02*
X14623572Y-17179810D01*
X14909286Y-17065524D02*
X14871191Y-17065524D01*
X14871191Y-17065524D02*
X14852143Y-17075048D01*
X14852143Y-17075048D02*
X14842619Y-17084571D01*
X14842619Y-17084571D02*
X14823572Y-17113143D01*
X14823572Y-17113143D02*
X14814048Y-17151238D01*
X14814048Y-17151238D02*
X14814048Y-17227429D01*
X14814048Y-17227429D02*
X14823572Y-17246476D01*
X14823572Y-17246476D02*
X14833095Y-17256000D01*
X14833095Y-17256000D02*
X14852143Y-17265524D01*
X14852143Y-17265524D02*
X14890238Y-17265524D01*
X14890238Y-17265524D02*
X14909286Y-17256000D01*
X14909286Y-17256000D02*
X14918810Y-17246476D01*
X14918810Y-17246476D02*
X14928334Y-17227429D01*
X14928334Y-17227429D02*
X14928334Y-17179810D01*
X14928334Y-17179810D02*
X14918810Y-17160762D01*
X14918810Y-17160762D02*
X14909286Y-17151238D01*
X14909286Y-17151238D02*
X14890238Y-17141714D01*
X14890238Y-17141714D02*
X14852143Y-17141714D01*
X14852143Y-17141714D02*
X14833095Y-17151238D01*
X14833095Y-17151238D02*
X14823572Y-17160762D01*
X14823572Y-17160762D02*
X14814048Y-17179810D01*
X15166429Y-17265524D02*
X15166429Y-17065524D01*
X15252143Y-17265524D02*
X15252143Y-17160762D01*
X15252143Y-17160762D02*
X15242619Y-17141714D01*
X15242619Y-17141714D02*
X15223572Y-17132190D01*
X15223572Y-17132190D02*
X15195000Y-17132190D01*
X15195000Y-17132190D02*
X15175953Y-17141714D01*
X15175953Y-17141714D02*
X15166429Y-17151238D01*
X15375953Y-17265524D02*
X15356905Y-17256000D01*
X15356905Y-17256000D02*
X15347381Y-17246476D01*
X15347381Y-17246476D02*
X15337857Y-17227429D01*
X15337857Y-17227429D02*
X15337857Y-17170286D01*
X15337857Y-17170286D02*
X15347381Y-17151238D01*
X15347381Y-17151238D02*
X15356905Y-17141714D01*
X15356905Y-17141714D02*
X15375953Y-17132190D01*
X15375953Y-17132190D02*
X15404524Y-17132190D01*
X15404524Y-17132190D02*
X15423572Y-17141714D01*
X15423572Y-17141714D02*
X15433096Y-17151238D01*
X15433096Y-17151238D02*
X15442619Y-17170286D01*
X15442619Y-17170286D02*
X15442619Y-17227429D01*
X15442619Y-17227429D02*
X15433096Y-17246476D01*
X15433096Y-17246476D02*
X15423572Y-17256000D01*
X15423572Y-17256000D02*
X15404524Y-17265524D01*
X15404524Y-17265524D02*
X15375953Y-17265524D01*
X15556905Y-17265524D02*
X15537857Y-17256000D01*
X15537857Y-17256000D02*
X15528334Y-17236952D01*
X15528334Y-17236952D02*
X15528334Y-17065524D01*
X15709286Y-17256000D02*
X15690238Y-17265524D01*
X15690238Y-17265524D02*
X15652143Y-17265524D01*
X15652143Y-17265524D02*
X15633096Y-17256000D01*
X15633096Y-17256000D02*
X15623572Y-17236952D01*
X15623572Y-17236952D02*
X15623572Y-17160762D01*
X15623572Y-17160762D02*
X15633096Y-17141714D01*
X15633096Y-17141714D02*
X15652143Y-17132190D01*
X15652143Y-17132190D02*
X15690238Y-17132190D01*
X15690238Y-17132190D02*
X15709286Y-17141714D01*
X15709286Y-17141714D02*
X15718810Y-17160762D01*
X15718810Y-17160762D02*
X15718810Y-17179810D01*
X15718810Y-17179810D02*
X15623572Y-17198857D01*
X15795000Y-17256000D02*
X15814048Y-17265524D01*
X15814048Y-17265524D02*
X15852143Y-17265524D01*
X15852143Y-17265524D02*
X15871191Y-17256000D01*
X15871191Y-17256000D02*
X15880715Y-17236952D01*
X15880715Y-17236952D02*
X15880715Y-17227429D01*
X15880715Y-17227429D02*
X15871191Y-17208381D01*
X15871191Y-17208381D02*
X15852143Y-17198857D01*
X15852143Y-17198857D02*
X15823572Y-17198857D01*
X15823572Y-17198857D02*
X15804524Y-17189333D01*
X15804524Y-17189333D02*
X15795000Y-17170286D01*
X15795000Y-17170286D02*
X15795000Y-17160762D01*
X15795000Y-17160762D02*
X15804524Y-17141714D01*
X15804524Y-17141714D02*
X15823572Y-17132190D01*
X15823572Y-17132190D02*
X15852143Y-17132190D01*
X15852143Y-17132190D02*
X15871191Y-17141714D01*
X15947381Y-17341714D02*
X15956905Y-17332190D01*
X15956905Y-17332190D02*
X15975953Y-17303619D01*
X15975953Y-17303619D02*
X15985477Y-17284571D01*
X15985477Y-17284571D02*
X15995000Y-17256000D01*
X15995000Y-17256000D02*
X16004524Y-17208381D01*
X16004524Y-17208381D02*
X16004524Y-17170286D01*
X16004524Y-17170286D02*
X15995000Y-17122667D01*
X15995000Y-17122667D02*
X15985477Y-17094095D01*
X15985477Y-17094095D02*
X15975953Y-17075048D01*
X15975953Y-17075048D02*
X15956905Y-17046476D01*
X15956905Y-17046476D02*
X15947381Y-17036952D01*
D14*
X10977573Y-17479073D02*
X10977573Y-17394927D01*
X10893427Y-17394927D01*
X10893427Y-17479073D01*
X10977573Y-17479073D01*
D11*
X11347381Y-17529524D02*
X11233095Y-17529524D01*
X11290238Y-17529524D02*
X11290238Y-17329524D01*
X11290238Y-17329524D02*
X11271190Y-17358095D01*
X11271190Y-17358095D02*
X11252143Y-17377143D01*
X11252143Y-17377143D02*
X11233095Y-17386667D01*
X11433095Y-17510476D02*
X11442619Y-17520000D01*
X11442619Y-17520000D02*
X11433095Y-17529524D01*
X11433095Y-17529524D02*
X11423571Y-17520000D01*
X11423571Y-17520000D02*
X11433095Y-17510476D01*
X11433095Y-17510476D02*
X11433095Y-17529524D01*
X11633095Y-17529524D02*
X11518809Y-17529524D01*
X11575952Y-17529524D02*
X11575952Y-17329524D01*
X11575952Y-17329524D02*
X11556905Y-17358095D01*
X11556905Y-17358095D02*
X11537857Y-17377143D01*
X11537857Y-17377143D02*
X11518809Y-17386667D01*
X11728333Y-17529524D02*
X11766428Y-17529524D01*
X11766428Y-17529524D02*
X11785476Y-17520000D01*
X11785476Y-17520000D02*
X11795000Y-17510476D01*
X11795000Y-17510476D02*
X11814048Y-17481905D01*
X11814048Y-17481905D02*
X11823571Y-17443810D01*
X11823571Y-17443810D02*
X11823571Y-17367619D01*
X11823571Y-17367619D02*
X11814048Y-17348571D01*
X11814048Y-17348571D02*
X11804524Y-17339048D01*
X11804524Y-17339048D02*
X11785476Y-17329524D01*
X11785476Y-17329524D02*
X11747381Y-17329524D01*
X11747381Y-17329524D02*
X11728333Y-17339048D01*
X11728333Y-17339048D02*
X11718809Y-17348571D01*
X11718809Y-17348571D02*
X11709286Y-17367619D01*
X11709286Y-17367619D02*
X11709286Y-17415238D01*
X11709286Y-17415238D02*
X11718809Y-17434286D01*
X11718809Y-17434286D02*
X11728333Y-17443810D01*
X11728333Y-17443810D02*
X11747381Y-17453333D01*
X11747381Y-17453333D02*
X11785476Y-17453333D01*
X11785476Y-17453333D02*
X11804524Y-17443810D01*
X11804524Y-17443810D02*
X11814048Y-17434286D01*
X11814048Y-17434286D02*
X11823571Y-17415238D01*
X11947381Y-17329524D02*
X11966429Y-17329524D01*
X11966429Y-17329524D02*
X11985476Y-17339048D01*
X11985476Y-17339048D02*
X11995000Y-17348571D01*
X11995000Y-17348571D02*
X12004524Y-17367619D01*
X12004524Y-17367619D02*
X12014048Y-17405714D01*
X12014048Y-17405714D02*
X12014048Y-17453333D01*
X12014048Y-17453333D02*
X12004524Y-17491429D01*
X12004524Y-17491429D02*
X11995000Y-17510476D01*
X11995000Y-17510476D02*
X11985476Y-17520000D01*
X11985476Y-17520000D02*
X11966429Y-17529524D01*
X11966429Y-17529524D02*
X11947381Y-17529524D01*
X11947381Y-17529524D02*
X11928333Y-17520000D01*
X11928333Y-17520000D02*
X11918809Y-17510476D01*
X11918809Y-17510476D02*
X11909286Y-17491429D01*
X11909286Y-17491429D02*
X11899762Y-17453333D01*
X11899762Y-17453333D02*
X11899762Y-17405714D01*
X11899762Y-17405714D02*
X11909286Y-17367619D01*
X11909286Y-17367619D02*
X11918809Y-17348571D01*
X11918809Y-17348571D02*
X11928333Y-17339048D01*
X11928333Y-17339048D02*
X11947381Y-17329524D01*
X12099762Y-17529524D02*
X12099762Y-17396190D01*
X12099762Y-17415238D02*
X12109286Y-17405714D01*
X12109286Y-17405714D02*
X12128333Y-17396190D01*
X12128333Y-17396190D02*
X12156905Y-17396190D01*
X12156905Y-17396190D02*
X12175952Y-17405714D01*
X12175952Y-17405714D02*
X12185476Y-17424762D01*
X12185476Y-17424762D02*
X12185476Y-17529524D01*
X12185476Y-17424762D02*
X12195000Y-17405714D01*
X12195000Y-17405714D02*
X12214048Y-17396190D01*
X12214048Y-17396190D02*
X12242619Y-17396190D01*
X12242619Y-17396190D02*
X12261667Y-17405714D01*
X12261667Y-17405714D02*
X12271190Y-17424762D01*
X12271190Y-17424762D02*
X12271190Y-17529524D01*
X12366429Y-17529524D02*
X12366429Y-17396190D01*
X12366429Y-17415238D02*
X12375952Y-17405714D01*
X12375952Y-17405714D02*
X12395000Y-17396190D01*
X12395000Y-17396190D02*
X12423571Y-17396190D01*
X12423571Y-17396190D02*
X12442619Y-17405714D01*
X12442619Y-17405714D02*
X12452143Y-17424762D01*
X12452143Y-17424762D02*
X12452143Y-17529524D01*
X12452143Y-17424762D02*
X12461667Y-17405714D01*
X12461667Y-17405714D02*
X12480714Y-17396190D01*
X12480714Y-17396190D02*
X12509286Y-17396190D01*
X12509286Y-17396190D02*
X12528333Y-17405714D01*
X12528333Y-17405714D02*
X12537857Y-17424762D01*
X12537857Y-17424762D02*
X12537857Y-17529524D01*
X12928333Y-17320000D02*
X12756905Y-17577143D01*
X13185476Y-17329524D02*
X13204524Y-17329524D01*
X13204524Y-17329524D02*
X13223572Y-17339048D01*
X13223572Y-17339048D02*
X13233095Y-17348571D01*
X13233095Y-17348571D02*
X13242619Y-17367619D01*
X13242619Y-17367619D02*
X13252143Y-17405714D01*
X13252143Y-17405714D02*
X13252143Y-17453333D01*
X13252143Y-17453333D02*
X13242619Y-17491429D01*
X13242619Y-17491429D02*
X13233095Y-17510476D01*
X13233095Y-17510476D02*
X13223572Y-17520000D01*
X13223572Y-17520000D02*
X13204524Y-17529524D01*
X13204524Y-17529524D02*
X13185476Y-17529524D01*
X13185476Y-17529524D02*
X13166429Y-17520000D01*
X13166429Y-17520000D02*
X13156905Y-17510476D01*
X13156905Y-17510476D02*
X13147381Y-17491429D01*
X13147381Y-17491429D02*
X13137857Y-17453333D01*
X13137857Y-17453333D02*
X13137857Y-17405714D01*
X13137857Y-17405714D02*
X13147381Y-17367619D01*
X13147381Y-17367619D02*
X13156905Y-17348571D01*
X13156905Y-17348571D02*
X13166429Y-17339048D01*
X13166429Y-17339048D02*
X13185476Y-17329524D01*
X13337857Y-17510476D02*
X13347381Y-17520000D01*
X13347381Y-17520000D02*
X13337857Y-17529524D01*
X13337857Y-17529524D02*
X13328333Y-17520000D01*
X13328333Y-17520000D02*
X13337857Y-17510476D01*
X13337857Y-17510476D02*
X13337857Y-17529524D01*
X13471191Y-17329524D02*
X13490238Y-17329524D01*
X13490238Y-17329524D02*
X13509286Y-17339048D01*
X13509286Y-17339048D02*
X13518810Y-17348571D01*
X13518810Y-17348571D02*
X13528333Y-17367619D01*
X13528333Y-17367619D02*
X13537857Y-17405714D01*
X13537857Y-17405714D02*
X13537857Y-17453333D01*
X13537857Y-17453333D02*
X13528333Y-17491429D01*
X13528333Y-17491429D02*
X13518810Y-17510476D01*
X13518810Y-17510476D02*
X13509286Y-17520000D01*
X13509286Y-17520000D02*
X13490238Y-17529524D01*
X13490238Y-17529524D02*
X13471191Y-17529524D01*
X13471191Y-17529524D02*
X13452143Y-17520000D01*
X13452143Y-17520000D02*
X13442619Y-17510476D01*
X13442619Y-17510476D02*
X13433095Y-17491429D01*
X13433095Y-17491429D02*
X13423572Y-17453333D01*
X13423572Y-17453333D02*
X13423572Y-17405714D01*
X13423572Y-17405714D02*
X13433095Y-17367619D01*
X13433095Y-17367619D02*
X13442619Y-17348571D01*
X13442619Y-17348571D02*
X13452143Y-17339048D01*
X13452143Y-17339048D02*
X13471191Y-17329524D01*
X13709286Y-17396190D02*
X13709286Y-17529524D01*
X13661667Y-17320000D02*
X13614048Y-17462857D01*
X13614048Y-17462857D02*
X13737857Y-17462857D01*
X13899762Y-17329524D02*
X13861667Y-17329524D01*
X13861667Y-17329524D02*
X13842619Y-17339048D01*
X13842619Y-17339048D02*
X13833095Y-17348571D01*
X13833095Y-17348571D02*
X13814048Y-17377143D01*
X13814048Y-17377143D02*
X13804524Y-17415238D01*
X13804524Y-17415238D02*
X13804524Y-17491429D01*
X13804524Y-17491429D02*
X13814048Y-17510476D01*
X13814048Y-17510476D02*
X13823572Y-17520000D01*
X13823572Y-17520000D02*
X13842619Y-17529524D01*
X13842619Y-17529524D02*
X13880714Y-17529524D01*
X13880714Y-17529524D02*
X13899762Y-17520000D01*
X13899762Y-17520000D02*
X13909286Y-17510476D01*
X13909286Y-17510476D02*
X13918810Y-17491429D01*
X13918810Y-17491429D02*
X13918810Y-17443810D01*
X13918810Y-17443810D02*
X13909286Y-17424762D01*
X13909286Y-17424762D02*
X13899762Y-17415238D01*
X13899762Y-17415238D02*
X13880714Y-17405714D01*
X13880714Y-17405714D02*
X13842619Y-17405714D01*
X13842619Y-17405714D02*
X13823572Y-17415238D01*
X13823572Y-17415238D02*
X13814048Y-17424762D01*
X13814048Y-17424762D02*
X13804524Y-17443810D01*
X14014048Y-17529524D02*
X14052143Y-17529524D01*
X14052143Y-17529524D02*
X14071191Y-17520000D01*
X14071191Y-17520000D02*
X14080714Y-17510476D01*
X14080714Y-17510476D02*
X14099762Y-17481905D01*
X14099762Y-17481905D02*
X14109286Y-17443810D01*
X14109286Y-17443810D02*
X14109286Y-17367619D01*
X14109286Y-17367619D02*
X14099762Y-17348571D01*
X14099762Y-17348571D02*
X14090238Y-17339048D01*
X14090238Y-17339048D02*
X14071191Y-17329524D01*
X14071191Y-17329524D02*
X14033095Y-17329524D01*
X14033095Y-17329524D02*
X14014048Y-17339048D01*
X14014048Y-17339048D02*
X14004524Y-17348571D01*
X14004524Y-17348571D02*
X13995000Y-17367619D01*
X13995000Y-17367619D02*
X13995000Y-17415238D01*
X13995000Y-17415238D02*
X14004524Y-17434286D01*
X14004524Y-17434286D02*
X14014048Y-17443810D01*
X14014048Y-17443810D02*
X14033095Y-17453333D01*
X14033095Y-17453333D02*
X14071191Y-17453333D01*
X14071191Y-17453333D02*
X14090238Y-17443810D01*
X14090238Y-17443810D02*
X14099762Y-17434286D01*
X14099762Y-17434286D02*
X14109286Y-17415238D01*
X14185476Y-17329524D02*
X14185476Y-17367619D01*
X14261667Y-17329524D02*
X14261667Y-17367619D01*
X14556905Y-17605714D02*
X14547381Y-17596190D01*
X14547381Y-17596190D02*
X14528334Y-17567619D01*
X14528334Y-17567619D02*
X14518810Y-17548571D01*
X14518810Y-17548571D02*
X14509286Y-17520000D01*
X14509286Y-17520000D02*
X14499762Y-17472381D01*
X14499762Y-17472381D02*
X14499762Y-17434286D01*
X14499762Y-17434286D02*
X14509286Y-17386667D01*
X14509286Y-17386667D02*
X14518810Y-17358095D01*
X14518810Y-17358095D02*
X14528334Y-17339048D01*
X14528334Y-17339048D02*
X14547381Y-17310476D01*
X14547381Y-17310476D02*
X14556905Y-17300952D01*
X14614048Y-17329524D02*
X14737857Y-17329524D01*
X14737857Y-17329524D02*
X14671191Y-17405714D01*
X14671191Y-17405714D02*
X14699762Y-17405714D01*
X14699762Y-17405714D02*
X14718810Y-17415238D01*
X14718810Y-17415238D02*
X14728334Y-17424762D01*
X14728334Y-17424762D02*
X14737857Y-17443810D01*
X14737857Y-17443810D02*
X14737857Y-17491429D01*
X14737857Y-17491429D02*
X14728334Y-17510476D01*
X14728334Y-17510476D02*
X14718810Y-17520000D01*
X14718810Y-17520000D02*
X14699762Y-17529524D01*
X14699762Y-17529524D02*
X14642619Y-17529524D01*
X14642619Y-17529524D02*
X14623572Y-17520000D01*
X14623572Y-17520000D02*
X14614048Y-17510476D01*
X14804524Y-17329524D02*
X14937857Y-17329524D01*
X14937857Y-17329524D02*
X14852143Y-17529524D01*
X15166429Y-17529524D02*
X15166429Y-17329524D01*
X15252143Y-17529524D02*
X15252143Y-17424762D01*
X15252143Y-17424762D02*
X15242619Y-17405714D01*
X15242619Y-17405714D02*
X15223572Y-17396190D01*
X15223572Y-17396190D02*
X15195000Y-17396190D01*
X15195000Y-17396190D02*
X15175953Y-17405714D01*
X15175953Y-17405714D02*
X15166429Y-17415238D01*
X15375953Y-17529524D02*
X15356905Y-17520000D01*
X15356905Y-17520000D02*
X15347381Y-17510476D01*
X15347381Y-17510476D02*
X15337857Y-17491429D01*
X15337857Y-17491429D02*
X15337857Y-17434286D01*
X15337857Y-17434286D02*
X15347381Y-17415238D01*
X15347381Y-17415238D02*
X15356905Y-17405714D01*
X15356905Y-17405714D02*
X15375953Y-17396190D01*
X15375953Y-17396190D02*
X15404524Y-17396190D01*
X15404524Y-17396190D02*
X15423572Y-17405714D01*
X15423572Y-17405714D02*
X15433096Y-17415238D01*
X15433096Y-17415238D02*
X15442619Y-17434286D01*
X15442619Y-17434286D02*
X15442619Y-17491429D01*
X15442619Y-17491429D02*
X15433096Y-17510476D01*
X15433096Y-17510476D02*
X15423572Y-17520000D01*
X15423572Y-17520000D02*
X15404524Y-17529524D01*
X15404524Y-17529524D02*
X15375953Y-17529524D01*
X15556905Y-17529524D02*
X15537857Y-17520000D01*
X15537857Y-17520000D02*
X15528334Y-17500952D01*
X15528334Y-17500952D02*
X15528334Y-17329524D01*
X15709286Y-17520000D02*
X15690238Y-17529524D01*
X15690238Y-17529524D02*
X15652143Y-17529524D01*
X15652143Y-17529524D02*
X15633096Y-17520000D01*
X15633096Y-17520000D02*
X15623572Y-17500952D01*
X15623572Y-17500952D02*
X15623572Y-17424762D01*
X15623572Y-17424762D02*
X15633096Y-17405714D01*
X15633096Y-17405714D02*
X15652143Y-17396190D01*
X15652143Y-17396190D02*
X15690238Y-17396190D01*
X15690238Y-17396190D02*
X15709286Y-17405714D01*
X15709286Y-17405714D02*
X15718810Y-17424762D01*
X15718810Y-17424762D02*
X15718810Y-17443810D01*
X15718810Y-17443810D02*
X15623572Y-17462857D01*
X15795000Y-17520000D02*
X15814048Y-17529524D01*
X15814048Y-17529524D02*
X15852143Y-17529524D01*
X15852143Y-17529524D02*
X15871191Y-17520000D01*
X15871191Y-17520000D02*
X15880715Y-17500952D01*
X15880715Y-17500952D02*
X15880715Y-17491429D01*
X15880715Y-17491429D02*
X15871191Y-17472381D01*
X15871191Y-17472381D02*
X15852143Y-17462857D01*
X15852143Y-17462857D02*
X15823572Y-17462857D01*
X15823572Y-17462857D02*
X15804524Y-17453333D01*
X15804524Y-17453333D02*
X15795000Y-17434286D01*
X15795000Y-17434286D02*
X15795000Y-17424762D01*
X15795000Y-17424762D02*
X15804524Y-17405714D01*
X15804524Y-17405714D02*
X15823572Y-17396190D01*
X15823572Y-17396190D02*
X15852143Y-17396190D01*
X15852143Y-17396190D02*
X15871191Y-17405714D01*
X15947381Y-17605714D02*
X15956905Y-17596190D01*
X15956905Y-17596190D02*
X15975953Y-17567619D01*
X15975953Y-17567619D02*
X15985477Y-17548571D01*
X15985477Y-17548571D02*
X15995000Y-17520000D01*
X15995000Y-17520000D02*
X16004524Y-17472381D01*
X16004524Y-17472381D02*
X16004524Y-17434286D01*
X16004524Y-17434286D02*
X15995000Y-17386667D01*
X15995000Y-17386667D02*
X15985477Y-17358095D01*
X15985477Y-17358095D02*
X15975953Y-17339048D01*
X15975953Y-17339048D02*
X15956905Y-17310476D01*
X15956905Y-17310476D02*
X15947381Y-17300952D01*
X10895000Y-17801000D02*
X10995000Y-17701000D01*
X10895000Y-17601000D01*
X10795000Y-17701000D01*
X10895000Y-17801000D01*
X11233095Y-17612571D02*
X11242619Y-17603048D01*
X11242619Y-17603048D02*
X11261667Y-17593524D01*
X11261667Y-17593524D02*
X11309286Y-17593524D01*
X11309286Y-17593524D02*
X11328333Y-17603048D01*
X11328333Y-17603048D02*
X11337857Y-17612571D01*
X11337857Y-17612571D02*
X11347381Y-17631619D01*
X11347381Y-17631619D02*
X11347381Y-17650667D01*
X11347381Y-17650667D02*
X11337857Y-17679238D01*
X11337857Y-17679238D02*
X11223571Y-17793524D01*
X11223571Y-17793524D02*
X11347381Y-17793524D01*
X11433095Y-17774476D02*
X11442619Y-17784000D01*
X11442619Y-17784000D02*
X11433095Y-17793524D01*
X11433095Y-17793524D02*
X11423571Y-17784000D01*
X11423571Y-17784000D02*
X11433095Y-17774476D01*
X11433095Y-17774476D02*
X11433095Y-17793524D01*
X11509286Y-17593524D02*
X11642619Y-17593524D01*
X11642619Y-17593524D02*
X11556905Y-17793524D01*
X11756905Y-17593524D02*
X11775952Y-17593524D01*
X11775952Y-17593524D02*
X11795000Y-17603048D01*
X11795000Y-17603048D02*
X11804524Y-17612571D01*
X11804524Y-17612571D02*
X11814048Y-17631619D01*
X11814048Y-17631619D02*
X11823571Y-17669714D01*
X11823571Y-17669714D02*
X11823571Y-17717333D01*
X11823571Y-17717333D02*
X11814048Y-17755429D01*
X11814048Y-17755429D02*
X11804524Y-17774476D01*
X11804524Y-17774476D02*
X11795000Y-17784000D01*
X11795000Y-17784000D02*
X11775952Y-17793524D01*
X11775952Y-17793524D02*
X11756905Y-17793524D01*
X11756905Y-17793524D02*
X11737857Y-17784000D01*
X11737857Y-17784000D02*
X11728333Y-17774476D01*
X11728333Y-17774476D02*
X11718809Y-17755429D01*
X11718809Y-17755429D02*
X11709286Y-17717333D01*
X11709286Y-17717333D02*
X11709286Y-17669714D01*
X11709286Y-17669714D02*
X11718809Y-17631619D01*
X11718809Y-17631619D02*
X11728333Y-17612571D01*
X11728333Y-17612571D02*
X11737857Y-17603048D01*
X11737857Y-17603048D02*
X11756905Y-17593524D01*
X11947381Y-17593524D02*
X11966429Y-17593524D01*
X11966429Y-17593524D02*
X11985476Y-17603048D01*
X11985476Y-17603048D02*
X11995000Y-17612571D01*
X11995000Y-17612571D02*
X12004524Y-17631619D01*
X12004524Y-17631619D02*
X12014048Y-17669714D01*
X12014048Y-17669714D02*
X12014048Y-17717333D01*
X12014048Y-17717333D02*
X12004524Y-17755429D01*
X12004524Y-17755429D02*
X11995000Y-17774476D01*
X11995000Y-17774476D02*
X11985476Y-17784000D01*
X11985476Y-17784000D02*
X11966429Y-17793524D01*
X11966429Y-17793524D02*
X11947381Y-17793524D01*
X11947381Y-17793524D02*
X11928333Y-17784000D01*
X11928333Y-17784000D02*
X11918809Y-17774476D01*
X11918809Y-17774476D02*
X11909286Y-17755429D01*
X11909286Y-17755429D02*
X11899762Y-17717333D01*
X11899762Y-17717333D02*
X11899762Y-17669714D01*
X11899762Y-17669714D02*
X11909286Y-17631619D01*
X11909286Y-17631619D02*
X11918809Y-17612571D01*
X11918809Y-17612571D02*
X11928333Y-17603048D01*
X11928333Y-17603048D02*
X11947381Y-17593524D01*
X12099762Y-17793524D02*
X12099762Y-17660190D01*
X12099762Y-17679238D02*
X12109286Y-17669714D01*
X12109286Y-17669714D02*
X12128333Y-17660190D01*
X12128333Y-17660190D02*
X12156905Y-17660190D01*
X12156905Y-17660190D02*
X12175952Y-17669714D01*
X12175952Y-17669714D02*
X12185476Y-17688762D01*
X12185476Y-17688762D02*
X12185476Y-17793524D01*
X12185476Y-17688762D02*
X12195000Y-17669714D01*
X12195000Y-17669714D02*
X12214048Y-17660190D01*
X12214048Y-17660190D02*
X12242619Y-17660190D01*
X12242619Y-17660190D02*
X12261667Y-17669714D01*
X12261667Y-17669714D02*
X12271190Y-17688762D01*
X12271190Y-17688762D02*
X12271190Y-17793524D01*
X12366429Y-17793524D02*
X12366429Y-17660190D01*
X12366429Y-17679238D02*
X12375952Y-17669714D01*
X12375952Y-17669714D02*
X12395000Y-17660190D01*
X12395000Y-17660190D02*
X12423571Y-17660190D01*
X12423571Y-17660190D02*
X12442619Y-17669714D01*
X12442619Y-17669714D02*
X12452143Y-17688762D01*
X12452143Y-17688762D02*
X12452143Y-17793524D01*
X12452143Y-17688762D02*
X12461667Y-17669714D01*
X12461667Y-17669714D02*
X12480714Y-17660190D01*
X12480714Y-17660190D02*
X12509286Y-17660190D01*
X12509286Y-17660190D02*
X12528333Y-17669714D01*
X12528333Y-17669714D02*
X12537857Y-17688762D01*
X12537857Y-17688762D02*
X12537857Y-17793524D01*
X12928333Y-17584000D02*
X12756905Y-17841143D01*
X13185476Y-17593524D02*
X13204524Y-17593524D01*
X13204524Y-17593524D02*
X13223572Y-17603048D01*
X13223572Y-17603048D02*
X13233095Y-17612571D01*
X13233095Y-17612571D02*
X13242619Y-17631619D01*
X13242619Y-17631619D02*
X13252143Y-17669714D01*
X13252143Y-17669714D02*
X13252143Y-17717333D01*
X13252143Y-17717333D02*
X13242619Y-17755429D01*
X13242619Y-17755429D02*
X13233095Y-17774476D01*
X13233095Y-17774476D02*
X13223572Y-17784000D01*
X13223572Y-17784000D02*
X13204524Y-17793524D01*
X13204524Y-17793524D02*
X13185476Y-17793524D01*
X13185476Y-17793524D02*
X13166429Y-17784000D01*
X13166429Y-17784000D02*
X13156905Y-17774476D01*
X13156905Y-17774476D02*
X13147381Y-17755429D01*
X13147381Y-17755429D02*
X13137857Y-17717333D01*
X13137857Y-17717333D02*
X13137857Y-17669714D01*
X13137857Y-17669714D02*
X13147381Y-17631619D01*
X13147381Y-17631619D02*
X13156905Y-17612571D01*
X13156905Y-17612571D02*
X13166429Y-17603048D01*
X13166429Y-17603048D02*
X13185476Y-17593524D01*
X13337857Y-17774476D02*
X13347381Y-17784000D01*
X13347381Y-17784000D02*
X13337857Y-17793524D01*
X13337857Y-17793524D02*
X13328333Y-17784000D01*
X13328333Y-17784000D02*
X13337857Y-17774476D01*
X13337857Y-17774476D02*
X13337857Y-17793524D01*
X13537857Y-17793524D02*
X13423572Y-17793524D01*
X13480714Y-17793524D02*
X13480714Y-17593524D01*
X13480714Y-17593524D02*
X13461667Y-17622095D01*
X13461667Y-17622095D02*
X13442619Y-17641143D01*
X13442619Y-17641143D02*
X13423572Y-17650667D01*
X13661667Y-17593524D02*
X13680714Y-17593524D01*
X13680714Y-17593524D02*
X13699762Y-17603048D01*
X13699762Y-17603048D02*
X13709286Y-17612571D01*
X13709286Y-17612571D02*
X13718810Y-17631619D01*
X13718810Y-17631619D02*
X13728333Y-17669714D01*
X13728333Y-17669714D02*
X13728333Y-17717333D01*
X13728333Y-17717333D02*
X13718810Y-17755429D01*
X13718810Y-17755429D02*
X13709286Y-17774476D01*
X13709286Y-17774476D02*
X13699762Y-17784000D01*
X13699762Y-17784000D02*
X13680714Y-17793524D01*
X13680714Y-17793524D02*
X13661667Y-17793524D01*
X13661667Y-17793524D02*
X13642619Y-17784000D01*
X13642619Y-17784000D02*
X13633095Y-17774476D01*
X13633095Y-17774476D02*
X13623572Y-17755429D01*
X13623572Y-17755429D02*
X13614048Y-17717333D01*
X13614048Y-17717333D02*
X13614048Y-17669714D01*
X13614048Y-17669714D02*
X13623572Y-17631619D01*
X13623572Y-17631619D02*
X13633095Y-17612571D01*
X13633095Y-17612571D02*
X13642619Y-17603048D01*
X13642619Y-17603048D02*
X13661667Y-17593524D01*
X13899762Y-17593524D02*
X13861667Y-17593524D01*
X13861667Y-17593524D02*
X13842619Y-17603048D01*
X13842619Y-17603048D02*
X13833095Y-17612571D01*
X13833095Y-17612571D02*
X13814048Y-17641143D01*
X13814048Y-17641143D02*
X13804524Y-17679238D01*
X13804524Y-17679238D02*
X13804524Y-17755429D01*
X13804524Y-17755429D02*
X13814048Y-17774476D01*
X13814048Y-17774476D02*
X13823572Y-17784000D01*
X13823572Y-17784000D02*
X13842619Y-17793524D01*
X13842619Y-17793524D02*
X13880714Y-17793524D01*
X13880714Y-17793524D02*
X13899762Y-17784000D01*
X13899762Y-17784000D02*
X13909286Y-17774476D01*
X13909286Y-17774476D02*
X13918810Y-17755429D01*
X13918810Y-17755429D02*
X13918810Y-17707810D01*
X13918810Y-17707810D02*
X13909286Y-17688762D01*
X13909286Y-17688762D02*
X13899762Y-17679238D01*
X13899762Y-17679238D02*
X13880714Y-17669714D01*
X13880714Y-17669714D02*
X13842619Y-17669714D01*
X13842619Y-17669714D02*
X13823572Y-17679238D01*
X13823572Y-17679238D02*
X13814048Y-17688762D01*
X13814048Y-17688762D02*
X13804524Y-17707810D01*
X13985476Y-17593524D02*
X14109286Y-17593524D01*
X14109286Y-17593524D02*
X14042619Y-17669714D01*
X14042619Y-17669714D02*
X14071191Y-17669714D01*
X14071191Y-17669714D02*
X14090238Y-17679238D01*
X14090238Y-17679238D02*
X14099762Y-17688762D01*
X14099762Y-17688762D02*
X14109286Y-17707810D01*
X14109286Y-17707810D02*
X14109286Y-17755429D01*
X14109286Y-17755429D02*
X14099762Y-17774476D01*
X14099762Y-17774476D02*
X14090238Y-17784000D01*
X14090238Y-17784000D02*
X14071191Y-17793524D01*
X14071191Y-17793524D02*
X14014048Y-17793524D01*
X14014048Y-17793524D02*
X13995000Y-17784000D01*
X13995000Y-17784000D02*
X13985476Y-17774476D01*
X14185476Y-17593524D02*
X14185476Y-17631619D01*
X14261667Y-17593524D02*
X14261667Y-17631619D01*
X14556905Y-17869714D02*
X14547381Y-17860190D01*
X14547381Y-17860190D02*
X14528334Y-17831619D01*
X14528334Y-17831619D02*
X14518810Y-17812571D01*
X14518810Y-17812571D02*
X14509286Y-17784000D01*
X14509286Y-17784000D02*
X14499762Y-17736381D01*
X14499762Y-17736381D02*
X14499762Y-17698286D01*
X14499762Y-17698286D02*
X14509286Y-17650667D01*
X14509286Y-17650667D02*
X14518810Y-17622095D01*
X14518810Y-17622095D02*
X14528334Y-17603048D01*
X14528334Y-17603048D02*
X14547381Y-17574476D01*
X14547381Y-17574476D02*
X14556905Y-17564952D01*
X14718810Y-17593524D02*
X14680714Y-17593524D01*
X14680714Y-17593524D02*
X14661667Y-17603048D01*
X14661667Y-17603048D02*
X14652143Y-17612571D01*
X14652143Y-17612571D02*
X14633095Y-17641143D01*
X14633095Y-17641143D02*
X14623572Y-17679238D01*
X14623572Y-17679238D02*
X14623572Y-17755429D01*
X14623572Y-17755429D02*
X14633095Y-17774476D01*
X14633095Y-17774476D02*
X14642619Y-17784000D01*
X14642619Y-17784000D02*
X14661667Y-17793524D01*
X14661667Y-17793524D02*
X14699762Y-17793524D01*
X14699762Y-17793524D02*
X14718810Y-17784000D01*
X14718810Y-17784000D02*
X14728334Y-17774476D01*
X14728334Y-17774476D02*
X14737857Y-17755429D01*
X14737857Y-17755429D02*
X14737857Y-17707810D01*
X14737857Y-17707810D02*
X14728334Y-17688762D01*
X14728334Y-17688762D02*
X14718810Y-17679238D01*
X14718810Y-17679238D02*
X14699762Y-17669714D01*
X14699762Y-17669714D02*
X14661667Y-17669714D01*
X14661667Y-17669714D02*
X14642619Y-17679238D01*
X14642619Y-17679238D02*
X14633095Y-17688762D01*
X14633095Y-17688762D02*
X14623572Y-17707810D01*
X14975953Y-17793524D02*
X14975953Y-17593524D01*
X15061667Y-17793524D02*
X15061667Y-17688762D01*
X15061667Y-17688762D02*
X15052143Y-17669714D01*
X15052143Y-17669714D02*
X15033096Y-17660190D01*
X15033096Y-17660190D02*
X15004524Y-17660190D01*
X15004524Y-17660190D02*
X14985476Y-17669714D01*
X14985476Y-17669714D02*
X14975953Y-17679238D01*
X15185476Y-17793524D02*
X15166429Y-17784000D01*
X15166429Y-17784000D02*
X15156905Y-17774476D01*
X15156905Y-17774476D02*
X15147381Y-17755429D01*
X15147381Y-17755429D02*
X15147381Y-17698286D01*
X15147381Y-17698286D02*
X15156905Y-17679238D01*
X15156905Y-17679238D02*
X15166429Y-17669714D01*
X15166429Y-17669714D02*
X15185476Y-17660190D01*
X15185476Y-17660190D02*
X15214048Y-17660190D01*
X15214048Y-17660190D02*
X15233096Y-17669714D01*
X15233096Y-17669714D02*
X15242619Y-17679238D01*
X15242619Y-17679238D02*
X15252143Y-17698286D01*
X15252143Y-17698286D02*
X15252143Y-17755429D01*
X15252143Y-17755429D02*
X15242619Y-17774476D01*
X15242619Y-17774476D02*
X15233096Y-17784000D01*
X15233096Y-17784000D02*
X15214048Y-17793524D01*
X15214048Y-17793524D02*
X15185476Y-17793524D01*
X15366429Y-17793524D02*
X15347381Y-17784000D01*
X15347381Y-17784000D02*
X15337857Y-17764952D01*
X15337857Y-17764952D02*
X15337857Y-17593524D01*
X15518810Y-17784000D02*
X15499762Y-17793524D01*
X15499762Y-17793524D02*
X15461667Y-17793524D01*
X15461667Y-17793524D02*
X15442619Y-17784000D01*
X15442619Y-17784000D02*
X15433096Y-17764952D01*
X15433096Y-17764952D02*
X15433096Y-17688762D01*
X15433096Y-17688762D02*
X15442619Y-17669714D01*
X15442619Y-17669714D02*
X15461667Y-17660190D01*
X15461667Y-17660190D02*
X15499762Y-17660190D01*
X15499762Y-17660190D02*
X15518810Y-17669714D01*
X15518810Y-17669714D02*
X15528334Y-17688762D01*
X15528334Y-17688762D02*
X15528334Y-17707810D01*
X15528334Y-17707810D02*
X15433096Y-17726857D01*
X15604524Y-17784000D02*
X15623572Y-17793524D01*
X15623572Y-17793524D02*
X15661667Y-17793524D01*
X15661667Y-17793524D02*
X15680715Y-17784000D01*
X15680715Y-17784000D02*
X15690238Y-17764952D01*
X15690238Y-17764952D02*
X15690238Y-17755429D01*
X15690238Y-17755429D02*
X15680715Y-17736381D01*
X15680715Y-17736381D02*
X15661667Y-17726857D01*
X15661667Y-17726857D02*
X15633096Y-17726857D01*
X15633096Y-17726857D02*
X15614048Y-17717333D01*
X15614048Y-17717333D02*
X15604524Y-17698286D01*
X15604524Y-17698286D02*
X15604524Y-17688762D01*
X15604524Y-17688762D02*
X15614048Y-17669714D01*
X15614048Y-17669714D02*
X15633096Y-17660190D01*
X15633096Y-17660190D02*
X15661667Y-17660190D01*
X15661667Y-17660190D02*
X15680715Y-17669714D01*
X15756905Y-17869714D02*
X15766429Y-17860190D01*
X15766429Y-17860190D02*
X15785477Y-17831619D01*
X15785477Y-17831619D02*
X15795000Y-17812571D01*
X15795000Y-17812571D02*
X15804524Y-17784000D01*
X15804524Y-17784000D02*
X15814048Y-17736381D01*
X15814048Y-17736381D02*
X15814048Y-17698286D01*
X15814048Y-17698286D02*
X15804524Y-17650667D01*
X15804524Y-17650667D02*
X15795000Y-17622095D01*
X15795000Y-17622095D02*
X15785477Y-17603048D01*
X15785477Y-17603048D02*
X15766429Y-17574476D01*
X15766429Y-17574476D02*
X15756905Y-17564952D01*
X10795000Y-17921000D02*
X10995000Y-18121000D01*
X10995000Y-17921000D02*
X10795000Y-18121000D01*
X10995000Y-18021000D02*
G75*
G03*
X10995000Y-18021000I-100000J0D01*
G01*
X11223571Y-17913524D02*
X11347381Y-17913524D01*
X11347381Y-17913524D02*
X11280714Y-17989714D01*
X11280714Y-17989714D02*
X11309286Y-17989714D01*
X11309286Y-17989714D02*
X11328333Y-17999238D01*
X11328333Y-17999238D02*
X11337857Y-18008762D01*
X11337857Y-18008762D02*
X11347381Y-18027810D01*
X11347381Y-18027810D02*
X11347381Y-18075429D01*
X11347381Y-18075429D02*
X11337857Y-18094476D01*
X11337857Y-18094476D02*
X11328333Y-18104000D01*
X11328333Y-18104000D02*
X11309286Y-18113524D01*
X11309286Y-18113524D02*
X11252143Y-18113524D01*
X11252143Y-18113524D02*
X11233095Y-18104000D01*
X11233095Y-18104000D02*
X11223571Y-18094476D01*
X11433095Y-18094476D02*
X11442619Y-18104000D01*
X11442619Y-18104000D02*
X11433095Y-18113524D01*
X11433095Y-18113524D02*
X11423571Y-18104000D01*
X11423571Y-18104000D02*
X11433095Y-18094476D01*
X11433095Y-18094476D02*
X11433095Y-18113524D01*
X11623571Y-17913524D02*
X11528333Y-17913524D01*
X11528333Y-17913524D02*
X11518809Y-18008762D01*
X11518809Y-18008762D02*
X11528333Y-17999238D01*
X11528333Y-17999238D02*
X11547381Y-17989714D01*
X11547381Y-17989714D02*
X11595000Y-17989714D01*
X11595000Y-17989714D02*
X11614048Y-17999238D01*
X11614048Y-17999238D02*
X11623571Y-18008762D01*
X11623571Y-18008762D02*
X11633095Y-18027810D01*
X11633095Y-18027810D02*
X11633095Y-18075429D01*
X11633095Y-18075429D02*
X11623571Y-18094476D01*
X11623571Y-18094476D02*
X11614048Y-18104000D01*
X11614048Y-18104000D02*
X11595000Y-18113524D01*
X11595000Y-18113524D02*
X11547381Y-18113524D01*
X11547381Y-18113524D02*
X11528333Y-18104000D01*
X11528333Y-18104000D02*
X11518809Y-18094476D01*
X11756905Y-17913524D02*
X11775952Y-17913524D01*
X11775952Y-17913524D02*
X11795000Y-17923048D01*
X11795000Y-17923048D02*
X11804524Y-17932571D01*
X11804524Y-17932571D02*
X11814048Y-17951619D01*
X11814048Y-17951619D02*
X11823571Y-17989714D01*
X11823571Y-17989714D02*
X11823571Y-18037333D01*
X11823571Y-18037333D02*
X11814048Y-18075429D01*
X11814048Y-18075429D02*
X11804524Y-18094476D01*
X11804524Y-18094476D02*
X11795000Y-18104000D01*
X11795000Y-18104000D02*
X11775952Y-18113524D01*
X11775952Y-18113524D02*
X11756905Y-18113524D01*
X11756905Y-18113524D02*
X11737857Y-18104000D01*
X11737857Y-18104000D02*
X11728333Y-18094476D01*
X11728333Y-18094476D02*
X11718809Y-18075429D01*
X11718809Y-18075429D02*
X11709286Y-18037333D01*
X11709286Y-18037333D02*
X11709286Y-17989714D01*
X11709286Y-17989714D02*
X11718809Y-17951619D01*
X11718809Y-17951619D02*
X11728333Y-17932571D01*
X11728333Y-17932571D02*
X11737857Y-17923048D01*
X11737857Y-17923048D02*
X11756905Y-17913524D01*
X11947381Y-17913524D02*
X11966429Y-17913524D01*
X11966429Y-17913524D02*
X11985476Y-17923048D01*
X11985476Y-17923048D02*
X11995000Y-17932571D01*
X11995000Y-17932571D02*
X12004524Y-17951619D01*
X12004524Y-17951619D02*
X12014048Y-17989714D01*
X12014048Y-17989714D02*
X12014048Y-18037333D01*
X12014048Y-18037333D02*
X12004524Y-18075429D01*
X12004524Y-18075429D02*
X11995000Y-18094476D01*
X11995000Y-18094476D02*
X11985476Y-18104000D01*
X11985476Y-18104000D02*
X11966429Y-18113524D01*
X11966429Y-18113524D02*
X11947381Y-18113524D01*
X11947381Y-18113524D02*
X11928333Y-18104000D01*
X11928333Y-18104000D02*
X11918809Y-18094476D01*
X11918809Y-18094476D02*
X11909286Y-18075429D01*
X11909286Y-18075429D02*
X11899762Y-18037333D01*
X11899762Y-18037333D02*
X11899762Y-17989714D01*
X11899762Y-17989714D02*
X11909286Y-17951619D01*
X11909286Y-17951619D02*
X11918809Y-17932571D01*
X11918809Y-17932571D02*
X11928333Y-17923048D01*
X11928333Y-17923048D02*
X11947381Y-17913524D01*
X12099762Y-18113524D02*
X12099762Y-17980190D01*
X12099762Y-17999238D02*
X12109286Y-17989714D01*
X12109286Y-17989714D02*
X12128333Y-17980190D01*
X12128333Y-17980190D02*
X12156905Y-17980190D01*
X12156905Y-17980190D02*
X12175952Y-17989714D01*
X12175952Y-17989714D02*
X12185476Y-18008762D01*
X12185476Y-18008762D02*
X12185476Y-18113524D01*
X12185476Y-18008762D02*
X12195000Y-17989714D01*
X12195000Y-17989714D02*
X12214048Y-17980190D01*
X12214048Y-17980190D02*
X12242619Y-17980190D01*
X12242619Y-17980190D02*
X12261667Y-17989714D01*
X12261667Y-17989714D02*
X12271190Y-18008762D01*
X12271190Y-18008762D02*
X12271190Y-18113524D01*
X12366429Y-18113524D02*
X12366429Y-17980190D01*
X12366429Y-17999238D02*
X12375952Y-17989714D01*
X12375952Y-17989714D02*
X12395000Y-17980190D01*
X12395000Y-17980190D02*
X12423571Y-17980190D01*
X12423571Y-17980190D02*
X12442619Y-17989714D01*
X12442619Y-17989714D02*
X12452143Y-18008762D01*
X12452143Y-18008762D02*
X12452143Y-18113524D01*
X12452143Y-18008762D02*
X12461667Y-17989714D01*
X12461667Y-17989714D02*
X12480714Y-17980190D01*
X12480714Y-17980190D02*
X12509286Y-17980190D01*
X12509286Y-17980190D02*
X12528333Y-17989714D01*
X12528333Y-17989714D02*
X12537857Y-18008762D01*
X12537857Y-18008762D02*
X12537857Y-18113524D01*
X12928333Y-17904000D02*
X12756905Y-18161143D01*
X13185476Y-17913524D02*
X13204524Y-17913524D01*
X13204524Y-17913524D02*
X13223572Y-17923048D01*
X13223572Y-17923048D02*
X13233095Y-17932571D01*
X13233095Y-17932571D02*
X13242619Y-17951619D01*
X13242619Y-17951619D02*
X13252143Y-17989714D01*
X13252143Y-17989714D02*
X13252143Y-18037333D01*
X13252143Y-18037333D02*
X13242619Y-18075429D01*
X13242619Y-18075429D02*
X13233095Y-18094476D01*
X13233095Y-18094476D02*
X13223572Y-18104000D01*
X13223572Y-18104000D02*
X13204524Y-18113524D01*
X13204524Y-18113524D02*
X13185476Y-18113524D01*
X13185476Y-18113524D02*
X13166429Y-18104000D01*
X13166429Y-18104000D02*
X13156905Y-18094476D01*
X13156905Y-18094476D02*
X13147381Y-18075429D01*
X13147381Y-18075429D02*
X13137857Y-18037333D01*
X13137857Y-18037333D02*
X13137857Y-17989714D01*
X13137857Y-17989714D02*
X13147381Y-17951619D01*
X13147381Y-17951619D02*
X13156905Y-17932571D01*
X13156905Y-17932571D02*
X13166429Y-17923048D01*
X13166429Y-17923048D02*
X13185476Y-17913524D01*
X13337857Y-18094476D02*
X13347381Y-18104000D01*
X13347381Y-18104000D02*
X13337857Y-18113524D01*
X13337857Y-18113524D02*
X13328333Y-18104000D01*
X13328333Y-18104000D02*
X13337857Y-18094476D01*
X13337857Y-18094476D02*
X13337857Y-18113524D01*
X13537857Y-18113524D02*
X13423572Y-18113524D01*
X13480714Y-18113524D02*
X13480714Y-17913524D01*
X13480714Y-17913524D02*
X13461667Y-17942095D01*
X13461667Y-17942095D02*
X13442619Y-17961143D01*
X13442619Y-17961143D02*
X13423572Y-17970667D01*
X13604524Y-17913524D02*
X13728333Y-17913524D01*
X13728333Y-17913524D02*
X13661667Y-17989714D01*
X13661667Y-17989714D02*
X13690238Y-17989714D01*
X13690238Y-17989714D02*
X13709286Y-17999238D01*
X13709286Y-17999238D02*
X13718810Y-18008762D01*
X13718810Y-18008762D02*
X13728333Y-18027810D01*
X13728333Y-18027810D02*
X13728333Y-18075429D01*
X13728333Y-18075429D02*
X13718810Y-18094476D01*
X13718810Y-18094476D02*
X13709286Y-18104000D01*
X13709286Y-18104000D02*
X13690238Y-18113524D01*
X13690238Y-18113524D02*
X13633095Y-18113524D01*
X13633095Y-18113524D02*
X13614048Y-18104000D01*
X13614048Y-18104000D02*
X13604524Y-18094476D01*
X13795000Y-17913524D02*
X13928333Y-17913524D01*
X13928333Y-17913524D02*
X13842619Y-18113524D01*
X14033095Y-17999238D02*
X14014048Y-17989714D01*
X14014048Y-17989714D02*
X14004524Y-17980190D01*
X14004524Y-17980190D02*
X13995000Y-17961143D01*
X13995000Y-17961143D02*
X13995000Y-17951619D01*
X13995000Y-17951619D02*
X14004524Y-17932571D01*
X14004524Y-17932571D02*
X14014048Y-17923048D01*
X14014048Y-17923048D02*
X14033095Y-17913524D01*
X14033095Y-17913524D02*
X14071191Y-17913524D01*
X14071191Y-17913524D02*
X14090238Y-17923048D01*
X14090238Y-17923048D02*
X14099762Y-17932571D01*
X14099762Y-17932571D02*
X14109286Y-17951619D01*
X14109286Y-17951619D02*
X14109286Y-17961143D01*
X14109286Y-17961143D02*
X14099762Y-17980190D01*
X14099762Y-17980190D02*
X14090238Y-17989714D01*
X14090238Y-17989714D02*
X14071191Y-17999238D01*
X14071191Y-17999238D02*
X14033095Y-17999238D01*
X14033095Y-17999238D02*
X14014048Y-18008762D01*
X14014048Y-18008762D02*
X14004524Y-18018286D01*
X14004524Y-18018286D02*
X13995000Y-18037333D01*
X13995000Y-18037333D02*
X13995000Y-18075429D01*
X13995000Y-18075429D02*
X14004524Y-18094476D01*
X14004524Y-18094476D02*
X14014048Y-18104000D01*
X14014048Y-18104000D02*
X14033095Y-18113524D01*
X14033095Y-18113524D02*
X14071191Y-18113524D01*
X14071191Y-18113524D02*
X14090238Y-18104000D01*
X14090238Y-18104000D02*
X14099762Y-18094476D01*
X14099762Y-18094476D02*
X14109286Y-18075429D01*
X14109286Y-18075429D02*
X14109286Y-18037333D01*
X14109286Y-18037333D02*
X14099762Y-18018286D01*
X14099762Y-18018286D02*
X14090238Y-18008762D01*
X14090238Y-18008762D02*
X14071191Y-17999238D01*
X14185476Y-17913524D02*
X14185476Y-17951619D01*
X14261667Y-17913524D02*
X14261667Y-17951619D01*
X14556905Y-18189714D02*
X14547381Y-18180190D01*
X14547381Y-18180190D02*
X14528334Y-18151619D01*
X14528334Y-18151619D02*
X14518810Y-18132571D01*
X14518810Y-18132571D02*
X14509286Y-18104000D01*
X14509286Y-18104000D02*
X14499762Y-18056381D01*
X14499762Y-18056381D02*
X14499762Y-18018286D01*
X14499762Y-18018286D02*
X14509286Y-17970667D01*
X14509286Y-17970667D02*
X14518810Y-17942095D01*
X14518810Y-17942095D02*
X14528334Y-17923048D01*
X14528334Y-17923048D02*
X14547381Y-17894476D01*
X14547381Y-17894476D02*
X14556905Y-17884952D01*
X14718810Y-17980190D02*
X14718810Y-18113524D01*
X14671191Y-17904000D02*
X14623572Y-18046857D01*
X14623572Y-18046857D02*
X14747381Y-18046857D01*
X14975953Y-18113524D02*
X14975953Y-17913524D01*
X15061667Y-18113524D02*
X15061667Y-18008762D01*
X15061667Y-18008762D02*
X15052143Y-17989714D01*
X15052143Y-17989714D02*
X15033096Y-17980190D01*
X15033096Y-17980190D02*
X15004524Y-17980190D01*
X15004524Y-17980190D02*
X14985476Y-17989714D01*
X14985476Y-17989714D02*
X14975953Y-17999238D01*
X15185476Y-18113524D02*
X15166429Y-18104000D01*
X15166429Y-18104000D02*
X15156905Y-18094476D01*
X15156905Y-18094476D02*
X15147381Y-18075429D01*
X15147381Y-18075429D02*
X15147381Y-18018286D01*
X15147381Y-18018286D02*
X15156905Y-17999238D01*
X15156905Y-17999238D02*
X15166429Y-17989714D01*
X15166429Y-17989714D02*
X15185476Y-17980190D01*
X15185476Y-17980190D02*
X15214048Y-17980190D01*
X15214048Y-17980190D02*
X15233096Y-17989714D01*
X15233096Y-17989714D02*
X15242619Y-17999238D01*
X15242619Y-17999238D02*
X15252143Y-18018286D01*
X15252143Y-18018286D02*
X15252143Y-18075429D01*
X15252143Y-18075429D02*
X15242619Y-18094476D01*
X15242619Y-18094476D02*
X15233096Y-18104000D01*
X15233096Y-18104000D02*
X15214048Y-18113524D01*
X15214048Y-18113524D02*
X15185476Y-18113524D01*
X15366429Y-18113524D02*
X15347381Y-18104000D01*
X15347381Y-18104000D02*
X15337857Y-18084952D01*
X15337857Y-18084952D02*
X15337857Y-17913524D01*
X15518810Y-18104000D02*
X15499762Y-18113524D01*
X15499762Y-18113524D02*
X15461667Y-18113524D01*
X15461667Y-18113524D02*
X15442619Y-18104000D01*
X15442619Y-18104000D02*
X15433096Y-18084952D01*
X15433096Y-18084952D02*
X15433096Y-18008762D01*
X15433096Y-18008762D02*
X15442619Y-17989714D01*
X15442619Y-17989714D02*
X15461667Y-17980190D01*
X15461667Y-17980190D02*
X15499762Y-17980190D01*
X15499762Y-17980190D02*
X15518810Y-17989714D01*
X15518810Y-17989714D02*
X15528334Y-18008762D01*
X15528334Y-18008762D02*
X15528334Y-18027810D01*
X15528334Y-18027810D02*
X15433096Y-18046857D01*
X15604524Y-18104000D02*
X15623572Y-18113524D01*
X15623572Y-18113524D02*
X15661667Y-18113524D01*
X15661667Y-18113524D02*
X15680715Y-18104000D01*
X15680715Y-18104000D02*
X15690238Y-18084952D01*
X15690238Y-18084952D02*
X15690238Y-18075429D01*
X15690238Y-18075429D02*
X15680715Y-18056381D01*
X15680715Y-18056381D02*
X15661667Y-18046857D01*
X15661667Y-18046857D02*
X15633096Y-18046857D01*
X15633096Y-18046857D02*
X15614048Y-18037333D01*
X15614048Y-18037333D02*
X15604524Y-18018286D01*
X15604524Y-18018286D02*
X15604524Y-18008762D01*
X15604524Y-18008762D02*
X15614048Y-17989714D01*
X15614048Y-17989714D02*
X15633096Y-17980190D01*
X15633096Y-17980190D02*
X15661667Y-17980190D01*
X15661667Y-17980190D02*
X15680715Y-17989714D01*
X15756905Y-18189714D02*
X15766429Y-18180190D01*
X15766429Y-18180190D02*
X15785477Y-18151619D01*
X15785477Y-18151619D02*
X15795000Y-18132571D01*
X15795000Y-18132571D02*
X15804524Y-18104000D01*
X15804524Y-18104000D02*
X15814048Y-18056381D01*
X15814048Y-18056381D02*
X15814048Y-18018286D01*
X15814048Y-18018286D02*
X15804524Y-17970667D01*
X15804524Y-17970667D02*
X15795000Y-17942095D01*
X15795000Y-17942095D02*
X15785477Y-17923048D01*
X15785477Y-17923048D02*
X15766429Y-17894476D01*
X15766429Y-17894476D02*
X15756905Y-17884952D01*
M02*
