%TF.GenerationSoftware,KiCad,Pcbnew,7.0.1*%
%TF.CreationDate,2023-08-23T10:04:30+02:00*%
%TF.ProjectId,K_IO_brd,4b5f494f-5f62-4726-942e-6b696361645f,rev?*%
%TF.SameCoordinates,Original*%
%TF.FileFunction,Drillmap*%
%TF.FilePolarity,Positive*%
%FSLAX45Y45*%
G04 Gerber Fmt 4.5, Leading zero omitted, Abs format (unit mm)*
G04 Created by KiCad (PCBNEW 7.0.1) date 2023-08-23 10:04:30*
%MOMM*%
%LPD*%
G01*
G04 APERTURE LIST*
%ADD10C,0.100000*%
%ADD11C,0.200000*%
G04 APERTURE END LIST*
D10*
X11000000Y-6000000D02*
X21000000Y-6000000D01*
X21000000Y-16000000D01*
X11000000Y-16000000D01*
X11000000Y-6000000D01*
D11*
X11242619Y-16317524D02*
X11242619Y-16117524D01*
X11242619Y-16117524D02*
X11290238Y-16117524D01*
X11290238Y-16117524D02*
X11318809Y-16127048D01*
X11318809Y-16127048D02*
X11337857Y-16146095D01*
X11337857Y-16146095D02*
X11347381Y-16165143D01*
X11347381Y-16165143D02*
X11356905Y-16203238D01*
X11356905Y-16203238D02*
X11356905Y-16231809D01*
X11356905Y-16231809D02*
X11347381Y-16269905D01*
X11347381Y-16269905D02*
X11337857Y-16288952D01*
X11337857Y-16288952D02*
X11318809Y-16308000D01*
X11318809Y-16308000D02*
X11290238Y-16317524D01*
X11290238Y-16317524D02*
X11242619Y-16317524D01*
X11442619Y-16317524D02*
X11442619Y-16184190D01*
X11442619Y-16222286D02*
X11452143Y-16203238D01*
X11452143Y-16203238D02*
X11461667Y-16193714D01*
X11461667Y-16193714D02*
X11480714Y-16184190D01*
X11480714Y-16184190D02*
X11499762Y-16184190D01*
X11566428Y-16317524D02*
X11566428Y-16184190D01*
X11566428Y-16117524D02*
X11556905Y-16127048D01*
X11556905Y-16127048D02*
X11566428Y-16136571D01*
X11566428Y-16136571D02*
X11575952Y-16127048D01*
X11575952Y-16127048D02*
X11566428Y-16117524D01*
X11566428Y-16117524D02*
X11566428Y-16136571D01*
X11690238Y-16317524D02*
X11671190Y-16308000D01*
X11671190Y-16308000D02*
X11661667Y-16288952D01*
X11661667Y-16288952D02*
X11661667Y-16117524D01*
X11795000Y-16317524D02*
X11775952Y-16308000D01*
X11775952Y-16308000D02*
X11766428Y-16288952D01*
X11766428Y-16288952D02*
X11766428Y-16117524D01*
X12023571Y-16317524D02*
X12023571Y-16117524D01*
X12023571Y-16117524D02*
X12090238Y-16260381D01*
X12090238Y-16260381D02*
X12156905Y-16117524D01*
X12156905Y-16117524D02*
X12156905Y-16317524D01*
X12337857Y-16317524D02*
X12337857Y-16212762D01*
X12337857Y-16212762D02*
X12328333Y-16193714D01*
X12328333Y-16193714D02*
X12309286Y-16184190D01*
X12309286Y-16184190D02*
X12271190Y-16184190D01*
X12271190Y-16184190D02*
X12252143Y-16193714D01*
X12337857Y-16308000D02*
X12318809Y-16317524D01*
X12318809Y-16317524D02*
X12271190Y-16317524D01*
X12271190Y-16317524D02*
X12252143Y-16308000D01*
X12252143Y-16308000D02*
X12242619Y-16288952D01*
X12242619Y-16288952D02*
X12242619Y-16269905D01*
X12242619Y-16269905D02*
X12252143Y-16250857D01*
X12252143Y-16250857D02*
X12271190Y-16241333D01*
X12271190Y-16241333D02*
X12318809Y-16241333D01*
X12318809Y-16241333D02*
X12337857Y-16231809D01*
X12433095Y-16184190D02*
X12433095Y-16384190D01*
X12433095Y-16193714D02*
X12452143Y-16184190D01*
X12452143Y-16184190D02*
X12490238Y-16184190D01*
X12490238Y-16184190D02*
X12509286Y-16193714D01*
X12509286Y-16193714D02*
X12518809Y-16203238D01*
X12518809Y-16203238D02*
X12528333Y-16222286D01*
X12528333Y-16222286D02*
X12528333Y-16279428D01*
X12528333Y-16279428D02*
X12518809Y-16298476D01*
X12518809Y-16298476D02*
X12509286Y-16308000D01*
X12509286Y-16308000D02*
X12490238Y-16317524D01*
X12490238Y-16317524D02*
X12452143Y-16317524D01*
X12452143Y-16317524D02*
X12433095Y-16308000D01*
X12614048Y-16298476D02*
X12623571Y-16308000D01*
X12623571Y-16308000D02*
X12614048Y-16317524D01*
X12614048Y-16317524D02*
X12604524Y-16308000D01*
X12604524Y-16308000D02*
X12614048Y-16298476D01*
X12614048Y-16298476D02*
X12614048Y-16317524D01*
X12614048Y-16193714D02*
X12623571Y-16203238D01*
X12623571Y-16203238D02*
X12614048Y-16212762D01*
X12614048Y-16212762D02*
X12604524Y-16203238D01*
X12604524Y-16203238D02*
X12614048Y-16193714D01*
X12614048Y-16193714D02*
X12614048Y-16212762D01*
M02*
