G04 #@! TF.GenerationSoftware,KiCad,Pcbnew,7.0.1*
G04 #@! TF.CreationDate,2023-08-23T10:04:26+02:00*
G04 #@! TF.ProjectId,K_IO_brd,4b5f494f-5f62-4726-942e-6b696361645f,rev?*
G04 #@! TF.SameCoordinates,Original*
G04 #@! TF.FileFunction,Soldermask,Top*
G04 #@! TF.FilePolarity,Negative*
%FSLAX46Y46*%
G04 Gerber Fmt 4.6, Leading zero omitted, Abs format (unit mm)*
G04 Created by KiCad (PCBNEW 7.0.1) date 2023-08-23 10:04:26*
%MOMM*%
%LPD*%
G01*
G04 APERTURE LIST*
G04 Aperture macros list*
%AMRoundRect*
0 Rectangle with rounded corners*
0 $1 Rounding radius*
0 $2 $3 $4 $5 $6 $7 $8 $9 X,Y pos of 4 corners*
0 Add a 4 corners polygon primitive as box body*
4,1,4,$2,$3,$4,$5,$6,$7,$8,$9,$2,$3,0*
0 Add four circle primitives for the rounded corners*
1,1,$1+$1,$2,$3*
1,1,$1+$1,$4,$5*
1,1,$1+$1,$6,$7*
1,1,$1+$1,$8,$9*
0 Add four rect primitives between the rounded corners*
20,1,$1+$1,$2,$3,$4,$5,0*
20,1,$1+$1,$4,$5,$6,$7,0*
20,1,$1+$1,$6,$7,$8,$9,0*
20,1,$1+$1,$8,$9,$2,$3,0*%
G04 Aperture macros list end*
%ADD10RoundRect,0.250000X0.600000X-0.600000X0.600000X0.600000X-0.600000X0.600000X-0.600000X-0.600000X0*%
%ADD11C,1.700000*%
%ADD12RoundRect,0.250000X-0.845000X0.620000X-0.845000X-0.620000X0.845000X-0.620000X0.845000X0.620000X0*%
%ADD13O,2.190000X1.740000*%
%ADD14C,0.800000*%
%ADD15C,7.000000*%
%ADD16R,3.800000X3.800000*%
%ADD17C,4.000000*%
%ADD18RoundRect,0.250000X-0.337500X-0.475000X0.337500X-0.475000X0.337500X0.475000X-0.337500X0.475000X0*%
%ADD19RoundRect,0.250000X0.845000X-0.620000X0.845000X0.620000X-0.845000X0.620000X-0.845000X-0.620000X0*%
%ADD20RoundRect,0.250000X-0.600000X-0.600000X0.600000X-0.600000X0.600000X0.600000X-0.600000X0.600000X0*%
%ADD21RoundRect,0.250000X0.350000X-0.850000X0.350000X0.850000X-0.350000X0.850000X-0.350000X-0.850000X0*%
%ADD22RoundRect,0.249997X2.650003X-2.950003X2.650003X2.950003X-2.650003X2.950003X-2.650003X-2.950003X0*%
%ADD23RoundRect,0.250000X0.620000X0.845000X-0.620000X0.845000X-0.620000X-0.845000X0.620000X-0.845000X0*%
%ADD24O,1.740000X2.190000*%
%ADD25RoundRect,0.250000X0.337500X0.475000X-0.337500X0.475000X-0.337500X-0.475000X0.337500X-0.475000X0*%
%ADD26RoundRect,0.250000X-0.620000X-0.845000X0.620000X-0.845000X0.620000X0.845000X-0.620000X0.845000X0*%
G04 APERTURE END LIST*
D10*
X131840000Y-140540000D03*
D11*
X131840000Y-138000000D03*
X134380000Y-140540000D03*
X134380000Y-138000000D03*
X136920000Y-140540000D03*
X136920000Y-138000000D03*
X139460000Y-140540000D03*
X139460000Y-138000000D03*
X142000000Y-140540000D03*
X142000000Y-138000000D03*
D12*
X145000000Y-123000000D03*
D13*
X145000000Y-125540000D03*
X145000000Y-128080000D03*
D14*
X115518845Y-153143845D03*
X116287690Y-151287690D03*
X116287690Y-155000000D03*
X118143845Y-150518845D03*
D15*
X118143845Y-153143845D03*
D14*
X118143845Y-155768845D03*
X120000000Y-151287690D03*
X120000000Y-155000000D03*
X120768845Y-153143845D03*
D16*
X184000000Y-137000000D03*
D17*
X184000000Y-142000000D03*
D18*
X147712500Y-78750000D03*
X149787500Y-78750000D03*
D19*
X116917500Y-117160000D03*
D13*
X116917500Y-114620000D03*
X116917500Y-112080000D03*
X116917500Y-109540000D03*
D20*
X192460000Y-94520000D03*
D11*
X195000000Y-94520000D03*
X192460000Y-97060000D03*
X195000000Y-97060000D03*
X192460000Y-99600000D03*
X195000000Y-99600000D03*
X192460000Y-102140000D03*
X195000000Y-102140000D03*
X192460000Y-104680000D03*
X195000000Y-104680000D03*
X192460000Y-107220000D03*
X195000000Y-107220000D03*
X192460000Y-109760000D03*
X195000000Y-109760000D03*
X192460000Y-112300000D03*
X195000000Y-112300000D03*
X192460000Y-114840000D03*
X195000000Y-114840000D03*
X192460000Y-117380000D03*
X195000000Y-117380000D03*
X192460000Y-119920000D03*
X195000000Y-119920000D03*
X192460000Y-122460000D03*
X195000000Y-122460000D03*
X192460000Y-125000000D03*
X195000000Y-125000000D03*
D14*
X200518845Y-68143845D03*
X201287690Y-66287690D03*
X201287690Y-70000000D03*
X203143845Y-65518845D03*
D15*
X203143845Y-68143845D03*
D14*
X203143845Y-70768845D03*
X205000000Y-66287690D03*
X205000000Y-70000000D03*
X205768845Y-68143845D03*
D21*
X154690000Y-143000000D03*
X156970000Y-143000000D03*
D22*
X156970000Y-136700000D03*
D21*
X159250000Y-143000000D03*
D19*
X116880000Y-89660000D03*
D13*
X116880000Y-87120000D03*
X116880000Y-84580000D03*
X116880000Y-82040000D03*
D16*
X136000000Y-122500000D03*
D17*
X136000000Y-127500000D03*
D16*
X173000000Y-137000000D03*
D17*
X173000000Y-142000000D03*
D23*
X162560000Y-153980000D03*
D24*
X160020000Y-153980000D03*
X157480000Y-153980000D03*
X154940000Y-153980000D03*
D18*
X139962500Y-61250000D03*
X142037500Y-61250000D03*
D10*
X131840000Y-153540000D03*
D11*
X131840000Y-151000000D03*
X134380000Y-153540000D03*
X134380000Y-151000000D03*
X136920000Y-153540000D03*
X136920000Y-151000000D03*
X139460000Y-153540000D03*
X139460000Y-151000000D03*
X142000000Y-153540000D03*
X142000000Y-151000000D03*
D25*
X143787500Y-78750000D03*
X141712500Y-78750000D03*
D14*
X200518845Y-153143845D03*
X201287690Y-151287690D03*
X201287690Y-155000000D03*
X203143845Y-150518845D03*
D15*
X203143845Y-153143845D03*
D14*
X203143845Y-155768845D03*
X205000000Y-151287690D03*
X205000000Y-155000000D03*
X205768845Y-153143845D03*
X115518845Y-68143845D03*
X116287690Y-66287690D03*
X116287690Y-70000000D03*
X118143845Y-65518845D03*
D15*
X118143845Y-68143845D03*
D14*
X118143845Y-70768845D03*
X120000000Y-66287690D03*
X120000000Y-70000000D03*
X120768845Y-68143845D03*
D10*
X131840000Y-68540000D03*
D11*
X131840000Y-66000000D03*
X134380000Y-68540000D03*
X134380000Y-66000000D03*
X136920000Y-68540000D03*
X136920000Y-66000000D03*
X139460000Y-68540000D03*
X139460000Y-66000000D03*
X142000000Y-68540000D03*
X142000000Y-66000000D03*
D26*
X165460000Y-66000000D03*
D24*
X168000000Y-66000000D03*
X170540000Y-66000000D03*
D25*
X136825000Y-61250000D03*
X134750000Y-61250000D03*
D12*
X157000000Y-123250000D03*
D13*
X157000000Y-125790000D03*
D10*
X178840000Y-68540000D03*
D11*
X178840000Y-66000000D03*
X181380000Y-68540000D03*
X181380000Y-66000000D03*
X183920000Y-68540000D03*
X183920000Y-66000000D03*
X186460000Y-68540000D03*
X186460000Y-66000000D03*
X189000000Y-68540000D03*
X189000000Y-66000000D03*
D19*
X116897500Y-131160000D03*
D13*
X116897500Y-128620000D03*
X116897500Y-126080000D03*
X116897500Y-123540000D03*
D23*
X173500000Y-154000000D03*
D24*
X170960000Y-154000000D03*
D23*
X183580000Y-154000000D03*
D24*
X181040000Y-154000000D03*
X178500000Y-154000000D03*
D26*
X151842500Y-66000000D03*
D24*
X154382500Y-66000000D03*
X156922500Y-66000000D03*
X159462500Y-66000000D03*
D19*
X116417500Y-103160000D03*
D13*
X116417500Y-100620000D03*
X116417500Y-98080000D03*
X116417500Y-95540000D03*
M02*
