G04 #@! TF.GenerationSoftware,KiCad,Pcbnew,7.0.1*
G04 #@! TF.CreationDate,2023-08-23T10:04:26+02:00*
G04 #@! TF.ProjectId,K_IO_brd,4b5f494f-5f62-4726-942e-6b696361645f,rev?*
G04 #@! TF.SameCoordinates,Original*
G04 #@! TF.FileFunction,Copper,L1,Top*
G04 #@! TF.FilePolarity,Positive*
%FSLAX46Y46*%
G04 Gerber Fmt 4.6, Leading zero omitted, Abs format (unit mm)*
G04 Created by KiCad (PCBNEW 7.0.1) date 2023-08-23 10:04:26*
%MOMM*%
%LPD*%
G01*
G04 APERTURE LIST*
G04 Aperture macros list*
%AMRoundRect*
0 Rectangle with rounded corners*
0 $1 Rounding radius*
0 $2 $3 $4 $5 $6 $7 $8 $9 X,Y pos of 4 corners*
0 Add a 4 corners polygon primitive as box body*
4,1,4,$2,$3,$4,$5,$6,$7,$8,$9,$2,$3,0*
0 Add four circle primitives for the rounded corners*
1,1,$1+$1,$2,$3*
1,1,$1+$1,$4,$5*
1,1,$1+$1,$6,$7*
1,1,$1+$1,$8,$9*
0 Add four rect primitives between the rounded corners*
20,1,$1+$1,$2,$3,$4,$5,0*
20,1,$1+$1,$4,$5,$6,$7,0*
20,1,$1+$1,$6,$7,$8,$9,0*
20,1,$1+$1,$8,$9,$2,$3,0*%
G04 Aperture macros list end*
G04 #@! TA.AperFunction,ComponentPad*
%ADD10RoundRect,0.250000X0.600000X-0.600000X0.600000X0.600000X-0.600000X0.600000X-0.600000X-0.600000X0*%
G04 #@! TD*
G04 #@! TA.AperFunction,ComponentPad*
%ADD11C,1.700000*%
G04 #@! TD*
G04 #@! TA.AperFunction,ComponentPad*
%ADD12RoundRect,0.250000X-0.845000X0.620000X-0.845000X-0.620000X0.845000X-0.620000X0.845000X0.620000X0*%
G04 #@! TD*
G04 #@! TA.AperFunction,ComponentPad*
%ADD13O,2.190000X1.740000*%
G04 #@! TD*
G04 #@! TA.AperFunction,ComponentPad*
%ADD14C,0.800000*%
G04 #@! TD*
G04 #@! TA.AperFunction,ComponentPad*
%ADD15C,7.000000*%
G04 #@! TD*
G04 #@! TA.AperFunction,ComponentPad*
%ADD16R,3.800000X3.800000*%
G04 #@! TD*
G04 #@! TA.AperFunction,ComponentPad*
%ADD17C,4.000000*%
G04 #@! TD*
G04 #@! TA.AperFunction,SMDPad,CuDef*
%ADD18RoundRect,0.250000X-0.337500X-0.475000X0.337500X-0.475000X0.337500X0.475000X-0.337500X0.475000X0*%
G04 #@! TD*
G04 #@! TA.AperFunction,ComponentPad*
%ADD19RoundRect,0.250000X0.845000X-0.620000X0.845000X0.620000X-0.845000X0.620000X-0.845000X-0.620000X0*%
G04 #@! TD*
G04 #@! TA.AperFunction,ComponentPad*
%ADD20RoundRect,0.250000X-0.600000X-0.600000X0.600000X-0.600000X0.600000X0.600000X-0.600000X0.600000X0*%
G04 #@! TD*
G04 #@! TA.AperFunction,SMDPad,CuDef*
%ADD21RoundRect,0.250000X0.350000X-0.850000X0.350000X0.850000X-0.350000X0.850000X-0.350000X-0.850000X0*%
G04 #@! TD*
G04 #@! TA.AperFunction,SMDPad,CuDef*
%ADD22RoundRect,0.250000X1.125000X-1.275000X1.125000X1.275000X-1.125000X1.275000X-1.125000X-1.275000X0*%
G04 #@! TD*
G04 #@! TA.AperFunction,SMDPad,CuDef*
%ADD23RoundRect,0.249997X2.650003X-2.950003X2.650003X2.950003X-2.650003X2.950003X-2.650003X-2.950003X0*%
G04 #@! TD*
G04 #@! TA.AperFunction,ComponentPad*
%ADD24RoundRect,0.250000X0.620000X0.845000X-0.620000X0.845000X-0.620000X-0.845000X0.620000X-0.845000X0*%
G04 #@! TD*
G04 #@! TA.AperFunction,ComponentPad*
%ADD25O,1.740000X2.190000*%
G04 #@! TD*
G04 #@! TA.AperFunction,SMDPad,CuDef*
%ADD26RoundRect,0.250000X0.337500X0.475000X-0.337500X0.475000X-0.337500X-0.475000X0.337500X-0.475000X0*%
G04 #@! TD*
G04 #@! TA.AperFunction,ComponentPad*
%ADD27RoundRect,0.250000X-0.620000X-0.845000X0.620000X-0.845000X0.620000X0.845000X-0.620000X0.845000X0*%
G04 #@! TD*
G04 #@! TA.AperFunction,ViaPad*
%ADD28C,0.800000*%
G04 #@! TD*
G04 #@! TA.AperFunction,Conductor*
%ADD29C,1.000000*%
G04 #@! TD*
G04 #@! TA.AperFunction,Conductor*
%ADD30C,0.250000*%
G04 #@! TD*
G04 #@! TA.AperFunction,Conductor*
%ADD31C,2.000000*%
G04 #@! TD*
G04 APERTURE END LIST*
D10*
X131840000Y-140540000D03*
D11*
X131840000Y-138000000D03*
X134380000Y-140540000D03*
X134380000Y-138000000D03*
X136920000Y-140540000D03*
X136920000Y-138000000D03*
X139460000Y-140540000D03*
X139460000Y-138000000D03*
X142000000Y-140540000D03*
X142000000Y-138000000D03*
D12*
X145000000Y-123000000D03*
D13*
X145000000Y-125540000D03*
X145000000Y-128080000D03*
D14*
X115518845Y-153143845D03*
X116287690Y-151287690D03*
X116287690Y-155000000D03*
X118143845Y-150518845D03*
D15*
X118143845Y-153143845D03*
D14*
X118143845Y-155768845D03*
X120000000Y-151287690D03*
X120000000Y-155000000D03*
X120768845Y-153143845D03*
D16*
X184000000Y-137000000D03*
D17*
X184000000Y-142000000D03*
D18*
X147712500Y-78750000D03*
X149787500Y-78750000D03*
D19*
X116917500Y-117160000D03*
D13*
X116917500Y-114620000D03*
X116917500Y-112080000D03*
X116917500Y-109540000D03*
D20*
X192460000Y-94520000D03*
D11*
X195000000Y-94520000D03*
X192460000Y-97060000D03*
X195000000Y-97060000D03*
X192460000Y-99600000D03*
X195000000Y-99600000D03*
X192460000Y-102140000D03*
X195000000Y-102140000D03*
X192460000Y-104680000D03*
X195000000Y-104680000D03*
X192460000Y-107220000D03*
X195000000Y-107220000D03*
X192460000Y-109760000D03*
X195000000Y-109760000D03*
X192460000Y-112300000D03*
X195000000Y-112300000D03*
X192460000Y-114840000D03*
X195000000Y-114840000D03*
X192460000Y-117380000D03*
X195000000Y-117380000D03*
X192460000Y-119920000D03*
X195000000Y-119920000D03*
X192460000Y-122460000D03*
X195000000Y-122460000D03*
X192460000Y-125000000D03*
X195000000Y-125000000D03*
D14*
X200518845Y-68143845D03*
X201287690Y-66287690D03*
X201287690Y-70000000D03*
X203143845Y-65518845D03*
D15*
X203143845Y-68143845D03*
D14*
X203143845Y-70768845D03*
X205000000Y-66287690D03*
X205000000Y-70000000D03*
X205768845Y-68143845D03*
D21*
X154690000Y-143000000D03*
X156970000Y-143000000D03*
D22*
X155445000Y-138375000D03*
X158495000Y-138375000D03*
D23*
X156970000Y-136700000D03*
D22*
X155445000Y-135025000D03*
X158495000Y-135025000D03*
D21*
X159250000Y-143000000D03*
D19*
X116880000Y-89660000D03*
D13*
X116880000Y-87120000D03*
X116880000Y-84580000D03*
X116880000Y-82040000D03*
D16*
X136000000Y-122500000D03*
D17*
X136000000Y-127500000D03*
D16*
X173000000Y-137000000D03*
D17*
X173000000Y-142000000D03*
D24*
X162560000Y-153980000D03*
D25*
X160020000Y-153980000D03*
X157480000Y-153980000D03*
X154940000Y-153980000D03*
D18*
X139962500Y-61250000D03*
X142037500Y-61250000D03*
D10*
X131840000Y-153540000D03*
D11*
X131840000Y-151000000D03*
X134380000Y-153540000D03*
X134380000Y-151000000D03*
X136920000Y-153540000D03*
X136920000Y-151000000D03*
X139460000Y-153540000D03*
X139460000Y-151000000D03*
X142000000Y-153540000D03*
X142000000Y-151000000D03*
D26*
X143787500Y-78750000D03*
X141712500Y-78750000D03*
D14*
X200518845Y-153143845D03*
X201287690Y-151287690D03*
X201287690Y-155000000D03*
X203143845Y-150518845D03*
D15*
X203143845Y-153143845D03*
D14*
X203143845Y-155768845D03*
X205000000Y-151287690D03*
X205000000Y-155000000D03*
X205768845Y-153143845D03*
X115518845Y-68143845D03*
X116287690Y-66287690D03*
X116287690Y-70000000D03*
X118143845Y-65518845D03*
D15*
X118143845Y-68143845D03*
D14*
X118143845Y-70768845D03*
X120000000Y-66287690D03*
X120000000Y-70000000D03*
X120768845Y-68143845D03*
D10*
X131840000Y-68540000D03*
D11*
X131840000Y-66000000D03*
X134380000Y-68540000D03*
X134380000Y-66000000D03*
X136920000Y-68540000D03*
X136920000Y-66000000D03*
X139460000Y-68540000D03*
X139460000Y-66000000D03*
X142000000Y-68540000D03*
X142000000Y-66000000D03*
D27*
X165460000Y-66000000D03*
D25*
X168000000Y-66000000D03*
X170540000Y-66000000D03*
D26*
X136825000Y-61250000D03*
X134750000Y-61250000D03*
D12*
X157000000Y-123250000D03*
D13*
X157000000Y-125790000D03*
D10*
X178840000Y-68540000D03*
D11*
X178840000Y-66000000D03*
X181380000Y-68540000D03*
X181380000Y-66000000D03*
X183920000Y-68540000D03*
X183920000Y-66000000D03*
X186460000Y-68540000D03*
X186460000Y-66000000D03*
X189000000Y-68540000D03*
X189000000Y-66000000D03*
D19*
X116897500Y-131160000D03*
D13*
X116897500Y-128620000D03*
X116897500Y-126080000D03*
X116897500Y-123540000D03*
D24*
X173500000Y-154000000D03*
D25*
X170960000Y-154000000D03*
D24*
X183580000Y-154000000D03*
D25*
X181040000Y-154000000D03*
X178500000Y-154000000D03*
D27*
X151842500Y-66000000D03*
D25*
X154382500Y-66000000D03*
X156922500Y-66000000D03*
X159462500Y-66000000D03*
D19*
X116417500Y-103160000D03*
D13*
X116417500Y-100620000D03*
X116417500Y-98080000D03*
X116417500Y-95540000D03*
D28*
X180000000Y-62500000D03*
X155000000Y-62500000D03*
X183000000Y-85250000D03*
X155000000Y-136000000D03*
X157000000Y-134000000D03*
X170000000Y-102000000D03*
X159000000Y-134000000D03*
X190000000Y-62500000D03*
X135000000Y-115000000D03*
X160000000Y-80000000D03*
X160000000Y-102000000D03*
X170000000Y-62500000D03*
X125000000Y-75000000D03*
X170000000Y-115000000D03*
X155000000Y-134000000D03*
X199000000Y-113750000D03*
X150000000Y-80500000D03*
X195000000Y-135000000D03*
X155000000Y-102000000D03*
X165000000Y-102000000D03*
X201000000Y-112500000D03*
X159000000Y-138000000D03*
X157000000Y-136000000D03*
X205000000Y-135000000D03*
X195000000Y-150000000D03*
X165000000Y-62500000D03*
X189000000Y-107750000D03*
X175000000Y-120000000D03*
X170000000Y-80000000D03*
X157000000Y-138000000D03*
X125000000Y-155000000D03*
X150000000Y-102000000D03*
X195000000Y-145000000D03*
X120000000Y-135000000D03*
X115000000Y-75000000D03*
X201000000Y-115250000D03*
X165000000Y-80000000D03*
X145000000Y-115000000D03*
X184000000Y-104500000D03*
X125000000Y-140000000D03*
X150000000Y-62500000D03*
X175000000Y-62500000D03*
X159000000Y-136000000D03*
X150000000Y-115000000D03*
X185000000Y-130000000D03*
X185000000Y-62500000D03*
X155000000Y-115000000D03*
X165000000Y-115000000D03*
X125000000Y-145000000D03*
X195000000Y-140000000D03*
X200000000Y-75000000D03*
X120000000Y-75000000D03*
X195000000Y-155000000D03*
X195000000Y-75000000D03*
X200000000Y-135000000D03*
X205000000Y-75000000D03*
X160000000Y-115000000D03*
X155000000Y-138000000D03*
X125000000Y-135000000D03*
X160000000Y-62500000D03*
X140000000Y-115000000D03*
X180000000Y-125000000D03*
X125000000Y-150000000D03*
X144499999Y-68499999D03*
X144500000Y-112750000D03*
X202000000Y-131500000D03*
X200750000Y-129750000D03*
X147000000Y-111050500D03*
X147000000Y-68500000D03*
X199500000Y-128500000D03*
X125500000Y-65500000D03*
X132500000Y-110000000D03*
X126000001Y-67499999D03*
X198250000Y-127250000D03*
X133500001Y-108499999D03*
X135000000Y-107250000D03*
X134025002Y-73000000D03*
X136930495Y-76992000D03*
X136514068Y-106050500D03*
X138014068Y-104851000D03*
X138014068Y-79000000D03*
X143000000Y-73000000D03*
X139500001Y-103500000D03*
X184000000Y-147000000D03*
X155500000Y-94500000D03*
X155462500Y-70500000D03*
X127000000Y-90000000D03*
X127000000Y-130000000D03*
X200500001Y-90500001D03*
X197500001Y-93500001D03*
X125500000Y-92970000D03*
X125500000Y-101500000D03*
X128944588Y-91770500D03*
X199000000Y-91499999D03*
X129000000Y-115000000D03*
X203199500Y-88000000D03*
X187500000Y-86750000D03*
X178840000Y-101500000D03*
X201499999Y-85249999D03*
X186500000Y-85250000D03*
X175000000Y-101500000D03*
X204750000Y-83750000D03*
X177000001Y-83749999D03*
X206000000Y-125000000D03*
X181250000Y-82250000D03*
X206249999Y-82249999D03*
X128500000Y-140500000D03*
X127000000Y-143000000D03*
X147500000Y-149000000D03*
X146000000Y-151000000D03*
D29*
X155462500Y-70500000D02*
X155500000Y-70537500D01*
X155500000Y-70537500D02*
X155500000Y-94500000D01*
X155000000Y-136000000D02*
X157000000Y-136000000D01*
X157000000Y-134000000D02*
X155000000Y-134000000D01*
X159000000Y-136000000D02*
X159000000Y-134000000D01*
X157000000Y-138000000D02*
X157000000Y-136000000D01*
X155000000Y-134000000D02*
X155000000Y-136000000D01*
X157000000Y-138000000D02*
X159000000Y-138000000D01*
X159000000Y-138000000D02*
X159000000Y-136000000D01*
X159000000Y-134000000D02*
X157000000Y-134000000D01*
X157000000Y-136000000D02*
X159000000Y-136000000D01*
X157000000Y-134000000D02*
X157000000Y-136000000D01*
X155000000Y-138000000D02*
X157000000Y-138000000D01*
X139460000Y-66000000D02*
X139460000Y-61752500D01*
X139460000Y-61752500D02*
X139962500Y-61250000D01*
X136920000Y-61345000D02*
X136825000Y-61250000D01*
X136920000Y-66000000D02*
X136920000Y-61345000D01*
X195000000Y-114840000D02*
X197340000Y-114840000D01*
X197340000Y-114840000D02*
X202000000Y-119500000D01*
D30*
X143787500Y-78750000D02*
X143999999Y-78750000D01*
D29*
X202000000Y-119500000D02*
X202000000Y-131500000D01*
X144499999Y-68499999D02*
X144499999Y-78250000D01*
X144499999Y-112749999D02*
X144500000Y-112750000D01*
X144499999Y-78250000D02*
X144499999Y-112749999D01*
D30*
X143999999Y-78750000D02*
X144499999Y-78250000D01*
X147500000Y-78750000D02*
X147000000Y-78250000D01*
D29*
X147000000Y-78250000D02*
X147000000Y-111050500D01*
X195000000Y-117380000D02*
X200750000Y-123130000D01*
X147000000Y-68500000D02*
X147000000Y-78250000D01*
X200750000Y-123130000D02*
X200750000Y-129750000D01*
D30*
X147712500Y-78750000D02*
X147500000Y-78750000D01*
D29*
X199500000Y-124420000D02*
X199500000Y-128500000D01*
X132000000Y-109500000D02*
X132500000Y-110000000D01*
X132000000Y-76500000D02*
X132000000Y-109500000D01*
X124500000Y-66500000D02*
X124500000Y-69000000D01*
X125500000Y-65500000D02*
X124500000Y-66500000D01*
X124500000Y-69000000D02*
X132000000Y-76500000D01*
X195000000Y-119920000D02*
X199500000Y-124420000D01*
X195000000Y-122460000D02*
X198250000Y-125710000D01*
X198250000Y-125710000D02*
X198250000Y-127250000D01*
X126000001Y-68000001D02*
X126000001Y-67499999D01*
X133500001Y-75500001D02*
X126000001Y-68000001D01*
X133500001Y-108499999D02*
X133500001Y-75500001D01*
X135000000Y-73974998D02*
X134025002Y-73000000D01*
X135000000Y-107250000D02*
X135000000Y-73974998D01*
X136930495Y-76992000D02*
X136514068Y-77408427D01*
X136514068Y-77408427D02*
X136514068Y-106050500D01*
X138014068Y-79000000D02*
X138014068Y-104851000D01*
X143000000Y-73000000D02*
X139500000Y-76500000D01*
X139500000Y-76500000D02*
X139500001Y-103500000D01*
X184000000Y-147000000D02*
X188500000Y-147000000D01*
X188500000Y-147000000D02*
X192460000Y-143040000D01*
X192460000Y-143040000D02*
X192460000Y-125000000D01*
X196860000Y-102140000D02*
X200500000Y-98500000D01*
X127000000Y-90000000D02*
X127000000Y-130000000D01*
X200500000Y-98500000D02*
X200500001Y-90500001D01*
X195000000Y-102140000D02*
X196860000Y-102140000D01*
X197500001Y-94559999D02*
X197500001Y-93500001D01*
X125500000Y-92970000D02*
X125500000Y-101500000D01*
X195000000Y-97060000D02*
X197500001Y-94559999D01*
X199000000Y-98000000D02*
X199000000Y-91499999D01*
X197400000Y-99600000D02*
X199000000Y-98000000D01*
X129000000Y-115000000D02*
X129000000Y-91825912D01*
X129000000Y-91825912D02*
X128944588Y-91770500D01*
X195000000Y-99600000D02*
X197400000Y-99600000D01*
X203500000Y-102500000D02*
X203500000Y-88300500D01*
X195000000Y-109760000D02*
X196240000Y-109760000D01*
X196240000Y-109760000D02*
X203500000Y-102500000D01*
X203500000Y-88300500D02*
X203199500Y-88000000D01*
X192460000Y-112300000D02*
X189300000Y-112300000D01*
X187500000Y-110500000D02*
X187500000Y-86750000D01*
X189300000Y-112300000D02*
X187500000Y-110500000D01*
X178840000Y-68540000D02*
X178840000Y-101500000D01*
X191500000Y-69558008D02*
X189500000Y-71558008D01*
X183920000Y-66000000D02*
X183920000Y-65080000D01*
X189500000Y-106000000D02*
X190720000Y-107220000D01*
X183920000Y-65080000D02*
X185000000Y-64000000D01*
X185000000Y-64000000D02*
X190000000Y-64000000D01*
X190000000Y-64000000D02*
X191500000Y-65500000D01*
X189500000Y-71558008D02*
X189500000Y-106000000D01*
X190720000Y-107220000D02*
X192460000Y-107220000D01*
X191500000Y-65500000D02*
X191500000Y-69558008D01*
X202000000Y-85750000D02*
X201499999Y-85249999D01*
X195000000Y-107220000D02*
X202000000Y-100220000D01*
X186460000Y-68540000D02*
X186460000Y-85210000D01*
X186460000Y-85210000D02*
X186500000Y-85250000D01*
X202000000Y-100220000D02*
X202000000Y-85750000D01*
X177000000Y-64000000D02*
X175000000Y-66000000D01*
X181380000Y-66000000D02*
X179380000Y-64000000D01*
X179380000Y-64000000D02*
X177000000Y-64000000D01*
X175000000Y-66000000D02*
X175000000Y-101500000D01*
X178840000Y-66000000D02*
X177637919Y-66000000D01*
X177637919Y-66000000D02*
X177000001Y-66637918D01*
X195000000Y-112300000D02*
X196700000Y-112300000D01*
X177000001Y-66637918D02*
X177000001Y-83749999D01*
X204750000Y-104250000D02*
X204750000Y-83750000D01*
X196700000Y-112300000D02*
X204750000Y-104250000D01*
X206500000Y-82500000D02*
X206249999Y-82249999D01*
X206000000Y-125000000D02*
X206500000Y-124500000D01*
X181380000Y-82120000D02*
X181250000Y-82250000D01*
X206500000Y-124500000D02*
X206500000Y-82500000D01*
X181380000Y-68540000D02*
X181380000Y-82120000D01*
X128500000Y-150850000D02*
X128500000Y-140500000D01*
X131840000Y-153540000D02*
X131190000Y-153540000D01*
X131190000Y-153540000D02*
X128500000Y-150850000D01*
X131000000Y-138000000D02*
X131840000Y-138000000D01*
X131840000Y-151000000D02*
X130000000Y-149160000D01*
X130000000Y-149160000D02*
X130000000Y-139000000D01*
X130000000Y-139000000D02*
X131000000Y-138000000D01*
X130500000Y-155500000D02*
X127000000Y-152000000D01*
X136920000Y-153540000D02*
X134960000Y-155500000D01*
X134960000Y-155500000D02*
X130500000Y-155500000D01*
X127000000Y-152000000D02*
X127000000Y-143000000D01*
X138710000Y-136000000D02*
X143500000Y-136000000D01*
X143500000Y-136000000D02*
X147500000Y-140000000D01*
X136920000Y-138000000D02*
X136920000Y-137790000D01*
X147500000Y-140000000D02*
X147500000Y-149000000D01*
X136920000Y-137790000D02*
X138710000Y-136000000D01*
X142000000Y-153540000D02*
X142960000Y-153540000D01*
X144500000Y-143040000D02*
X142000000Y-140540000D01*
X142960000Y-153540000D02*
X144500000Y-152000000D01*
X144500000Y-152000000D02*
X144500000Y-143040000D01*
X142500000Y-138000000D02*
X146000000Y-141500000D01*
X146000000Y-141500000D02*
X146000000Y-151000000D01*
X142000000Y-138000000D02*
X142500000Y-138000000D01*
D31*
X170500000Y-142000000D02*
X173000000Y-142000000D01*
X173000000Y-142000000D02*
X184000000Y-142000000D01*
X154940000Y-156190000D02*
X156000000Y-157250000D01*
X162560000Y-156440000D02*
X162560000Y-153980000D01*
X162560000Y-153980000D02*
X162560000Y-149940000D01*
X154940000Y-143250000D02*
X154940000Y-153980000D01*
D29*
X154690000Y-143000000D02*
X154940000Y-143250000D01*
D31*
X161750000Y-157250000D02*
X162560000Y-156440000D01*
X156000000Y-157250000D02*
X161750000Y-157250000D01*
X162560000Y-149940000D02*
X170500000Y-142000000D01*
X154940000Y-153980000D02*
X154940000Y-156190000D01*
X162000000Y-143000000D02*
X159250000Y-143000000D01*
X157000000Y-125790000D02*
X160960000Y-125790000D01*
X163750000Y-128580000D02*
X163750000Y-141250000D01*
X160960000Y-125790000D02*
X163750000Y-128580000D01*
X163750000Y-141250000D02*
X162000000Y-143000000D01*
X138500000Y-127500000D02*
X136000000Y-127500000D01*
X145000000Y-123000000D02*
X143000000Y-123000000D01*
X145000000Y-128080000D02*
X136580000Y-128080000D01*
D29*
X136580000Y-128080000D02*
X136000000Y-127500000D01*
X137500000Y-127500000D02*
X136000000Y-127500000D01*
D31*
X143000000Y-123000000D02*
X138500000Y-127500000D01*
G04 #@! TA.AperFunction,Conductor*
G36*
X140787257Y-141186975D02*
G01*
X140831573Y-141225839D01*
X140961505Y-141411401D01*
X141128599Y-141578495D01*
X141322170Y-141714035D01*
X141536337Y-141813903D01*
X141764592Y-141875063D01*
X141890096Y-141886043D01*
X141931692Y-141897189D01*
X141966969Y-141921890D01*
X143463181Y-143418101D01*
X143490061Y-143458329D01*
X143499500Y-143505782D01*
X143499500Y-150460803D01*
X143481789Y-150524668D01*
X143433715Y-150570288D01*
X143369011Y-150584633D01*
X143306160Y-150563604D01*
X143263118Y-150513208D01*
X143202968Y-150384218D01*
X143174035Y-150322171D01*
X143038495Y-150128599D01*
X142871401Y-149961505D01*
X142677830Y-149825965D01*
X142463663Y-149726097D01*
X142402502Y-149709709D01*
X142235407Y-149664936D01*
X142000000Y-149644340D01*
X141764592Y-149664936D01*
X141536336Y-149726097D01*
X141322170Y-149825965D01*
X141128598Y-149961505D01*
X140961508Y-150128595D01*
X140961505Y-150128598D01*
X140961505Y-150128599D01*
X140831271Y-150314594D01*
X140831270Y-150314595D01*
X140786952Y-150353460D01*
X140729695Y-150367471D01*
X140672438Y-150353460D01*
X140628120Y-150314595D01*
X140574925Y-150238626D01*
X140574925Y-150238625D01*
X139813553Y-151000000D01*
X139813553Y-151000001D01*
X140574925Y-151761373D01*
X140628119Y-151685405D01*
X140672437Y-151646539D01*
X140729694Y-151632528D01*
X140786951Y-151646539D01*
X140831267Y-151685402D01*
X140961505Y-151871401D01*
X141128599Y-152038495D01*
X141314160Y-152168426D01*
X141353024Y-152212743D01*
X141367035Y-152270000D01*
X141353024Y-152327257D01*
X141314159Y-152371575D01*
X141283738Y-152392875D01*
X141147814Y-152488051D01*
X141128595Y-152501508D01*
X140961505Y-152668598D01*
X140831575Y-152854159D01*
X140787257Y-152893025D01*
X140730000Y-152907036D01*
X140672743Y-152893025D01*
X140628425Y-152854159D01*
X140550493Y-152742860D01*
X140498495Y-152668599D01*
X140331401Y-152501505D01*
X140145402Y-152371267D01*
X140106539Y-152326951D01*
X140092528Y-152269694D01*
X140106539Y-152212437D01*
X140145405Y-152168119D01*
X140221373Y-152114925D01*
X139460000Y-151353553D01*
X138698625Y-152114925D01*
X138774594Y-152168119D01*
X138813460Y-152212437D01*
X138827471Y-152269694D01*
X138813461Y-152326950D01*
X138774595Y-152371269D01*
X138685225Y-152433847D01*
X138607814Y-152488051D01*
X138588595Y-152501508D01*
X138421505Y-152668598D01*
X138291575Y-152854159D01*
X138247257Y-152893025D01*
X138190000Y-152907036D01*
X138132743Y-152893025D01*
X138088425Y-152854159D01*
X138010493Y-152742860D01*
X137958495Y-152668599D01*
X137791401Y-152501505D01*
X137605839Y-152371573D01*
X137566975Y-152327257D01*
X137552964Y-152270000D01*
X137566975Y-152212743D01*
X137605839Y-152168426D01*
X137791401Y-152038495D01*
X137958495Y-151871401D01*
X138088732Y-151685402D01*
X138133048Y-151646539D01*
X138190305Y-151632528D01*
X138247562Y-151646539D01*
X138291880Y-151685405D01*
X138345073Y-151761373D01*
X139106447Y-151000001D01*
X139106447Y-150999999D01*
X138345073Y-150238626D01*
X138291881Y-150314594D01*
X138247563Y-150353460D01*
X138190306Y-150367471D01*
X138133048Y-150353460D01*
X138088730Y-150314595D01*
X137958495Y-150128599D01*
X137791401Y-149961505D01*
X137682243Y-149885072D01*
X138698625Y-149885072D01*
X139460000Y-150646447D01*
X139460001Y-150646447D01*
X140221373Y-149885073D01*
X140221373Y-149885072D01*
X140137580Y-149826400D01*
X139923492Y-149726569D01*
X139695318Y-149665430D01*
X139459999Y-149644842D01*
X139224681Y-149665430D01*
X138996507Y-149726569D01*
X138782422Y-149826399D01*
X138698625Y-149885072D01*
X137682243Y-149885072D01*
X137597830Y-149825965D01*
X137383663Y-149726097D01*
X137322502Y-149709709D01*
X137155407Y-149664936D01*
X136920000Y-149644340D01*
X136684592Y-149664936D01*
X136456336Y-149726097D01*
X136242170Y-149825965D01*
X136048598Y-149961505D01*
X135881508Y-150128595D01*
X135881505Y-150128598D01*
X135881505Y-150128599D01*
X135751271Y-150314594D01*
X135751270Y-150314595D01*
X135706952Y-150353460D01*
X135649695Y-150367471D01*
X135592438Y-150353460D01*
X135548120Y-150314595D01*
X135494925Y-150238626D01*
X135494925Y-150238625D01*
X134733553Y-151000000D01*
X134733553Y-151000001D01*
X135494925Y-151761373D01*
X135548119Y-151685405D01*
X135592437Y-151646539D01*
X135649694Y-151632528D01*
X135706951Y-151646539D01*
X135751267Y-151685402D01*
X135881505Y-151871401D01*
X136048599Y-152038495D01*
X136234160Y-152168426D01*
X136273024Y-152212743D01*
X136287035Y-152270000D01*
X136273024Y-152327257D01*
X136234159Y-152371575D01*
X136203738Y-152392875D01*
X136067814Y-152488051D01*
X136048595Y-152501508D01*
X135881505Y-152668598D01*
X135751575Y-152854159D01*
X135707257Y-152893025D01*
X135650000Y-152907036D01*
X135592743Y-152893025D01*
X135548425Y-152854159D01*
X135470493Y-152742860D01*
X135418495Y-152668599D01*
X135251401Y-152501505D01*
X135065402Y-152371267D01*
X135026539Y-152326951D01*
X135012528Y-152269694D01*
X135026539Y-152212437D01*
X135065405Y-152168119D01*
X135141373Y-152114925D01*
X134380000Y-151353553D01*
X133618625Y-152114925D01*
X133694594Y-152168119D01*
X133733460Y-152212437D01*
X133747471Y-152269694D01*
X133733461Y-152326950D01*
X133694595Y-152371269D01*
X133605225Y-152433847D01*
X133527814Y-152488051D01*
X133508595Y-152501508D01*
X133333834Y-152676270D01*
X133331261Y-152673697D01*
X133294290Y-152703773D01*
X133227223Y-152712568D01*
X133165518Y-152684858D01*
X133127539Y-152628890D01*
X133124814Y-152620666D01*
X133032712Y-152471344D01*
X133032711Y-152471342D01*
X132908657Y-152347288D01*
X132782855Y-152269694D01*
X132759334Y-152255186D01*
X132751107Y-152252460D01*
X132695122Y-152214458D01*
X132667422Y-152152720D01*
X132676259Y-152085633D01*
X132706311Y-152048747D01*
X132703730Y-152046166D01*
X132783594Y-151966302D01*
X132878495Y-151871401D01*
X133008732Y-151685402D01*
X133053048Y-151646539D01*
X133110305Y-151632528D01*
X133167562Y-151646539D01*
X133211880Y-151685405D01*
X133265073Y-151761373D01*
X134026447Y-151000001D01*
X134026447Y-151000000D01*
X133265073Y-150238626D01*
X133211881Y-150314594D01*
X133167563Y-150353460D01*
X133110306Y-150367471D01*
X133053048Y-150353460D01*
X133008730Y-150314595D01*
X132878495Y-150128599D01*
X132711401Y-149961505D01*
X132602243Y-149885072D01*
X133618625Y-149885072D01*
X134380000Y-150646447D01*
X134380001Y-150646447D01*
X135141373Y-149885073D01*
X135141373Y-149885072D01*
X135057580Y-149826400D01*
X134843492Y-149726569D01*
X134615318Y-149665430D01*
X134379999Y-149644842D01*
X134144681Y-149665430D01*
X133916507Y-149726569D01*
X133702422Y-149826399D01*
X133618625Y-149885072D01*
X132602243Y-149885072D01*
X132517830Y-149825965D01*
X132303663Y-149726097D01*
X132242502Y-149709709D01*
X132075407Y-149664936D01*
X131949902Y-149653955D01*
X131908305Y-149642809D01*
X131873029Y-149618108D01*
X131036819Y-148781899D01*
X131009939Y-148741671D01*
X131000500Y-148694218D01*
X131000500Y-142008455D01*
X131019278Y-141942847D01*
X131069926Y-141897110D01*
X131137102Y-141885097D01*
X131146364Y-141886043D01*
X131189991Y-141890500D01*
X132490008Y-141890499D01*
X132592797Y-141879999D01*
X132759334Y-141824814D01*
X132908656Y-141732712D01*
X133032712Y-141608656D01*
X133124814Y-141459334D01*
X133127538Y-141451111D01*
X133165526Y-141395135D01*
X133227244Y-141367427D01*
X133294320Y-141376239D01*
X133331258Y-141406305D01*
X133333834Y-141403730D01*
X133341505Y-141411401D01*
X133508599Y-141578495D01*
X133702170Y-141714035D01*
X133916337Y-141813903D01*
X134144592Y-141875063D01*
X134380000Y-141895659D01*
X134615408Y-141875063D01*
X134843663Y-141813903D01*
X135057830Y-141714035D01*
X135251401Y-141578495D01*
X135418495Y-141411401D01*
X135548426Y-141225839D01*
X135592743Y-141186975D01*
X135650000Y-141172964D01*
X135707257Y-141186975D01*
X135751573Y-141225839D01*
X135881505Y-141411401D01*
X136048599Y-141578495D01*
X136242170Y-141714035D01*
X136456337Y-141813903D01*
X136684592Y-141875063D01*
X136920000Y-141895659D01*
X137155408Y-141875063D01*
X137383663Y-141813903D01*
X137597830Y-141714035D01*
X137791401Y-141578495D01*
X137958495Y-141411401D01*
X138088426Y-141225839D01*
X138132743Y-141186975D01*
X138190000Y-141172964D01*
X138247257Y-141186975D01*
X138291573Y-141225839D01*
X138421505Y-141411401D01*
X138588599Y-141578495D01*
X138782170Y-141714035D01*
X138996337Y-141813903D01*
X139224592Y-141875063D01*
X139460000Y-141895659D01*
X139695408Y-141875063D01*
X139923663Y-141813903D01*
X140137830Y-141714035D01*
X140331401Y-141578495D01*
X140498495Y-141411401D01*
X140628426Y-141225839D01*
X140672743Y-141186975D01*
X140730000Y-141172964D01*
X140787257Y-141186975D01*
G37*
G04 #@! TD.AperFunction*
G04 #@! TA.AperFunction,Conductor*
G36*
X139547680Y-137734128D02*
G01*
X140574925Y-138761373D01*
X140628119Y-138685405D01*
X140672437Y-138646539D01*
X140729694Y-138632528D01*
X140786951Y-138646539D01*
X140831267Y-138685402D01*
X140961505Y-138871401D01*
X141128599Y-139038495D01*
X141314160Y-139168426D01*
X141353024Y-139212743D01*
X141367035Y-139270000D01*
X141353024Y-139327257D01*
X141314160Y-139371574D01*
X141131463Y-139499500D01*
X141128595Y-139501508D01*
X140961505Y-139668598D01*
X140831575Y-139854159D01*
X140787257Y-139893025D01*
X140730000Y-139907036D01*
X140672743Y-139893025D01*
X140628425Y-139854159D01*
X140529282Y-139712568D01*
X140498495Y-139668599D01*
X140331401Y-139501505D01*
X140145402Y-139371267D01*
X140106539Y-139326951D01*
X140092528Y-139269694D01*
X140106539Y-139212437D01*
X140145405Y-139168119D01*
X140221373Y-139114925D01*
X139460000Y-138353553D01*
X138698625Y-139114925D01*
X138774594Y-139168119D01*
X138813460Y-139212437D01*
X138827471Y-139269694D01*
X138813461Y-139326950D01*
X138774595Y-139371269D01*
X138635878Y-139468400D01*
X138591463Y-139499500D01*
X138588595Y-139501508D01*
X138421505Y-139668598D01*
X138291575Y-139854159D01*
X138247257Y-139893025D01*
X138190000Y-139907036D01*
X138132743Y-139893025D01*
X138088425Y-139854159D01*
X137989282Y-139712568D01*
X137958495Y-139668599D01*
X137791401Y-139501505D01*
X137605839Y-139371573D01*
X137566974Y-139327255D01*
X137552964Y-139269999D01*
X137566975Y-139212742D01*
X137605837Y-139168428D01*
X137791401Y-139038495D01*
X137958495Y-138871401D01*
X138088732Y-138685402D01*
X138133048Y-138646539D01*
X138190305Y-138632528D01*
X138247562Y-138646539D01*
X138291880Y-138685405D01*
X138345073Y-138761373D01*
X139372318Y-137734128D01*
X139427905Y-137702034D01*
X139492093Y-137702034D01*
X139547680Y-137734128D01*
G37*
G04 #@! TD.AperFunction*
G04 #@! TA.AperFunction,Conductor*
G36*
X188662817Y-106596853D02*
G01*
X188712180Y-106627102D01*
X188762300Y-106677221D01*
X188768705Y-106684132D01*
X188807130Y-106728891D01*
X188807131Y-106728892D01*
X188807134Y-106728895D01*
X188831198Y-106747522D01*
X188842968Y-106757889D01*
X190002449Y-107917370D01*
X190004642Y-107919619D01*
X190064941Y-107983053D01*
X190113358Y-108016752D01*
X190120865Y-108022413D01*
X190166593Y-108059698D01*
X190193556Y-108073782D01*
X190206980Y-108081915D01*
X190231951Y-108099295D01*
X190286163Y-108122559D01*
X190294663Y-108126595D01*
X190344993Y-108152886D01*
X190346951Y-108153909D01*
X190376196Y-108162277D01*
X190390986Y-108167543D01*
X190395547Y-108169500D01*
X190418942Y-108179540D01*
X190476737Y-108191416D01*
X190485854Y-108193654D01*
X190542582Y-108209887D01*
X190572916Y-108212196D01*
X190588453Y-108214374D01*
X190618259Y-108220500D01*
X190677243Y-108220500D01*
X190686657Y-108220858D01*
X190745477Y-108225337D01*
X190775652Y-108221493D01*
X190791318Y-108220500D01*
X191499242Y-108220500D01*
X191546695Y-108229939D01*
X191586923Y-108256819D01*
X191588599Y-108258495D01*
X191774160Y-108388426D01*
X191813024Y-108432743D01*
X191827035Y-108490000D01*
X191813024Y-108547257D01*
X191774160Y-108591574D01*
X191593204Y-108718281D01*
X191588595Y-108721508D01*
X191421505Y-108888598D01*
X191285965Y-109082170D01*
X191186097Y-109296336D01*
X191124936Y-109524592D01*
X191104340Y-109759999D01*
X191124936Y-109995407D01*
X191158830Y-110121899D01*
X191186097Y-110223663D01*
X191285965Y-110437830D01*
X191421505Y-110631401D01*
X191588599Y-110798495D01*
X191774160Y-110928426D01*
X191813024Y-110972743D01*
X191827035Y-111030000D01*
X191813024Y-111087257D01*
X191774159Y-111131575D01*
X191588595Y-111261508D01*
X191586923Y-111263181D01*
X191546695Y-111290061D01*
X191499242Y-111299500D01*
X189765783Y-111299500D01*
X189718330Y-111290061D01*
X189678102Y-111263181D01*
X188536819Y-110121899D01*
X188509939Y-110081671D01*
X188500500Y-110034218D01*
X188500500Y-106714784D01*
X188514015Y-106658489D01*
X188551614Y-106614466D01*
X188605101Y-106592311D01*
X188662817Y-106596853D01*
G37*
G04 #@! TD.AperFunction*
G04 #@! TA.AperFunction,Conductor*
G36*
X189087680Y-65734128D02*
G01*
X190114925Y-66761373D01*
X190173600Y-66677576D01*
X190263118Y-66485608D01*
X190306160Y-66435212D01*
X190369011Y-66414183D01*
X190433715Y-66428528D01*
X190481789Y-66474148D01*
X190499500Y-66538013D01*
X190499500Y-68000803D01*
X190481789Y-68064668D01*
X190433715Y-68110288D01*
X190369011Y-68124633D01*
X190306160Y-68103604D01*
X190263118Y-68053208D01*
X190203566Y-67925500D01*
X190174035Y-67862171D01*
X190038495Y-67668599D01*
X189871401Y-67501505D01*
X189685402Y-67371267D01*
X189646539Y-67326951D01*
X189632528Y-67269694D01*
X189646539Y-67212437D01*
X189685405Y-67168119D01*
X189761373Y-67114925D01*
X189000000Y-66353553D01*
X188238625Y-67114925D01*
X188314594Y-67168119D01*
X188353460Y-67212437D01*
X188367471Y-67269694D01*
X188353461Y-67326950D01*
X188314595Y-67371269D01*
X188171676Y-67471342D01*
X188136990Y-67495630D01*
X188128595Y-67501508D01*
X187961505Y-67668598D01*
X187831575Y-67854159D01*
X187787257Y-67893025D01*
X187730000Y-67907036D01*
X187672743Y-67893025D01*
X187628425Y-67854159D01*
X187556404Y-67751302D01*
X187498495Y-67668599D01*
X187331401Y-67501505D01*
X187145839Y-67371573D01*
X187106975Y-67327257D01*
X187092964Y-67270000D01*
X187106975Y-67212743D01*
X187145839Y-67168426D01*
X187331401Y-67038495D01*
X187498495Y-66871401D01*
X187628732Y-66685402D01*
X187673048Y-66646539D01*
X187730305Y-66632528D01*
X187787562Y-66646539D01*
X187831880Y-66685405D01*
X187885073Y-66761373D01*
X188912318Y-65734128D01*
X188967905Y-65702034D01*
X189032093Y-65702034D01*
X189087680Y-65734128D01*
G37*
G04 #@! TD.AperFunction*
G04 #@! TA.AperFunction,Conductor*
G36*
X133883271Y-60014015D02*
G01*
X133927294Y-60051615D01*
X133949449Y-60105102D01*
X133944907Y-60162818D01*
X133914657Y-60212181D01*
X133820183Y-60306654D01*
X133728142Y-60455877D01*
X133672993Y-60622303D01*
X133662500Y-60725021D01*
X133662500Y-61000000D01*
X134876000Y-61000000D01*
X134938000Y-61016613D01*
X134983387Y-61062000D01*
X135000000Y-61124000D01*
X135000000Y-62474999D01*
X135137479Y-62474999D01*
X135240195Y-62464506D01*
X135406622Y-62409357D01*
X135555845Y-62317316D01*
X135679813Y-62193348D01*
X135681664Y-62190348D01*
X135726771Y-62147164D01*
X135787204Y-62131440D01*
X135847637Y-62147162D01*
X135892745Y-62190344D01*
X135901039Y-62203791D01*
X135919500Y-62268887D01*
X135919500Y-65039242D01*
X135910061Y-65086695D01*
X135883181Y-65126923D01*
X135881505Y-65128598D01*
X135751575Y-65314159D01*
X135707257Y-65353025D01*
X135650000Y-65367036D01*
X135592743Y-65353025D01*
X135548425Y-65314159D01*
X135519376Y-65272672D01*
X135418495Y-65128599D01*
X135251401Y-64961505D01*
X135057830Y-64825965D01*
X134843663Y-64726097D01*
X134772208Y-64706951D01*
X134615407Y-64664936D01*
X134380000Y-64644340D01*
X134144592Y-64664936D01*
X133916336Y-64726097D01*
X133702170Y-64825965D01*
X133508598Y-64961505D01*
X133341505Y-65128598D01*
X133211575Y-65314159D01*
X133167257Y-65353025D01*
X133110000Y-65367036D01*
X133052743Y-65353025D01*
X133008425Y-65314159D01*
X132979376Y-65272672D01*
X132878495Y-65128599D01*
X132711401Y-64961505D01*
X132517830Y-64825965D01*
X132303663Y-64726097D01*
X132232208Y-64706951D01*
X132075407Y-64664936D01*
X131840000Y-64644340D01*
X131604592Y-64664936D01*
X131376336Y-64726097D01*
X131162170Y-64825965D01*
X130968598Y-64961505D01*
X130801505Y-65128598D01*
X130665965Y-65322170D01*
X130566097Y-65536336D01*
X130504936Y-65764592D01*
X130484340Y-65999999D01*
X130504936Y-66235407D01*
X130528294Y-66322580D01*
X130566097Y-66463663D01*
X130665965Y-66677830D01*
X130801505Y-66871401D01*
X130801508Y-66871404D01*
X130976270Y-67046166D01*
X130973809Y-67048626D01*
X131004251Y-67085989D01*
X131013088Y-67153076D01*
X130985389Y-67214814D01*
X130929402Y-67252817D01*
X130920879Y-67255641D01*
X130771654Y-67347683D01*
X130647683Y-67471654D01*
X130555642Y-67620877D01*
X130500493Y-67787303D01*
X130490000Y-67890021D01*
X130490000Y-68290000D01*
X131966000Y-68290000D01*
X132028000Y-68306613D01*
X132073387Y-68352000D01*
X132090000Y-68414000D01*
X132090000Y-69889999D01*
X132489979Y-69889999D01*
X132592695Y-69879506D01*
X132759122Y-69824357D01*
X132908345Y-69732316D01*
X133032316Y-69608345D01*
X133124357Y-69459123D01*
X133127180Y-69450603D01*
X133165179Y-69394616D01*
X133226913Y-69366913D01*
X133293999Y-69375743D01*
X133331374Y-69406189D01*
X133333834Y-69403730D01*
X133341504Y-69411400D01*
X133341505Y-69411401D01*
X133508599Y-69578495D01*
X133702170Y-69714035D01*
X133916337Y-69813903D01*
X134144592Y-69875063D01*
X134380000Y-69895659D01*
X134615408Y-69875063D01*
X134843663Y-69813903D01*
X135057830Y-69714035D01*
X135251401Y-69578495D01*
X135418495Y-69411401D01*
X135548426Y-69225839D01*
X135592743Y-69186975D01*
X135650000Y-69172964D01*
X135707257Y-69186975D01*
X135751573Y-69225839D01*
X135881505Y-69411401D01*
X136048599Y-69578495D01*
X136242170Y-69714035D01*
X136456337Y-69813903D01*
X136684592Y-69875063D01*
X136920000Y-69895659D01*
X137155408Y-69875063D01*
X137383663Y-69813903D01*
X137597830Y-69714035D01*
X137791401Y-69578495D01*
X137958495Y-69411401D01*
X138088426Y-69225839D01*
X138132743Y-69186975D01*
X138190000Y-69172964D01*
X138247257Y-69186975D01*
X138291573Y-69225839D01*
X138421505Y-69411401D01*
X138588599Y-69578495D01*
X138782170Y-69714035D01*
X138996337Y-69813903D01*
X139224592Y-69875063D01*
X139460000Y-69895659D01*
X139695408Y-69875063D01*
X139923663Y-69813903D01*
X140137830Y-69714035D01*
X140331401Y-69578495D01*
X140498495Y-69411401D01*
X140628426Y-69225839D01*
X140672743Y-69186975D01*
X140730000Y-69172964D01*
X140787257Y-69186975D01*
X140831573Y-69225839D01*
X140961505Y-69411401D01*
X141128599Y-69578495D01*
X141322170Y-69714035D01*
X141536337Y-69813903D01*
X141764592Y-69875063D01*
X142000000Y-69895659D01*
X142235408Y-69875063D01*
X142463663Y-69813903D01*
X142677830Y-69714035D01*
X142871401Y-69578495D01*
X143038495Y-69411401D01*
X143174035Y-69217830D01*
X143263117Y-69026792D01*
X143306159Y-68976397D01*
X143369009Y-68955368D01*
X143433714Y-68969713D01*
X143481788Y-69015333D01*
X143499499Y-69079198D01*
X143499499Y-71935012D01*
X143484297Y-71994501D01*
X143442418Y-72039404D01*
X143384132Y-72058711D01*
X143337781Y-72050252D01*
X143337551Y-72051245D01*
X143127054Y-72002397D01*
X142923637Y-71997243D01*
X142723345Y-72033141D01*
X142534380Y-72108622D01*
X142364481Y-72220596D01*
X138802646Y-75782432D01*
X138800399Y-75784623D01*
X138736948Y-75844939D01*
X138703244Y-75893362D01*
X138697573Y-75900882D01*
X138660301Y-75946593D01*
X138646210Y-75973566D01*
X138638082Y-75986983D01*
X138620705Y-76011950D01*
X138597439Y-76066165D01*
X138593399Y-76074671D01*
X138566090Y-76126952D01*
X138557720Y-76156201D01*
X138552459Y-76170978D01*
X138540460Y-76198942D01*
X138528587Y-76256713D01*
X138526342Y-76265860D01*
X138510113Y-76322580D01*
X138507802Y-76352925D01*
X138505622Y-76368466D01*
X138499500Y-76398259D01*
X138499500Y-76457242D01*
X138499142Y-76466656D01*
X138494663Y-76525477D01*
X138498506Y-76555651D01*
X138499500Y-76571317D01*
X138499500Y-77932000D01*
X138486828Y-77986609D01*
X138451401Y-78030056D01*
X138400461Y-78053462D01*
X138344422Y-78052042D01*
X138166353Y-78005937D01*
X138145739Y-78004891D01*
X137963130Y-77995630D01*
X137761996Y-78026443D01*
X137681634Y-78056207D01*
X137622902Y-78062932D01*
X137567731Y-78041701D01*
X137528659Y-77997338D01*
X137514568Y-77939926D01*
X137514568Y-77874210D01*
X137524007Y-77826757D01*
X137550887Y-77786529D01*
X137550886Y-77786529D01*
X137673836Y-77663580D01*
X137770193Y-77545407D01*
X137864404Y-77365049D01*
X137920382Y-77169418D01*
X137935832Y-76966523D01*
X137910125Y-76764672D01*
X137844311Y-76572128D01*
X137741086Y-76396773D01*
X137604674Y-76245786D01*
X137440662Y-76125351D01*
X137440661Y-76125350D01*
X137440659Y-76125349D01*
X137255763Y-76040394D01*
X137057548Y-75994396D01*
X136854133Y-75989242D01*
X136653843Y-76025142D01*
X136464876Y-76100622D01*
X136294976Y-76212598D01*
X136212181Y-76295394D01*
X136162818Y-76325644D01*
X136105102Y-76330186D01*
X136051615Y-76308031D01*
X136014015Y-76264008D01*
X136000500Y-76207713D01*
X136000500Y-73989236D01*
X136000540Y-73986094D01*
X136002756Y-73898637D01*
X136002755Y-73898636D01*
X136002756Y-73898634D01*
X135992345Y-73840552D01*
X135991042Y-73831261D01*
X135985074Y-73772560D01*
X135975964Y-73743526D01*
X135972223Y-73728284D01*
X135966857Y-73698341D01*
X135944976Y-73643563D01*
X135941816Y-73634687D01*
X135939056Y-73625890D01*
X135924159Y-73578410D01*
X135909395Y-73551810D01*
X135902660Y-73537629D01*
X135891377Y-73509381D01*
X135858917Y-73460129D01*
X135854036Y-73452072D01*
X135825409Y-73400496D01*
X135805582Y-73377401D01*
X135796146Y-73364886D01*
X135779402Y-73339479D01*
X135737680Y-73297758D01*
X135731300Y-73290874D01*
X135692866Y-73246103D01*
X135692860Y-73246098D01*
X135668804Y-73227476D01*
X135657026Y-73217103D01*
X134696586Y-72256663D01*
X134578410Y-72160303D01*
X134578409Y-72160302D01*
X134398051Y-72066091D01*
X134398048Y-72066090D01*
X134398046Y-72066089D01*
X134202421Y-72010112D01*
X134024678Y-71996578D01*
X133999526Y-71994663D01*
X133999525Y-71994663D01*
X133797677Y-72020369D01*
X133797674Y-72020369D01*
X133797674Y-72020370D01*
X133663914Y-72066091D01*
X133605130Y-72086184D01*
X133429775Y-72189410D01*
X133278786Y-72325823D01*
X133158351Y-72489833D01*
X133073396Y-72674730D01*
X133027398Y-72872946D01*
X133022244Y-73076361D01*
X133048468Y-73222668D01*
X133058144Y-73276653D01*
X133074328Y-73317171D01*
X133078137Y-73326705D01*
X133085253Y-73393340D01*
X133056658Y-73453948D01*
X133000702Y-73490825D01*
X132933730Y-73493201D01*
X132875302Y-73460382D01*
X128204920Y-68790000D01*
X130490001Y-68790000D01*
X130490001Y-69189979D01*
X130500493Y-69292695D01*
X130555642Y-69459122D01*
X130647683Y-69608345D01*
X130771654Y-69732316D01*
X130920877Y-69824357D01*
X131087303Y-69879506D01*
X131190021Y-69890000D01*
X131590000Y-69890000D01*
X131590000Y-68790000D01*
X130490001Y-68790000D01*
X128204920Y-68790000D01*
X127036820Y-67621900D01*
X127009940Y-67581672D01*
X127000501Y-67534219D01*
X127000501Y-67449259D01*
X126999327Y-67437711D01*
X126985075Y-67297561D01*
X126924160Y-67103411D01*
X126825410Y-66925497D01*
X126692867Y-66771104D01*
X126531959Y-66646551D01*
X126531958Y-66646550D01*
X126349273Y-66556939D01*
X126276175Y-66538013D01*
X126168982Y-66510258D01*
X126112941Y-66478453D01*
X126080427Y-66422817D01*
X126080223Y-66358377D01*
X126112383Y-66302537D01*
X126243341Y-66171580D01*
X126339698Y-66053407D01*
X126433909Y-65873049D01*
X126435221Y-65868466D01*
X126489887Y-65677419D01*
X126495538Y-65603208D01*
X126505337Y-65474523D01*
X126479630Y-65272672D01*
X126413816Y-65080127D01*
X126310591Y-64904773D01*
X126174179Y-64753786D01*
X126010167Y-64633351D01*
X126010166Y-64633350D01*
X126010164Y-64633349D01*
X125825267Y-64548393D01*
X125627055Y-64502396D01*
X125423638Y-64497242D01*
X125223348Y-64533140D01*
X125034382Y-64608622D01*
X124864480Y-64720599D01*
X123802646Y-65782432D01*
X123800399Y-65784623D01*
X123736948Y-65844939D01*
X123703244Y-65893362D01*
X123697573Y-65900882D01*
X123660301Y-65946593D01*
X123646210Y-65973566D01*
X123638082Y-65986983D01*
X123620705Y-66011950D01*
X123597439Y-66066165D01*
X123593399Y-66074671D01*
X123566090Y-66126952D01*
X123557720Y-66156201D01*
X123552459Y-66170978D01*
X123540460Y-66198942D01*
X123528587Y-66256713D01*
X123526342Y-66265860D01*
X123510113Y-66322580D01*
X123507802Y-66352925D01*
X123505622Y-66368466D01*
X123499500Y-66398259D01*
X123499500Y-66457242D01*
X123499142Y-66466656D01*
X123494663Y-66525477D01*
X123498506Y-66555651D01*
X123499500Y-66571317D01*
X123499500Y-68985721D01*
X123499460Y-68988863D01*
X123497242Y-69076362D01*
X123507648Y-69134420D01*
X123508957Y-69143749D01*
X123514926Y-69202438D01*
X123524033Y-69231467D01*
X123527772Y-69246702D01*
X123533141Y-69276652D01*
X123555020Y-69331425D01*
X123558180Y-69340300D01*
X123569300Y-69375743D01*
X123575841Y-69396588D01*
X123590607Y-69423191D01*
X123597337Y-69437364D01*
X123608622Y-69465617D01*
X123641080Y-69514867D01*
X123645961Y-69522923D01*
X123674590Y-69574501D01*
X123694404Y-69597581D01*
X123703856Y-69610116D01*
X123720599Y-69635520D01*
X123762300Y-69677221D01*
X123768705Y-69684132D01*
X123807130Y-69728891D01*
X123807131Y-69728892D01*
X123807134Y-69728895D01*
X123831198Y-69747522D01*
X123842968Y-69757889D01*
X130963181Y-76878102D01*
X130990061Y-76918330D01*
X130999500Y-76965783D01*
X130999500Y-109485721D01*
X130999460Y-109488863D01*
X130997242Y-109576362D01*
X131007648Y-109634420D01*
X131008957Y-109643749D01*
X131014926Y-109702438D01*
X131024033Y-109731467D01*
X131027772Y-109746702D01*
X131033141Y-109776652D01*
X131055020Y-109831425D01*
X131058180Y-109840300D01*
X131075841Y-109896588D01*
X131090607Y-109923191D01*
X131097337Y-109937364D01*
X131108622Y-109965617D01*
X131141080Y-110014867D01*
X131145961Y-110022923D01*
X131174590Y-110074501D01*
X131194404Y-110097581D01*
X131203856Y-110110116D01*
X131215018Y-110127053D01*
X131220599Y-110135520D01*
X131262300Y-110177221D01*
X131268705Y-110184132D01*
X131307130Y-110228891D01*
X131307131Y-110228892D01*
X131307134Y-110228895D01*
X131331198Y-110247522D01*
X131342967Y-110257888D01*
X131828420Y-110743341D01*
X131930586Y-110826646D01*
X131946593Y-110839698D01*
X132126952Y-110933910D01*
X132322580Y-110989887D01*
X132347734Y-110991802D01*
X132525477Y-111005337D01*
X132727328Y-110979630D01*
X132919872Y-110913816D01*
X133095227Y-110810591D01*
X133246213Y-110674179D01*
X133366649Y-110510167D01*
X133451605Y-110325269D01*
X133497603Y-110127054D01*
X133502757Y-109923637D01*
X133466858Y-109723347D01*
X133447172Y-109674064D01*
X133438627Y-109619438D01*
X133454678Y-109566524D01*
X133492135Y-109525849D01*
X133543549Y-109505500D01*
X133752072Y-109473555D01*
X133752072Y-109473554D01*
X133942888Y-109402885D01*
X134115572Y-109295251D01*
X134263054Y-109155058D01*
X134379296Y-108988048D01*
X134459541Y-108801057D01*
X134500501Y-108601740D01*
X134500501Y-108314358D01*
X134513173Y-108259749D01*
X134548600Y-108216302D01*
X134599540Y-108192896D01*
X134655579Y-108194315D01*
X134847715Y-108244063D01*
X135050936Y-108254369D01*
X135050936Y-108254368D01*
X135050937Y-108254369D01*
X135252071Y-108223556D01*
X135259356Y-108220858D01*
X135442887Y-108152886D01*
X135615571Y-108045252D01*
X135763053Y-107905059D01*
X135879295Y-107738049D01*
X135959540Y-107551058D01*
X136000500Y-107351741D01*
X136000500Y-107111215D01*
X136013172Y-107056606D01*
X136048599Y-107013159D01*
X136099539Y-106989753D01*
X136155581Y-106991173D01*
X136164793Y-106993558D01*
X136164797Y-106993560D01*
X136361783Y-107044563D01*
X136565004Y-107054869D01*
X136565004Y-107054868D01*
X136565005Y-107054869D01*
X136766139Y-107024056D01*
X136858760Y-106989753D01*
X136956955Y-106953386D01*
X137129639Y-106845752D01*
X137277121Y-106705559D01*
X137393363Y-106538549D01*
X137473608Y-106351558D01*
X137514568Y-106152241D01*
X137514568Y-105915358D01*
X137527240Y-105860749D01*
X137562667Y-105817302D01*
X137613607Y-105793896D01*
X137669647Y-105795315D01*
X137861783Y-105845063D01*
X138065004Y-105855369D01*
X138065004Y-105855368D01*
X138065005Y-105855369D01*
X138266139Y-105824556D01*
X138266139Y-105824555D01*
X138456955Y-105753886D01*
X138629639Y-105646252D01*
X138777121Y-105506059D01*
X138893363Y-105339049D01*
X138973608Y-105152058D01*
X139014568Y-104952741D01*
X139014568Y-104568000D01*
X139027240Y-104513391D01*
X139062667Y-104469944D01*
X139113607Y-104446538D01*
X139169647Y-104447957D01*
X139347716Y-104494063D01*
X139550937Y-104504369D01*
X139550937Y-104504368D01*
X139550938Y-104504369D01*
X139752072Y-104473556D01*
X139834414Y-104443060D01*
X139942888Y-104402886D01*
X140115572Y-104295252D01*
X140263054Y-104155059D01*
X140379296Y-103988049D01*
X140459541Y-103801058D01*
X140500501Y-103601741D01*
X140500500Y-79673089D01*
X140516754Y-79611716D01*
X140561255Y-79566431D01*
X140622337Y-79549109D01*
X140683985Y-79564290D01*
X140730039Y-79607994D01*
X140782683Y-79693345D01*
X140906654Y-79817316D01*
X141055877Y-79909357D01*
X141222303Y-79964506D01*
X141325021Y-79975000D01*
X141462500Y-79975000D01*
X141462500Y-77525001D01*
X141325021Y-77525001D01*
X141222304Y-77535493D01*
X141055877Y-77590642D01*
X140906654Y-77682683D01*
X140782684Y-77806653D01*
X140730039Y-77892006D01*
X140683985Y-77935710D01*
X140622336Y-77950890D01*
X140561255Y-77933568D01*
X140516754Y-77888283D01*
X140500500Y-77826909D01*
X140500500Y-76965782D01*
X140509939Y-76918329D01*
X140536819Y-76878101D01*
X143287818Y-74127103D01*
X143337181Y-74096853D01*
X143394897Y-74092311D01*
X143448384Y-74114466D01*
X143485984Y-74158489D01*
X143499499Y-74214784D01*
X143499499Y-77402358D01*
X143484928Y-77460679D01*
X143444638Y-77505294D01*
X143388100Y-77525715D01*
X143371696Y-77527391D01*
X143297203Y-77535000D01*
X143130665Y-77590186D01*
X142981342Y-77682288D01*
X142857286Y-77806344D01*
X142855242Y-77809659D01*
X142810135Y-77852837D01*
X142749704Y-77868558D01*
X142689274Y-77852835D01*
X142644168Y-77809656D01*
X142642316Y-77806654D01*
X142518345Y-77682683D01*
X142369122Y-77590642D01*
X142202696Y-77535493D01*
X142099979Y-77525000D01*
X141962500Y-77525000D01*
X141962500Y-79974999D01*
X142099979Y-79974999D01*
X142202695Y-79964506D01*
X142369122Y-79909357D01*
X142518345Y-79817316D01*
X142642313Y-79693348D01*
X142644164Y-79690348D01*
X142689271Y-79647164D01*
X142749704Y-79631440D01*
X142810138Y-79647163D01*
X142855246Y-79690345D01*
X142857290Y-79693659D01*
X142981342Y-79817711D01*
X142981344Y-79817712D01*
X143130666Y-79909814D01*
X143242017Y-79946712D01*
X143297202Y-79964999D01*
X143320465Y-79967375D01*
X143388102Y-79974285D01*
X143444639Y-79994708D01*
X143484928Y-80039322D01*
X143499499Y-80097643D01*
X143499499Y-112735720D01*
X143499459Y-112738862D01*
X143497241Y-112826361D01*
X143507647Y-112884419D01*
X143508956Y-112893748D01*
X143514925Y-112952437D01*
X143524032Y-112981466D01*
X143527771Y-112996701D01*
X143533140Y-113026651D01*
X143555019Y-113081424D01*
X143558179Y-113090299D01*
X143575840Y-113146587D01*
X143590606Y-113173190D01*
X143597336Y-113187363D01*
X143608621Y-113215616D01*
X143641079Y-113264866D01*
X143645960Y-113272922D01*
X143674589Y-113324500D01*
X143694403Y-113347580D01*
X143703855Y-113360115D01*
X143720598Y-113385519D01*
X143762299Y-113427220D01*
X143768704Y-113434131D01*
X143807129Y-113478890D01*
X143807130Y-113478891D01*
X143807133Y-113478894D01*
X143876378Y-113532493D01*
X143878746Y-113534375D01*
X143910894Y-113560589D01*
X143946593Y-113589698D01*
X143948149Y-113590511D01*
X143966644Y-113602366D01*
X143968041Y-113603447D01*
X144046619Y-113641991D01*
X144049394Y-113643397D01*
X144126946Y-113683907D01*
X144126948Y-113683907D01*
X144126951Y-113683909D01*
X144128522Y-113684358D01*
X144128646Y-113684394D01*
X144149148Y-113692284D01*
X144150728Y-113693059D01*
X144235420Y-113714987D01*
X144238436Y-113715808D01*
X144322582Y-113739886D01*
X144323275Y-113739938D01*
X144324339Y-113740020D01*
X144346010Y-113743620D01*
X144347714Y-113744062D01*
X144435114Y-113748493D01*
X144438154Y-113748686D01*
X144525476Y-113755337D01*
X144527230Y-113755113D01*
X144549184Y-113754279D01*
X144550935Y-113754368D01*
X144637386Y-113741123D01*
X144640430Y-113740696D01*
X144727327Y-113729630D01*
X144729006Y-113729055D01*
X144750331Y-113723821D01*
X144752070Y-113723555D01*
X144834177Y-113693145D01*
X144836908Y-113692173D01*
X144919872Y-113663816D01*
X144921391Y-113662921D01*
X144941246Y-113653491D01*
X144942886Y-113652885D01*
X145017165Y-113606586D01*
X145019722Y-113605036D01*
X145095227Y-113560590D01*
X145096527Y-113559414D01*
X145114084Y-113546177D01*
X145115570Y-113545251D01*
X145178989Y-113484966D01*
X145181219Y-113482897D01*
X145246213Y-113424179D01*
X145247260Y-113422752D01*
X145261779Y-113406267D01*
X145263052Y-113405058D01*
X145313045Y-113333229D01*
X145314810Y-113330760D01*
X145366649Y-113260167D01*
X145367388Y-113258557D01*
X145378292Y-113239487D01*
X145379294Y-113238048D01*
X145413804Y-113157626D01*
X145415051Y-113154821D01*
X145451605Y-113075268D01*
X145452001Y-113073557D01*
X145458848Y-113052666D01*
X145459539Y-113051057D01*
X145477151Y-112965349D01*
X145477794Y-112962406D01*
X145497602Y-112877053D01*
X145497646Y-112875285D01*
X145500146Y-112853456D01*
X145500499Y-112851740D01*
X145500499Y-112764278D01*
X145500539Y-112761136D01*
X145502756Y-112673638D01*
X145502444Y-112671895D01*
X145500499Y-112650018D01*
X145500499Y-111101242D01*
X145999500Y-111101242D01*
X146002014Y-111125965D01*
X146014926Y-111252940D01*
X146026573Y-111290061D01*
X146075841Y-111447088D01*
X146083434Y-111460768D01*
X146173019Y-111622171D01*
X146174591Y-111625002D01*
X146307134Y-111779395D01*
X146468042Y-111903948D01*
X146650729Y-111993560D01*
X146847715Y-112044563D01*
X147050936Y-112054869D01*
X147050936Y-112054868D01*
X147050937Y-112054869D01*
X147252071Y-112024056D01*
X147334413Y-111993560D01*
X147442887Y-111953386D01*
X147615571Y-111845752D01*
X147763053Y-111705559D01*
X147879295Y-111538549D01*
X147959540Y-111351558D01*
X148000500Y-111152241D01*
X148000500Y-80097642D01*
X148015071Y-80039321D01*
X148055361Y-79994706D01*
X148111897Y-79974284D01*
X148202797Y-79964999D01*
X148369334Y-79909814D01*
X148518656Y-79817712D01*
X148642712Y-79693656D01*
X148644752Y-79690347D01*
X148689856Y-79647166D01*
X148750289Y-79631440D01*
X148810723Y-79647161D01*
X148855831Y-79690343D01*
X148857682Y-79693344D01*
X148981654Y-79817316D01*
X149130877Y-79909357D01*
X149297303Y-79964506D01*
X149400021Y-79975000D01*
X149537500Y-79975000D01*
X149537500Y-79000000D01*
X150037500Y-79000000D01*
X150037500Y-79974999D01*
X150174979Y-79974999D01*
X150277695Y-79964506D01*
X150444122Y-79909357D01*
X150593345Y-79817316D01*
X150717316Y-79693345D01*
X150809357Y-79544122D01*
X150864506Y-79377696D01*
X150875000Y-79274979D01*
X150875000Y-79000000D01*
X150037500Y-79000000D01*
X149537500Y-79000000D01*
X149537500Y-77525001D01*
X149400021Y-77525001D01*
X149297304Y-77535493D01*
X149130877Y-77590642D01*
X148981654Y-77682683D01*
X148857683Y-77806654D01*
X148855830Y-77809659D01*
X148810721Y-77852838D01*
X148750289Y-77868559D01*
X148689857Y-77852834D01*
X148644752Y-77809652D01*
X148642903Y-77806654D01*
X148642712Y-77806344D01*
X148642710Y-77806342D01*
X148642709Y-77806340D01*
X148518657Y-77682288D01*
X148369334Y-77590186D01*
X148202797Y-77535000D01*
X148137831Y-77528363D01*
X148111896Y-77525714D01*
X148109919Y-77525000D01*
X150037500Y-77525000D01*
X150037500Y-78500000D01*
X150874999Y-78500000D01*
X150874999Y-78225021D01*
X150864506Y-78122304D01*
X150809357Y-77955877D01*
X150717316Y-77806654D01*
X150593345Y-77682683D01*
X150444122Y-77590642D01*
X150277696Y-77535493D01*
X150174979Y-77525000D01*
X150037500Y-77525000D01*
X148109919Y-77525000D01*
X148055360Y-77505292D01*
X148015071Y-77460678D01*
X148000500Y-77402357D01*
X148000500Y-70576361D01*
X154459742Y-70576361D01*
X154497555Y-70787324D01*
X154499500Y-70809201D01*
X154499500Y-94550740D01*
X154514926Y-94702440D01*
X154545868Y-94801058D01*
X154575841Y-94896588D01*
X154674591Y-95074502D01*
X154807134Y-95228895D01*
X154968042Y-95353448D01*
X155150729Y-95443060D01*
X155347715Y-95494063D01*
X155550936Y-95504369D01*
X155550936Y-95504368D01*
X155550937Y-95504369D01*
X155752071Y-95473556D01*
X155834413Y-95443060D01*
X155942887Y-95402886D01*
X156115571Y-95295252D01*
X156263053Y-95155059D01*
X156379295Y-94988049D01*
X156459540Y-94801058D01*
X156500500Y-94601741D01*
X156500500Y-70551779D01*
X156500540Y-70548637D01*
X156502757Y-70461138D01*
X156492350Y-70403074D01*
X156491041Y-70393742D01*
X156488926Y-70372946D01*
X156485074Y-70335062D01*
X156475962Y-70306020D01*
X156472226Y-70290797D01*
X156466858Y-70260847D01*
X156444976Y-70206066D01*
X156441816Y-70197189D01*
X156424159Y-70140912D01*
X156409395Y-70114312D01*
X156402660Y-70100131D01*
X156393612Y-70077479D01*
X156391377Y-70071883D01*
X156358917Y-70022631D01*
X156354036Y-70014574D01*
X156341393Y-69991796D01*
X156325409Y-69962998D01*
X156305582Y-69939903D01*
X156296146Y-69927388D01*
X156279402Y-69901981D01*
X156279400Y-69901979D01*
X156279399Y-69901977D01*
X156237700Y-69860279D01*
X156231295Y-69853368D01*
X156192867Y-69808606D01*
X156168805Y-69789980D01*
X156157027Y-69779606D01*
X156134084Y-69756663D01*
X156015908Y-69660303D01*
X156015907Y-69660302D01*
X155835549Y-69566091D01*
X155835546Y-69566090D01*
X155835544Y-69566089D01*
X155639919Y-69510112D01*
X155462176Y-69496578D01*
X155437024Y-69494663D01*
X155437023Y-69494663D01*
X155235175Y-69520369D01*
X155235172Y-69520369D01*
X155235172Y-69520370D01*
X155101412Y-69566091D01*
X155042628Y-69586184D01*
X154867273Y-69689410D01*
X154716284Y-69825823D01*
X154595849Y-69989833D01*
X154510894Y-70174730D01*
X154464896Y-70372946D01*
X154459742Y-70576361D01*
X148000500Y-70576361D01*
X148000500Y-68449260D01*
X148000500Y-68449257D01*
X147985074Y-68297562D01*
X147924159Y-68103412D01*
X147825409Y-67925498D01*
X147692866Y-67771105D01*
X147531958Y-67646552D01*
X147531957Y-67646551D01*
X147349272Y-67556940D01*
X147261517Y-67534219D01*
X147152285Y-67505937D01*
X147131671Y-67504891D01*
X146949062Y-67495630D01*
X146747928Y-67526443D01*
X146557113Y-67597113D01*
X146384431Y-67704745D01*
X146314624Y-67771103D01*
X146236947Y-67844941D01*
X146195063Y-67905117D01*
X146120705Y-68011950D01*
X146044913Y-68188564D01*
X146040460Y-68198942D01*
X145999500Y-68398259D01*
X145999500Y-78148259D01*
X145999500Y-111101242D01*
X145500499Y-111101242D01*
X145500499Y-68449259D01*
X145500499Y-68449257D01*
X145485073Y-68297561D01*
X145424158Y-68103411D01*
X145325408Y-67925497D01*
X145192865Y-67771104D01*
X145078922Y-67682904D01*
X145031956Y-67646550D01*
X144849271Y-67556939D01*
X144782619Y-67539682D01*
X144652284Y-67505936D01*
X144631670Y-67504890D01*
X144449061Y-67495629D01*
X144247927Y-67526442D01*
X144057112Y-67597112D01*
X143884430Y-67704744D01*
X143835452Y-67751302D01*
X143736946Y-67844940D01*
X143730227Y-67854594D01*
X143620704Y-68011949D01*
X143537700Y-68205371D01*
X143500804Y-68253623D01*
X143445419Y-68278563D01*
X143384834Y-68274206D01*
X143333586Y-68241599D01*
X143303974Y-68188564D01*
X143291991Y-68143844D01*
X143273903Y-68076337D01*
X143174035Y-67862171D01*
X143038495Y-67668599D01*
X142871401Y-67501505D01*
X142685839Y-67371573D01*
X142646975Y-67327257D01*
X142632964Y-67270000D01*
X142646975Y-67212743D01*
X142685839Y-67168426D01*
X142871401Y-67038495D01*
X143014888Y-66895008D01*
X150472000Y-66895008D01*
X150482500Y-66997796D01*
X150537686Y-67164334D01*
X150629788Y-67313657D01*
X150753842Y-67437711D01*
X150772565Y-67449259D01*
X150903166Y-67529814D01*
X150985024Y-67556939D01*
X151069702Y-67584999D01*
X151080203Y-67586071D01*
X151172491Y-67595500D01*
X152512508Y-67595499D01*
X152615297Y-67584999D01*
X152781834Y-67529814D01*
X152931156Y-67437712D01*
X153055212Y-67313656D01*
X153147314Y-67164334D01*
X153147314Y-67164333D01*
X153154922Y-67151999D01*
X153157865Y-67153814D01*
X153177887Y-67123056D01*
X153233861Y-67093960D01*
X153296907Y-67096169D01*
X153350706Y-67129111D01*
X153473772Y-67257516D01*
X153661339Y-67396240D01*
X153869653Y-67501270D01*
X154092720Y-67569583D01*
X154324124Y-67599216D01*
X154557207Y-67589314D01*
X154785265Y-67540164D01*
X155001735Y-67453179D01*
X155200391Y-67330862D01*
X155375518Y-67176731D01*
X155522078Y-66995220D01*
X155544602Y-66954899D01*
X155587842Y-66909783D01*
X155647594Y-66891484D01*
X155708682Y-66904649D01*
X155755592Y-66945935D01*
X155852346Y-67089087D01*
X155948584Y-67189500D01*
X156013772Y-67257516D01*
X156201339Y-67396240D01*
X156409653Y-67501270D01*
X156632720Y-67569583D01*
X156864124Y-67599216D01*
X157097207Y-67589314D01*
X157325265Y-67540164D01*
X157541735Y-67453179D01*
X157740391Y-67330862D01*
X157915518Y-67176731D01*
X158062078Y-66995220D01*
X158084602Y-66954899D01*
X158127842Y-66909783D01*
X158187594Y-66891484D01*
X158248682Y-66904649D01*
X158295592Y-66945935D01*
X158392346Y-67089087D01*
X158488584Y-67189500D01*
X158553772Y-67257516D01*
X158741339Y-67396240D01*
X158949653Y-67501270D01*
X159172720Y-67569583D01*
X159404124Y-67599216D01*
X159637207Y-67589314D01*
X159865265Y-67540164D01*
X160081735Y-67453179D01*
X160280391Y-67330862D01*
X160455518Y-67176731D01*
X160567139Y-67038491D01*
X160602076Y-66995223D01*
X160602233Y-66994942D01*
X160658060Y-66895008D01*
X164089500Y-66895008D01*
X164100000Y-66997796D01*
X164155186Y-67164334D01*
X164247288Y-67313657D01*
X164371342Y-67437711D01*
X164390065Y-67449259D01*
X164520666Y-67529814D01*
X164602524Y-67556939D01*
X164687202Y-67584999D01*
X164697703Y-67586071D01*
X164789991Y-67595500D01*
X166130008Y-67595499D01*
X166232797Y-67584999D01*
X166399334Y-67529814D01*
X166548656Y-67437712D01*
X166672712Y-67313656D01*
X166764814Y-67164334D01*
X166764814Y-67164333D01*
X166772422Y-67151999D01*
X166775365Y-67153814D01*
X166795387Y-67123056D01*
X166851361Y-67093960D01*
X166914407Y-67096169D01*
X166968206Y-67129111D01*
X167091272Y-67257516D01*
X167278839Y-67396240D01*
X167487153Y-67501270D01*
X167710220Y-67569583D01*
X167941624Y-67599216D01*
X168174707Y-67589314D01*
X168402765Y-67540164D01*
X168619235Y-67453179D01*
X168817891Y-67330862D01*
X168993018Y-67176731D01*
X169139578Y-66995220D01*
X169162375Y-66954410D01*
X169205615Y-66909294D01*
X169265367Y-66890995D01*
X169326455Y-66904160D01*
X169373365Y-66945446D01*
X169470236Y-67088772D01*
X169631603Y-67257139D01*
X169819101Y-67395812D01*
X170027339Y-67500803D01*
X170250326Y-67569092D01*
X170290000Y-67574172D01*
X170290000Y-66250000D01*
X170790000Y-66250000D01*
X170790000Y-67572575D01*
X170942621Y-67539682D01*
X171159005Y-67452732D01*
X171357594Y-67330456D01*
X171532657Y-67176381D01*
X171679160Y-66994942D01*
X171792896Y-66791344D01*
X171870588Y-66571455D01*
X171910000Y-66341606D01*
X171910000Y-66250000D01*
X170790000Y-66250000D01*
X170290000Y-66250000D01*
X170290000Y-66025477D01*
X173994663Y-66025477D01*
X173998506Y-66055651D01*
X173999500Y-66071317D01*
X173999500Y-101550740D01*
X174014926Y-101702440D01*
X174045868Y-101801058D01*
X174075841Y-101896588D01*
X174174591Y-102074502D01*
X174307134Y-102228895D01*
X174468042Y-102353448D01*
X174650729Y-102443060D01*
X174847715Y-102494063D01*
X175050936Y-102504369D01*
X175050936Y-102504368D01*
X175050937Y-102504369D01*
X175252071Y-102473556D01*
X175334413Y-102443060D01*
X175442887Y-102402886D01*
X175615571Y-102295252D01*
X175763053Y-102155059D01*
X175879295Y-101988049D01*
X175959540Y-101801058D01*
X176000500Y-101601741D01*
X176000500Y-84456517D01*
X176014884Y-84398549D01*
X176054698Y-84354030D01*
X176110705Y-84333287D01*
X176169914Y-84341132D01*
X176218584Y-84375746D01*
X176307135Y-84478894D01*
X176468043Y-84603447D01*
X176650730Y-84693059D01*
X176847716Y-84744062D01*
X177050937Y-84754368D01*
X177050937Y-84754367D01*
X177050938Y-84754368D01*
X177252072Y-84723555D01*
X177334414Y-84693059D01*
X177442888Y-84652885D01*
X177615572Y-84545251D01*
X177615571Y-84545251D01*
X177630068Y-84531472D01*
X177679579Y-84502663D01*
X177736757Y-84499182D01*
X177789398Y-84521771D01*
X177826269Y-84565612D01*
X177839500Y-84621346D01*
X177839500Y-101550740D01*
X177854926Y-101702440D01*
X177885868Y-101801058D01*
X177915841Y-101896588D01*
X178014591Y-102074502D01*
X178147134Y-102228895D01*
X178308042Y-102353448D01*
X178490729Y-102443060D01*
X178687715Y-102494063D01*
X178890936Y-102504369D01*
X178890936Y-102504368D01*
X178890937Y-102504369D01*
X179092071Y-102473556D01*
X179174413Y-102443060D01*
X179282887Y-102402886D01*
X179455571Y-102295252D01*
X179603053Y-102155059D01*
X179719295Y-101988049D01*
X179799540Y-101801058D01*
X179840500Y-101601741D01*
X179840500Y-69843958D01*
X179856223Y-69783526D01*
X179899404Y-69738419D01*
X179904259Y-69735424D01*
X179908656Y-69732712D01*
X180032712Y-69608656D01*
X180124814Y-69459334D01*
X180127538Y-69451111D01*
X180165526Y-69395135D01*
X180227244Y-69367427D01*
X180294320Y-69376239D01*
X180331258Y-69406305D01*
X180333834Y-69403730D01*
X180343181Y-69413077D01*
X180370061Y-69453305D01*
X180379500Y-69500758D01*
X180379500Y-81725125D01*
X180365409Y-81782536D01*
X180316089Y-81876952D01*
X180260112Y-82072580D01*
X180246487Y-82251527D01*
X180245303Y-82267078D01*
X180244663Y-82275477D01*
X180268648Y-82463813D01*
X180270370Y-82477328D01*
X180336184Y-82669872D01*
X180439410Y-82845227D01*
X180501925Y-82914421D01*
X180575823Y-82996215D01*
X180739833Y-83116650D01*
X180924730Y-83201605D01*
X181122946Y-83247603D01*
X181326361Y-83252757D01*
X181326361Y-83252756D01*
X181326363Y-83252757D01*
X181526653Y-83216858D01*
X181621135Y-83179117D01*
X181715616Y-83141378D01*
X181753137Y-83116649D01*
X181885519Y-83029402D01*
X182077447Y-82837472D01*
X182079579Y-82835394D01*
X182143053Y-82775059D01*
X182176765Y-82726622D01*
X182182408Y-82719138D01*
X182219698Y-82673407D01*
X182233786Y-82646435D01*
X182241911Y-82633024D01*
X182259295Y-82608049D01*
X182282568Y-82553815D01*
X182286598Y-82545331D01*
X182303636Y-82512716D01*
X182313909Y-82493049D01*
X182322278Y-82463797D01*
X182327534Y-82449032D01*
X182339540Y-82421058D01*
X182351418Y-82363256D01*
X182353651Y-82354156D01*
X182369887Y-82297418D01*
X182372197Y-82267077D01*
X182374376Y-82251535D01*
X182380500Y-82221741D01*
X182380500Y-82162757D01*
X182380858Y-82153343D01*
X182380964Y-82151945D01*
X182385337Y-82094523D01*
X182381493Y-82064347D01*
X182380500Y-82048682D01*
X182380500Y-69654925D01*
X183158625Y-69654925D01*
X183242420Y-69713599D01*
X183456507Y-69813430D01*
X183684681Y-69874569D01*
X183919999Y-69895157D01*
X184155318Y-69874569D01*
X184383492Y-69813430D01*
X184597576Y-69713600D01*
X184681373Y-69654925D01*
X183920000Y-68893553D01*
X183158625Y-69654925D01*
X182380500Y-69654925D01*
X182380500Y-69500758D01*
X182389939Y-69453305D01*
X182416819Y-69413077D01*
X182416819Y-69413076D01*
X182418495Y-69411401D01*
X182548732Y-69225402D01*
X182593048Y-69186539D01*
X182650305Y-69172528D01*
X182707562Y-69186539D01*
X182751880Y-69225405D01*
X182805073Y-69301373D01*
X183566447Y-68540001D01*
X183566447Y-68540000D01*
X182805073Y-67778626D01*
X182751881Y-67854594D01*
X182707563Y-67893460D01*
X182650306Y-67907471D01*
X182593048Y-67893460D01*
X182548730Y-67854595D01*
X182418495Y-67668599D01*
X182251401Y-67501505D01*
X182065839Y-67371573D01*
X182026975Y-67327257D01*
X182012964Y-67270000D01*
X182026975Y-67212743D01*
X182065839Y-67168426D01*
X182251401Y-67038495D01*
X182418495Y-66871401D01*
X182548426Y-66685839D01*
X182592743Y-66646975D01*
X182650000Y-66632964D01*
X182707257Y-66646975D01*
X182751573Y-66685839D01*
X182881505Y-66871401D01*
X183048599Y-67038495D01*
X183234597Y-67168732D01*
X183273460Y-67213048D01*
X183287471Y-67270306D01*
X183273460Y-67327563D01*
X183234594Y-67371881D01*
X183158626Y-67425073D01*
X183920000Y-68186447D01*
X183920001Y-68186447D01*
X184681373Y-67425073D01*
X184681373Y-67425072D01*
X184605405Y-67371880D01*
X184566539Y-67327562D01*
X184552528Y-67270305D01*
X184566539Y-67213048D01*
X184605402Y-67168732D01*
X184791401Y-67038495D01*
X184958495Y-66871401D01*
X185088426Y-66685839D01*
X185132743Y-66646975D01*
X185190000Y-66632964D01*
X185247257Y-66646975D01*
X185291573Y-66685839D01*
X185421505Y-66871401D01*
X185588599Y-67038495D01*
X185774160Y-67168426D01*
X185813024Y-67212743D01*
X185827035Y-67270000D01*
X185813024Y-67327257D01*
X185774158Y-67371575D01*
X185596990Y-67495630D01*
X185588595Y-67501508D01*
X185421508Y-67668595D01*
X185421505Y-67668598D01*
X185421505Y-67668599D01*
X185291271Y-67854594D01*
X185291270Y-67854595D01*
X185246952Y-67893460D01*
X185189695Y-67907471D01*
X185132438Y-67893460D01*
X185088120Y-67854595D01*
X185034925Y-67778626D01*
X185034925Y-67778625D01*
X184273553Y-68540000D01*
X184273553Y-68540001D01*
X185034925Y-69301373D01*
X185088119Y-69225405D01*
X185132437Y-69186539D01*
X185189694Y-69172528D01*
X185246951Y-69186539D01*
X185291267Y-69225402D01*
X185421505Y-69411401D01*
X185421508Y-69411404D01*
X185423181Y-69413077D01*
X185450061Y-69453305D01*
X185459500Y-69500758D01*
X185459500Y-85195721D01*
X185459460Y-85198863D01*
X185457242Y-85286362D01*
X185467648Y-85344420D01*
X185468957Y-85353749D01*
X185474926Y-85412438D01*
X185484033Y-85441467D01*
X185487772Y-85456702D01*
X185493141Y-85486652D01*
X185515020Y-85541425D01*
X185518180Y-85550300D01*
X185529868Y-85587553D01*
X185535841Y-85606588D01*
X185550607Y-85633191D01*
X185557337Y-85647364D01*
X185568622Y-85675617D01*
X185601080Y-85724867D01*
X185605961Y-85732923D01*
X185634590Y-85784501D01*
X185654404Y-85807581D01*
X185663856Y-85820116D01*
X185680599Y-85845520D01*
X185722300Y-85887221D01*
X185728705Y-85894132D01*
X185767130Y-85938891D01*
X185767131Y-85938892D01*
X185767134Y-85938895D01*
X185791198Y-85957522D01*
X185802968Y-85967888D01*
X185828420Y-85993341D01*
X185946593Y-86089698D01*
X186126952Y-86183910D01*
X186322580Y-86239887D01*
X186447510Y-86249400D01*
X186503017Y-86267396D01*
X186544148Y-86308787D01*
X186561794Y-86364407D01*
X186552047Y-86421940D01*
X186542697Y-86443727D01*
X186540460Y-86448942D01*
X186499500Y-86648259D01*
X186499500Y-86648261D01*
X186499500Y-110485721D01*
X186499460Y-110488863D01*
X186497242Y-110576362D01*
X186507648Y-110634420D01*
X186508957Y-110643749D01*
X186514926Y-110702438D01*
X186524033Y-110731467D01*
X186527772Y-110746702D01*
X186533141Y-110776652D01*
X186555020Y-110831425D01*
X186558180Y-110840300D01*
X186575841Y-110896588D01*
X186590607Y-110923191D01*
X186597337Y-110937364D01*
X186608622Y-110965617D01*
X186641080Y-111014867D01*
X186645961Y-111022923D01*
X186674590Y-111074501D01*
X186694404Y-111097581D01*
X186703856Y-111110116D01*
X186714301Y-111125965D01*
X186720599Y-111135520D01*
X186762300Y-111177221D01*
X186768705Y-111184132D01*
X186807130Y-111228891D01*
X186807131Y-111228892D01*
X186807134Y-111228895D01*
X186831198Y-111247522D01*
X186842968Y-111257889D01*
X188582449Y-112997370D01*
X188584642Y-112999619D01*
X188644941Y-113063053D01*
X188693370Y-113096760D01*
X188700862Y-113102409D01*
X188746592Y-113139697D01*
X188759779Y-113146585D01*
X188773557Y-113153782D01*
X188786981Y-113161915D01*
X188811951Y-113179295D01*
X188866165Y-113202560D01*
X188874675Y-113206602D01*
X188926951Y-113233909D01*
X188956200Y-113242277D01*
X188970970Y-113247535D01*
X188998942Y-113259540D01*
X188998945Y-113259540D01*
X188998946Y-113259541D01*
X189056726Y-113271414D01*
X189065869Y-113273657D01*
X189122582Y-113289886D01*
X189152920Y-113292196D01*
X189168448Y-113294373D01*
X189198259Y-113300500D01*
X189257244Y-113300500D01*
X189266659Y-113300858D01*
X189270806Y-113301173D01*
X189325476Y-113305337D01*
X189352278Y-113301923D01*
X189355652Y-113301494D01*
X189371317Y-113300500D01*
X191499242Y-113300500D01*
X191546695Y-113309939D01*
X191586923Y-113336818D01*
X191588599Y-113338495D01*
X191774160Y-113468426D01*
X191813024Y-113512743D01*
X191827035Y-113570000D01*
X191813024Y-113627257D01*
X191774158Y-113671575D01*
X191654536Y-113755336D01*
X191588595Y-113801508D01*
X191421505Y-113968598D01*
X191285965Y-114162170D01*
X191186097Y-114376336D01*
X191124936Y-114604592D01*
X191104340Y-114839999D01*
X191124936Y-115075407D01*
X191158974Y-115202438D01*
X191186097Y-115303663D01*
X191285965Y-115517830D01*
X191421505Y-115711401D01*
X191588599Y-115878495D01*
X191774160Y-116008426D01*
X191813024Y-116052743D01*
X191827035Y-116110000D01*
X191813024Y-116167257D01*
X191774159Y-116211575D01*
X191588595Y-116341508D01*
X191421505Y-116508598D01*
X191285965Y-116702170D01*
X191186097Y-116916336D01*
X191124936Y-117144592D01*
X191104340Y-117380000D01*
X191124936Y-117615407D01*
X191169709Y-117782501D01*
X191186097Y-117843663D01*
X191285965Y-118057830D01*
X191421505Y-118251401D01*
X191588599Y-118418495D01*
X191774160Y-118548426D01*
X191813024Y-118592743D01*
X191827035Y-118650000D01*
X191813024Y-118707257D01*
X191774159Y-118751575D01*
X191588595Y-118881508D01*
X191421505Y-119048598D01*
X191285965Y-119242170D01*
X191186097Y-119456336D01*
X191124936Y-119684592D01*
X191104340Y-119919999D01*
X191124936Y-120155407D01*
X191148356Y-120242811D01*
X191186097Y-120383663D01*
X191285965Y-120597830D01*
X191421505Y-120791401D01*
X191588599Y-120958495D01*
X191774160Y-121088426D01*
X191813024Y-121132743D01*
X191827035Y-121190000D01*
X191813024Y-121247257D01*
X191774159Y-121291575D01*
X191588595Y-121421508D01*
X191421505Y-121588598D01*
X191285965Y-121782170D01*
X191186097Y-121996336D01*
X191124936Y-122224592D01*
X191104340Y-122459999D01*
X191124936Y-122695407D01*
X191158010Y-122818839D01*
X191186097Y-122923663D01*
X191285965Y-123137830D01*
X191421505Y-123331401D01*
X191588599Y-123498495D01*
X191774160Y-123628426D01*
X191813024Y-123672743D01*
X191827035Y-123730000D01*
X191813024Y-123787257D01*
X191774159Y-123831575D01*
X191588595Y-123961508D01*
X191421505Y-124128598D01*
X191285965Y-124322170D01*
X191186097Y-124536336D01*
X191124936Y-124764592D01*
X191104340Y-125000000D01*
X191124936Y-125235407D01*
X191160257Y-125367225D01*
X191186097Y-125463663D01*
X191285965Y-125677830D01*
X191421505Y-125871401D01*
X191421508Y-125871404D01*
X191423181Y-125873077D01*
X191450061Y-125913305D01*
X191459500Y-125960758D01*
X191459500Y-142574218D01*
X191450061Y-142621671D01*
X191423181Y-142661899D01*
X188121899Y-145963181D01*
X188081671Y-145990061D01*
X188034218Y-145999500D01*
X183949258Y-145999500D01*
X183888579Y-146005670D01*
X183797559Y-146014926D01*
X183603412Y-146075841D01*
X183425500Y-146174589D01*
X183271104Y-146307135D01*
X183146551Y-146468042D01*
X183056940Y-146650727D01*
X183005937Y-146847716D01*
X182995630Y-147050937D01*
X183026443Y-147252071D01*
X183097113Y-147442886D01*
X183204745Y-147615568D01*
X183204748Y-147615571D01*
X183344941Y-147763053D01*
X183511951Y-147879295D01*
X183698942Y-147959540D01*
X183898259Y-148000500D01*
X188485721Y-148000500D01*
X188488862Y-148000539D01*
X188576363Y-148002757D01*
X188634432Y-147992348D01*
X188643736Y-147991043D01*
X188702438Y-147985074D01*
X188731467Y-147975965D01*
X188746700Y-147972226D01*
X188776653Y-147966858D01*
X188831426Y-147944978D01*
X188840301Y-147941819D01*
X188857675Y-147936367D01*
X188896588Y-147924159D01*
X188923194Y-147909390D01*
X188937362Y-147902662D01*
X188965617Y-147891377D01*
X189014879Y-147858909D01*
X189022910Y-147854043D01*
X189074502Y-147825409D01*
X189097587Y-147805589D01*
X189110114Y-147796144D01*
X189135519Y-147779402D01*
X189177251Y-147737668D01*
X189184123Y-147731300D01*
X189228895Y-147692866D01*
X189247519Y-147668803D01*
X189257880Y-147657039D01*
X193157409Y-143757510D01*
X193159579Y-143755394D01*
X193223053Y-143695059D01*
X193256765Y-143646622D01*
X193262408Y-143639138D01*
X193299698Y-143593407D01*
X193313786Y-143566435D01*
X193321911Y-143553024D01*
X193339295Y-143528049D01*
X193362568Y-143473815D01*
X193366598Y-143465331D01*
X193393908Y-143413051D01*
X193393909Y-143413049D01*
X193402278Y-143383797D01*
X193407534Y-143369032D01*
X193419540Y-143341058D01*
X193431418Y-143283256D01*
X193433651Y-143274156D01*
X193449887Y-143217418D01*
X193452197Y-143187077D01*
X193454376Y-143171535D01*
X193460500Y-143141741D01*
X193460500Y-143082757D01*
X193460858Y-143073343D01*
X193460964Y-143071945D01*
X193465337Y-143014523D01*
X193461493Y-142984347D01*
X193460500Y-142968682D01*
X193460500Y-125960758D01*
X193469939Y-125913305D01*
X193496819Y-125873077D01*
X193496819Y-125873076D01*
X193498495Y-125871401D01*
X193628426Y-125685839D01*
X193672743Y-125646975D01*
X193730000Y-125632964D01*
X193787257Y-125646975D01*
X193831573Y-125685839D01*
X193961505Y-125871401D01*
X194128599Y-126038495D01*
X194322170Y-126174035D01*
X194536337Y-126273903D01*
X194764592Y-126335063D01*
X195000000Y-126355659D01*
X195235408Y-126335063D01*
X195463663Y-126273903D01*
X195677830Y-126174035D01*
X195871401Y-126038495D01*
X196038495Y-125871401D01*
X196174035Y-125677830D01*
X196273903Y-125463663D01*
X196284849Y-125422811D01*
X196316941Y-125367225D01*
X196372529Y-125335130D01*
X196436716Y-125335130D01*
X196492304Y-125367224D01*
X197213181Y-126088101D01*
X197240061Y-126128329D01*
X197249500Y-126175782D01*
X197249500Y-127300740D01*
X197264926Y-127452440D01*
X197305536Y-127581871D01*
X197325841Y-127646588D01*
X197424591Y-127824502D01*
X197557134Y-127978895D01*
X197718042Y-128103448D01*
X197900729Y-128193060D01*
X198097715Y-128244063D01*
X198300936Y-128254369D01*
X198356722Y-128245823D01*
X198409611Y-128249177D01*
X198456270Y-128274307D01*
X198488175Y-128316622D01*
X198499500Y-128368393D01*
X198499500Y-128550740D01*
X198514926Y-128702440D01*
X198555535Y-128831871D01*
X198575841Y-128896588D01*
X198674591Y-129074502D01*
X198807134Y-129228895D01*
X198968042Y-129353448D01*
X199150729Y-129443060D01*
X199347715Y-129494063D01*
X199550936Y-129504369D01*
X199606722Y-129495823D01*
X199659611Y-129499177D01*
X199706270Y-129524307D01*
X199738175Y-129566622D01*
X199749500Y-129618393D01*
X199749500Y-129800742D01*
X199753934Y-129844345D01*
X199764926Y-129952440D01*
X199795768Y-130050740D01*
X199825841Y-130146588D01*
X199866957Y-130220665D01*
X199911578Y-130301058D01*
X199924591Y-130324502D01*
X200057134Y-130478895D01*
X200218042Y-130603448D01*
X200400729Y-130693060D01*
X200597715Y-130744063D01*
X200800936Y-130754369D01*
X200856722Y-130745823D01*
X200909611Y-130749177D01*
X200956270Y-130774307D01*
X200988175Y-130816622D01*
X200999500Y-130868393D01*
X200999500Y-131550740D01*
X201014926Y-131702440D01*
X201045868Y-131801058D01*
X201075841Y-131896588D01*
X201174591Y-132074502D01*
X201307134Y-132228895D01*
X201468042Y-132353448D01*
X201650729Y-132443060D01*
X201847715Y-132494063D01*
X202050936Y-132504369D01*
X202050936Y-132504368D01*
X202050937Y-132504369D01*
X202252071Y-132473556D01*
X202334413Y-132443060D01*
X202442887Y-132402886D01*
X202615571Y-132295252D01*
X202763053Y-132155059D01*
X202879295Y-131988049D01*
X202959540Y-131801058D01*
X203000500Y-131601741D01*
X203000500Y-119514239D01*
X203000540Y-119511097D01*
X203002756Y-119423638D01*
X202992351Y-119365585D01*
X202991042Y-119356253D01*
X202985074Y-119297562D01*
X202975967Y-119268537D01*
X202972223Y-119253286D01*
X202968795Y-119234159D01*
X202966858Y-119223347D01*
X202966857Y-119223345D01*
X202966857Y-119223343D01*
X202944976Y-119168565D01*
X202941816Y-119159689D01*
X202939056Y-119150892D01*
X202924159Y-119103412D01*
X202909395Y-119076812D01*
X202902660Y-119062631D01*
X202897055Y-119048598D01*
X202891377Y-119034383D01*
X202858917Y-118985131D01*
X202854036Y-118977074D01*
X202825409Y-118925498D01*
X202805582Y-118902403D01*
X202796146Y-118889888D01*
X202779402Y-118864481D01*
X202779400Y-118864479D01*
X202779399Y-118864477D01*
X202737693Y-118822772D01*
X202731287Y-118815860D01*
X202692864Y-118771102D01*
X202668804Y-118752478D01*
X202657026Y-118742105D01*
X198057567Y-114142647D01*
X198055412Y-114140438D01*
X197995059Y-114076947D01*
X197946640Y-114043246D01*
X197939118Y-114037575D01*
X197893405Y-114000300D01*
X197866440Y-113986215D01*
X197853019Y-113978084D01*
X197828049Y-113960705D01*
X197828048Y-113960704D01*
X197828046Y-113960703D01*
X197773845Y-113937443D01*
X197765336Y-113933402D01*
X197713053Y-113906092D01*
X197707126Y-113904396D01*
X197683798Y-113897721D01*
X197669020Y-113892459D01*
X197641058Y-113880460D01*
X197583272Y-113868583D01*
X197574128Y-113866338D01*
X197517421Y-113850113D01*
X197487075Y-113847802D01*
X197471534Y-113845622D01*
X197441742Y-113839500D01*
X197441741Y-113839500D01*
X197382758Y-113839500D01*
X197373344Y-113839142D01*
X197364198Y-113838445D01*
X197314524Y-113834663D01*
X197314523Y-113834663D01*
X197284349Y-113838506D01*
X197268683Y-113839500D01*
X195960758Y-113839500D01*
X195913305Y-113830061D01*
X195873077Y-113803181D01*
X195871401Y-113801505D01*
X195789364Y-113744062D01*
X195685839Y-113671573D01*
X195646975Y-113627257D01*
X195632964Y-113570000D01*
X195646975Y-113512743D01*
X195685839Y-113468426D01*
X195871401Y-113338495D01*
X195873076Y-113336819D01*
X195913305Y-113309939D01*
X195960758Y-113300500D01*
X196685721Y-113300500D01*
X196688862Y-113300539D01*
X196776363Y-113302757D01*
X196834432Y-113292348D01*
X196843736Y-113291043D01*
X196902438Y-113285074D01*
X196931467Y-113275965D01*
X196946700Y-113272226D01*
X196976653Y-113266858D01*
X197031426Y-113244978D01*
X197040301Y-113241819D01*
X197057675Y-113236367D01*
X197096588Y-113224159D01*
X197123194Y-113209390D01*
X197137362Y-113202662D01*
X197165617Y-113191377D01*
X197214879Y-113158909D01*
X197222910Y-113154043D01*
X197274502Y-113125409D01*
X197297587Y-113105589D01*
X197310114Y-113096144D01*
X197335519Y-113079402D01*
X197377251Y-113037668D01*
X197384123Y-113031300D01*
X197428895Y-112992866D01*
X197447524Y-112968798D01*
X197457883Y-112957036D01*
X205287819Y-105127099D01*
X205337182Y-105096850D01*
X205394898Y-105092308D01*
X205448385Y-105114463D01*
X205485985Y-105158486D01*
X205499500Y-105214781D01*
X205499500Y-124034218D01*
X205490061Y-124081671D01*
X205463181Y-124121899D01*
X205256663Y-124328415D01*
X205160303Y-124446591D01*
X205160301Y-124446593D01*
X205160302Y-124446593D01*
X205079210Y-124601837D01*
X205066089Y-124626955D01*
X205010112Y-124822580D01*
X204994663Y-125025477D01*
X205019124Y-125217550D01*
X205020370Y-125227328D01*
X205086184Y-125419872D01*
X205189410Y-125595227D01*
X205312643Y-125731627D01*
X205325823Y-125746215D01*
X205489833Y-125866650D01*
X205674730Y-125951605D01*
X205872946Y-125997603D01*
X206076361Y-126002757D01*
X206076361Y-126002756D01*
X206076363Y-126002757D01*
X206276653Y-125966858D01*
X206371134Y-125929117D01*
X206465616Y-125891378D01*
X206506657Y-125864329D01*
X206635519Y-125779402D01*
X207197409Y-125217510D01*
X207199579Y-125215394D01*
X207263053Y-125155059D01*
X207296765Y-125106622D01*
X207302408Y-125099138D01*
X207339698Y-125053407D01*
X207353786Y-125026435D01*
X207361911Y-125013024D01*
X207379295Y-124988049D01*
X207402568Y-124933815D01*
X207406598Y-124925331D01*
X207410179Y-124918477D01*
X207433909Y-124873049D01*
X207442278Y-124843797D01*
X207447534Y-124829032D01*
X207459540Y-124801058D01*
X207471418Y-124743256D01*
X207473651Y-124734156D01*
X207489887Y-124677418D01*
X207492197Y-124647077D01*
X207494376Y-124631535D01*
X207500500Y-124601741D01*
X207500500Y-124542757D01*
X207500858Y-124533343D01*
X207501267Y-124527967D01*
X207505337Y-124474523D01*
X207501493Y-124444347D01*
X207500500Y-124428682D01*
X207500500Y-82514279D01*
X207500540Y-82511137D01*
X207502757Y-82423638D01*
X207492350Y-82365574D01*
X207491041Y-82356242D01*
X207485074Y-82297562D01*
X207475964Y-82268528D01*
X207472227Y-82253305D01*
X207466858Y-82223347D01*
X207444969Y-82168549D01*
X207441816Y-82159689D01*
X207424160Y-82103415D01*
X207424159Y-82103414D01*
X207424159Y-82103412D01*
X207409396Y-82076816D01*
X207402663Y-82062636D01*
X207391379Y-82034385D01*
X207391378Y-82034383D01*
X207358901Y-81985106D01*
X207354040Y-81977082D01*
X207325409Y-81925498D01*
X207325408Y-81925496D01*
X207305593Y-81902415D01*
X207296144Y-81889883D01*
X207279402Y-81864481D01*
X207237699Y-81822779D01*
X207231292Y-81815866D01*
X207192865Y-81771103D01*
X207168802Y-81752477D01*
X207157022Y-81742102D01*
X206921583Y-81506662D01*
X206803407Y-81410302D01*
X206803406Y-81410301D01*
X206623048Y-81316090D01*
X206623045Y-81316089D01*
X206623043Y-81316088D01*
X206427418Y-81260111D01*
X206249675Y-81246577D01*
X206224523Y-81244662D01*
X206224522Y-81244662D01*
X206022674Y-81270368D01*
X206022671Y-81270368D01*
X206022671Y-81270369D01*
X205888911Y-81316090D01*
X205830127Y-81336183D01*
X205654772Y-81439409D01*
X205503783Y-81575822D01*
X205383348Y-81739832D01*
X205298393Y-81924729D01*
X205252395Y-82122945D01*
X205247241Y-82326360D01*
X205283141Y-82526653D01*
X205347664Y-82688185D01*
X205355875Y-82746727D01*
X205336047Y-82802419D01*
X205292688Y-82842601D01*
X205235653Y-82858142D01*
X205177903Y-82845510D01*
X205099274Y-82806941D01*
X205099271Y-82806940D01*
X204902285Y-82755937D01*
X204881671Y-82754891D01*
X204699062Y-82745630D01*
X204497928Y-82776443D01*
X204307113Y-82847113D01*
X204134431Y-82954745D01*
X204090808Y-82996213D01*
X203986947Y-83094941D01*
X203986946Y-83094943D01*
X203870705Y-83261950D01*
X203790460Y-83448941D01*
X203749500Y-83648261D01*
X203749500Y-86953852D01*
X203733536Y-87014714D01*
X203689754Y-87059906D01*
X203629428Y-87077790D01*
X203585209Y-87067677D01*
X203584671Y-87069559D01*
X203376919Y-87010112D01*
X203199176Y-86996578D01*
X203174024Y-86994663D01*
X203174023Y-86994663D01*
X203140165Y-86998975D01*
X203071779Y-86988203D01*
X203019826Y-86942447D01*
X203000500Y-86875969D01*
X203000500Y-85764239D01*
X203000540Y-85761097D01*
X203002756Y-85673638D01*
X202998047Y-85647364D01*
X202992349Y-85615576D01*
X202991042Y-85606253D01*
X202989151Y-85587654D01*
X202985074Y-85547562D01*
X202975967Y-85518537D01*
X202972223Y-85503286D01*
X202969242Y-85486653D01*
X202966858Y-85473347D01*
X202966857Y-85473345D01*
X202966857Y-85473343D01*
X202944976Y-85418565D01*
X202941816Y-85409689D01*
X202931577Y-85377055D01*
X202924159Y-85353412D01*
X202909395Y-85326812D01*
X202902660Y-85312631D01*
X202891377Y-85284383D01*
X202858917Y-85235131D01*
X202854036Y-85227074D01*
X202838582Y-85199231D01*
X202825409Y-85175498D01*
X202805582Y-85152403D01*
X202796146Y-85139888D01*
X202779402Y-85114481D01*
X202779400Y-85114479D01*
X202779399Y-85114477D01*
X202737700Y-85072779D01*
X202731294Y-85065867D01*
X202692868Y-85021106D01*
X202668805Y-85002480D01*
X202657026Y-84992105D01*
X202171583Y-84506662D01*
X202053407Y-84410302D01*
X202053406Y-84410301D01*
X201873048Y-84316090D01*
X201873045Y-84316089D01*
X201873043Y-84316088D01*
X201677418Y-84260111D01*
X201499675Y-84246577D01*
X201474523Y-84244662D01*
X201474522Y-84244662D01*
X201272674Y-84270368D01*
X201272671Y-84270368D01*
X201272671Y-84270369D01*
X201138911Y-84316090D01*
X201080127Y-84336183D01*
X200904772Y-84439409D01*
X200753783Y-84575822D01*
X200633348Y-84739832D01*
X200548393Y-84924729D01*
X200502395Y-85122945D01*
X200497241Y-85326360D01*
X200533141Y-85526653D01*
X200608622Y-85715618D01*
X200720595Y-85885517D01*
X200963181Y-86128102D01*
X200990061Y-86168330D01*
X200999500Y-86215783D01*
X200999500Y-89435643D01*
X200986828Y-89490252D01*
X200951401Y-89533699D01*
X200900461Y-89557105D01*
X200844421Y-89555685D01*
X200652286Y-89505938D01*
X200631671Y-89504892D01*
X200449063Y-89495631D01*
X200247929Y-89526444D01*
X200057114Y-89597114D01*
X199884432Y-89704746D01*
X199808992Y-89776457D01*
X199736948Y-89844942D01*
X199736947Y-89844944D01*
X199620706Y-90011951D01*
X199540461Y-90198942D01*
X199499500Y-90398262D01*
X199499500Y-90435643D01*
X199486827Y-90490251D01*
X199451400Y-90533698D01*
X199400461Y-90557103D01*
X199344420Y-90555683D01*
X199152285Y-90505936D01*
X199131671Y-90504890D01*
X198949062Y-90495629D01*
X198747928Y-90526442D01*
X198557113Y-90597112D01*
X198384431Y-90704744D01*
X198338237Y-90748656D01*
X198236947Y-90844940D01*
X198236946Y-90844942D01*
X198120705Y-91011949D01*
X198040460Y-91198940D01*
X198029677Y-91251411D01*
X197999996Y-91395848D01*
X197999500Y-91398260D01*
X197999500Y-92435643D01*
X197986828Y-92490252D01*
X197951401Y-92533699D01*
X197900461Y-92557105D01*
X197844421Y-92555685D01*
X197652286Y-92505938D01*
X197631671Y-92504892D01*
X197449063Y-92495631D01*
X197247929Y-92526444D01*
X197057114Y-92597114D01*
X196884432Y-92704746D01*
X196808992Y-92776457D01*
X196736948Y-92844942D01*
X196736947Y-92844944D01*
X196620706Y-93011951D01*
X196548589Y-93180001D01*
X196540461Y-93198943D01*
X196510159Y-93346400D01*
X196499501Y-93398262D01*
X196499501Y-93981990D01*
X196481790Y-94045855D01*
X196433716Y-94091475D01*
X196369012Y-94105820D01*
X196306161Y-94084791D01*
X196263119Y-94034395D01*
X196173599Y-93842420D01*
X196114926Y-93758626D01*
X196114925Y-93758625D01*
X195000000Y-94873553D01*
X194238625Y-95634925D01*
X194314594Y-95688119D01*
X194353460Y-95732437D01*
X194367471Y-95789694D01*
X194353461Y-95846950D01*
X194314595Y-95891269D01*
X194195986Y-95974320D01*
X194139555Y-96013834D01*
X194128595Y-96021508D01*
X193961505Y-96188598D01*
X193831575Y-96374159D01*
X193787257Y-96413025D01*
X193730000Y-96427036D01*
X193672743Y-96413025D01*
X193628425Y-96374159D01*
X193498494Y-96188598D01*
X193323730Y-96013834D01*
X193326305Y-96011258D01*
X193296239Y-95974320D01*
X193287427Y-95907244D01*
X193315135Y-95845526D01*
X193371111Y-95807538D01*
X193379334Y-95804814D01*
X193528656Y-95712712D01*
X193652712Y-95588656D01*
X193744814Y-95439334D01*
X193768794Y-95366965D01*
X193797134Y-95320006D01*
X193842962Y-95289865D01*
X193881899Y-95284547D01*
X194646447Y-94520001D01*
X194646447Y-94519999D01*
X193881897Y-93755450D01*
X193842960Y-93750132D01*
X193797134Y-93719992D01*
X193768793Y-93673031D01*
X193744814Y-93600666D01*
X193652712Y-93451344D01*
X193652711Y-93451342D01*
X193606441Y-93405072D01*
X194238625Y-93405072D01*
X195000000Y-94166447D01*
X195000001Y-94166447D01*
X195761373Y-93405073D01*
X195761373Y-93405072D01*
X195677580Y-93346400D01*
X195463492Y-93246569D01*
X195235318Y-93185430D01*
X194999999Y-93164842D01*
X194764681Y-93185430D01*
X194536507Y-93246569D01*
X194322422Y-93346399D01*
X194238625Y-93405072D01*
X193606441Y-93405072D01*
X193539919Y-93338550D01*
X193508099Y-93283967D01*
X193507796Y-93259985D01*
X193500001Y-93250000D01*
X193500000Y-93250000D01*
X193438518Y-93250000D01*
X193393887Y-93237343D01*
X193393092Y-93239745D01*
X193212797Y-93180000D01*
X193110009Y-93169500D01*
X191809991Y-93169500D01*
X191707203Y-93180000D01*
X191526908Y-93239745D01*
X191526112Y-93237343D01*
X191481482Y-93250000D01*
X190624500Y-93250000D01*
X190562500Y-93233387D01*
X190517113Y-93188000D01*
X190500500Y-93126000D01*
X190500500Y-72023791D01*
X190509939Y-71976338D01*
X190536819Y-71936110D01*
X190797148Y-71675781D01*
X191329153Y-71143775D01*
X200497467Y-71143775D01*
X200603208Y-71239612D01*
X200918888Y-71473737D01*
X201255978Y-71675781D01*
X201611270Y-71843822D01*
X201981303Y-71976222D01*
X202362541Y-72071716D01*
X202751302Y-72129384D01*
X203143845Y-72148669D01*
X203536387Y-72129384D01*
X203925148Y-72071716D01*
X204306386Y-71976222D01*
X204676419Y-71843822D01*
X205031711Y-71675781D01*
X205368801Y-71473737D01*
X205684476Y-71239616D01*
X205790221Y-71143774D01*
X203143845Y-68497398D01*
X200497467Y-71143774D01*
X200497467Y-71143775D01*
X191329153Y-71143775D01*
X192197390Y-70275536D01*
X192199560Y-70273420D01*
X192263053Y-70213067D01*
X192296759Y-70164638D01*
X192302428Y-70157121D01*
X192339698Y-70111415D01*
X192353783Y-70084447D01*
X192361918Y-70071023D01*
X192368373Y-70061748D01*
X192379295Y-70046057D01*
X192402568Y-69991823D01*
X192406588Y-69983358D01*
X192433909Y-69931057D01*
X192442275Y-69901816D01*
X192447539Y-69887027D01*
X192459540Y-69859066D01*
X192471417Y-69801264D01*
X192473652Y-69792156D01*
X192489886Y-69735426D01*
X192492196Y-69705086D01*
X192494376Y-69689548D01*
X192500500Y-69659750D01*
X192500500Y-69600764D01*
X192500858Y-69591349D01*
X192502781Y-69566091D01*
X192505337Y-69532532D01*
X192501494Y-69502356D01*
X192500500Y-69486691D01*
X192500500Y-68143844D01*
X199139020Y-68143844D01*
X199158305Y-68536387D01*
X199215973Y-68925148D01*
X199311467Y-69306386D01*
X199443867Y-69676419D01*
X199611908Y-70031711D01*
X199813952Y-70368801D01*
X200048077Y-70684481D01*
X200143913Y-70790221D01*
X200143914Y-70790221D01*
X202790291Y-68143846D01*
X203497398Y-68143846D01*
X206143774Y-70790221D01*
X206239616Y-70684476D01*
X206473737Y-70368801D01*
X206675781Y-70031711D01*
X206843822Y-69676419D01*
X206976222Y-69306386D01*
X207071716Y-68925148D01*
X207129384Y-68536387D01*
X207148669Y-68143844D01*
X207129384Y-67751302D01*
X207071716Y-67362541D01*
X206976222Y-66981303D01*
X206843822Y-66611270D01*
X206675781Y-66255978D01*
X206473737Y-65918888D01*
X206239612Y-65603208D01*
X206143775Y-65497467D01*
X206143774Y-65497467D01*
X203497398Y-68143845D01*
X203497398Y-68143846D01*
X202790291Y-68143846D01*
X202790292Y-68143845D01*
X200143914Y-65497467D01*
X200143913Y-65497467D01*
X200048077Y-65603208D01*
X199813952Y-65918888D01*
X199611908Y-66255978D01*
X199443867Y-66611270D01*
X199311467Y-66981303D01*
X199215973Y-67362541D01*
X199158305Y-67751302D01*
X199139020Y-68143844D01*
X192500500Y-68143844D01*
X192500500Y-65514238D01*
X192500540Y-65511096D01*
X192502756Y-65423639D01*
X192502755Y-65423638D01*
X192502756Y-65423636D01*
X192492345Y-65365554D01*
X192491042Y-65356263D01*
X192485074Y-65297562D01*
X192475964Y-65268528D01*
X192472223Y-65253286D01*
X192466857Y-65223343D01*
X192444976Y-65168565D01*
X192441816Y-65159689D01*
X192436866Y-65143914D01*
X200497467Y-65143914D01*
X203143845Y-67790292D01*
X203143846Y-67790292D01*
X205790221Y-65143914D01*
X205790221Y-65143913D01*
X205684481Y-65048077D01*
X205368801Y-64813952D01*
X205031711Y-64611908D01*
X204676419Y-64443867D01*
X204306386Y-64311467D01*
X203925148Y-64215973D01*
X203536387Y-64158305D01*
X203143845Y-64139020D01*
X202751302Y-64158305D01*
X202362541Y-64215973D01*
X201981303Y-64311467D01*
X201611270Y-64443867D01*
X201255978Y-64611908D01*
X200918888Y-64813952D01*
X200603208Y-65048077D01*
X200497467Y-65143913D01*
X200497467Y-65143914D01*
X192436866Y-65143914D01*
X192432061Y-65128598D01*
X192424159Y-65103412D01*
X192409395Y-65076812D01*
X192402660Y-65062631D01*
X192391377Y-65034383D01*
X192358917Y-64985131D01*
X192354036Y-64977074D01*
X192345396Y-64961508D01*
X192325409Y-64925498D01*
X192305582Y-64902403D01*
X192296146Y-64889888D01*
X192279402Y-64864481D01*
X192279400Y-64864479D01*
X192279399Y-64864477D01*
X192237693Y-64822772D01*
X192231287Y-64815860D01*
X192192864Y-64771102D01*
X192168804Y-64752478D01*
X192157026Y-64742105D01*
X190717567Y-63302647D01*
X190715374Y-63300398D01*
X190655059Y-63236946D01*
X190606642Y-63203247D01*
X190599119Y-63197575D01*
X190553405Y-63160300D01*
X190526440Y-63146215D01*
X190513019Y-63138084D01*
X190488049Y-63120705D01*
X190488048Y-63120704D01*
X190488046Y-63120703D01*
X190433845Y-63097443D01*
X190425336Y-63093402D01*
X190373053Y-63066092D01*
X190367126Y-63064396D01*
X190343798Y-63057721D01*
X190329020Y-63052459D01*
X190301058Y-63040460D01*
X190243272Y-63028583D01*
X190234128Y-63026338D01*
X190177421Y-63010113D01*
X190147075Y-63007802D01*
X190131534Y-63005622D01*
X190101742Y-62999500D01*
X190101741Y-62999500D01*
X190042758Y-62999500D01*
X190033344Y-62999142D01*
X190008392Y-62997242D01*
X189974524Y-62994663D01*
X189974523Y-62994663D01*
X189944349Y-62998506D01*
X189928683Y-62999500D01*
X185014279Y-62999500D01*
X185011137Y-62999460D01*
X184923637Y-62997242D01*
X184865580Y-63007648D01*
X184856251Y-63008957D01*
X184797558Y-63014926D01*
X184768528Y-63024034D01*
X184753288Y-63027775D01*
X184723346Y-63033141D01*
X184668572Y-63055020D01*
X184659702Y-63058178D01*
X184603409Y-63075841D01*
X184576818Y-63090600D01*
X184562648Y-63097330D01*
X184534383Y-63108621D01*
X184485121Y-63141087D01*
X184477066Y-63145967D01*
X184425495Y-63174591D01*
X184402406Y-63194412D01*
X184389883Y-63203855D01*
X184364484Y-63220596D01*
X184322782Y-63262297D01*
X184315875Y-63268698D01*
X184271104Y-63307134D01*
X184252480Y-63331194D01*
X184242107Y-63342971D01*
X183222646Y-64362432D01*
X183220399Y-64364623D01*
X183156948Y-64424939D01*
X183123244Y-64473362D01*
X183117573Y-64480882D01*
X183080301Y-64526593D01*
X183066210Y-64553566D01*
X183058082Y-64566983D01*
X183040705Y-64591950D01*
X183017439Y-64646165D01*
X183013399Y-64654671D01*
X182986090Y-64706952D01*
X182977720Y-64736201D01*
X182972459Y-64750978D01*
X182960460Y-64778942D01*
X182948587Y-64836713D01*
X182946342Y-64845860D01*
X182930113Y-64902580D01*
X182927802Y-64932925D01*
X182925622Y-64948466D01*
X182919500Y-64978259D01*
X182919500Y-65037240D01*
X182919142Y-65046659D01*
X182918977Y-65048825D01*
X182908011Y-65091175D01*
X182883021Y-65127082D01*
X182881509Y-65128594D01*
X182881506Y-65128597D01*
X182881505Y-65128599D01*
X182815165Y-65223343D01*
X182751574Y-65314160D01*
X182707256Y-65353025D01*
X182649999Y-65367036D01*
X182592742Y-65353025D01*
X182548426Y-65314161D01*
X182418495Y-65128599D01*
X182251401Y-64961505D01*
X182057830Y-64825965D01*
X181843663Y-64726097D01*
X181772208Y-64706951D01*
X181615407Y-64664936D01*
X181489902Y-64653955D01*
X181448305Y-64642809D01*
X181413029Y-64618108D01*
X180097567Y-63302647D01*
X180095374Y-63300398D01*
X180035059Y-63236946D01*
X179986642Y-63203247D01*
X179979119Y-63197575D01*
X179933405Y-63160300D01*
X179906440Y-63146215D01*
X179893019Y-63138084D01*
X179868049Y-63120705D01*
X179868048Y-63120704D01*
X179868046Y-63120703D01*
X179813845Y-63097443D01*
X179805336Y-63093402D01*
X179753053Y-63066092D01*
X179747126Y-63064396D01*
X179723798Y-63057721D01*
X179709020Y-63052459D01*
X179681058Y-63040460D01*
X179623272Y-63028583D01*
X179614128Y-63026338D01*
X179557421Y-63010113D01*
X179527075Y-63007802D01*
X179511534Y-63005622D01*
X179481742Y-62999500D01*
X179481741Y-62999500D01*
X179422758Y-62999500D01*
X179413344Y-62999142D01*
X179388392Y-62997242D01*
X179354524Y-62994663D01*
X179354523Y-62994663D01*
X179324349Y-62998506D01*
X179308683Y-62999500D01*
X177014262Y-62999500D01*
X177011121Y-62999460D01*
X177009839Y-62999427D01*
X176923637Y-62997242D01*
X176865580Y-63007648D01*
X176856251Y-63008957D01*
X176797562Y-63014926D01*
X176768527Y-63024035D01*
X176753290Y-63027774D01*
X176723350Y-63033141D01*
X176668567Y-63055022D01*
X176659698Y-63058179D01*
X176603410Y-63075841D01*
X176576809Y-63090605D01*
X176562639Y-63097335D01*
X176534385Y-63108622D01*
X176485121Y-63141087D01*
X176477070Y-63145964D01*
X176425498Y-63174590D01*
X176402414Y-63194407D01*
X176389887Y-63203853D01*
X176364481Y-63220598D01*
X176322775Y-63262303D01*
X176315868Y-63268704D01*
X176271103Y-63307135D01*
X176252480Y-63331193D01*
X176242108Y-63342969D01*
X174302645Y-65282433D01*
X174300398Y-65284624D01*
X174236948Y-65344940D01*
X174203244Y-65393362D01*
X174197573Y-65400882D01*
X174160301Y-65446593D01*
X174146210Y-65473566D01*
X174138082Y-65486983D01*
X174120705Y-65511950D01*
X174097439Y-65566165D01*
X174093399Y-65574671D01*
X174066090Y-65626952D01*
X174057720Y-65656201D01*
X174052459Y-65670978D01*
X174040460Y-65698942D01*
X174028587Y-65756713D01*
X174026342Y-65765860D01*
X174010113Y-65822580D01*
X174007802Y-65852925D01*
X174005622Y-65868466D01*
X173999500Y-65898259D01*
X173999500Y-65957242D01*
X173999142Y-65966656D01*
X173994663Y-66025477D01*
X170290000Y-66025477D01*
X170290000Y-64427424D01*
X170137378Y-64460317D01*
X169920994Y-64547267D01*
X169722405Y-64669543D01*
X169547342Y-64823618D01*
X169400839Y-65005057D01*
X169378209Y-65045567D01*
X169334969Y-65090681D01*
X169275218Y-65108979D01*
X169214131Y-65095814D01*
X169167221Y-65054528D01*
X169070153Y-64910912D01*
X168908727Y-64742483D01*
X168721161Y-64603760D01*
X168512847Y-64498730D01*
X168289780Y-64430417D01*
X168253937Y-64425827D01*
X170790000Y-64425827D01*
X170790000Y-65750000D01*
X171910000Y-65750000D01*
X171910000Y-65716802D01*
X171895176Y-65542635D01*
X171836410Y-65316945D01*
X171740353Y-65104442D01*
X171609763Y-64911227D01*
X171448396Y-64742860D01*
X171260898Y-64604187D01*
X171052660Y-64499196D01*
X170829673Y-64430907D01*
X170790000Y-64425827D01*
X168253937Y-64425827D01*
X168058376Y-64400784D01*
X168058372Y-64400784D01*
X167825295Y-64410685D01*
X167597232Y-64459836D01*
X167380768Y-64546819D01*
X167182107Y-64669139D01*
X167006981Y-64823269D01*
X166975086Y-64862770D01*
X166921810Y-64901101D01*
X166856432Y-64906869D01*
X166797267Y-64878459D01*
X166775657Y-64846005D01*
X166772422Y-64848001D01*
X166757167Y-64823269D01*
X166707339Y-64742483D01*
X166672711Y-64686342D01*
X166548657Y-64562288D01*
X166399334Y-64470186D01*
X166232797Y-64415000D01*
X166130009Y-64404500D01*
X164789991Y-64404500D01*
X164687203Y-64415000D01*
X164520665Y-64470186D01*
X164371342Y-64562288D01*
X164247288Y-64686342D01*
X164155186Y-64835665D01*
X164100000Y-65002202D01*
X164089500Y-65104990D01*
X164089500Y-66895008D01*
X160658060Y-66895008D01*
X160715854Y-66791552D01*
X160793573Y-66571584D01*
X160793596Y-66571455D01*
X160833000Y-66341649D01*
X160833000Y-65716780D01*
X160818170Y-65542548D01*
X160814373Y-65527967D01*
X160798574Y-65467291D01*
X160759385Y-65316779D01*
X160663292Y-65104198D01*
X160532653Y-64910912D01*
X160371227Y-64742483D01*
X160183661Y-64603760D01*
X159975347Y-64498730D01*
X159752280Y-64430417D01*
X159520876Y-64400784D01*
X159520872Y-64400784D01*
X159287795Y-64410685D01*
X159059732Y-64459836D01*
X158843268Y-64546819D01*
X158644607Y-64669139D01*
X158469480Y-64823270D01*
X158322923Y-65004777D01*
X158300395Y-65045103D01*
X158257155Y-65090217D01*
X158197404Y-65108515D01*
X158136316Y-65095350D01*
X158089407Y-65054064D01*
X158085360Y-65048077D01*
X157992653Y-64910912D01*
X157831228Y-64742484D01*
X157809071Y-64726097D01*
X157643661Y-64603760D01*
X157435347Y-64498730D01*
X157212280Y-64430417D01*
X156980876Y-64400784D01*
X156980872Y-64400784D01*
X156747795Y-64410685D01*
X156519732Y-64459836D01*
X156303268Y-64546819D01*
X156104607Y-64669139D01*
X155929480Y-64823270D01*
X155782923Y-65004777D01*
X155760395Y-65045103D01*
X155717155Y-65090217D01*
X155657404Y-65108515D01*
X155596316Y-65095350D01*
X155549407Y-65054064D01*
X155545360Y-65048077D01*
X155452653Y-64910912D01*
X155291228Y-64742484D01*
X155269071Y-64726097D01*
X155103661Y-64603760D01*
X154895347Y-64498730D01*
X154672280Y-64430417D01*
X154440876Y-64400784D01*
X154440872Y-64400784D01*
X154207795Y-64410685D01*
X153979732Y-64459836D01*
X153763268Y-64546819D01*
X153564607Y-64669139D01*
X153389481Y-64823269D01*
X153357586Y-64862770D01*
X153304310Y-64901101D01*
X153238932Y-64906869D01*
X153179767Y-64878459D01*
X153158157Y-64846005D01*
X153154922Y-64848001D01*
X153139667Y-64823269D01*
X153089839Y-64742483D01*
X153055211Y-64686342D01*
X152931157Y-64562288D01*
X152781834Y-64470186D01*
X152615297Y-64415000D01*
X152512509Y-64404500D01*
X151172491Y-64404500D01*
X151069703Y-64415000D01*
X150903165Y-64470186D01*
X150753842Y-64562288D01*
X150629788Y-64686342D01*
X150537686Y-64835665D01*
X150482500Y-65002202D01*
X150472000Y-65104990D01*
X150472000Y-66895008D01*
X143014888Y-66895008D01*
X143038495Y-66871401D01*
X143174035Y-66677830D01*
X143273903Y-66463663D01*
X143335063Y-66235408D01*
X143355659Y-66000000D01*
X143335063Y-65764592D01*
X143273903Y-65536337D01*
X143174035Y-65322171D01*
X143038495Y-65128599D01*
X142871401Y-64961505D01*
X142677830Y-64825965D01*
X142463663Y-64726097D01*
X142392208Y-64706951D01*
X142235407Y-64664936D01*
X142000000Y-64644340D01*
X141764592Y-64664936D01*
X141536336Y-64726097D01*
X141322170Y-64825965D01*
X141128598Y-64961505D01*
X140961505Y-65128598D01*
X140831575Y-65314159D01*
X140787257Y-65353025D01*
X140730000Y-65367036D01*
X140672743Y-65353025D01*
X140628425Y-65314159D01*
X140599376Y-65272672D01*
X140498495Y-65128599D01*
X140496818Y-65126922D01*
X140469939Y-65086695D01*
X140460500Y-65039242D01*
X140460500Y-62551987D01*
X140471123Y-62501771D01*
X140501171Y-62460160D01*
X140545494Y-62434281D01*
X140619334Y-62409814D01*
X140768656Y-62317712D01*
X140892712Y-62193656D01*
X140894752Y-62190347D01*
X140939856Y-62147166D01*
X141000289Y-62131440D01*
X141060723Y-62147161D01*
X141105831Y-62190343D01*
X141107682Y-62193344D01*
X141231654Y-62317316D01*
X141380877Y-62409357D01*
X141547303Y-62464506D01*
X141650021Y-62475000D01*
X141787500Y-62475000D01*
X141787500Y-61500000D01*
X142287500Y-61500000D01*
X142287500Y-62474999D01*
X142424979Y-62474999D01*
X142527695Y-62464506D01*
X142694122Y-62409357D01*
X142843345Y-62317316D01*
X142967316Y-62193345D01*
X143059357Y-62044122D01*
X143114506Y-61877696D01*
X143125000Y-61774979D01*
X143125000Y-61500000D01*
X142287500Y-61500000D01*
X141787500Y-61500000D01*
X141787500Y-61124000D01*
X141804113Y-61062000D01*
X141849500Y-61016613D01*
X141911500Y-61000000D01*
X143124999Y-61000000D01*
X143124999Y-60725021D01*
X143114506Y-60622304D01*
X143059357Y-60455877D01*
X142967316Y-60306654D01*
X142872843Y-60212181D01*
X142842593Y-60162818D01*
X142838051Y-60105102D01*
X142860206Y-60051615D01*
X142904229Y-60014015D01*
X142960524Y-60000500D01*
X209875500Y-60000500D01*
X209937500Y-60017113D01*
X209982887Y-60062500D01*
X209999500Y-60124500D01*
X209999500Y-159875500D01*
X209982887Y-159937500D01*
X209937500Y-159982887D01*
X209875500Y-159999500D01*
X110124500Y-159999500D01*
X110062500Y-159982887D01*
X110017113Y-159937500D01*
X110000500Y-159875500D01*
X110000500Y-156143775D01*
X115497467Y-156143775D01*
X115603208Y-156239612D01*
X115918888Y-156473737D01*
X116255978Y-156675781D01*
X116611270Y-156843822D01*
X116981303Y-156976222D01*
X117362541Y-157071716D01*
X117751302Y-157129384D01*
X118143844Y-157148669D01*
X118536387Y-157129384D01*
X118925148Y-157071716D01*
X119306386Y-156976222D01*
X119676419Y-156843822D01*
X120031711Y-156675781D01*
X120368801Y-156473737D01*
X120684476Y-156239616D01*
X120790221Y-156143774D01*
X118143845Y-153497398D01*
X115497467Y-156143774D01*
X115497467Y-156143775D01*
X110000500Y-156143775D01*
X110000500Y-153143844D01*
X114139020Y-153143844D01*
X114158305Y-153536387D01*
X114215973Y-153925148D01*
X114311467Y-154306386D01*
X114443867Y-154676419D01*
X114611908Y-155031711D01*
X114813952Y-155368801D01*
X115048077Y-155684481D01*
X115143913Y-155790221D01*
X115143914Y-155790221D01*
X117790292Y-153143846D01*
X118497398Y-153143846D01*
X121143774Y-155790221D01*
X121239616Y-155684476D01*
X121473737Y-155368801D01*
X121675781Y-155031711D01*
X121843822Y-154676419D01*
X121976222Y-154306386D01*
X122071716Y-153925148D01*
X122129384Y-153536387D01*
X122148669Y-153143844D01*
X122129384Y-152751302D01*
X122071716Y-152362541D01*
X122000033Y-152076362D01*
X125997242Y-152076362D01*
X126007648Y-152134420D01*
X126008957Y-152143749D01*
X126014926Y-152202438D01*
X126024033Y-152231467D01*
X126027772Y-152246702D01*
X126033141Y-152276652D01*
X126055020Y-152331425D01*
X126058180Y-152340300D01*
X126075841Y-152396588D01*
X126090607Y-152423191D01*
X126097337Y-152437364D01*
X126108622Y-152465617D01*
X126141080Y-152514867D01*
X126145961Y-152522923D01*
X126174590Y-152574501D01*
X126194404Y-152597581D01*
X126203856Y-152610116D01*
X126220599Y-152635520D01*
X126262300Y-152677221D01*
X126268705Y-152684132D01*
X126307130Y-152728891D01*
X126307131Y-152728892D01*
X126307134Y-152728895D01*
X126331198Y-152747522D01*
X126342968Y-152757889D01*
X129782449Y-156197370D01*
X129784642Y-156199619D01*
X129822658Y-156239612D01*
X129844941Y-156263053D01*
X129893370Y-156296760D01*
X129900862Y-156302409D01*
X129946592Y-156339697D01*
X129966939Y-156350325D01*
X129973557Y-156353782D01*
X129986981Y-156361915D01*
X130007555Y-156376235D01*
X130011951Y-156379295D01*
X130066165Y-156402560D01*
X130074675Y-156406602D01*
X130126951Y-156433909D01*
X130156200Y-156442277D01*
X130170970Y-156447535D01*
X130198942Y-156459540D01*
X130198945Y-156459540D01*
X130198946Y-156459541D01*
X130256726Y-156471414D01*
X130265869Y-156473657D01*
X130322582Y-156489886D01*
X130352920Y-156492196D01*
X130368448Y-156494373D01*
X130398259Y-156500500D01*
X130457244Y-156500500D01*
X130466659Y-156500858D01*
X130470806Y-156501173D01*
X130525476Y-156505337D01*
X130552278Y-156501923D01*
X130555652Y-156501494D01*
X130571317Y-156500500D01*
X134945721Y-156500500D01*
X134948862Y-156500539D01*
X135036363Y-156502757D01*
X135094432Y-156492348D01*
X135103736Y-156491043D01*
X135162438Y-156485074D01*
X135191467Y-156475965D01*
X135206700Y-156472226D01*
X135236653Y-156466858D01*
X135291426Y-156444978D01*
X135300301Y-156441819D01*
X135317675Y-156436367D01*
X135356588Y-156424159D01*
X135383194Y-156409390D01*
X135397362Y-156402662D01*
X135425617Y-156391377D01*
X135474879Y-156358909D01*
X135482910Y-156354043D01*
X135534502Y-156325409D01*
X135557587Y-156305589D01*
X135570114Y-156296144D01*
X135595519Y-156279402D01*
X135637251Y-156237668D01*
X135644123Y-156231300D01*
X135688895Y-156192866D01*
X135707519Y-156168803D01*
X135717880Y-156157039D01*
X135747139Y-156127780D01*
X153435642Y-156127780D01*
X153439394Y-156218471D01*
X153439500Y-156223596D01*
X153439500Y-156252066D01*
X153441851Y-156280448D01*
X153442168Y-156285559D01*
X153443817Y-156325410D01*
X153445919Y-156376237D01*
X153450738Y-156399220D01*
X153452952Y-156414421D01*
X153454891Y-156437819D01*
X153477171Y-156525803D01*
X153478325Y-156530793D01*
X153496950Y-156619614D01*
X153505484Y-156641485D01*
X153510171Y-156656114D01*
X153515936Y-156678880D01*
X153552393Y-156761993D01*
X153554349Y-156766717D01*
X153566928Y-156798953D01*
X153587344Y-156851275D01*
X153599364Y-156871448D01*
X153606395Y-156885107D01*
X153615824Y-156906603D01*
X153615827Y-156906607D01*
X153665481Y-156982609D01*
X153668153Y-156986890D01*
X153714634Y-157064894D01*
X153729808Y-157082811D01*
X153738991Y-157095125D01*
X153751837Y-157114787D01*
X153813294Y-157181547D01*
X153816686Y-157185388D01*
X153835095Y-157207123D01*
X153855227Y-157227255D01*
X153858776Y-157230953D01*
X153920258Y-157297740D01*
X153938787Y-157312162D01*
X153950307Y-157322335D01*
X154867665Y-158239692D01*
X154877830Y-158251202D01*
X154892262Y-158269744D01*
X154959057Y-158331233D01*
X154962754Y-158334781D01*
X154982874Y-158354901D01*
X155004598Y-158373300D01*
X155008435Y-158376689D01*
X155075215Y-158438164D01*
X155094861Y-158450999D01*
X155094867Y-158451003D01*
X155107182Y-158460185D01*
X155125106Y-158475366D01*
X155203075Y-158521825D01*
X155207404Y-158524527D01*
X155283393Y-158574173D01*
X155304905Y-158583609D01*
X155318553Y-158590635D01*
X155338722Y-158602653D01*
X155338723Y-158602653D01*
X155338726Y-158602655D01*
X155423286Y-158635650D01*
X155427983Y-158637596D01*
X155438678Y-158642287D01*
X155511119Y-158674063D01*
X155533889Y-158679829D01*
X155548508Y-158684512D01*
X155570386Y-158693049D01*
X155659203Y-158711672D01*
X155664170Y-158712821D01*
X155752179Y-158735108D01*
X155775587Y-158737046D01*
X155790790Y-158739262D01*
X155813763Y-158744080D01*
X155904451Y-158747830D01*
X155909537Y-158748146D01*
X155933090Y-158750098D01*
X155937932Y-158750500D01*
X155937933Y-158750500D01*
X155966411Y-158750500D01*
X155971536Y-158750606D01*
X156062219Y-158754357D01*
X156062219Y-158754356D01*
X156062221Y-158754357D01*
X156085525Y-158751452D01*
X156100864Y-158750500D01*
X161649135Y-158750500D01*
X161664473Y-158751452D01*
X161687779Y-158754357D01*
X161687779Y-158754356D01*
X161687780Y-158754357D01*
X161758017Y-158751452D01*
X161778473Y-158750605D01*
X161783596Y-158750500D01*
X161812068Y-158750500D01*
X161817536Y-158750046D01*
X161840444Y-158748147D01*
X161845543Y-158747831D01*
X161936237Y-158744081D01*
X161959209Y-158739263D01*
X161974413Y-158737047D01*
X161997821Y-158735108D01*
X162085838Y-158712818D01*
X162090754Y-158711680D01*
X162179614Y-158693049D01*
X162201496Y-158684510D01*
X162216116Y-158679827D01*
X162238881Y-158674063D01*
X162322008Y-158637599D01*
X162326699Y-158635656D01*
X162411274Y-158602656D01*
X162431456Y-158590628D01*
X162445101Y-158583605D01*
X162466607Y-158574173D01*
X162542596Y-158524527D01*
X162546916Y-158521830D01*
X162624894Y-158475366D01*
X162642813Y-158460188D01*
X162655132Y-158451003D01*
X162674785Y-158438164D01*
X162741584Y-158376669D01*
X162745380Y-158373318D01*
X162767126Y-158354902D01*
X162787314Y-158334713D01*
X162790942Y-158331233D01*
X162857738Y-158269744D01*
X162872167Y-158251203D01*
X162882325Y-158239701D01*
X163549701Y-157572325D01*
X163561203Y-157562167D01*
X163579744Y-157547738D01*
X163641235Y-157480939D01*
X163644713Y-157477314D01*
X163664902Y-157457126D01*
X163683318Y-157435380D01*
X163686669Y-157431584D01*
X163748164Y-157364785D01*
X163761006Y-157345126D01*
X163770188Y-157332813D01*
X163785366Y-157314894D01*
X163831830Y-157236916D01*
X163834533Y-157232586D01*
X163866645Y-157183435D01*
X163884173Y-157156607D01*
X163893605Y-157135101D01*
X163900628Y-157121456D01*
X163912656Y-157101274D01*
X163945656Y-157016699D01*
X163947599Y-157012008D01*
X163984063Y-156928881D01*
X163989827Y-156906116D01*
X163994510Y-156891496D01*
X164003049Y-156869614D01*
X164021680Y-156780754D01*
X164022818Y-156775838D01*
X164045108Y-156687821D01*
X164047047Y-156664413D01*
X164049264Y-156649207D01*
X164054081Y-156626237D01*
X164057831Y-156535550D01*
X164058149Y-156530428D01*
X164058327Y-156528288D01*
X164060500Y-156502067D01*
X164060500Y-156473596D01*
X164060606Y-156468471D01*
X164062036Y-156433909D01*
X164064357Y-156377779D01*
X164061452Y-156354473D01*
X164060500Y-156339135D01*
X164060500Y-156143775D01*
X200497467Y-156143775D01*
X200603208Y-156239612D01*
X200918888Y-156473737D01*
X201255978Y-156675781D01*
X201611270Y-156843822D01*
X201981303Y-156976222D01*
X202362541Y-157071716D01*
X202751302Y-157129384D01*
X203143844Y-157148669D01*
X203536387Y-157129384D01*
X203925148Y-157071716D01*
X204306386Y-156976222D01*
X204676419Y-156843822D01*
X205031711Y-156675781D01*
X205368801Y-156473737D01*
X205684476Y-156239616D01*
X205790221Y-156143774D01*
X203143845Y-153497398D01*
X200497467Y-156143774D01*
X200497467Y-156143775D01*
X164060500Y-156143775D01*
X164060500Y-154283220D01*
X169589500Y-154283220D01*
X169604329Y-154457451D01*
X169663114Y-154683220D01*
X169759207Y-154895801D01*
X169876115Y-155068772D01*
X169889847Y-155089088D01*
X170051272Y-155257516D01*
X170238839Y-155396240D01*
X170447153Y-155501270D01*
X170670220Y-155569583D01*
X170901624Y-155599216D01*
X171134707Y-155589314D01*
X171362765Y-155540164D01*
X171579235Y-155453179D01*
X171777891Y-155330862D01*
X171953018Y-155176731D01*
X171984911Y-155137231D01*
X172038178Y-155098902D01*
X172103547Y-155093126D01*
X172162710Y-155121521D01*
X172184344Y-155153993D01*
X172187578Y-155151999D01*
X172195185Y-155164333D01*
X172195186Y-155164334D01*
X172215818Y-155197785D01*
X172287288Y-155313657D01*
X172411342Y-155437711D01*
X172411344Y-155437712D01*
X172560666Y-155529814D01*
X172626910Y-155551765D01*
X172727202Y-155584999D01*
X172737703Y-155586071D01*
X172829991Y-155595500D01*
X174170008Y-155595499D01*
X174272797Y-155584999D01*
X174439334Y-155529814D01*
X174588656Y-155437712D01*
X174712712Y-155313656D01*
X174804814Y-155164334D01*
X174859999Y-154997797D01*
X174870500Y-154895009D01*
X174870499Y-154250000D01*
X177130000Y-154250000D01*
X177130000Y-154283198D01*
X177144823Y-154457364D01*
X177203589Y-154683054D01*
X177299646Y-154895557D01*
X177430236Y-155088772D01*
X177591603Y-155257139D01*
X177779101Y-155395812D01*
X177987339Y-155500803D01*
X178210326Y-155569092D01*
X178250000Y-155574172D01*
X178250000Y-155572575D01*
X178750000Y-155572575D01*
X178902621Y-155539682D01*
X179119005Y-155452732D01*
X179317594Y-155330456D01*
X179492657Y-155176381D01*
X179639161Y-154994940D01*
X179661789Y-154954435D01*
X179705028Y-154909319D01*
X179764779Y-154891020D01*
X179825868Y-154904185D01*
X179872778Y-154945471D01*
X179969633Y-155088772D01*
X179969847Y-155089088D01*
X180131272Y-155257516D01*
X180318839Y-155396240D01*
X180527153Y-155501270D01*
X180750220Y-155569583D01*
X180981624Y-155599216D01*
X181214707Y-155589314D01*
X181442765Y-155540164D01*
X181659235Y-155453179D01*
X181857891Y-155330862D01*
X182033018Y-155176731D01*
X182064911Y-155137231D01*
X182118178Y-155098902D01*
X182183547Y-155093126D01*
X182242710Y-155121521D01*
X182264344Y-155153993D01*
X182267578Y-155151999D01*
X182275185Y-155164333D01*
X182275186Y-155164334D01*
X182295818Y-155197785D01*
X182367288Y-155313657D01*
X182491342Y-155437711D01*
X182491344Y-155437712D01*
X182640666Y-155529814D01*
X182706910Y-155551765D01*
X182807202Y-155584999D01*
X182817703Y-155586071D01*
X182909991Y-155595500D01*
X184250008Y-155595499D01*
X184352797Y-155584999D01*
X184519334Y-155529814D01*
X184668656Y-155437712D01*
X184792712Y-155313656D01*
X184884814Y-155164334D01*
X184939999Y-154997797D01*
X184950500Y-154895009D01*
X184950499Y-153143844D01*
X199139020Y-153143844D01*
X199158305Y-153536387D01*
X199215973Y-153925148D01*
X199311467Y-154306386D01*
X199443867Y-154676419D01*
X199611908Y-155031711D01*
X199813952Y-155368801D01*
X200048077Y-155684481D01*
X200143913Y-155790221D01*
X200143914Y-155790221D01*
X202790291Y-153143846D01*
X203497398Y-153143846D01*
X206143774Y-155790221D01*
X206239616Y-155684476D01*
X206473737Y-155368801D01*
X206675781Y-155031711D01*
X206843822Y-154676419D01*
X206976222Y-154306386D01*
X207071716Y-153925148D01*
X207129384Y-153536387D01*
X207148669Y-153143844D01*
X207129384Y-152751302D01*
X207071716Y-152362541D01*
X206976222Y-151981303D01*
X206843822Y-151611270D01*
X206675781Y-151255978D01*
X206473737Y-150918888D01*
X206239612Y-150603208D01*
X206143775Y-150497467D01*
X206143774Y-150497467D01*
X203497398Y-153143845D01*
X203497398Y-153143846D01*
X202790291Y-153143846D01*
X202790292Y-153143845D01*
X200143914Y-150497467D01*
X200143913Y-150497467D01*
X200048077Y-150603208D01*
X199813952Y-150918888D01*
X199611908Y-151255978D01*
X199443867Y-151611270D01*
X199311467Y-151981303D01*
X199215973Y-152362541D01*
X199158305Y-152751302D01*
X199139020Y-153143844D01*
X184950499Y-153143844D01*
X184950499Y-153104992D01*
X184939999Y-153002203D01*
X184884814Y-152835666D01*
X184796305Y-152692169D01*
X184792711Y-152686342D01*
X184668657Y-152562288D01*
X184519334Y-152470186D01*
X184352797Y-152415000D01*
X184250009Y-152404500D01*
X182909991Y-152404500D01*
X182807203Y-152415000D01*
X182640665Y-152470186D01*
X182491342Y-152562288D01*
X182367288Y-152686342D01*
X182294953Y-152803618D01*
X182282833Y-152823269D01*
X182267578Y-152848001D01*
X182264637Y-152846187D01*
X182244574Y-152876978D01*
X182188605Y-152906047D01*
X182125576Y-152903825D01*
X182071792Y-152870887D01*
X182063438Y-152862171D01*
X181948728Y-152742484D01*
X181930354Y-152728895D01*
X181761161Y-152603760D01*
X181552847Y-152498730D01*
X181329780Y-152430417D01*
X181322689Y-152429509D01*
X181098376Y-152400784D01*
X181098372Y-152400784D01*
X180865295Y-152410685D01*
X180637232Y-152459836D01*
X180420768Y-152546819D01*
X180222107Y-152669139D01*
X180046980Y-152823270D01*
X179900423Y-153004776D01*
X179877622Y-153045592D01*
X179834382Y-153090706D01*
X179774631Y-153109004D01*
X179713543Y-153095839D01*
X179666634Y-153054553D01*
X179569763Y-152911227D01*
X179408396Y-152742860D01*
X179220898Y-152604187D01*
X179012660Y-152499196D01*
X178789673Y-152430907D01*
X178750000Y-152425827D01*
X178750000Y-155572575D01*
X178250000Y-155572575D01*
X178250000Y-154250000D01*
X177130000Y-154250000D01*
X174870499Y-154250000D01*
X174870499Y-153750000D01*
X177130000Y-153750000D01*
X178250000Y-153750000D01*
X178250000Y-152427424D01*
X178097378Y-152460317D01*
X177880994Y-152547267D01*
X177682405Y-152669543D01*
X177507342Y-152823618D01*
X177360839Y-153005057D01*
X177247103Y-153208655D01*
X177169411Y-153428544D01*
X177130000Y-153658394D01*
X177130000Y-153750000D01*
X174870499Y-153750000D01*
X174870499Y-153104992D01*
X174859999Y-153002203D01*
X174804814Y-152835666D01*
X174716305Y-152692169D01*
X174712711Y-152686342D01*
X174588657Y-152562288D01*
X174439334Y-152470186D01*
X174272797Y-152415000D01*
X174170009Y-152404500D01*
X172829991Y-152404500D01*
X172727203Y-152415000D01*
X172560665Y-152470186D01*
X172411342Y-152562288D01*
X172287288Y-152686342D01*
X172214953Y-152803618D01*
X172202833Y-152823269D01*
X172187578Y-152848001D01*
X172184637Y-152846187D01*
X172164574Y-152876978D01*
X172108605Y-152906047D01*
X172045576Y-152903825D01*
X171991792Y-152870887D01*
X171983438Y-152862171D01*
X171868728Y-152742484D01*
X171850354Y-152728895D01*
X171681161Y-152603760D01*
X171472847Y-152498730D01*
X171249780Y-152430417D01*
X171242689Y-152429509D01*
X171018376Y-152400784D01*
X171018372Y-152400784D01*
X170785295Y-152410685D01*
X170557232Y-152459836D01*
X170340768Y-152546819D01*
X170142107Y-152669139D01*
X169966980Y-152823270D01*
X169820423Y-153004776D01*
X169706645Y-153208448D01*
X169628925Y-153428418D01*
X169589500Y-153658351D01*
X169589500Y-154283220D01*
X164060500Y-154283220D01*
X164060500Y-150612890D01*
X164069939Y-150565437D01*
X164096819Y-150525209D01*
X164478114Y-150143914D01*
X200497467Y-150143914D01*
X203143845Y-152790292D01*
X203143846Y-152790292D01*
X205790221Y-150143914D01*
X205790221Y-150143913D01*
X205684481Y-150048077D01*
X205368801Y-149813952D01*
X205031711Y-149611908D01*
X204676419Y-149443867D01*
X204306386Y-149311467D01*
X203925148Y-149215973D01*
X203536387Y-149158305D01*
X203143845Y-149139020D01*
X202751302Y-149158305D01*
X202362541Y-149215973D01*
X201981303Y-149311467D01*
X201611270Y-149443867D01*
X201255978Y-149611908D01*
X200918888Y-149813952D01*
X200603208Y-150048077D01*
X200497467Y-150143913D01*
X200497467Y-150143914D01*
X164478114Y-150143914D01*
X165808917Y-148813111D01*
X170956516Y-143665510D01*
X171015879Y-143632469D01*
X171083745Y-143635669D01*
X171139738Y-143674151D01*
X171157035Y-143695059D01*
X171173608Y-143715092D01*
X171173611Y-143715095D01*
X171402971Y-143930480D01*
X171657515Y-144115416D01*
X171789842Y-144188163D01*
X171933234Y-144266994D01*
X172062932Y-144318345D01*
X172225774Y-144382819D01*
X172331051Y-144409849D01*
X172530527Y-144461066D01*
X172753739Y-144489264D01*
X172842680Y-144500500D01*
X172842682Y-144500500D01*
X173157318Y-144500500D01*
X173157320Y-144500500D01*
X173227341Y-144491653D01*
X173469473Y-144461066D01*
X173774225Y-144382819D01*
X174066766Y-144266994D01*
X174342484Y-144115416D01*
X174474166Y-144019744D01*
X174597028Y-143930480D01*
X174710940Y-143823509D01*
X174826390Y-143715094D01*
X174871011Y-143661156D01*
X174966726Y-143545459D01*
X175009473Y-143512301D01*
X175062269Y-143500500D01*
X181937731Y-143500500D01*
X181990527Y-143512301D01*
X182033274Y-143545459D01*
X182173608Y-143715092D01*
X182402971Y-143930480D01*
X182657515Y-144115416D01*
X182789842Y-144188163D01*
X182933234Y-144266994D01*
X183062932Y-144318345D01*
X183225774Y-144382819D01*
X183331051Y-144409849D01*
X183530527Y-144461066D01*
X183753739Y-144489264D01*
X183842680Y-144500500D01*
X183842682Y-144500500D01*
X184157318Y-144500500D01*
X184157320Y-144500500D01*
X184227341Y-144491653D01*
X184469473Y-144461066D01*
X184774225Y-144382819D01*
X185066766Y-144266994D01*
X185342484Y-144115416D01*
X185474166Y-144019744D01*
X185597028Y-143930480D01*
X185826387Y-143715097D01*
X185826389Y-143715095D01*
X185826390Y-143715094D01*
X186026947Y-143472663D01*
X186195537Y-143207007D01*
X186329503Y-142922315D01*
X186426731Y-142623079D01*
X186485688Y-142314015D01*
X186505444Y-142000000D01*
X186485688Y-141685985D01*
X186426731Y-141376921D01*
X186426509Y-141376239D01*
X186355221Y-141156836D01*
X186329503Y-141077685D01*
X186195537Y-140792993D01*
X186026947Y-140527337D01*
X185922740Y-140401373D01*
X185826387Y-140284902D01*
X185597028Y-140069519D01*
X185342484Y-139884583D01*
X185066767Y-139733006D01*
X184830071Y-139639292D01*
X184776325Y-139598140D01*
X184752198Y-139534894D01*
X184764883Y-139468400D01*
X184810597Y-139418477D01*
X184875719Y-139400000D01*
X185947824Y-139400000D01*
X186007375Y-139393597D01*
X186142089Y-139343352D01*
X186257188Y-139257188D01*
X186343352Y-139142089D01*
X186393597Y-139007375D01*
X186400000Y-138947824D01*
X186400000Y-137250000D01*
X181600000Y-137250000D01*
X181600000Y-138947824D01*
X181606402Y-139007375D01*
X181656647Y-139142089D01*
X181742811Y-139257188D01*
X181857910Y-139343352D01*
X181992624Y-139393597D01*
X182052176Y-139400000D01*
X183124281Y-139400000D01*
X183189403Y-139418477D01*
X183235117Y-139468400D01*
X183247802Y-139534894D01*
X183223675Y-139598140D01*
X183169929Y-139639292D01*
X182933232Y-139733006D01*
X182657515Y-139884583D01*
X182402971Y-140069519D01*
X182173608Y-140284907D01*
X182033274Y-140454541D01*
X181990527Y-140487699D01*
X181937731Y-140499500D01*
X175062269Y-140499500D01*
X175009473Y-140487699D01*
X174966726Y-140454541D01*
X174826391Y-140284907D01*
X174597028Y-140069519D01*
X174342484Y-139884583D01*
X174066767Y-139733006D01*
X173830071Y-139639292D01*
X173776325Y-139598140D01*
X173752198Y-139534894D01*
X173764883Y-139468400D01*
X173810597Y-139418477D01*
X173875719Y-139400000D01*
X174947824Y-139400000D01*
X175007375Y-139393597D01*
X175142089Y-139343352D01*
X175257188Y-139257188D01*
X175343352Y-139142089D01*
X175393597Y-139007375D01*
X175400000Y-138947824D01*
X175400000Y-137250000D01*
X170600000Y-137250000D01*
X170600000Y-138947824D01*
X170606402Y-139007375D01*
X170656647Y-139142089D01*
X170742811Y-139257188D01*
X170857910Y-139343352D01*
X170992624Y-139393597D01*
X171052176Y-139400000D01*
X172124281Y-139400000D01*
X172189403Y-139418477D01*
X172235117Y-139468400D01*
X172247802Y-139534894D01*
X172223675Y-139598140D01*
X172169929Y-139639292D01*
X171933232Y-139733006D01*
X171657515Y-139884583D01*
X171402971Y-140069519D01*
X171173608Y-140284907D01*
X171033274Y-140454541D01*
X170990527Y-140487699D01*
X170937731Y-140499500D01*
X170600865Y-140499500D01*
X170585527Y-140498548D01*
X170562219Y-140495642D01*
X170475160Y-140499243D01*
X170471526Y-140499394D01*
X170466404Y-140499500D01*
X170437933Y-140499500D01*
X170433774Y-140499844D01*
X170409550Y-140501851D01*
X170404440Y-140502168D01*
X170313762Y-140505919D01*
X170313763Y-140505919D01*
X170290776Y-140510738D01*
X170275579Y-140512952D01*
X170252180Y-140514891D01*
X170164215Y-140537166D01*
X170159225Y-140538320D01*
X170070385Y-140556949D01*
X170048501Y-140565488D01*
X170033874Y-140570174D01*
X170011116Y-140575937D01*
X169928023Y-140612385D01*
X169923291Y-140614346D01*
X169838723Y-140647345D01*
X169818547Y-140659367D01*
X169804895Y-140666394D01*
X169783396Y-140675825D01*
X169707410Y-140725468D01*
X169703065Y-140728180D01*
X169625104Y-140774635D01*
X169607183Y-140789813D01*
X169594868Y-140798995D01*
X169575218Y-140811833D01*
X169508447Y-140873299D01*
X169504610Y-140876687D01*
X169482878Y-140895093D01*
X169462739Y-140915232D01*
X169459045Y-140918775D01*
X169392262Y-140980254D01*
X169377832Y-140998793D01*
X169367664Y-141010306D01*
X161570306Y-148807664D01*
X161558793Y-148817832D01*
X161540254Y-148832262D01*
X161478775Y-148899045D01*
X161475232Y-148902739D01*
X161455093Y-148922878D01*
X161436687Y-148944610D01*
X161433299Y-148948447D01*
X161371833Y-149015218D01*
X161358995Y-149034868D01*
X161349813Y-149047183D01*
X161334636Y-149065102D01*
X161288174Y-149143074D01*
X161285462Y-149147417D01*
X161235826Y-149223392D01*
X161226396Y-149244891D01*
X161219368Y-149258545D01*
X161207343Y-149278726D01*
X161174346Y-149363288D01*
X161172386Y-149368020D01*
X161135936Y-149451120D01*
X161130169Y-149473890D01*
X161125484Y-149488515D01*
X161116951Y-149510385D01*
X161098324Y-149599211D01*
X161097170Y-149604200D01*
X161074891Y-149692180D01*
X161072952Y-149715578D01*
X161070738Y-149730777D01*
X161065919Y-149753762D01*
X161062168Y-149844440D01*
X161061851Y-149849550D01*
X161059500Y-149877934D01*
X161059500Y-149906404D01*
X161059394Y-149911529D01*
X161055642Y-150002219D01*
X161058548Y-150025527D01*
X161059500Y-150040865D01*
X161059500Y-152573885D01*
X161041090Y-152638899D01*
X160991325Y-152684608D01*
X160924984Y-152697438D01*
X160861765Y-152673581D01*
X160740895Y-152584186D01*
X160532660Y-152479196D01*
X160309673Y-152410907D01*
X160270000Y-152405827D01*
X160270000Y-154106000D01*
X160253387Y-154168000D01*
X160208000Y-154213387D01*
X160146000Y-154230000D01*
X157354000Y-154230000D01*
X157292000Y-154213387D01*
X157246613Y-154168000D01*
X157230000Y-154106000D01*
X157230000Y-152407424D01*
X157077378Y-152440317D01*
X156860994Y-152527267D01*
X156662405Y-152649543D01*
X156646424Y-152663609D01*
X156596763Y-152690255D01*
X156540438Y-152692169D01*
X156489083Y-152668955D01*
X156453307Y-152625409D01*
X156440500Y-152570526D01*
X156440500Y-152405827D01*
X157730000Y-152405827D01*
X157730000Y-153730000D01*
X159770000Y-153730000D01*
X159770000Y-152407424D01*
X159617378Y-152440317D01*
X159400994Y-152527267D01*
X159202405Y-152649543D01*
X159027342Y-152803618D01*
X158880837Y-152985060D01*
X158857936Y-153026055D01*
X158814696Y-153071170D01*
X158754945Y-153089468D01*
X158693857Y-153076303D01*
X158646948Y-153035017D01*
X158549763Y-152891227D01*
X158388396Y-152722860D01*
X158200898Y-152584187D01*
X157992660Y-152479196D01*
X157769673Y-152410907D01*
X157730000Y-152405827D01*
X156440500Y-152405827D01*
X156440500Y-144724000D01*
X156457113Y-144662000D01*
X156502500Y-144616613D01*
X156564500Y-144600000D01*
X156720000Y-144600000D01*
X156720000Y-141400001D01*
X156570021Y-141400001D01*
X156467304Y-141410493D01*
X156300877Y-141465642D01*
X156151654Y-141557683D01*
X156027684Y-141681653D01*
X155935832Y-141830570D01*
X155890725Y-141873751D01*
X155830293Y-141889473D01*
X155769861Y-141873750D01*
X155724754Y-141830569D01*
X155719459Y-141821985D01*
X155632712Y-141681344D01*
X155632711Y-141681342D01*
X155508657Y-141557288D01*
X155359334Y-141465186D01*
X155192797Y-141410000D01*
X155090009Y-141399500D01*
X154289991Y-141399500D01*
X154187203Y-141410000D01*
X154020665Y-141465186D01*
X153871342Y-141557288D01*
X153747288Y-141681342D01*
X153655186Y-141830665D01*
X153600000Y-141997202D01*
X153589500Y-142099991D01*
X153589500Y-142567411D01*
X153579056Y-142617221D01*
X153543211Y-142698941D01*
X153515937Y-142761119D01*
X153463375Y-142968682D01*
X153454891Y-143002183D01*
X153439500Y-143187927D01*
X153439500Y-156089135D01*
X153438548Y-156104473D01*
X153435642Y-156127780D01*
X135747139Y-156127780D01*
X136953032Y-154921887D01*
X136988306Y-154897189D01*
X137029900Y-154886043D01*
X137155408Y-154875063D01*
X137383663Y-154813903D01*
X137597830Y-154714035D01*
X137791401Y-154578495D01*
X137958495Y-154411401D01*
X138088426Y-154225839D01*
X138132743Y-154186975D01*
X138190000Y-154172964D01*
X138247257Y-154186975D01*
X138291573Y-154225839D01*
X138421505Y-154411401D01*
X138588599Y-154578495D01*
X138782170Y-154714035D01*
X138996337Y-154813903D01*
X139207678Y-154870531D01*
X139224592Y-154875063D01*
X139459999Y-154895659D01*
X139459999Y-154895658D01*
X139460000Y-154895659D01*
X139695408Y-154875063D01*
X139923663Y-154813903D01*
X140137830Y-154714035D01*
X140331401Y-154578495D01*
X140498495Y-154411401D01*
X140628426Y-154225839D01*
X140672743Y-154186975D01*
X140730000Y-154172964D01*
X140787257Y-154186975D01*
X140831573Y-154225839D01*
X140961505Y-154411401D01*
X141128599Y-154578495D01*
X141322170Y-154714035D01*
X141536337Y-154813903D01*
X141747678Y-154870531D01*
X141764592Y-154875063D01*
X141999999Y-154895659D01*
X141999999Y-154895658D01*
X142000000Y-154895659D01*
X142235408Y-154875063D01*
X142463663Y-154813903D01*
X142677830Y-154714035D01*
X142871401Y-154578495D01*
X142872702Y-154577193D01*
X142914386Y-154549719D01*
X142963525Y-154540911D01*
X143036363Y-154542757D01*
X143036363Y-154542756D01*
X143036364Y-154542757D01*
X143054782Y-154539455D01*
X143094432Y-154532348D01*
X143103736Y-154531043D01*
X143162438Y-154525074D01*
X143191467Y-154515965D01*
X143206700Y-154512226D01*
X143236653Y-154506858D01*
X143291426Y-154484978D01*
X143300301Y-154481819D01*
X143317675Y-154476367D01*
X143356588Y-154464159D01*
X143383194Y-154449390D01*
X143397362Y-154442662D01*
X143425617Y-154431377D01*
X143474879Y-154398909D01*
X143482910Y-154394043D01*
X143534502Y-154365409D01*
X143557587Y-154345589D01*
X143570114Y-154336144D01*
X143595519Y-154319402D01*
X143637251Y-154277668D01*
X143644123Y-154271300D01*
X143688895Y-154232866D01*
X143707524Y-154208798D01*
X143717883Y-154197036D01*
X145197390Y-152717528D01*
X145199560Y-152715412D01*
X145263053Y-152655059D01*
X145296759Y-152606630D01*
X145302428Y-152599113D01*
X145339698Y-152553407D01*
X145353783Y-152526439D01*
X145361918Y-152513015D01*
X145371536Y-152499196D01*
X145379295Y-152488049D01*
X145402568Y-152433815D01*
X145406598Y-152425331D01*
X145407721Y-152423183D01*
X145433909Y-152373049D01*
X145442278Y-152343797D01*
X145447534Y-152329032D01*
X145459540Y-152301058D01*
X145471418Y-152243256D01*
X145473651Y-152234156D01*
X145489887Y-152177418D01*
X145492197Y-152147077D01*
X145494376Y-152131535D01*
X145500500Y-152101741D01*
X145500500Y-152064358D01*
X145513172Y-152009749D01*
X145548599Y-151966302D01*
X145599539Y-151942896D01*
X145655579Y-151944315D01*
X145847715Y-151994063D01*
X146050936Y-152004369D01*
X146050936Y-152004368D01*
X146050937Y-152004369D01*
X146252071Y-151973556D01*
X146252071Y-151973555D01*
X146442887Y-151902886D01*
X146615571Y-151795252D01*
X146763053Y-151655059D01*
X146879295Y-151488049D01*
X146959540Y-151301058D01*
X147000500Y-151101741D01*
X147000500Y-150064358D01*
X147013172Y-150009749D01*
X147048599Y-149966302D01*
X147099539Y-149942896D01*
X147155579Y-149944315D01*
X147347715Y-149994063D01*
X147550936Y-150004369D01*
X147550936Y-150004368D01*
X147550937Y-150004369D01*
X147752071Y-149973556D01*
X147752071Y-149973555D01*
X147942887Y-149902886D01*
X148115571Y-149795252D01*
X148263053Y-149655059D01*
X148379295Y-149488049D01*
X148459540Y-149301058D01*
X148500500Y-149101741D01*
X148500500Y-140014239D01*
X148500540Y-140011097D01*
X148502756Y-139923638D01*
X148502756Y-139923637D01*
X148492349Y-139865576D01*
X148491042Y-139856253D01*
X148485596Y-139802697D01*
X148485074Y-139797562D01*
X148475967Y-139768537D01*
X148472223Y-139753286D01*
X148466857Y-139723343D01*
X148444976Y-139668565D01*
X148441816Y-139659689D01*
X148432699Y-139630631D01*
X148424159Y-139603412D01*
X148409395Y-139576812D01*
X148402660Y-139562631D01*
X148399885Y-139555684D01*
X148391377Y-139534383D01*
X148358917Y-139485131D01*
X148354036Y-139477074D01*
X148350856Y-139471344D01*
X148325409Y-139425498D01*
X148305582Y-139402403D01*
X148296146Y-139389888D01*
X148279402Y-139364481D01*
X148279400Y-139364479D01*
X148279399Y-139364477D01*
X148237693Y-139322772D01*
X148231287Y-139315860D01*
X148192864Y-139271102D01*
X148168804Y-139252478D01*
X148157026Y-139242105D01*
X147539921Y-138625000D01*
X153570001Y-138625000D01*
X153570001Y-139699981D01*
X153580493Y-139802697D01*
X153635641Y-139969123D01*
X153727682Y-140118346D01*
X153851653Y-140242317D01*
X154000876Y-140334358D01*
X154167301Y-140389506D01*
X154226134Y-140395516D01*
X154242167Y-140400000D01*
X154263701Y-140400000D01*
X154276304Y-140400642D01*
X154283461Y-140401373D01*
X154291419Y-140400000D01*
X154321379Y-140400000D01*
X154321384Y-140399999D01*
X155195000Y-140399999D01*
X155195000Y-138625000D01*
X155695000Y-138625000D01*
X155695000Y-140399999D01*
X156720000Y-140399999D01*
X156720000Y-138625000D01*
X157220000Y-138625000D01*
X157220000Y-140399999D01*
X157309752Y-140399999D01*
X157309764Y-140400000D01*
X158245000Y-140400000D01*
X158245000Y-138625000D01*
X158745000Y-138625000D01*
X158745000Y-140399999D01*
X159669981Y-140399999D01*
X159772697Y-140389506D01*
X159939123Y-140334358D01*
X160088346Y-140242317D01*
X160212317Y-140118346D01*
X160304358Y-139969123D01*
X160359506Y-139802698D01*
X160370000Y-139699981D01*
X160370000Y-138625000D01*
X158745000Y-138625000D01*
X158245000Y-138625000D01*
X157220000Y-138625000D01*
X156720000Y-138625000D01*
X155695000Y-138625000D01*
X155195000Y-138625000D01*
X153570001Y-138625000D01*
X147539921Y-138625000D01*
X145864920Y-136950000D01*
X153570000Y-136950000D01*
X153570000Y-138124999D01*
X153570002Y-138125000D01*
X155195000Y-138125000D01*
X155195000Y-136950000D01*
X155695000Y-136950000D01*
X155695000Y-138125000D01*
X156720000Y-138125000D01*
X156720000Y-136950000D01*
X157220000Y-136950000D01*
X157220000Y-138125000D01*
X158245000Y-138125000D01*
X158245000Y-136950000D01*
X158745000Y-136950000D01*
X158745000Y-138125000D01*
X160369999Y-138125000D01*
X160369999Y-136950000D01*
X158745000Y-136950000D01*
X158245000Y-136950000D01*
X157220000Y-136950000D01*
X156720000Y-136950000D01*
X155695000Y-136950000D01*
X155195000Y-136950000D01*
X153570000Y-136950000D01*
X145864920Y-136950000D01*
X144217567Y-135302647D01*
X144215412Y-135300438D01*
X144191231Y-135275000D01*
X153570000Y-135275000D01*
X153570000Y-136450000D01*
X155195000Y-136450000D01*
X155195000Y-135275000D01*
X155695000Y-135275000D01*
X155695000Y-136450000D01*
X156720000Y-136450000D01*
X156720000Y-135275000D01*
X157220000Y-135275000D01*
X157220000Y-136450000D01*
X158245000Y-136450000D01*
X158245000Y-135275000D01*
X158745000Y-135275000D01*
X158745000Y-136450000D01*
X160369999Y-136450000D01*
X160369999Y-136362262D01*
X160370000Y-136362252D01*
X160370000Y-135275000D01*
X158745000Y-135275000D01*
X158245000Y-135275000D01*
X157220000Y-135275000D01*
X156720000Y-135275000D01*
X155695000Y-135275000D01*
X155195000Y-135275000D01*
X153570000Y-135275000D01*
X144191231Y-135275000D01*
X144155059Y-135236947D01*
X144106640Y-135203246D01*
X144099118Y-135197575D01*
X144053405Y-135160300D01*
X144026440Y-135146215D01*
X144013019Y-135138084D01*
X143988049Y-135120705D01*
X143988048Y-135120704D01*
X143988046Y-135120703D01*
X143933845Y-135097443D01*
X143925336Y-135093402D01*
X143873053Y-135066092D01*
X143867126Y-135064396D01*
X143843798Y-135057721D01*
X143829020Y-135052459D01*
X143801058Y-135040460D01*
X143743272Y-135028583D01*
X143734128Y-135026338D01*
X143677421Y-135010113D01*
X143647075Y-135007802D01*
X143631534Y-135005622D01*
X143601742Y-134999500D01*
X143601741Y-134999500D01*
X143542758Y-134999500D01*
X143533344Y-134999142D01*
X143524198Y-134998445D01*
X143474524Y-134994663D01*
X143474523Y-134994663D01*
X143444349Y-134998506D01*
X143428683Y-134999500D01*
X138724239Y-134999500D01*
X138721097Y-134999460D01*
X138633635Y-134997243D01*
X138575589Y-135007646D01*
X138566264Y-135008954D01*
X138507562Y-135014925D01*
X138478528Y-135024034D01*
X138463288Y-135027775D01*
X138433345Y-135033142D01*
X138378568Y-135055021D01*
X138369698Y-135058179D01*
X138313410Y-135075841D01*
X138286809Y-135090605D01*
X138272639Y-135097335D01*
X138244385Y-135108622D01*
X138195121Y-135141087D01*
X138187070Y-135145964D01*
X138135498Y-135174590D01*
X138112414Y-135194407D01*
X138099887Y-135203853D01*
X138074481Y-135220598D01*
X138032775Y-135262303D01*
X138025868Y-135268704D01*
X137981103Y-135307135D01*
X137962480Y-135331193D01*
X137952108Y-135342969D01*
X136633707Y-136661371D01*
X136578120Y-136693465D01*
X136456335Y-136726097D01*
X136242170Y-136825965D01*
X136048598Y-136961505D01*
X135881508Y-137128595D01*
X135881505Y-137128598D01*
X135881505Y-137128599D01*
X135751271Y-137314594D01*
X135751270Y-137314595D01*
X135706952Y-137353460D01*
X135649695Y-137367471D01*
X135592438Y-137353460D01*
X135548120Y-137314595D01*
X135494925Y-137238626D01*
X135494925Y-137238625D01*
X134733553Y-138000000D01*
X134733553Y-138000001D01*
X135494925Y-138761373D01*
X135548119Y-138685405D01*
X135592437Y-138646539D01*
X135649694Y-138632528D01*
X135706951Y-138646539D01*
X135751267Y-138685402D01*
X135881505Y-138871401D01*
X136048599Y-139038495D01*
X136234160Y-139168426D01*
X136273024Y-139212743D01*
X136287035Y-139270000D01*
X136273024Y-139327257D01*
X136234160Y-139371574D01*
X136051463Y-139499500D01*
X136048595Y-139501508D01*
X135881505Y-139668598D01*
X135751575Y-139854159D01*
X135707257Y-139893025D01*
X135650000Y-139907036D01*
X135592743Y-139893025D01*
X135548425Y-139854159D01*
X135449282Y-139712568D01*
X135418495Y-139668599D01*
X135251401Y-139501505D01*
X135065402Y-139371267D01*
X135026539Y-139326951D01*
X135012528Y-139269694D01*
X135026539Y-139212437D01*
X135065405Y-139168119D01*
X135141373Y-139114925D01*
X134380000Y-138353553D01*
X133618625Y-139114925D01*
X133694594Y-139168119D01*
X133733460Y-139212437D01*
X133747471Y-139269694D01*
X133733461Y-139326950D01*
X133694595Y-139371269D01*
X133555878Y-139468400D01*
X133511463Y-139499500D01*
X133508595Y-139501508D01*
X133333834Y-139676270D01*
X133331261Y-139673697D01*
X133294290Y-139703773D01*
X133227223Y-139712568D01*
X133165518Y-139684858D01*
X133127539Y-139628890D01*
X133124814Y-139620666D01*
X133044374Y-139490251D01*
X133032711Y-139471342D01*
X132908657Y-139347288D01*
X132783351Y-139270000D01*
X132759334Y-139255186D01*
X132751107Y-139252460D01*
X132695122Y-139214458D01*
X132667422Y-139152720D01*
X132676259Y-139085633D01*
X132706311Y-139048747D01*
X132703730Y-139046166D01*
X132787941Y-138961955D01*
X132878495Y-138871401D01*
X133008732Y-138685402D01*
X133053048Y-138646539D01*
X133110305Y-138632528D01*
X133167562Y-138646539D01*
X133211880Y-138685405D01*
X133265073Y-138761373D01*
X134026447Y-138000001D01*
X134026447Y-138000000D01*
X133265073Y-137238626D01*
X133211881Y-137314594D01*
X133167563Y-137353460D01*
X133110306Y-137367471D01*
X133053048Y-137353460D01*
X133008730Y-137314595D01*
X132878495Y-137128599D01*
X132711401Y-136961505D01*
X132602243Y-136885072D01*
X133618625Y-136885072D01*
X134380000Y-137646447D01*
X134380001Y-137646447D01*
X135141373Y-136885073D01*
X135141373Y-136885072D01*
X135057580Y-136826400D01*
X134843492Y-136726569D01*
X134615318Y-136665430D01*
X134380000Y-136644842D01*
X134144681Y-136665430D01*
X133916507Y-136726569D01*
X133702422Y-136826399D01*
X133618625Y-136885072D01*
X132602243Y-136885072D01*
X132517830Y-136825965D01*
X132303663Y-136726097D01*
X132242502Y-136709709D01*
X132075407Y-136664936D01*
X131840000Y-136644340D01*
X131604592Y-136664936D01*
X131376336Y-136726097D01*
X131162170Y-136825965D01*
X130968597Y-136961506D01*
X130962382Y-136967721D01*
X130932113Y-136989947D01*
X130896578Y-137002092D01*
X130865571Y-137007649D01*
X130856244Y-137008958D01*
X130797559Y-137014926D01*
X130768531Y-137024033D01*
X130753296Y-137027772D01*
X130723350Y-137033140D01*
X130668555Y-137055026D01*
X130659685Y-137058184D01*
X130603410Y-137075841D01*
X130576814Y-137090602D01*
X130562644Y-137097331D01*
X130534382Y-137108621D01*
X130485122Y-137141086D01*
X130477066Y-137145967D01*
X130425495Y-137174591D01*
X130402406Y-137194412D01*
X130389883Y-137203855D01*
X130364484Y-137220596D01*
X130322782Y-137262297D01*
X130315875Y-137268698D01*
X130271104Y-137307134D01*
X130252480Y-137331194D01*
X130242107Y-137342971D01*
X129302646Y-138282432D01*
X129300399Y-138284623D01*
X129236948Y-138344939D01*
X129203244Y-138393362D01*
X129197573Y-138400882D01*
X129160301Y-138446593D01*
X129146210Y-138473566D01*
X129138082Y-138486983D01*
X129120705Y-138511950D01*
X129097439Y-138566165D01*
X129093399Y-138574671D01*
X129066090Y-138626952D01*
X129057720Y-138656201D01*
X129052459Y-138670978D01*
X129040460Y-138698942D01*
X129028587Y-138756713D01*
X129026342Y-138765860D01*
X129010113Y-138822580D01*
X129007802Y-138852925D01*
X129005622Y-138868466D01*
X128999500Y-138898259D01*
X128999500Y-138957242D01*
X128999142Y-138966656D01*
X128994663Y-139025477D01*
X128998506Y-139055651D01*
X128999500Y-139071317D01*
X128999500Y-139435642D01*
X128986828Y-139490251D01*
X128951401Y-139533698D01*
X128900461Y-139557104D01*
X128844420Y-139555684D01*
X128652285Y-139505937D01*
X128631670Y-139504891D01*
X128449062Y-139495630D01*
X128247928Y-139526443D01*
X128057113Y-139597113D01*
X127884431Y-139704745D01*
X127833367Y-139753286D01*
X127736947Y-139844941D01*
X127695063Y-139905117D01*
X127620705Y-140011950D01*
X127540460Y-140198941D01*
X127499500Y-140398261D01*
X127499500Y-141935642D01*
X127486828Y-141990251D01*
X127451401Y-142033698D01*
X127400461Y-142057104D01*
X127344420Y-142055684D01*
X127152285Y-142005937D01*
X127131671Y-142004891D01*
X126949062Y-141995630D01*
X126747928Y-142026443D01*
X126557113Y-142097113D01*
X126384431Y-142204745D01*
X126341664Y-142245399D01*
X126236947Y-142344941D01*
X126201973Y-142395190D01*
X126120705Y-142511950D01*
X126040460Y-142698941D01*
X125999500Y-142898261D01*
X125999500Y-151985721D01*
X125999460Y-151988863D01*
X125997242Y-152076362D01*
X122000033Y-152076362D01*
X121976222Y-151981303D01*
X121843822Y-151611270D01*
X121675781Y-151255978D01*
X121473737Y-150918888D01*
X121239612Y-150603208D01*
X121143775Y-150497467D01*
X121143774Y-150497467D01*
X118497398Y-153143845D01*
X118497398Y-153143846D01*
X117790292Y-153143846D01*
X117790292Y-153143845D01*
X115143914Y-150497467D01*
X115143913Y-150497467D01*
X115048077Y-150603208D01*
X114813952Y-150918888D01*
X114611908Y-151255978D01*
X114443867Y-151611270D01*
X114311467Y-151981303D01*
X114215973Y-152362541D01*
X114158305Y-152751302D01*
X114139020Y-153143844D01*
X110000500Y-153143844D01*
X110000500Y-150143914D01*
X115497467Y-150143914D01*
X118143845Y-152790292D01*
X118143846Y-152790292D01*
X120790221Y-150143914D01*
X120790221Y-150143913D01*
X120684481Y-150048077D01*
X120368801Y-149813952D01*
X120031711Y-149611908D01*
X119676419Y-149443867D01*
X119306386Y-149311467D01*
X118925148Y-149215973D01*
X118536387Y-149158305D01*
X118143845Y-149139020D01*
X117751302Y-149158305D01*
X117362541Y-149215973D01*
X116981303Y-149311467D01*
X116611270Y-149443867D01*
X116255978Y-149611908D01*
X115918888Y-149813952D01*
X115603208Y-150048077D01*
X115497467Y-150143913D01*
X115497467Y-150143914D01*
X110000500Y-150143914D01*
X110000500Y-134775000D01*
X153570000Y-134775000D01*
X155195000Y-134775000D01*
X155195000Y-133000000D01*
X155695000Y-133000000D01*
X155695000Y-134775000D01*
X156720000Y-134775000D01*
X156720000Y-133000000D01*
X157220000Y-133000000D01*
X157220000Y-134775000D01*
X158245000Y-134775000D01*
X158245000Y-133000000D01*
X158745000Y-133000000D01*
X158745000Y-134775000D01*
X160369999Y-134775000D01*
X160369999Y-133700022D01*
X160360148Y-133603590D01*
X160359886Y-133598448D01*
X160304358Y-133430876D01*
X160212317Y-133281653D01*
X160088346Y-133157682D01*
X159939123Y-133065641D01*
X159772698Y-133010493D01*
X159669981Y-133000000D01*
X158745000Y-133000000D01*
X158245000Y-133000000D01*
X157220000Y-133000000D01*
X156720000Y-133000000D01*
X155695000Y-133000000D01*
X155195000Y-133000000D01*
X154262875Y-133000000D01*
X154256399Y-133001392D01*
X154167302Y-133010493D01*
X154000876Y-133065641D01*
X153851653Y-133157682D01*
X153727682Y-133281653D01*
X153635641Y-133430876D01*
X153580493Y-133597301D01*
X153570000Y-133700019D01*
X153570000Y-134775000D01*
X110000500Y-134775000D01*
X110000500Y-128561627D01*
X115298284Y-128561627D01*
X115308185Y-128794704D01*
X115357336Y-129022767D01*
X115444319Y-129239231D01*
X115444321Y-129239235D01*
X115566638Y-129437891D01*
X115679935Y-129566622D01*
X115720770Y-129613019D01*
X115760268Y-129644912D01*
X115798595Y-129698174D01*
X115804375Y-129763539D01*
X115775987Y-129822700D01*
X115743507Y-129844345D01*
X115745501Y-129847578D01*
X115583842Y-129947288D01*
X115459788Y-130071342D01*
X115367686Y-130220665D01*
X115312500Y-130387202D01*
X115302000Y-130489990D01*
X115302000Y-131830008D01*
X115312500Y-131932796D01*
X115367686Y-132099334D01*
X115459788Y-132248657D01*
X115583842Y-132372711D01*
X115583844Y-132372712D01*
X115733166Y-132464814D01*
X115844516Y-132501712D01*
X115899702Y-132519999D01*
X115910202Y-132521071D01*
X116002491Y-132530500D01*
X117792508Y-132530499D01*
X117895297Y-132519999D01*
X118061834Y-132464814D01*
X118211156Y-132372712D01*
X118335212Y-132248656D01*
X118427314Y-132099334D01*
X118482499Y-131932797D01*
X118493000Y-131830009D01*
X118492999Y-130489992D01*
X118491865Y-130478895D01*
X118482499Y-130387203D01*
X118453953Y-130301058D01*
X118427314Y-130220666D01*
X118335212Y-130071344D01*
X118335211Y-130071342D01*
X118211157Y-129947288D01*
X118049499Y-129847578D01*
X118051312Y-129844637D01*
X118020530Y-129824584D01*
X117991454Y-129768613D01*
X117993673Y-129705580D01*
X118026610Y-129651794D01*
X118155016Y-129528728D01*
X118293740Y-129341161D01*
X118398770Y-129132847D01*
X118467083Y-128909780D01*
X118496716Y-128678376D01*
X118486814Y-128445293D01*
X118437664Y-128217235D01*
X118350679Y-128000765D01*
X118228362Y-127802109D01*
X118074231Y-127626982D01*
X118074229Y-127626980D01*
X117892721Y-127480421D01*
X117852397Y-127457895D01*
X117807282Y-127414655D01*
X117788984Y-127354904D01*
X117802149Y-127293816D01*
X117843433Y-127246909D01*
X117986588Y-127150153D01*
X118155016Y-126988728D01*
X118293740Y-126801161D01*
X118398770Y-126592847D01*
X118467083Y-126369780D01*
X118496716Y-126138376D01*
X118486814Y-125905293D01*
X118437664Y-125677235D01*
X118419874Y-125632964D01*
X118355206Y-125472032D01*
X118350679Y-125460765D01*
X118228362Y-125262109D01*
X118074231Y-125086982D01*
X118074229Y-125086980D01*
X117892721Y-124940421D01*
X117852397Y-124917895D01*
X117807282Y-124874655D01*
X117788984Y-124814904D01*
X117802149Y-124753816D01*
X117843433Y-124706909D01*
X117986588Y-124610153D01*
X118155016Y-124448728D01*
X118293740Y-124261161D01*
X118398770Y-124052847D01*
X118467083Y-123829780D01*
X118496716Y-123598376D01*
X118486814Y-123365293D01*
X118437664Y-123137235D01*
X118419874Y-123092964D01*
X118355206Y-122932032D01*
X118350679Y-122920765D01*
X118228362Y-122722109D01*
X118074231Y-122546982D01*
X118074229Y-122546980D01*
X117892723Y-122400423D01*
X117689051Y-122286645D01*
X117469081Y-122208925D01*
X117239149Y-122169500D01*
X117239147Y-122169500D01*
X116614284Y-122169500D01*
X116614280Y-122169500D01*
X116440048Y-122184329D01*
X116214279Y-122243114D01*
X116001698Y-122339207D01*
X115808412Y-122469846D01*
X115639983Y-122631272D01*
X115501260Y-122818838D01*
X115396230Y-123027152D01*
X115327917Y-123250219D01*
X115298284Y-123481627D01*
X115308185Y-123714704D01*
X115357336Y-123942767D01*
X115415960Y-124088657D01*
X115444321Y-124159235D01*
X115566638Y-124357891D01*
X115658543Y-124462316D01*
X115720770Y-124533019D01*
X115902276Y-124679576D01*
X115942601Y-124702103D01*
X115987717Y-124745343D01*
X116006015Y-124805094D01*
X115992850Y-124866182D01*
X115951564Y-124913092D01*
X115808412Y-125009846D01*
X115639983Y-125171272D01*
X115501260Y-125358838D01*
X115396230Y-125567152D01*
X115329545Y-125784902D01*
X115327917Y-125790220D01*
X115305298Y-125966857D01*
X115298284Y-126021627D01*
X115308185Y-126254704D01*
X115357336Y-126482767D01*
X115407616Y-126607892D01*
X115444321Y-126699235D01*
X115566638Y-126897891D01*
X115588261Y-126922460D01*
X115720770Y-127073019D01*
X115902276Y-127219576D01*
X115942601Y-127242103D01*
X115987717Y-127285343D01*
X116006015Y-127345094D01*
X115992850Y-127406182D01*
X115951564Y-127453092D01*
X115808412Y-127549846D01*
X115639983Y-127711272D01*
X115501260Y-127898838D01*
X115396230Y-128107152D01*
X115327917Y-128330219D01*
X115298284Y-128561627D01*
X110000500Y-128561627D01*
X110000500Y-117410000D01*
X115322501Y-117410000D01*
X115322501Y-117829979D01*
X115332993Y-117932695D01*
X115388142Y-118099122D01*
X115480183Y-118248345D01*
X115604154Y-118372316D01*
X115753377Y-118464357D01*
X115919803Y-118519506D01*
X116022521Y-118530000D01*
X116667500Y-118530000D01*
X116667500Y-117410000D01*
X117167500Y-117410000D01*
X117167500Y-118529999D01*
X117812479Y-118529999D01*
X117915195Y-118519506D01*
X118081622Y-118464357D01*
X118230845Y-118372316D01*
X118354816Y-118248345D01*
X118446857Y-118099122D01*
X118502006Y-117932696D01*
X118512500Y-117829979D01*
X118512500Y-117410000D01*
X117167500Y-117410000D01*
X116667500Y-117410000D01*
X115322501Y-117410000D01*
X110000500Y-117410000D01*
X110000500Y-114561627D01*
X115318284Y-114561627D01*
X115328185Y-114794704D01*
X115377336Y-115022767D01*
X115464319Y-115239231D01*
X115464321Y-115239235D01*
X115586638Y-115437891D01*
X115656990Y-115517827D01*
X115740770Y-115613019D01*
X115780730Y-115645285D01*
X115819057Y-115698546D01*
X115824837Y-115763908D01*
X115796453Y-115823069D01*
X115763756Y-115844861D01*
X115765713Y-115848034D01*
X115604154Y-115947683D01*
X115480183Y-116071654D01*
X115388142Y-116220877D01*
X115332993Y-116387303D01*
X115322500Y-116490021D01*
X115322500Y-116910000D01*
X118512499Y-116910000D01*
X118512499Y-116490021D01*
X118502006Y-116387304D01*
X118446857Y-116220877D01*
X118354816Y-116071654D01*
X118230845Y-115947683D01*
X118069287Y-115848034D01*
X118071073Y-115845137D01*
X118040122Y-115824975D01*
X118011046Y-115769004D01*
X118013265Y-115705971D01*
X118046202Y-115652185D01*
X118175016Y-115528728D01*
X118313740Y-115341161D01*
X118418770Y-115132847D01*
X118487083Y-114909780D01*
X118516716Y-114678376D01*
X118506814Y-114445293D01*
X118457664Y-114217235D01*
X118435537Y-114162171D01*
X118413429Y-114107152D01*
X118370679Y-114000765D01*
X118248362Y-113802109D01*
X118094231Y-113626982D01*
X118094229Y-113626980D01*
X117912721Y-113480421D01*
X117872397Y-113457895D01*
X117827282Y-113414655D01*
X117808984Y-113354904D01*
X117822149Y-113293816D01*
X117863433Y-113246909D01*
X118006588Y-113150153D01*
X118175016Y-112988728D01*
X118313740Y-112801161D01*
X118418770Y-112592847D01*
X118487083Y-112369780D01*
X118516716Y-112138376D01*
X118506814Y-111905293D01*
X118457664Y-111677235D01*
X118435537Y-111622171D01*
X118370680Y-111460768D01*
X118370679Y-111460765D01*
X118248362Y-111262109D01*
X118094231Y-111086982D01*
X118078774Y-111074501D01*
X117912721Y-110940421D01*
X117872397Y-110917895D01*
X117827282Y-110874655D01*
X117808984Y-110814904D01*
X117822149Y-110753816D01*
X117863433Y-110706909D01*
X118006588Y-110610153D01*
X118175016Y-110448728D01*
X118313740Y-110261161D01*
X118418770Y-110052847D01*
X118487083Y-109829780D01*
X118516716Y-109598376D01*
X118506814Y-109365293D01*
X118457664Y-109137235D01*
X118435537Y-109082171D01*
X118370680Y-108920768D01*
X118370679Y-108920765D01*
X118248362Y-108722109D01*
X118094231Y-108546982D01*
X118094229Y-108546980D01*
X117912723Y-108400423D01*
X117709051Y-108286645D01*
X117489081Y-108208925D01*
X117259149Y-108169500D01*
X117259147Y-108169500D01*
X116634284Y-108169500D01*
X116634280Y-108169500D01*
X116460048Y-108184329D01*
X116234279Y-108243114D01*
X116021698Y-108339207D01*
X115828412Y-108469846D01*
X115659983Y-108631272D01*
X115521260Y-108818838D01*
X115416230Y-109027152D01*
X115347917Y-109250219D01*
X115342011Y-109296337D01*
X115319318Y-109473555D01*
X115318284Y-109481627D01*
X115328185Y-109714704D01*
X115377336Y-109942767D01*
X115464319Y-110159231D01*
X115464321Y-110159235D01*
X115586638Y-110357891D01*
X115699142Y-110485721D01*
X115740770Y-110533019D01*
X115922276Y-110679576D01*
X115962601Y-110702103D01*
X116007717Y-110745343D01*
X116026015Y-110805094D01*
X116012850Y-110866182D01*
X115971564Y-110913092D01*
X115828412Y-111009846D01*
X115659983Y-111171272D01*
X115521260Y-111358838D01*
X115416230Y-111567152D01*
X115401834Y-111614159D01*
X115347917Y-111790220D01*
X115327023Y-111953386D01*
X115318284Y-112021627D01*
X115328185Y-112254704D01*
X115377336Y-112482767D01*
X115454034Y-112673636D01*
X115464321Y-112699235D01*
X115586638Y-112897891D01*
X115674190Y-112997370D01*
X115740770Y-113073019D01*
X115922276Y-113219576D01*
X115962601Y-113242103D01*
X116007717Y-113285343D01*
X116026015Y-113345094D01*
X116012850Y-113406182D01*
X115971564Y-113453092D01*
X115828412Y-113549846D01*
X115659983Y-113711272D01*
X115521260Y-113898838D01*
X115416230Y-114107152D01*
X115347917Y-114330219D01*
X115318284Y-114561627D01*
X110000500Y-114561627D01*
X110000500Y-100561627D01*
X114818284Y-100561627D01*
X114828185Y-100794704D01*
X114877336Y-101022767D01*
X114924244Y-101139500D01*
X114964321Y-101239235D01*
X115030737Y-101347101D01*
X115086639Y-101437892D01*
X115240770Y-101613019D01*
X115280268Y-101644912D01*
X115318595Y-101698174D01*
X115324375Y-101763539D01*
X115295987Y-101822700D01*
X115263507Y-101844345D01*
X115265501Y-101847578D01*
X115103842Y-101947288D01*
X114979788Y-102071342D01*
X114887686Y-102220665D01*
X114832500Y-102387202D01*
X114822000Y-102489990D01*
X114822000Y-103830008D01*
X114832500Y-103932796D01*
X114887686Y-104099334D01*
X114979788Y-104248657D01*
X115103842Y-104372711D01*
X115103844Y-104372712D01*
X115253166Y-104464814D01*
X115364517Y-104501712D01*
X115419702Y-104519999D01*
X115430202Y-104521071D01*
X115522491Y-104530500D01*
X117312508Y-104530499D01*
X117415297Y-104519999D01*
X117581834Y-104464814D01*
X117731156Y-104372712D01*
X117855212Y-104248656D01*
X117947314Y-104099334D01*
X118002499Y-103932797D01*
X118013000Y-103830009D01*
X118012999Y-102489992D01*
X118002499Y-102387203D01*
X117947314Y-102220666D01*
X117855212Y-102071344D01*
X117855211Y-102071342D01*
X117731157Y-101947288D01*
X117569499Y-101847578D01*
X117571312Y-101844637D01*
X117540530Y-101824584D01*
X117511454Y-101768613D01*
X117513673Y-101705580D01*
X117546610Y-101651794D01*
X117652049Y-101550740D01*
X124499500Y-101550740D01*
X124514926Y-101702440D01*
X124545868Y-101801058D01*
X124575841Y-101896588D01*
X124674591Y-102074502D01*
X124807134Y-102228895D01*
X124968042Y-102353448D01*
X125150729Y-102443060D01*
X125347715Y-102494063D01*
X125550936Y-102504369D01*
X125550936Y-102504368D01*
X125550937Y-102504369D01*
X125752071Y-102473556D01*
X125832434Y-102443793D01*
X125891166Y-102437068D01*
X125946337Y-102458299D01*
X125985409Y-102502662D01*
X125999500Y-102560074D01*
X125999500Y-130050740D01*
X126014926Y-130202440D01*
X126020645Y-130220666D01*
X126075841Y-130396588D01*
X126174591Y-130574502D01*
X126307134Y-130728895D01*
X126468042Y-130853448D01*
X126650729Y-130943060D01*
X126847715Y-130994063D01*
X127050936Y-131004369D01*
X127050936Y-131004368D01*
X127050937Y-131004369D01*
X127252071Y-130973556D01*
X127334413Y-130943060D01*
X127442887Y-130902886D01*
X127615571Y-130795252D01*
X127763053Y-130655059D01*
X127879295Y-130488049D01*
X127959540Y-130301058D01*
X128000500Y-130101741D01*
X128000500Y-127499999D01*
X133494555Y-127499999D01*
X133514311Y-127814010D01*
X133573269Y-128123082D01*
X133670495Y-128422310D01*
X133670497Y-128422315D01*
X133802313Y-128702438D01*
X133804463Y-128707007D01*
X133973053Y-128972663D01*
X134173612Y-129215097D01*
X134402971Y-129430480D01*
X134657515Y-129615416D01*
X134723683Y-129651792D01*
X134933234Y-129766994D01*
X135018467Y-129800740D01*
X135225774Y-129882819D01*
X135331051Y-129909849D01*
X135530527Y-129961066D01*
X135763812Y-129990536D01*
X135842680Y-130000500D01*
X135842682Y-130000500D01*
X136157318Y-130000500D01*
X136157320Y-130000500D01*
X136227341Y-129991653D01*
X136469473Y-129961066D01*
X136774225Y-129882819D01*
X137066766Y-129766994D01*
X137342484Y-129615416D01*
X137357947Y-129604181D01*
X137392513Y-129586569D01*
X137430832Y-129580500D01*
X145062073Y-129580500D01*
X145163387Y-129572104D01*
X145247821Y-129565108D01*
X145488881Y-129504063D01*
X145716607Y-129404173D01*
X145924785Y-129268164D01*
X145946403Y-129248262D01*
X145960926Y-129236774D01*
X146089088Y-129150153D01*
X146257516Y-128988728D01*
X146396240Y-128801161D01*
X146501270Y-128592847D01*
X146569583Y-128369780D01*
X146599216Y-128138376D01*
X146589314Y-127905293D01*
X146540164Y-127677235D01*
X146453179Y-127460765D01*
X146330862Y-127262109D01*
X146176731Y-127086982D01*
X146176729Y-127086980D01*
X145995223Y-126940423D01*
X145963067Y-126922460D01*
X145939552Y-126905430D01*
X145932857Y-126899266D01*
X145901504Y-126853562D01*
X145893194Y-126798764D01*
X145909587Y-126745820D01*
X145947410Y-126705306D01*
X146088773Y-126609761D01*
X146257139Y-126448396D01*
X146395812Y-126260898D01*
X146500803Y-126052660D01*
X146569092Y-125829673D01*
X146574173Y-125790000D01*
X143427425Y-125790000D01*
X143460317Y-125942621D01*
X143547267Y-126159005D01*
X143669543Y-126357594D01*
X143683609Y-126373576D01*
X143710255Y-126423237D01*
X143712169Y-126479562D01*
X143688955Y-126530917D01*
X143645409Y-126566693D01*
X143590526Y-126579500D01*
X141841890Y-126579500D01*
X141785595Y-126565985D01*
X141741572Y-126528385D01*
X141719417Y-126474898D01*
X141723959Y-126417182D01*
X141754209Y-126367819D01*
X142390401Y-125731627D01*
X155400784Y-125731627D01*
X155410685Y-125964704D01*
X155459836Y-126192767D01*
X155532492Y-126373576D01*
X155546821Y-126409235D01*
X155669138Y-126607891D01*
X155823269Y-126783018D01*
X156004780Y-126929578D01*
X156024194Y-126940423D01*
X156036929Y-126947537D01*
X156060436Y-126964560D01*
X156075209Y-126978159D01*
X156075210Y-126978160D01*
X156075215Y-126978164D01*
X156283393Y-127114173D01*
X156511119Y-127214063D01*
X156752179Y-127275108D01*
X156820775Y-127280792D01*
X156937927Y-127290500D01*
X156937933Y-127290500D01*
X160287110Y-127290500D01*
X160334563Y-127299939D01*
X160374791Y-127326819D01*
X162213181Y-129165209D01*
X162240061Y-129205437D01*
X162249500Y-129252890D01*
X162249500Y-140577110D01*
X162240061Y-140624563D01*
X162213181Y-140664791D01*
X161414791Y-141463181D01*
X161374563Y-141490061D01*
X161327110Y-141499500D01*
X160010132Y-141499500D01*
X159945036Y-141481039D01*
X159919334Y-141465186D01*
X159752797Y-141410000D01*
X159650009Y-141399500D01*
X158849991Y-141399500D01*
X158747203Y-141410000D01*
X158580665Y-141465186D01*
X158431342Y-141557288D01*
X158307289Y-141681341D01*
X158215245Y-141830570D01*
X158170138Y-141873750D01*
X158109706Y-141889473D01*
X158049274Y-141873750D01*
X158004167Y-141830569D01*
X157912316Y-141681654D01*
X157788345Y-141557683D01*
X157639122Y-141465642D01*
X157472696Y-141410493D01*
X157369979Y-141400000D01*
X157220000Y-141400000D01*
X157220000Y-144599999D01*
X157369979Y-144599999D01*
X157472695Y-144589506D01*
X157639122Y-144534357D01*
X157788345Y-144442316D01*
X157912316Y-144318345D01*
X158004167Y-144169430D01*
X158049274Y-144126249D01*
X158109706Y-144110526D01*
X158170138Y-144126249D01*
X158215245Y-144169430D01*
X158307288Y-144318657D01*
X158431342Y-144442711D01*
X158431344Y-144442712D01*
X158580666Y-144534814D01*
X158692017Y-144571712D01*
X158747202Y-144589999D01*
X158757703Y-144591071D01*
X158849991Y-144600500D01*
X159650008Y-144600499D01*
X159752797Y-144589999D01*
X159919334Y-144534814D01*
X159945035Y-144518961D01*
X160010132Y-144500500D01*
X161899135Y-144500500D01*
X161914473Y-144501452D01*
X161937779Y-144504357D01*
X161937779Y-144504356D01*
X161937780Y-144504357D01*
X162008017Y-144501452D01*
X162028473Y-144500605D01*
X162033596Y-144500500D01*
X162062068Y-144500500D01*
X162067536Y-144500046D01*
X162090444Y-144498147D01*
X162095543Y-144497831D01*
X162186237Y-144494081D01*
X162209209Y-144489263D01*
X162224413Y-144487047D01*
X162247821Y-144485108D01*
X162335838Y-144462818D01*
X162340754Y-144461680D01*
X162429614Y-144443049D01*
X162451496Y-144434510D01*
X162466116Y-144429827D01*
X162488881Y-144424063D01*
X162572008Y-144387599D01*
X162576699Y-144385656D01*
X162661274Y-144352656D01*
X162681456Y-144340628D01*
X162695101Y-144333605D01*
X162716607Y-144324173D01*
X162792593Y-144274528D01*
X162796916Y-144271830D01*
X162874894Y-144225366D01*
X162892813Y-144210188D01*
X162905126Y-144201006D01*
X162924785Y-144188164D01*
X162991584Y-144126669D01*
X162995380Y-144123318D01*
X163017126Y-144104902D01*
X163037314Y-144084713D01*
X163040939Y-144081235D01*
X163107738Y-144019744D01*
X163122167Y-144001203D01*
X163132325Y-143989701D01*
X164739701Y-142382325D01*
X164751203Y-142372167D01*
X164769744Y-142357738D01*
X164831235Y-142290939D01*
X164834713Y-142287314D01*
X164854902Y-142267126D01*
X164873318Y-142245380D01*
X164876669Y-142241584D01*
X164938164Y-142174785D01*
X164951006Y-142155126D01*
X164960188Y-142142813D01*
X164975366Y-142124894D01*
X165021848Y-142046884D01*
X165024505Y-142042627D01*
X165074173Y-141966607D01*
X165083604Y-141945105D01*
X165090635Y-141931445D01*
X165102656Y-141911273D01*
X165135663Y-141826679D01*
X165137600Y-141822005D01*
X165174063Y-141738881D01*
X165179826Y-141716117D01*
X165184516Y-141701483D01*
X165190562Y-141685989D01*
X165193050Y-141679614D01*
X165211678Y-141590772D01*
X165212824Y-141585816D01*
X165235108Y-141497821D01*
X165235905Y-141488199D01*
X165237047Y-141474426D01*
X165239263Y-141459217D01*
X165244081Y-141436238D01*
X165247831Y-141345550D01*
X165248149Y-141340428D01*
X165250500Y-141312068D01*
X165250500Y-141283596D01*
X165250606Y-141278471D01*
X165254357Y-141187780D01*
X165251452Y-141164473D01*
X165250500Y-141149135D01*
X165250500Y-136750000D01*
X170600000Y-136750000D01*
X172750000Y-136750000D01*
X172750000Y-134600000D01*
X173250000Y-134600000D01*
X173250000Y-136750000D01*
X175400000Y-136750000D01*
X181600000Y-136750000D01*
X183750000Y-136750000D01*
X183750000Y-134600000D01*
X184250000Y-134600000D01*
X184250000Y-136750000D01*
X186400000Y-136750000D01*
X186400000Y-135052176D01*
X186393597Y-134992624D01*
X186343352Y-134857910D01*
X186257188Y-134742811D01*
X186142089Y-134656647D01*
X186007375Y-134606402D01*
X185947824Y-134600000D01*
X184250000Y-134600000D01*
X183750000Y-134600000D01*
X182052176Y-134600000D01*
X181992624Y-134606402D01*
X181857910Y-134656647D01*
X181742811Y-134742811D01*
X181656647Y-134857910D01*
X181606402Y-134992624D01*
X181600000Y-135052176D01*
X181600000Y-136750000D01*
X175400000Y-136750000D01*
X175400000Y-135052176D01*
X175393597Y-134992624D01*
X175343352Y-134857910D01*
X175257188Y-134742811D01*
X175142089Y-134656647D01*
X175007375Y-134606402D01*
X174947824Y-134600000D01*
X173250000Y-134600000D01*
X172750000Y-134600000D01*
X171052176Y-134600000D01*
X170992624Y-134606402D01*
X170857910Y-134656647D01*
X170742811Y-134742811D01*
X170656647Y-134857910D01*
X170606402Y-134992624D01*
X170600000Y-135052176D01*
X170600000Y-136750000D01*
X165250500Y-136750000D01*
X165250500Y-128680865D01*
X165251452Y-128665527D01*
X165254357Y-128642219D01*
X165250606Y-128551529D01*
X165250500Y-128546404D01*
X165250500Y-128517932D01*
X165248149Y-128489570D01*
X165247831Y-128484448D01*
X165245261Y-128422310D01*
X165244081Y-128393763D01*
X165239262Y-128370781D01*
X165237047Y-128355573D01*
X165235108Y-128332184D01*
X165235108Y-128332179D01*
X165216302Y-128257920D01*
X165212825Y-128244186D01*
X165211670Y-128239193D01*
X165207065Y-128217232D01*
X165193049Y-128150386D01*
X165184512Y-128128508D01*
X165179826Y-128113879D01*
X165178123Y-128107153D01*
X165174063Y-128091119D01*
X165159086Y-128056975D01*
X165137605Y-128008003D01*
X165135643Y-128003267D01*
X165102656Y-127918727D01*
X165094651Y-127905293D01*
X165090633Y-127898549D01*
X165083609Y-127884906D01*
X165074173Y-127863393D01*
X165041913Y-127814015D01*
X165024529Y-127787407D01*
X165021827Y-127783078D01*
X164975366Y-127705106D01*
X164960187Y-127687184D01*
X164951006Y-127674873D01*
X164938164Y-127655215D01*
X164876694Y-127588441D01*
X164873319Y-127584620D01*
X164854902Y-127562874D01*
X164834771Y-127542743D01*
X164831222Y-127539045D01*
X164769743Y-127472261D01*
X164751211Y-127457837D01*
X164739693Y-127447665D01*
X162092335Y-124800307D01*
X162082162Y-124788787D01*
X162067740Y-124770258D01*
X162000953Y-124708776D01*
X161997255Y-124705227D01*
X161977123Y-124685095D01*
X161955388Y-124666686D01*
X161951547Y-124663294D01*
X161884787Y-124601837D01*
X161865125Y-124588991D01*
X161852811Y-124579808D01*
X161834894Y-124564634D01*
X161756890Y-124518153D01*
X161752609Y-124515481D01*
X161701278Y-124481945D01*
X161676603Y-124465824D01*
X161655107Y-124456395D01*
X161641448Y-124449364D01*
X161621275Y-124437344D01*
X161568953Y-124416928D01*
X161536717Y-124404349D01*
X161532004Y-124402397D01*
X161504332Y-124390260D01*
X161448880Y-124365936D01*
X161426114Y-124360171D01*
X161411485Y-124355484D01*
X161389614Y-124346950D01*
X161300793Y-124328325D01*
X161295803Y-124327171D01*
X161207819Y-124304891D01*
X161184421Y-124302952D01*
X161169223Y-124300738D01*
X161146237Y-124295919D01*
X161124488Y-124295019D01*
X161055559Y-124292168D01*
X161050448Y-124291851D01*
X161027008Y-124289909D01*
X161022067Y-124289500D01*
X161022066Y-124289500D01*
X160993596Y-124289500D01*
X160988473Y-124289394D01*
X160984701Y-124289238D01*
X160897780Y-124285642D01*
X160874473Y-124288548D01*
X160859135Y-124289500D01*
X158667816Y-124289500D01*
X158611360Y-124275903D01*
X158567286Y-124238093D01*
X158545259Y-124184363D01*
X158550110Y-124126496D01*
X158584506Y-124022695D01*
X158595000Y-123919979D01*
X158595000Y-123500000D01*
X155405001Y-123500000D01*
X155405001Y-123919979D01*
X155415493Y-124022695D01*
X155470642Y-124189122D01*
X155562683Y-124338345D01*
X155686654Y-124462316D01*
X155848213Y-124561966D01*
X155846425Y-124564864D01*
X155877361Y-124585007D01*
X155906449Y-124640979D01*
X155904237Y-124704020D01*
X155871296Y-124757815D01*
X155742483Y-124881271D01*
X155603760Y-125068838D01*
X155498730Y-125277152D01*
X155441612Y-125463662D01*
X155430417Y-125500220D01*
X155407750Y-125677232D01*
X155400784Y-125731627D01*
X142390401Y-125731627D01*
X142554876Y-125567152D01*
X143364450Y-124757577D01*
X143424976Y-124724269D01*
X143493934Y-124728520D01*
X143549914Y-124769010D01*
X143575538Y-124833171D01*
X143562852Y-124901085D01*
X143499197Y-125027338D01*
X143430907Y-125250326D01*
X143425827Y-125290000D01*
X146572575Y-125290000D01*
X146539682Y-125137378D01*
X146452732Y-124920994D01*
X146330456Y-124722405D01*
X146176383Y-124547344D01*
X146136666Y-124515274D01*
X146098334Y-124461998D01*
X146092566Y-124396619D01*
X146120976Y-124337454D01*
X146153911Y-124315523D01*
X146151999Y-124312422D01*
X146164334Y-124304814D01*
X146313656Y-124212712D01*
X146437712Y-124088656D01*
X146529814Y-123939334D01*
X146584999Y-123772797D01*
X146595500Y-123670009D01*
X146595499Y-123000000D01*
X155405000Y-123000000D01*
X156750000Y-123000000D01*
X156750000Y-121880001D01*
X156105021Y-121880001D01*
X156002304Y-121890493D01*
X155835877Y-121945642D01*
X155686654Y-122037683D01*
X155562683Y-122161654D01*
X155470642Y-122310877D01*
X155415493Y-122477303D01*
X155405000Y-122580021D01*
X155405000Y-123000000D01*
X146595499Y-123000000D01*
X146595499Y-122329992D01*
X146584999Y-122227203D01*
X146529814Y-122060666D01*
X146458867Y-121945642D01*
X146437711Y-121911342D01*
X146406369Y-121880000D01*
X157250000Y-121880000D01*
X157250000Y-123000000D01*
X158594999Y-123000000D01*
X158594999Y-122580021D01*
X158584506Y-122477304D01*
X158529357Y-122310877D01*
X158437316Y-122161654D01*
X158313345Y-122037683D01*
X158164122Y-121945642D01*
X157997696Y-121890493D01*
X157894979Y-121880000D01*
X157250000Y-121880000D01*
X146406369Y-121880000D01*
X146313657Y-121787288D01*
X146164334Y-121695186D01*
X145997797Y-121640000D01*
X145895009Y-121629500D01*
X145636992Y-121629500D01*
X145587182Y-121619056D01*
X145488882Y-121575937D01*
X145335794Y-121537170D01*
X145247821Y-121514892D01*
X145247819Y-121514891D01*
X145247816Y-121514891D01*
X145062073Y-121499500D01*
X145062067Y-121499500D01*
X143100864Y-121499500D01*
X143085526Y-121498548D01*
X143062219Y-121495642D01*
X142975160Y-121499243D01*
X142971526Y-121499394D01*
X142966404Y-121499500D01*
X142937933Y-121499500D01*
X142933774Y-121499844D01*
X142909550Y-121501851D01*
X142904440Y-121502168D01*
X142813762Y-121505919D01*
X142790777Y-121510738D01*
X142775578Y-121512952D01*
X142752180Y-121514891D01*
X142664200Y-121537170D01*
X142659211Y-121538324D01*
X142570385Y-121556951D01*
X142548515Y-121565484D01*
X142533890Y-121570169D01*
X142511120Y-121575936D01*
X142428020Y-121612386D01*
X142423288Y-121614346D01*
X142338726Y-121647343D01*
X142318545Y-121659368D01*
X142304891Y-121666396D01*
X142283392Y-121675826D01*
X142207417Y-121725462D01*
X142203074Y-121728174D01*
X142125102Y-121774636D01*
X142107183Y-121789813D01*
X142094868Y-121798995D01*
X142075218Y-121811833D01*
X142008447Y-121873299D01*
X142004610Y-121876687D01*
X141982878Y-121895093D01*
X141962739Y-121915232D01*
X141959045Y-121918775D01*
X141892262Y-121980254D01*
X141877832Y-121998793D01*
X141867664Y-122010306D01*
X138043484Y-125834486D01*
X137984119Y-125867529D01*
X137916253Y-125864329D01*
X137860260Y-125825846D01*
X137826391Y-125784907D01*
X137597028Y-125569519D01*
X137342484Y-125384583D01*
X137066767Y-125233006D01*
X136830071Y-125139292D01*
X136776325Y-125098140D01*
X136752198Y-125034894D01*
X136764883Y-124968400D01*
X136810597Y-124918477D01*
X136875719Y-124900000D01*
X137947824Y-124900000D01*
X138007375Y-124893597D01*
X138142089Y-124843352D01*
X138257188Y-124757188D01*
X138343352Y-124642089D01*
X138393597Y-124507375D01*
X138400000Y-124447824D01*
X138400000Y-122750000D01*
X133600000Y-122750000D01*
X133600000Y-124447824D01*
X133606402Y-124507375D01*
X133656647Y-124642089D01*
X133742811Y-124757188D01*
X133857910Y-124843352D01*
X133992624Y-124893597D01*
X134052176Y-124900000D01*
X135124281Y-124900000D01*
X135189403Y-124918477D01*
X135235117Y-124968400D01*
X135247802Y-125034894D01*
X135223675Y-125098140D01*
X135169929Y-125139292D01*
X134933232Y-125233006D01*
X134657515Y-125384583D01*
X134402971Y-125569519D01*
X134173612Y-125784902D01*
X133973053Y-126027336D01*
X133804463Y-126292992D01*
X133670495Y-126577689D01*
X133573269Y-126876917D01*
X133514311Y-127185989D01*
X133494555Y-127499999D01*
X128000500Y-127499999D01*
X128000500Y-122250000D01*
X133600000Y-122250000D01*
X135750000Y-122250000D01*
X135750000Y-120100000D01*
X136250000Y-120100000D01*
X136250000Y-122250000D01*
X138400000Y-122250000D01*
X138400000Y-120552176D01*
X138393597Y-120492624D01*
X138343352Y-120357910D01*
X138257188Y-120242811D01*
X138142089Y-120156647D01*
X138007375Y-120106402D01*
X137947824Y-120100000D01*
X136250000Y-120100000D01*
X135750000Y-120100000D01*
X134052176Y-120100000D01*
X133992624Y-120106402D01*
X133857910Y-120156647D01*
X133742811Y-120242811D01*
X133656647Y-120357910D01*
X133606402Y-120492624D01*
X133600000Y-120552176D01*
X133600000Y-122250000D01*
X128000500Y-122250000D01*
X128000500Y-115706520D01*
X128014884Y-115648552D01*
X128054698Y-115604033D01*
X128110705Y-115583290D01*
X128169913Y-115591135D01*
X128218584Y-115625747D01*
X128307134Y-115728895D01*
X128468042Y-115853448D01*
X128650729Y-115943060D01*
X128847715Y-115994063D01*
X129050936Y-116004369D01*
X129050936Y-116004368D01*
X129050937Y-116004369D01*
X129252071Y-115973556D01*
X129312777Y-115951073D01*
X129442887Y-115902886D01*
X129615571Y-115795252D01*
X129763053Y-115655059D01*
X129879295Y-115488049D01*
X129959540Y-115301058D01*
X130000500Y-115101741D01*
X130000500Y-91840150D01*
X130000540Y-91837008D01*
X130002756Y-91749551D01*
X130002755Y-91749550D01*
X130002756Y-91749548D01*
X129992345Y-91691466D01*
X129991042Y-91682175D01*
X129985074Y-91623474D01*
X129975964Y-91594440D01*
X129972223Y-91579198D01*
X129966857Y-91549255D01*
X129944976Y-91494477D01*
X129941816Y-91485601D01*
X129939056Y-91476804D01*
X129924159Y-91429324D01*
X129909395Y-91402724D01*
X129902660Y-91388543D01*
X129891377Y-91360295D01*
X129858917Y-91311043D01*
X129854036Y-91302986D01*
X129825409Y-91251410D01*
X129805582Y-91228315D01*
X129796146Y-91215800D01*
X129779402Y-91190393D01*
X129779400Y-91190391D01*
X129779399Y-91190389D01*
X129737700Y-91148691D01*
X129731295Y-91141780D01*
X129692866Y-91097017D01*
X129668806Y-91078393D01*
X129657025Y-91068017D01*
X129616171Y-91027162D01*
X129497996Y-90930803D01*
X129497995Y-90930802D01*
X129317637Y-90836591D01*
X129317634Y-90836590D01*
X129317632Y-90836589D01*
X129122007Y-90780612D01*
X128944264Y-90767078D01*
X128919112Y-90765163D01*
X128919111Y-90765163D01*
X128717263Y-90790869D01*
X128717260Y-90790869D01*
X128717260Y-90790870D01*
X128524716Y-90856684D01*
X128349361Y-90959910D01*
X128207625Y-91087963D01*
X128158007Y-91115339D01*
X128101388Y-91117779D01*
X128049596Y-91094772D01*
X128013450Y-91051124D01*
X128000500Y-90995952D01*
X128000500Y-89949260D01*
X127989892Y-89844942D01*
X127985074Y-89797562D01*
X127924159Y-89603412D01*
X127825409Y-89425498D01*
X127692866Y-89271105D01*
X127531958Y-89146552D01*
X127531957Y-89146551D01*
X127349272Y-89056940D01*
X127283609Y-89039939D01*
X127152285Y-89005937D01*
X127131671Y-89004891D01*
X126949062Y-88995630D01*
X126747928Y-89026443D01*
X126557113Y-89097113D01*
X126384431Y-89204745D01*
X126314623Y-89271104D01*
X126236947Y-89344941D01*
X126236946Y-89344943D01*
X126120705Y-89511950D01*
X126040460Y-89698941D01*
X126026806Y-89765381D01*
X126010457Y-89844944D01*
X125999500Y-89898261D01*
X125999500Y-91905642D01*
X125986828Y-91960251D01*
X125951401Y-92003698D01*
X125900461Y-92027104D01*
X125844420Y-92025684D01*
X125652285Y-91975937D01*
X125631671Y-91974891D01*
X125449062Y-91965630D01*
X125247928Y-91996443D01*
X125057113Y-92067113D01*
X124884431Y-92174745D01*
X124808991Y-92246456D01*
X124736947Y-92314941D01*
X124736946Y-92314943D01*
X124620705Y-92481950D01*
X124556900Y-92630631D01*
X124540460Y-92668942D01*
X124504292Y-92844944D01*
X124499500Y-92868261D01*
X124499500Y-101550740D01*
X117652049Y-101550740D01*
X117675016Y-101528728D01*
X117813740Y-101341161D01*
X117918770Y-101132847D01*
X117987083Y-100909780D01*
X118016716Y-100678376D01*
X118006814Y-100445293D01*
X117957664Y-100217235D01*
X117870679Y-100000765D01*
X117748362Y-99802109D01*
X117594231Y-99626982D01*
X117594229Y-99626980D01*
X117412721Y-99480421D01*
X117372397Y-99457895D01*
X117327282Y-99414655D01*
X117308984Y-99354904D01*
X117322149Y-99293816D01*
X117363433Y-99246909D01*
X117506588Y-99150153D01*
X117675016Y-98988728D01*
X117813740Y-98801161D01*
X117918770Y-98592847D01*
X117987083Y-98369780D01*
X118016716Y-98138376D01*
X118006814Y-97905293D01*
X117957664Y-97677235D01*
X117870679Y-97460765D01*
X117748362Y-97262109D01*
X117594231Y-97086982D01*
X117594229Y-97086980D01*
X117412721Y-96940421D01*
X117372397Y-96917895D01*
X117327282Y-96874655D01*
X117308984Y-96814904D01*
X117322149Y-96753816D01*
X117363433Y-96706909D01*
X117506588Y-96610153D01*
X117675016Y-96448728D01*
X117813740Y-96261161D01*
X117918770Y-96052847D01*
X117987083Y-95829780D01*
X118016716Y-95598376D01*
X118006814Y-95365293D01*
X117957664Y-95137235D01*
X117870679Y-94920765D01*
X117748362Y-94722109D01*
X117594231Y-94546982D01*
X117560816Y-94520001D01*
X117412723Y-94400423D01*
X117209051Y-94286645D01*
X116989081Y-94208925D01*
X116759149Y-94169500D01*
X116759147Y-94169500D01*
X116134284Y-94169500D01*
X116134280Y-94169500D01*
X115960048Y-94184329D01*
X115734279Y-94243114D01*
X115521698Y-94339207D01*
X115328412Y-94469846D01*
X115159983Y-94631272D01*
X115021260Y-94818838D01*
X114916230Y-95027152D01*
X114854447Y-95228895D01*
X114847917Y-95250220D01*
X114819079Y-95475421D01*
X114818284Y-95481627D01*
X114828185Y-95714704D01*
X114877336Y-95942767D01*
X114964319Y-96159231D01*
X114964321Y-96159235D01*
X115086638Y-96357891D01*
X115086639Y-96357892D01*
X115240770Y-96533019D01*
X115422276Y-96679576D01*
X115462601Y-96702103D01*
X115507717Y-96745343D01*
X115526015Y-96805094D01*
X115512850Y-96866182D01*
X115471564Y-96913092D01*
X115328412Y-97009846D01*
X115159983Y-97171272D01*
X115021260Y-97358838D01*
X114916230Y-97567152D01*
X114916230Y-97567153D01*
X114847917Y-97790220D01*
X114829838Y-97931404D01*
X114818284Y-98021627D01*
X114828185Y-98254704D01*
X114877336Y-98482767D01*
X114924244Y-98599500D01*
X114964321Y-98699235D01*
X115086638Y-98897891D01*
X115086639Y-98897892D01*
X115240770Y-99073019D01*
X115422276Y-99219576D01*
X115462601Y-99242103D01*
X115507717Y-99285343D01*
X115526015Y-99345094D01*
X115512850Y-99406182D01*
X115471564Y-99453092D01*
X115328412Y-99549846D01*
X115159983Y-99711272D01*
X115021260Y-99898838D01*
X114916230Y-100107152D01*
X114847917Y-100330219D01*
X114818284Y-100561627D01*
X110000500Y-100561627D01*
X110000500Y-87061627D01*
X115280784Y-87061627D01*
X115290685Y-87294704D01*
X115339836Y-87522767D01*
X115426819Y-87739231D01*
X115426821Y-87739235D01*
X115549138Y-87937891D01*
X115549139Y-87937892D01*
X115703270Y-88113019D01*
X115742768Y-88144912D01*
X115781095Y-88198174D01*
X115786875Y-88263539D01*
X115758487Y-88322700D01*
X115726007Y-88344345D01*
X115728001Y-88347578D01*
X115566342Y-88447288D01*
X115442288Y-88571342D01*
X115350186Y-88720665D01*
X115295000Y-88887202D01*
X115284500Y-88989990D01*
X115284500Y-90330008D01*
X115295000Y-90432796D01*
X115350186Y-90599334D01*
X115442288Y-90748657D01*
X115566342Y-90872711D01*
X115566344Y-90872712D01*
X115715666Y-90964814D01*
X115809634Y-90995952D01*
X115882202Y-91019999D01*
X115892703Y-91021071D01*
X115984991Y-91030500D01*
X117775008Y-91030499D01*
X117877797Y-91019999D01*
X118044334Y-90964814D01*
X118193656Y-90872712D01*
X118317712Y-90748656D01*
X118409814Y-90599334D01*
X118464999Y-90432797D01*
X118475500Y-90330009D01*
X118475499Y-88989992D01*
X118464999Y-88887203D01*
X118409814Y-88720666D01*
X118317712Y-88571344D01*
X118317711Y-88571342D01*
X118193657Y-88447288D01*
X118031999Y-88347578D01*
X118033812Y-88344637D01*
X118003030Y-88324584D01*
X117973954Y-88268613D01*
X117976173Y-88205580D01*
X118009110Y-88151794D01*
X118137516Y-88028728D01*
X118276240Y-87841161D01*
X118381270Y-87632847D01*
X118449583Y-87409780D01*
X118479216Y-87178376D01*
X118469314Y-86945293D01*
X118420164Y-86717235D01*
X118333179Y-86500765D01*
X118210862Y-86302109D01*
X118056731Y-86126982D01*
X118053349Y-86124251D01*
X117875221Y-85980421D01*
X117834897Y-85957895D01*
X117789782Y-85914655D01*
X117771484Y-85854904D01*
X117784649Y-85793816D01*
X117825933Y-85746909D01*
X117969088Y-85650153D01*
X118137516Y-85488728D01*
X118276240Y-85301161D01*
X118381270Y-85092847D01*
X118449583Y-84869780D01*
X118479216Y-84638376D01*
X118469314Y-84405293D01*
X118420164Y-84177235D01*
X118333179Y-83960765D01*
X118210862Y-83762109D01*
X118056731Y-83586982D01*
X118056729Y-83586980D01*
X117875221Y-83440421D01*
X117834897Y-83417895D01*
X117789782Y-83374655D01*
X117771484Y-83314904D01*
X117784649Y-83253816D01*
X117825933Y-83206909D01*
X117969088Y-83110153D01*
X118137516Y-82948728D01*
X118276240Y-82761161D01*
X118381270Y-82552847D01*
X118449583Y-82329780D01*
X118479216Y-82098376D01*
X118469314Y-81865293D01*
X118420164Y-81637235D01*
X118333179Y-81420765D01*
X118210862Y-81222109D01*
X118056731Y-81046982D01*
X118056729Y-81046980D01*
X117875223Y-80900423D01*
X117671551Y-80786645D01*
X117451581Y-80708925D01*
X117221649Y-80669500D01*
X117221647Y-80669500D01*
X116596784Y-80669500D01*
X116596780Y-80669500D01*
X116422548Y-80684329D01*
X116196779Y-80743114D01*
X115984198Y-80839207D01*
X115790912Y-80969846D01*
X115622483Y-81131272D01*
X115483760Y-81318838D01*
X115378730Y-81527152D01*
X115310417Y-81750219D01*
X115306279Y-81782536D01*
X115280840Y-81981191D01*
X115280784Y-81981627D01*
X115290685Y-82214704D01*
X115339836Y-82442767D01*
X115416284Y-82633013D01*
X115426821Y-82659235D01*
X115549138Y-82857891D01*
X115549139Y-82857892D01*
X115703270Y-83033019D01*
X115884776Y-83179576D01*
X115925101Y-83202103D01*
X115970217Y-83245343D01*
X115988515Y-83305094D01*
X115975350Y-83366182D01*
X115934064Y-83413092D01*
X115790912Y-83509846D01*
X115622483Y-83671272D01*
X115483760Y-83858838D01*
X115378730Y-84067152D01*
X115316496Y-84270368D01*
X115310417Y-84290220D01*
X115282701Y-84506659D01*
X115280784Y-84521627D01*
X115290685Y-84754704D01*
X115339836Y-84982767D01*
X115426819Y-85199231D01*
X115426821Y-85199235D01*
X115549138Y-85397891D01*
X115679319Y-85545806D01*
X115703270Y-85573019D01*
X115884776Y-85719576D01*
X115925101Y-85742103D01*
X115970217Y-85785343D01*
X115988515Y-85845094D01*
X115975350Y-85906182D01*
X115934064Y-85953092D01*
X115790912Y-86049846D01*
X115622483Y-86211272D01*
X115483760Y-86398838D01*
X115378730Y-86607152D01*
X115310417Y-86830219D01*
X115303008Y-86888070D01*
X115287381Y-87010113D01*
X115280784Y-87061627D01*
X110000500Y-87061627D01*
X110000500Y-71143775D01*
X115497467Y-71143775D01*
X115603208Y-71239612D01*
X115918888Y-71473737D01*
X116255978Y-71675781D01*
X116611270Y-71843822D01*
X116981303Y-71976222D01*
X117362541Y-72071716D01*
X117751302Y-72129384D01*
X118143845Y-72148669D01*
X118536387Y-72129384D01*
X118925148Y-72071716D01*
X119306386Y-71976222D01*
X119676419Y-71843822D01*
X120031711Y-71675781D01*
X120368801Y-71473737D01*
X120684476Y-71239616D01*
X120790221Y-71143774D01*
X118143845Y-68497398D01*
X115497467Y-71143774D01*
X115497467Y-71143775D01*
X110000500Y-71143775D01*
X110000500Y-68143844D01*
X114139020Y-68143844D01*
X114158305Y-68536387D01*
X114215973Y-68925148D01*
X114311467Y-69306386D01*
X114443867Y-69676419D01*
X114611908Y-70031711D01*
X114813952Y-70368801D01*
X115048077Y-70684481D01*
X115143913Y-70790221D01*
X115143914Y-70790221D01*
X117790292Y-68143846D01*
X118497398Y-68143846D01*
X121143774Y-70790221D01*
X121239616Y-70684476D01*
X121473737Y-70368801D01*
X121675781Y-70031711D01*
X121843822Y-69676419D01*
X121976222Y-69306386D01*
X122071716Y-68925148D01*
X122129384Y-68536387D01*
X122148669Y-68143844D01*
X122129384Y-67751302D01*
X122071716Y-67362541D01*
X121976222Y-66981303D01*
X121843822Y-66611270D01*
X121675781Y-66255978D01*
X121473737Y-65918888D01*
X121239612Y-65603208D01*
X121143775Y-65497467D01*
X121143774Y-65497467D01*
X118497398Y-68143845D01*
X118497398Y-68143846D01*
X117790292Y-68143846D01*
X117790292Y-68143845D01*
X115143914Y-65497467D01*
X115143913Y-65497467D01*
X115048077Y-65603208D01*
X114813952Y-65918888D01*
X114611908Y-66255978D01*
X114443867Y-66611270D01*
X114311467Y-66981303D01*
X114215973Y-67362541D01*
X114158305Y-67751302D01*
X114139020Y-68143844D01*
X110000500Y-68143844D01*
X110000500Y-65143914D01*
X115497467Y-65143914D01*
X118143845Y-67790292D01*
X118143846Y-67790292D01*
X120790221Y-65143914D01*
X120790221Y-65143913D01*
X120684481Y-65048077D01*
X120368801Y-64813952D01*
X120031711Y-64611908D01*
X119676419Y-64443867D01*
X119306386Y-64311467D01*
X118925148Y-64215973D01*
X118536387Y-64158305D01*
X118143845Y-64139020D01*
X117751302Y-64158305D01*
X117362541Y-64215973D01*
X116981303Y-64311467D01*
X116611270Y-64443867D01*
X116255978Y-64611908D01*
X115918888Y-64813952D01*
X115603208Y-65048077D01*
X115497467Y-65143913D01*
X115497467Y-65143914D01*
X110000500Y-65143914D01*
X110000500Y-61500000D01*
X133662501Y-61500000D01*
X133662501Y-61774979D01*
X133672993Y-61877695D01*
X133728142Y-62044122D01*
X133820183Y-62193345D01*
X133944154Y-62317316D01*
X134093377Y-62409357D01*
X134259803Y-62464506D01*
X134362521Y-62475000D01*
X134500000Y-62475000D01*
X134500000Y-61500000D01*
X133662501Y-61500000D01*
X110000500Y-61500000D01*
X110000500Y-60124500D01*
X110017113Y-60062500D01*
X110062500Y-60017113D01*
X110124500Y-60000500D01*
X133826976Y-60000500D01*
X133883271Y-60014015D01*
G37*
G04 #@! TD.AperFunction*
M02*
