G04 #@! TF.GenerationSoftware,KiCad,Pcbnew,7.0.1*
G04 #@! TF.CreationDate,2023-08-23T10:04:26+02:00*
G04 #@! TF.ProjectId,K_IO_brd,4b5f494f-5f62-4726-942e-6b696361645f,rev?*
G04 #@! TF.SameCoordinates,Original*
G04 #@! TF.FileFunction,Paste,Bot*
G04 #@! TF.FilePolarity,Positive*
%FSLAX46Y46*%
G04 Gerber Fmt 4.6, Leading zero omitted, Abs format (unit mm)*
G04 Created by KiCad (PCBNEW 7.0.1) date 2023-08-23 10:04:26*
%MOMM*%
%LPD*%
G01*
G04 APERTURE LIST*
G04 Aperture macros list*
%AMRoundRect*
0 Rectangle with rounded corners*
0 $1 Rounding radius*
0 $2 $3 $4 $5 $6 $7 $8 $9 X,Y pos of 4 corners*
0 Add a 4 corners polygon primitive as box body*
4,1,4,$2,$3,$4,$5,$6,$7,$8,$9,$2,$3,0*
0 Add four circle primitives for the rounded corners*
1,1,$1+$1,$2,$3*
1,1,$1+$1,$4,$5*
1,1,$1+$1,$6,$7*
1,1,$1+$1,$8,$9*
0 Add four rect primitives between the rounded corners*
20,1,$1+$1,$2,$3,$4,$5,0*
20,1,$1+$1,$4,$5,$6,$7,0*
20,1,$1+$1,$6,$7,$8,$9,0*
20,1,$1+$1,$8,$9,$2,$3,0*%
G04 Aperture macros list end*
%ADD10RoundRect,0.250000X0.337500X0.475000X-0.337500X0.475000X-0.337500X-0.475000X0.337500X-0.475000X0*%
%ADD11RoundRect,0.250000X-0.325000X-0.450000X0.325000X-0.450000X0.325000X0.450000X-0.325000X0.450000X0*%
%ADD12RoundRect,0.250000X0.325000X0.450000X-0.325000X0.450000X-0.325000X-0.450000X0.325000X-0.450000X0*%
%ADD13RoundRect,0.250000X-0.337500X-0.475000X0.337500X-0.475000X0.337500X0.475000X-0.337500X0.475000X0*%
%ADD14RoundRect,0.250000X0.450000X-0.325000X0.450000X0.325000X-0.450000X0.325000X-0.450000X-0.325000X0*%
%ADD15RoundRect,0.249999X0.737501X2.450001X-0.737501X2.450001X-0.737501X-2.450001X0.737501X-2.450001X0*%
%ADD16RoundRect,0.250000X-0.475000X0.337500X-0.475000X-0.337500X0.475000X-0.337500X0.475000X0.337500X0*%
%ADD17RoundRect,0.250000X0.475000X-0.337500X0.475000X0.337500X-0.475000X0.337500X-0.475000X-0.337500X0*%
%ADD18RoundRect,0.250000X-0.450000X0.325000X-0.450000X-0.325000X0.450000X-0.325000X0.450000X0.325000X0*%
%ADD19RoundRect,0.250000X1.400000X1.000000X-1.400000X1.000000X-1.400000X-1.000000X1.400000X-1.000000X0*%
G04 APERTURE END LIST*
D10*
X114537500Y-87000000D03*
X112462500Y-87000000D03*
D11*
X112012500Y-133500000D03*
X114062500Y-133500000D03*
D12*
X121525000Y-84500000D03*
X119475000Y-84500000D03*
D13*
X141462500Y-77000000D03*
X143537500Y-77000000D03*
D14*
X154462500Y-70525000D03*
X154462500Y-68475000D03*
D10*
X114075000Y-126000000D03*
X112000000Y-126000000D03*
D15*
X160275000Y-148000000D03*
X155000000Y-148000000D03*
D10*
X114537500Y-84500000D03*
X112462500Y-84500000D03*
D13*
X143962500Y-73000000D03*
X146037500Y-73000000D03*
D10*
X132037500Y-71000000D03*
X129962500Y-71000000D03*
X121537500Y-89500000D03*
X119462500Y-89500000D03*
X114075000Y-98000000D03*
X112000000Y-98000000D03*
D16*
X173500000Y-156462500D03*
X173500000Y-158537500D03*
D12*
X121562500Y-112000000D03*
X119512500Y-112000000D03*
D10*
X121575000Y-109500000D03*
X119500000Y-109500000D03*
X121537500Y-82000000D03*
X119462500Y-82000000D03*
D13*
X143962500Y-71000000D03*
X146037500Y-71000000D03*
D10*
X135037500Y-77500000D03*
X132962500Y-77500000D03*
X121575000Y-124000000D03*
X119500000Y-124000000D03*
D17*
X134500000Y-64037500D03*
X134500000Y-61962500D03*
X157000000Y-130037500D03*
X157000000Y-127962500D03*
D12*
X121562500Y-114500000D03*
X119512500Y-114500000D03*
D10*
X114075000Y-128500000D03*
X112000000Y-128500000D03*
D12*
X129025000Y-65500000D03*
X126975000Y-65500000D03*
D10*
X121075000Y-95500000D03*
X119000000Y-95500000D03*
X114075000Y-114500000D03*
X112000000Y-114500000D03*
X121075000Y-103000000D03*
X119000000Y-103000000D03*
D14*
X137000000Y-77025000D03*
X137000000Y-74975000D03*
D16*
X186000000Y-149462500D03*
X186000000Y-151537500D03*
D10*
X121575000Y-117000000D03*
X119500000Y-117000000D03*
D13*
X141462500Y-75000000D03*
X143537500Y-75000000D03*
D18*
X147000000Y-64975000D03*
X147000000Y-67025000D03*
D15*
X169637500Y-127000000D03*
X164362500Y-127000000D03*
D16*
X125000000Y-69962500D03*
X125000000Y-72037500D03*
D12*
X121062500Y-100500000D03*
X119012500Y-100500000D03*
X121062500Y-98000000D03*
X119012500Y-98000000D03*
D17*
X127000000Y-63537500D03*
X127000000Y-61462500D03*
D14*
X142000000Y-73000000D03*
X142000000Y-70950000D03*
X151462500Y-70525000D03*
X151462500Y-68475000D03*
D10*
X114075000Y-112000000D03*
X112000000Y-112000000D03*
X114075000Y-100500000D03*
X112000000Y-100500000D03*
X135075000Y-75000000D03*
X133000000Y-75000000D03*
D13*
X150712500Y-154000000D03*
X152787500Y-154000000D03*
D18*
X183500000Y-149475000D03*
X183500000Y-151525000D03*
D12*
X121525000Y-87000000D03*
X119475000Y-87000000D03*
D18*
X144500000Y-64950000D03*
X144500000Y-67000000D03*
D14*
X171000000Y-158500000D03*
X171000000Y-156450000D03*
D11*
X112012500Y-105500000D03*
X114062500Y-105500000D03*
D18*
X173500000Y-149475000D03*
X173500000Y-151525000D03*
D10*
X132037500Y-73000000D03*
X129962500Y-73000000D03*
D14*
X134500000Y-72525000D03*
X134500000Y-70475000D03*
D17*
X149462500Y-70500000D03*
X149462500Y-68425000D03*
D14*
X139500000Y-77025000D03*
X139500000Y-74975000D03*
D12*
X121562500Y-126000000D03*
X119512500Y-126000000D03*
D10*
X121575000Y-131000000D03*
X119500000Y-131000000D03*
D16*
X127500000Y-69962500D03*
X127500000Y-72037500D03*
D13*
X156425000Y-70500000D03*
X158500000Y-70500000D03*
D16*
X171000000Y-149462500D03*
X171000000Y-151537500D03*
D12*
X129525000Y-67500000D03*
X127475000Y-67500000D03*
D13*
X112000000Y-103000000D03*
X114075000Y-103000000D03*
D16*
X183500000Y-156462500D03*
X183500000Y-158537500D03*
D19*
X131000000Y-127600000D03*
X131000000Y-134400000D03*
D13*
X156425000Y-68500000D03*
X158500000Y-68500000D03*
D12*
X121562500Y-128500000D03*
X119512500Y-128500000D03*
D13*
X112000000Y-131000000D03*
X114075000Y-131000000D03*
M02*
