M48
; DRILL file {KiCad 7.0.1} date Wed Aug 23 10:04:29 2023
; FORMAT={-:-/ absolute / metric / decimal}
; #@! TF.CreationDate,2023-08-23T10:04:29+02:00
; #@! TF.GenerationSoftware,Kicad,Pcbnew,7.0.1
; #@! TF.FileFunction,Plated,1,2,PTH
FMAT,2
METRIC
; #@! TA.AperFunction,Plated,PTH,ViaDrill
T1C0.400
; #@! TA.AperFunction,Plated,PTH,ComponentDrill
T2C0.500
; #@! TA.AperFunction,Plated,PTH,ComponentDrill
T3C1.000
; #@! TA.AperFunction,Plated,PTH,ComponentDrill
T4C1.190
; #@! TA.AperFunction,Plated,PTH,ComponentDrill
T5C2.700
; #@! TA.AperFunction,Plated,PTH,ComponentDrill
T6C3.500
%
G90
G05
T1
X115.0Y-75.0
X120.0Y-75.0
X120.0Y-135.0
X125.0Y-75.0
X125.0Y-135.0
X125.0Y-140.0
X125.0Y-145.0
X125.0Y-150.0
X125.0Y-155.0
X125.5Y-65.5
X125.5Y-92.97
X125.5Y-101.5
X126.0Y-67.5
X127.0Y-90.0
X127.0Y-130.0
X127.0Y-143.0
X128.5Y-140.5
X128.945Y-91.77
X129.0Y-115.0
X132.5Y-110.0
X133.5Y-108.5
X134.025Y-73.0
X135.0Y-107.25
X135.0Y-115.0
X136.514Y-106.05
X136.93Y-76.992
X138.014Y-79.0
X138.014Y-104.851
X139.5Y-103.5
X140.0Y-115.0
X143.0Y-73.0
X144.5Y-68.5
X144.5Y-112.75
X145.0Y-115.0
X146.0Y-151.0
X147.0Y-68.5
X147.0Y-111.05
X147.5Y-149.0
X150.0Y-62.5
X150.0Y-80.5
X150.0Y-102.0
X150.0Y-115.0
X155.0Y-62.5
X155.0Y-102.0
X155.0Y-115.0
X155.0Y-134.0
X155.0Y-136.0
X155.0Y-138.0
X155.463Y-70.5
X155.5Y-94.5
X157.0Y-134.0
X157.0Y-136.0
X157.0Y-138.0
X159.0Y-134.0
X159.0Y-136.0
X159.0Y-138.0
X160.0Y-62.5
X160.0Y-80.0
X160.0Y-102.0
X160.0Y-115.0
X165.0Y-62.5
X165.0Y-80.0
X165.0Y-102.0
X165.0Y-115.0
X170.0Y-62.5
X170.0Y-80.0
X170.0Y-102.0
X170.0Y-115.0
X175.0Y-62.5
X175.0Y-101.5
X175.0Y-120.0
X177.0Y-83.75
X178.84Y-101.5
X180.0Y-62.5
X180.0Y-125.0
X181.25Y-82.25
X183.0Y-85.25
X184.0Y-104.5
X184.0Y-147.0
X185.0Y-62.5
X185.0Y-130.0
X186.5Y-85.25
X187.5Y-86.75
X189.0Y-107.75
X190.0Y-62.5
X195.0Y-75.0
X195.0Y-135.0
X195.0Y-140.0
X195.0Y-145.0
X195.0Y-150.0
X195.0Y-155.0
X197.5Y-93.5
X198.25Y-127.25
X199.0Y-91.5
X199.0Y-113.75
X199.5Y-128.5
X200.0Y-75.0
X200.0Y-135.0
X200.5Y-90.5
X200.75Y-129.75
X201.0Y-112.5
X201.0Y-115.25
X201.5Y-85.25
X202.0Y-131.5
X203.2Y-88.0
X204.75Y-83.75
X205.0Y-75.0
X205.0Y-135.0
X206.0Y-125.0
X206.25Y-82.25
T2
X115.519Y-68.144
X115.519Y-153.144
X116.288Y-66.288
X116.288Y-70.0
X116.288Y-151.288
X116.288Y-155.0
X118.144Y-65.519
X118.144Y-70.769
X118.144Y-150.519
X118.144Y-155.769
X120.0Y-66.288
X120.0Y-70.0
X120.0Y-151.288
X120.0Y-155.0
X120.769Y-68.144
X120.769Y-153.144
X200.519Y-68.144
X200.519Y-153.144
X201.288Y-66.288
X201.288Y-70.0
X201.288Y-151.288
X201.288Y-155.0
X203.144Y-65.519
X203.144Y-70.769
X203.144Y-150.519
X203.144Y-155.769
X205.0Y-66.288
X205.0Y-70.0
X205.0Y-151.288
X205.0Y-155.0
X205.769Y-68.144
X205.769Y-153.144
T3
X131.84Y-66.0
X131.84Y-68.54
X131.84Y-138.0
X131.84Y-140.54
X131.84Y-151.0
X131.84Y-153.54
X134.38Y-66.0
X134.38Y-68.54
X134.38Y-138.0
X134.38Y-140.54
X134.38Y-151.0
X134.38Y-153.54
X136.92Y-66.0
X136.92Y-68.54
X136.92Y-138.0
X136.92Y-140.54
X136.92Y-151.0
X136.92Y-153.54
X139.46Y-66.0
X139.46Y-68.54
X139.46Y-138.0
X139.46Y-140.54
X139.46Y-151.0
X139.46Y-153.54
X142.0Y-66.0
X142.0Y-68.54
X142.0Y-138.0
X142.0Y-140.54
X142.0Y-151.0
X142.0Y-153.54
X178.84Y-66.0
X178.84Y-68.54
X181.38Y-66.0
X181.38Y-68.54
X183.92Y-66.0
X183.92Y-68.54
X186.46Y-66.0
X186.46Y-68.54
X189.0Y-66.0
X189.0Y-68.54
X192.46Y-94.52
X192.46Y-97.06
X192.46Y-99.6
X192.46Y-102.14
X192.46Y-104.68
X192.46Y-107.22
X192.46Y-109.76
X192.46Y-112.3
X192.46Y-114.84
X192.46Y-117.38
X192.46Y-119.92
X192.46Y-122.46
X192.46Y-125.0
X195.0Y-94.52
X195.0Y-97.06
X195.0Y-99.6
X195.0Y-102.14
X195.0Y-104.68
X195.0Y-107.22
X195.0Y-109.76
X195.0Y-112.3
X195.0Y-114.84
X195.0Y-117.38
X195.0Y-119.92
X195.0Y-122.46
X195.0Y-125.0
T4
X116.417Y-95.54
X116.417Y-98.08
X116.417Y-100.62
X116.417Y-103.16
X116.88Y-82.04
X116.88Y-84.58
X116.88Y-87.12
X116.88Y-89.66
X116.897Y-123.54
X116.897Y-126.08
X116.897Y-128.62
X116.897Y-131.16
X116.917Y-109.54
X116.917Y-112.08
X116.917Y-114.62
X116.917Y-117.16
X145.0Y-123.0
X145.0Y-125.54
X145.0Y-128.08
X151.843Y-66.0
X154.382Y-66.0
X154.94Y-153.98
X156.922Y-66.0
X157.0Y-123.25
X157.0Y-125.79
X157.48Y-153.98
X159.463Y-66.0
X160.02Y-153.98
X162.56Y-153.98
X165.46Y-66.0
X168.0Y-66.0
X170.54Y-66.0
X170.96Y-154.0
X173.5Y-154.0
X178.5Y-154.0
X181.04Y-154.0
X183.58Y-154.0
T5
X136.0Y-122.5
X136.0Y-127.5
X173.0Y-137.0
X173.0Y-142.0
X184.0Y-137.0
X184.0Y-142.0
T6
X118.144Y-68.144
X118.144Y-153.144
X203.144Y-68.144
X203.144Y-153.144
T0
M30
